<?xml version="1.0" encoding="utf-8"?>
<!-- Generator: Adobe Illustrator 26.2.0, SVG Export Plug-In . SVG Version: 6.00 Build 0)  -->
<svg version="1.1" id="Layer_1" xmlns="http://www.w3.org/2000/svg" xmlns:xlink="http://www.w3.org/1999/xlink" x="0px" y="0px"
	 viewBox="0 0 27 25" style="enable-background:new 0 0 27 25;" xml:space="preserve">
<style type="text/css">
	.st0{fill:#006970;}
</style>
<path class="st0" d="M21.5,1.6c0.2,0,0.4,0.1,0.5,0.2c0.1,0.1,0.2,0.3,0.2,0.5v4.1h4.1c0.2,0,0.4,0.1,0.5,0.2C26.9,6.8,27,7,27,7.1
	s-0.1,0.4-0.2,0.5c-0.1,0.1-0.3,0.2-0.5,0.2h-4.1V12c0,0.2-0.1,0.4-0.2,0.5c-0.1,0.1-0.3,0.2-0.5,0.2s-0.4-0.1-0.5-0.2
	c-0.1-0.1-0.2-0.3-0.2-0.5V7.8h-4.1c-0.2,0-0.4-0.1-0.5-0.2C16.1,7.5,16,7.3,16,7.1s0.1-0.4,0.2-0.5c0.1-0.1,0.3-0.2,0.5-0.2h4.1
	V2.3c0-0.2,0.1-0.4,0.2-0.5C21.1,1.7,21.3,1.6,21.5,1.6L21.5,1.6z"/>
<path class="st0" d="M13.1,23.4H2.5c-1.4,0-2.5-1.1-2.5-2.5v-6.2C0,14.3,0.3,14,0.7,14s0.7,0.3,0.7,0.7v6.2c0,0.6,0.5,1.1,1.1,1.1
	h10.7c0.6,0,1.1-0.5,1.1-1.1v-8.3c0-0.3-0.1-0.6-0.3-0.8L8.6,6.6C8.3,6.4,8.1,6.3,7.8,6.3c-0.3,0-0.5,0.1-0.8,0.3l-5.3,5.2
	c-0.2,0.2-0.3,0.5-0.3,0.8c0,0.4-0.3,0.7-0.7,0.7S0,13,0,12.6v0c0-0.7,0.3-1.3,0.8-1.8l5.3-5.2c0.5-0.5,1.1-0.7,1.7-0.7
	S9,5.1,9.5,5.6l5.3,5.2c0.5,0.5,0.8,1.1,0.8,1.8v8.3C15.6,22.2,14.5,23.4,13.1,23.4L13.1,23.4z"/>
</svg>
