<?xml version="1.0" encoding="utf-8"?>
<!-- Generator: Adobe Illustrator 26.2.0, SVG Export Plug-In . SVG Version: 6.00 Build 0)  -->
<svg version="1.1" id="Layer_1" xmlns="http://www.w3.org/2000/svg" xmlns:xlink="http://www.w3.org/1999/xlink" x="0px" y="0px"
	 viewBox="0 0 41 48" style="enable-background:new 0 0 41 48;" xml:space="preserve">
<style type="text/css">
	.st0{fill:#006970;}
</style>
<path class="st0" d="M31.2,42H10.8C8.1,42,6,39.8,6,37.2v-12c0-0.8,0.6-1.4,1.3-1.4c0.7,0,1.3,0.6,1.3,1.4v12c0,1.2,0.9,2.1,2.1,2.1
	h20.5c1.1,0,2.1-0.9,2.1-2.1V20.9c0-0.6-0.2-1.1-0.6-1.5L22.4,9.3C22,8.9,21.5,8.7,21,8.7c-0.5,0-1,0.2-1.4,0.6L9.3,19.4
	c-0.4,0.4-0.6,0.9-0.6,1.5c0,0.8-0.6,1.4-1.3,1.4S6,21.7,6,21v-0.1c0-1.3,0.5-2.6,1.4-3.5L17.7,7.4C18.6,6.5,19.8,6,21,6
	s2.4,0.5,3.3,1.4l10.2,10.1c0.9,0.9,1.4,2.2,1.4,3.5v16.3C36,39.8,33.9,42,31.2,42L31.2,42z"/>
<path class="st0" d="M28.8,34.6c0-5.1-3.5-9.2-7.8-9.2c-4.3,0-7.8,4.1-7.8,9.2H28.8L28.8,34.6z"/>
<path class="st0" d="M21,24.5c2.6,0,4.7-2.1,4.7-4.8s-2.1-4.8-4.7-4.8c-2.6,0-4.7,2.1-4.7,4.8S18.4,24.5,21,24.5z"/>
</svg>
