<?xml version="1.0" encoding="utf-8"?>
<!-- Generator: Adobe Illustrator 26.2.0, SVG Export Plug-In . SVG Version: 6.00 Build 0)  -->
<svg version="1.1" id="Layer_1" xmlns="http://www.w3.org/2000/svg" xmlns:xlink="http://www.w3.org/1999/xlink" x="0px" y="0px"
	 viewBox="0 0 32 32" style="enable-background:new 0 0 32 32;" xml:space="preserve">
<style type="text/css">
	.st0{fill-rule:evenodd;clip-rule:evenodd;fill:#006970;}
</style>
<path class="st0" d="M28.4,24.9V7.1c2,0,3.6-1.6,3.6-3.6S30.4,0,28.4,0c-2,0-3.6,1.6-3.6,3.6H7.1c0-2-1.6-3.6-3.6-3.6S0,1.6,0,3.6
	c0,2,1.6,3.6,3.6,3.6v17.8c-2,0-3.6,1.6-3.6,3.6S1.6,32,3.6,32s3.6-1.6,3.6-3.6h17.8c0,2,1.6,3.6,3.6,3.6c2,0,3.6-1.6,3.6-3.6
	C32,26.5,30.4,24.9,28.4,24.9z M5.3,6.6c0.5-0.3,1-0.8,1.3-1.3h4l-5.3,5.3V6.6z M5.3,12.4l7.1-7.1H16L5.3,16V12.4z M5.3,17.8
	L17.8,5.3h3.6l-16,16V17.8z M6.1,25.9c-0.2-0.2-0.5-0.4-0.7-0.6v-2.3L23.1,5.3h2.3c0.2,0.3,0.3,0.5,0.6,0.7L6.1,25.9z M26.7,25.4
	c-0.5,0.3-1,0.8-1.3,1.3h-2.3l3.6-3.6L26.7,25.4L26.7,25.4z M26.7,21.3l-5.3,5.3h-3.6l8.9-8.9V21.3z M26.7,16L16,26.7h-3.6
	l14.2-14.2V16z M26.7,10.7l-16,16H7.1L26.7,7.1V10.7L26.7,10.7z"/>
</svg>
