<svg width="31" height="38" viewBox="0 0 31 38" fill="none" xmlns="http://www.w3.org/2000/svg">
<path d="M12.1667 4.0013H3.83333C2 4.0013 0.5 5.5013 0.5 7.33463V30.668C0.5 32.5013 2 34.0013 3.83333 34.0013H12.1667V35.668C12.1667 36.5846 12.9167 37.3346 13.8333 37.3346C14.75 37.3346 15.5 36.5846 15.5 35.668V2.33464C15.5 1.41797 14.75 0.667969 13.8333 0.667969C12.9167 0.667969 12.1667 1.41797 12.1667 2.33464V4.0013ZM12.1667 29.0013H3.83333L12.1667 19.0013V29.0013ZM27.1667 4.0013H18.8333V7.33463H25.5C26.4167 7.33463 27.1667 8.08463 27.1667 9.0013V29.0013L18.8333 19.0013V34.0013H27.1667C29 34.0013 30.5 32.5013 30.5 30.668V7.33463C30.5 5.5013 29 4.0013 27.1667 4.0013Z" fill="#006970"/>
</svg>


