<svg width="36" height="39" viewBox="0 0 36 39" fill="none" xmlns="http://www.w3.org/2000/svg">
<path d="M16.4955 11.291H19.4951V26.2887H16.4955V11.291ZM9.25164 14.5455L11.3813 16.6752C10.1686 17.6513 9.19011 18.8869 8.51788 20.291C7.84566 21.6952 7.49678 23.2322 7.49691 24.7889C7.49691 27.5733 8.60298 30.2436 10.5718 32.2124C12.5406 34.1812 15.2109 35.2873 17.9953 35.2873C20.1621 35.2886 22.2762 34.6189 24.0471 33.3703C25.818 32.1216 27.1587 30.3552 27.8852 28.3138C28.6117 26.2724 28.6883 24.0561 28.1044 21.9694C27.5205 19.8828 26.3048 18.0281 24.6243 16.6602L26.7389 14.5455C28.0903 15.6936 29.2023 17.0966 30.0113 18.6745C30.8203 20.2523 31.3106 21.9741 31.454 23.7415C31.5975 25.5089 31.3913 27.2872 30.8474 28.9749C30.3034 30.6626 29.4323 32.2266 28.2837 33.5776C23.4544 39.2467 14.9358 39.9366 9.25164 35.1073C7.75708 33.8361 6.55751 32.2545 5.73645 30.4725C4.91538 28.6905 4.49255 26.751 4.49737 24.7889C4.49737 20.8445 6.2371 17.0951 9.25164 14.5455Z" fill="black"/>
<path d="M26.8596 3.22852H30.8506L26.8596 7.88463H30.8506" stroke="black" stroke-width="1.33032" stroke-linecap="round" stroke-linejoin="round"/>
<path d="M22.2073 8.87891H25.2163L22.2073 12.2047H25.5331" stroke="black" stroke-width="1.33032" stroke-linecap="round" stroke-linejoin="round"/>
</svg>
