<svg width="42" height="29" viewBox="0 0 42 29" fill="none" xmlns="http://www.w3.org/2000/svg">
<g clip-path="url(#clip0_7160_97102)">
<path d="M26.07 17.58C22.52 18.55 15.52 20.51 14.69 21.06C13.57 21.8 11.7 23.84 13.55 26.64C15.4 29.44 18.01 28.52 19.13 27.78C20.11 27.13 23.57 22.6 26.77 18.66C27.18 18.15 26.71 17.4 26.07 17.58ZM17.65 25.54C17.03 25.95 16.2 25.78 15.79 25.16C15.38 24.54 15.55 23.71 16.17 23.3C16.79 22.89 17.62 23.06 18.03 23.68C18.44 24.3 18.27 25.13 17.65 25.54Z" fill="black"/>
<path d="M41.3099 15.7602L36.5099 20.0802C35.8599 20.6702 34.7799 20.2702 34.5599 19.4302C33.7699 16.4702 31.9499 13.2202 29.0299 10.7402C28.5799 10.3602 28.4699 9.69021 28.8199 9.21021L32.3399 4.40021C32.6799 3.94021 33.3099 3.82021 33.7699 4.15021C38.4299 7.38021 41.3599 11.8402 41.6399 14.9702C41.6699 15.2702 41.5299 15.5602 41.3099 15.7702V15.7602Z" fill="black"/>
<path d="M24.2099 7.9C22.9799 7.43 21.6399 7.08 20.1799 6.89C19.8599 6.85 19.5399 6.81 19.2099 6.79C18.6299 6.74 18.1699 6.27 18.1699 5.69V1.11C18.1699 0.56 18.5799 0.1 19.1299 0.06C19.6899 0.02 20.2699 0 20.8499 0C23.5999 0 26.1699 0.52 28.5099 1.39C29.0899 1.61 29.3399 2.29 29.0599 2.84L26.5499 7.75C26.2799 8.28 25.6199 8.49 25.0699 8.24C24.7899 8.12 24.4999 8 24.2099 7.89V7.9Z" fill="black"/>
<path d="M4.08005 12.6402C3.25005 13.5102 2.51005 14.4202 1.86005 15.3402C1.15005 16.3402 -0.349953 15.8802 0.0800471 14.7302C0.590047 13.3902 1.24005 12.0202 2.05005 10.6802C2.43005 10.0402 3.33005 10.0302 3.77005 10.6302L4.20005 11.2202C4.52005 11.6602 4.46005 12.2602 4.09005 12.6502L4.08005 12.6402Z" fill="black"/>
<path d="M10.1099 8.28994C9.41989 8.59994 8.76989 8.94994 8.13989 9.33994C7.54989 9.69994 6.76989 9.47994 6.49989 8.84994L5.69989 6.97994C5.52989 6.57994 5.60989 6.10994 5.92989 5.80994C6.78989 4.98994 7.73989 4.21994 8.76989 3.52994C9.82989 2.81994 10.9799 2.19994 12.2199 1.66994C12.8499 1.39994 13.5499 1.83994 13.6299 2.51994L14.0299 6.01994C14.0899 6.57994 13.7099 7.09994 13.1599 7.22994C12.0799 7.49994 11.0699 7.84994 10.1099 8.28994Z" fill="black"/>
</g>
<defs>
<clipPath id="clip0_7160_97102">
<rect width="41.64" height="28.54" fill="white"/>
</clipPath>
</defs>
</svg>
