<svg width="41" height="40" viewBox="0 0 41 40" fill="none" xmlns="http://www.w3.org/2000/svg">
<g clip-path="url(#clip0_6108_81893)">
<path d="M22.94 0H7.97999C5.91599 0 4.24399 1.672 4.24399 3.744V33.664C4.24399 35.728 5.91599 37.408 7.98799 37.408H21.076C20.308 36.944 19.58 36.36 18.948 35.728C18.332 35.112 17.804 34.416 17.34 33.672H7.97999V3.752H21.068V13.104H30.42V15.312C31.748 15.608 33.02 16.12 34.164 16.848V11.24L22.94 0ZM34.74 31.6C37.228 27.656 36.028 22.44 32.124 19.968C28.18 17.48 22.94 18.696 20.492 22.584C17.988 26.528 19.204 31.728 23.108 34.216C25.836 35.952 29.316 35.952 32.068 34.256L37.9 40L40.5 37.4L34.74 31.6ZM27.612 31.792C25.028 31.792 22.94 29.696 22.94 27.12C22.94 24.544 25.036 22.448 27.612 22.448C30.188 22.448 32.284 24.544 32.284 27.12C32.284 29.696 30.196 31.792 27.612 31.792Z" fill="#006970"/>
<path d="M13.628 20.5703H9.88397V31.7943H13.628V20.5703Z" fill="#006970"/>
<path d="M21.1 16.832H17.364V20.552C18.324 19.056 19.604 17.784 21.1 16.832Z" fill="#006970"/>
</g>
<defs>
<clipPath id="clip0_6108_81893">
<rect width="40" height="40" fill="white" transform="translate(0.5)"/>
</clipPath>
</defs>
</svg>
