<?xml version="1.0" encoding="utf-8"?>
<!-- Generator: Adobe Illustrator 27.1.1, SVG Export Plug-In . SVG Version: 6.00 Build 0)  -->
<svg version="1.1" id="Layer_1" xmlns="http://www.w3.org/2000/svg" xmlns:xlink="http://www.w3.org/1999/xlink" x="0px" y="0px"
	 viewBox="0 0 500 500" style="enable-background:new 0 0 500 500;" xml:space="preserve">
<style type="text/css">
	.st0{clip-path:url(#SVGID_00000100374212627355597170000011355041177131329456_);}
</style>
<g>
	<defs>
		<rect id="SVGID_1_" x="13.2" width="473.7" height="500"/>
	</defs>
	<clipPath id="SVGID_00000181089553143784321660000017841944614293906357_">
		<use xlink:href="#SVGID_1_"  style="overflow:visible;"/>
	</clipPath>
	<g style="clip-path:url(#SVGID_00000181089553143784321660000017841944614293906357_);">
		<path d="M207.7,386.4c0-83.6,67.9-152.3,153.8-158.4v-19.8c0-75.2-42.2-138-115.5-154.8V36.8c0-20.2-17.1-36.8-38.6-36.8
			c-21.4,0-38.6,16.4-38.6,36.8v16.6C95.6,70,53.9,132.7,53.9,208v122.3l-33.1,31.6c-16.2,15.5-4.8,41.8,17.9,41.8h170
			c-0.7-5.7-1-11.6-1-17.5V386.4z"/>
		<path d="M213.7,428.4h-57.4c0,26.8,22.9,48.9,51.2,48.9c9.3,0,17.9-2.5,25.5-6.8c-8.6-13-15-27-19.3-42.3V428.4z"/>
	</g>
</g>
<path d="M376.3,425.9c-22,0-39.8-17.8-39.8-39.8c0-22,17.8-39.8,39.8-39.8c22,0,39.8,17.8,39.8,39.8
	C416.1,408.1,398.3,425.9,376.3,425.9 M460.8,397.2c0.5-3.6,0.8-7.3,0.8-11s-0.3-7.5-0.8-11.4l24-18.5c2.2-1.7,2.7-4.8,1.4-7.3
	l-22.7-39.3c-1.4-2.5-4.4-3.5-6.9-2.5l-28.3,11.4c-5.9-4.4-12-8.3-19.2-11.1l-4.2-30.1c-0.5-2.7-2.8-4.8-5.7-4.8h-45.5
	c-2.8,0-5.2,2-5.7,4.8l-4.2,30.1c-7.2,2.8-13.3,6.7-19.2,11.1l-28.3-11.4c-2.5-1-5.6,0-6.9,2.5L266.6,349c-1.5,2.5-0.8,5.6,1.4,7.3
	l24,18.5c-0.5,3.9-0.8,7.6-0.8,11.4s0.3,7.4,0.8,11l-24,18.9c-2.2,1.7-2.8,4.8-1.4,7.3l22.7,39.3c1.4,2.5,4.4,3.4,6.9,2.5l28.3-11.5
	c5.9,4.5,12,8.4,19.2,11.2l4.2,30.1c0.5,2.7,2.8,4.8,5.7,4.8h45.5c2.8,0,5.2-2,5.7-4.8l4.2-30.1c7.2-3,13.3-6.7,19.2-11.2l28.3,11.5
	c2.5,0.9,5.6,0,6.9-2.5l22.7-39.3c1.4-2.5,0.8-5.6-1.4-7.3L460.8,397.2z"/>
</svg>
