<svg width="20" height="20" viewBox="0 0 32 32" xmlns="http://www.w3.org/2000/svg">
<g clip-path="url(#clip0_951_19162)">
<path d="M14.9959 5C15.0585 5.00038 15.1211 5.00077 15.1856 5.00116C15.2499 5.00098 15.3142 5.0008 15.3804 5.00061C15.5165 5.00048 15.6525 5.00083 15.7886 5.00162C15.9972 5.00263 16.2057 5.00163 16.4143 5.00042C16.5463 5.00055 16.6784 5.00079 16.8104 5.00116C16.873 5.00078 16.9356 5.00039 17.0001 5C17.4416 5.00453 17.4416 5.00453 17.6336 5.21534C17.672 5.42679 17.7012 5.64029 17.7257 5.8542C17.7368 5.94822 17.7368 5.94822 17.7482 6.04415C17.7716 6.24441 17.7941 6.44479 17.8165 6.6452C17.8323 6.78098 17.8481 6.91676 17.8639 7.05252C17.9027 7.38538 17.9406 7.71837 17.9779 8.05143C18.0329 8.07211 18.0878 8.0928 18.1444 8.11412C18.7171 8.32989 19.2897 8.54622 19.8621 8.76287C20.0756 8.84361 20.2892 8.9242 20.5029 9.00466C20.8103 9.12045 21.1175 9.23675 21.4247 9.35314C21.52 9.3889 21.6152 9.42466 21.7133 9.4615C22.6225 9.80702 22.6225 9.80702 22.9709 10.0367C23.0623 10.273 23.0623 10.273 23.057 10.5094C22.9555 10.6639 22.9555 10.6639 22.7987 10.793C22.5944 10.8271 22.5944 10.8271 22.3506 10.8252C22.2592 10.8251 22.1679 10.8251 22.0738 10.8251C21.9261 10.8229 21.9261 10.8229 21.7754 10.8207C21.6745 10.8203 21.5736 10.8199 21.4697 10.8195C21.1469 10.8179 20.8241 10.8143 20.5013 10.8107C20.2827 10.8093 20.064 10.808 19.8454 10.8068C19.309 10.8037 18.7726 10.7988 18.2362 10.793C18.3214 11.3857 18.4066 11.9785 18.4945 12.5892C18.629 12.6411 18.7635 12.693 18.9021 12.7465C19.3515 12.9201 19.8009 13.0937 20.2503 13.2672C20.5222 13.3723 20.7941 13.4773 21.066 13.5823C21.5803 13.7808 22.0944 13.9795 22.6085 14.1787C22.924 14.3009 23.2397 14.4223 23.5559 14.5421C23.6132 14.564 23.6705 14.5859 23.7295 14.6085C23.8703 14.6623 24.0112 14.7155 24.1522 14.7688C24.3482 14.858 24.3482 14.858 24.5204 15.0471C24.5366 15.3366 24.5366 15.3366 24.5204 15.6143C24.4343 15.7088 24.4343 15.7088 24.2115 15.7202C24.1123 15.72 24.0131 15.7198 23.9109 15.7196C23.7429 15.7196 23.7429 15.7196 23.5714 15.7196C23.4483 15.7191 23.3251 15.7186 23.2019 15.7181C23.0766 15.7179 22.9512 15.7178 22.8259 15.7177C22.4954 15.7173 22.165 15.7164 21.8345 15.7153C21.4976 15.7144 21.1606 15.7139 20.8236 15.7135C20.162 15.7124 19.5004 15.7108 18.8388 15.7088C18.924 16.2704 19.0092 16.8319 19.097 17.4105C19.2755 17.4749 19.454 17.5393 19.6379 17.6056C20.2299 17.8191 20.822 18.0327 21.414 18.2463C21.7726 18.3757 22.1313 18.5051 22.49 18.6345C22.8366 18.7595 23.1832 18.8845 23.5299 19.0096C23.6616 19.0571 23.7934 19.1046 23.9251 19.1522C24.2235 19.2598 24.5219 19.3675 24.8202 19.4754C25.0062 19.5426 25.1923 19.6095 25.3785 19.6757C25.8885 19.8583 25.8885 19.8583 25.9839 19.963C26.0054 20.2407 26.0054 20.2407 25.9839 20.5302C25.6668 20.7623 25.5133 20.7422 25.1352 20.7407C25.0756 20.7408 25.0159 20.7408 24.9545 20.7408C24.7574 20.7407 24.5604 20.7392 24.3634 20.7377C24.2267 20.7374 24.09 20.7371 23.9534 20.7369C23.5938 20.7362 23.2342 20.7343 22.8746 20.7322C22.5076 20.7303 22.1406 20.7294 21.7736 20.7285C21.0536 20.7265 20.3336 20.7232 19.6136 20.7193C19.638 20.7822 19.6624 20.8451 19.6876 20.9099C19.9181 21.5038 20.1486 22.0977 20.3791 22.6916C20.4976 22.9969 20.6161 23.3022 20.7346 23.6075C20.871 23.9587 21.0073 24.31 21.1436 24.6613C21.186 24.7706 21.2284 24.8798 21.2721 24.9923C21.3118 25.0945 21.3514 25.1967 21.3922 25.3019C21.427 25.3916 21.4618 25.4812 21.4976 25.5736C21.5293 25.6563 21.5609 25.739 21.5935 25.8242C21.6257 25.9066 21.658 25.9891 21.6912 26.074C21.783 26.3487 21.7837 26.5738 21.7657 26.8641C21.6796 26.9586 21.6796 26.9586 21.4453 26.9836C21.1141 26.9543 20.9664 26.8593 20.694 26.6544C20.6067 26.5895 20.5194 26.5247 20.4295 26.4579C20.3396 26.3892 20.2496 26.3204 20.157 26.2496C20.0687 26.1838 19.9804 26.118 19.8895 26.0502C19.3811 25.6693 18.8818 25.2761 18.3851 24.8771C17.9846 24.5578 17.5785 24.2478 17.1709 23.9394C17.0884 23.876 17.006 23.8125 16.921 23.7472C16.8413 23.6869 16.7615 23.6267 16.6793 23.5646C16.6082 23.5105 16.5371 23.4564 16.4639 23.4006C16.2449 23.2647 16.0755 23.205 15.8258 23.1772C15.6322 23.2817 15.6322 23.2817 15.4438 23.4608C14.9609 23.87 14.464 24.2494 13.9588 24.6248C13.7932 24.7483 13.6275 24.8719 13.4618 24.9955C13.3812 25.0557 13.3005 25.1158 13.2174 25.1778C12.9445 25.3818 12.6723 25.5871 12.4004 25.793C12.2329 25.9197 12.0651 26.0459 11.8972 26.1721C11.7193 26.306 11.5439 26.4421 11.3692 26.5812C11.0724 26.8136 10.8983 26.9497 10.5316 27C10.3164 26.9586 10.3164 26.9586 10.2303 26.8641C10.2033 26.4455 10.2585 26.1544 10.4093 25.7714C10.4484 25.6707 10.4875 25.5701 10.5277 25.4664C10.5705 25.3592 10.6133 25.2519 10.6573 25.1414C10.7009 25.03 10.7444 24.9186 10.7893 24.8039C10.9047 24.5085 11.0213 24.2137 11.1381 23.919C11.2565 23.6198 11.3738 23.3201 11.4913 23.0204C11.6981 22.4928 11.9059 21.9656 12.1144 21.4388C12.207 21.2003 12.2956 20.9604 12.3824 20.7193C12.3064 20.7197 12.2304 20.7201 12.1521 20.7205C11.4364 20.7243 10.7207 20.7272 10.0051 20.7291C9.63709 20.73 9.26914 20.7314 8.90119 20.7335C8.5462 20.7356 8.19121 20.7367 7.83621 20.7372C7.70067 20.7375 7.56513 20.7382 7.42959 20.7392C7.23997 20.7406 7.05037 20.7408 6.86075 20.7407C6.75274 20.7411 6.64473 20.7416 6.53345 20.742C6.27036 20.7193 6.27036 20.7193 6.01211 20.5302C5.99596 20.2348 5.99596 20.2348 6.01211 19.963C6.75211 19.6186 7.51182 19.3456 8.2752 19.0723C8.40908 19.0241 8.54296 18.9759 8.67682 18.9276C9.02629 18.8018 9.37587 18.6763 9.72547 18.5509C10.0834 18.4225 10.4411 18.2937 10.7989 18.1649C11.4988 17.9131 12.1988 17.6617 12.8989 17.4105C12.926 17.251 12.9528 17.0915 12.9796 16.9319C12.9946 16.8431 13.0096 16.7542 13.025 16.6627C13.075 16.3455 13.1169 16.0277 13.1572 15.7088C13.0873 15.7091 13.0174 15.7093 12.9453 15.7095C12.2879 15.7114 11.6304 15.7128 10.9729 15.7137C10.6349 15.7142 10.2968 15.7149 9.9588 15.716C9.63283 15.717 9.30687 15.7176 8.9809 15.7178C8.85627 15.718 8.73164 15.7183 8.60701 15.7188C8.43303 15.7195 8.25905 15.7196 8.08506 15.7196C7.93624 15.7199 7.93624 15.7199 7.78442 15.7202C7.56164 15.7088 7.56164 15.7088 7.47555 15.6143C7.44327 15.3425 7.44327 15.3425 7.47555 15.0471C7.75445 14.8276 8.044 14.6958 8.36654 14.5724C8.50151 14.5203 8.50151 14.5203 8.63921 14.4672C8.7357 14.4306 8.83219 14.3939 8.9316 14.3562C9.03193 14.3176 9.13225 14.279 9.23562 14.2393C9.50205 14.137 9.76861 14.0351 10.0353 13.9334C10.4086 13.7909 10.7817 13.6475 11.1548 13.5043C11.353 13.4283 11.5513 13.3524 11.7496 13.2767C12.3354 13.0528 12.919 12.8233 13.5015 12.5892C13.5867 11.9964 13.672 11.4037 13.7598 10.793C13.5499 10.7945 13.5499 10.7945 13.3358 10.796C12.8182 10.7994 12.3007 10.8016 11.7831 10.8034C11.5588 10.8043 11.3345 10.8056 11.1103 10.8072C10.7885 10.8095 10.4667 10.8106 10.1449 10.8114C9.99367 10.8129 9.99367 10.8129 9.83943 10.8144C9.69985 10.8144 9.69985 10.8144 9.55744 10.8144C9.47524 10.8149 9.39304 10.8153 9.30835 10.8157C9.11117 10.793 9.11117 10.793 8.939 10.6039C8.90134 10.3735 8.90134 10.3735 8.939 10.1312C9.22447 9.91143 9.51718 9.77616 9.84502 9.65053C9.93805 9.61459 10.0311 9.57865 10.1269 9.54162C10.2761 9.48488 10.2761 9.48488 10.4283 9.427C10.5309 9.38753 10.6335 9.34807 10.7392 9.3074C11.0106 9.20306 11.2822 9.09916 11.5539 8.99549C11.8316 8.8894 12.1091 8.78271 12.3866 8.67606C12.9302 8.4673 13.4741 8.25914 14.018 8.05143C14.0276 7.9665 14.0371 7.88158 14.0469 7.79408C14.0826 7.47934 14.1189 7.1647 14.1557 6.85011C14.1715 6.71388 14.187 6.57761 14.2023 6.44131C14.2242 6.2455 14.2471 6.04985 14.2702 5.8542C14.2838 5.73637 14.2973 5.61855 14.3112 5.49715C14.3998 5.00895 14.5775 5.0043 14.9959 5ZM15.5676 5.8771C15.6812 6.09547 15.7948 6.31385 15.9119 6.53885C16.2056 6.43134 16.2664 6.34567 16.4284 6.06617C16.4284 6.00377 16.4284 5.94138 16.4284 5.8771C16.1443 5.8771 15.8602 5.8771 15.5676 5.8771ZM14.965 6.72792C14.9081 7.32066 14.8513 7.9134 14.7928 8.52411C14.9064 8.36812 15.0201 8.21214 15.1371 8.05143C15.2028 7.97343 15.2685 7.89544 15.3362 7.81509C15.5031 7.59278 15.5031 7.59278 15.4761 7.3365C15.3903 7.09156 15.2994 6.9204 15.1371 6.72792C15.0803 6.72792 15.0235 6.72792 14.965 6.72792ZM16.8588 6.72792C16.5937 7.06145 16.5937 7.06145 16.5313 7.47535C16.6158 7.71683 16.7303 7.90962 16.8642 8.12233C16.9114 8.19788 16.9585 8.27344 17.0071 8.35128C17.0434 8.40831 17.0797 8.46535 17.1171 8.52411C17.2426 8.15002 17.1755 7.79634 17.1225 7.41331C17.1139 7.34738 17.1053 7.28145 17.0964 7.21353C17.0752 7.05156 17.0532 6.88973 17.031 6.72792C16.9742 6.72792 16.9174 6.72792 16.8588 6.72792ZM15.998 8.2405C15.8299 8.46205 15.6792 8.69884 15.5245 8.93179C15.4805 8.99705 15.4364 9.06231 15.391 9.12954C15.349 9.19261 15.3069 9.25567 15.2636 9.32065C15.2249 9.37857 15.1862 9.43649 15.1464 9.49617C15.0357 9.66987 15.0357 9.66987 14.965 9.94215C15.6468 9.94215 16.3285 9.94215 17.031 9.94215C16.8782 9.52252 16.7003 9.18993 16.4661 8.82544C16.4306 8.76896 16.3952 8.71247 16.3586 8.65428C16.2697 8.51435 16.1772 8.37715 16.0841 8.2405C16.0557 8.2405 16.0273 8.2405 15.998 8.2405ZM15.1371 10.793C15.3076 11.0113 15.478 11.2297 15.6536 11.4547C15.7411 11.5796 15.8281 11.705 15.9119 11.8329C16.2059 11.6964 16.3733 11.5257 16.5791 11.2597C16.6319 11.1924 16.6847 11.125 16.7391 11.0555C16.8677 10.9107 16.8677 10.9107 16.8588 10.793C16.2907 10.793 15.7225 10.793 15.1371 10.793ZM14.4484 11.3602C14.4049 11.6969 14.3621 12.0337 14.3193 12.3705C14.307 12.4658 14.2947 12.561 14.282 12.6591C14.2703 12.7514 14.2587 12.8438 14.2467 12.9389C14.2359 13.0235 14.225 13.1082 14.2139 13.1954C14.1905 13.4366 14.186 13.6703 14.1902 13.9127C14.6408 13.5087 15.0227 13.0793 15.3954 12.5892C15.2652 12.2627 15.09 12.0261 14.8735 11.762C14.8121 11.6864 14.7508 11.6109 14.6875 11.533C14.637 11.476 14.5866 11.4189 14.5345 11.3602C14.5061 11.3602 14.4777 11.3602 14.4484 11.3602ZM17.4614 11.3602C17.3134 11.5314 17.1688 11.7041 17.0256 11.8801C16.985 11.9297 16.9443 11.9793 16.9024 12.0304C16.8016 12.1534 16.701 12.2767 16.6006 12.4001C16.735 12.7433 16.9268 12.9873 17.1548 13.2627C17.2221 13.3449 17.2895 13.427 17.3589 13.5116C17.5462 13.7368 17.5462 13.7368 17.8058 13.9127C17.7564 13.0534 17.6671 12.2108 17.5475 11.3602C17.5191 11.3602 17.4907 11.3602 17.4614 11.3602ZM15.7438 13.3399C15.6785 13.4217 15.6133 13.5034 15.546 13.5877C15.4773 13.6735 15.4087 13.7593 15.3379 13.8477C15.2716 13.9315 15.2054 14.0154 15.1371 14.1017C15.0824 14.17 15.0277 14.2382 14.9713 14.3085C14.7325 14.5529 14.7325 14.5529 14.6206 14.858C15.5297 14.858 16.4387 14.858 17.3753 14.858C17.127 14.449 16.9441 14.1752 16.6329 13.8477C16.4184 13.6211 16.2498 13.4294 16.0841 13.1564C15.8927 13.1342 15.8927 13.1342 15.7438 13.3399ZM14.7067 15.7088C14.9847 16.0142 15.2575 16.305 15.5514 16.5892C15.6194 16.6551 15.6875 16.7211 15.7575 16.789C15.8085 16.8381 15.8594 16.8872 15.9119 16.9378C16.2511 16.7796 16.5157 16.5289 16.7943 16.2702C16.842 16.2267 16.8897 16.1833 16.9389 16.1385C17.0575 16.0292 17.1736 15.9166 17.2893 15.8034C17.2893 15.7722 17.2893 15.741 17.2893 15.7088C16.437 15.7088 15.5848 15.7088 14.7067 15.7088ZM13.9319 16.1815C13.814 16.7549 13.7299 17.3299 13.6629 17.9127C13.6554 17.9771 13.6479 18.0415 13.6401 18.1079C13.6026 18.4446 13.5792 18.7729 13.5876 19.1121C14.0023 18.8235 14.3694 18.4974 14.739 18.1432C14.7941 18.0907 14.8493 18.0383 14.9061 17.9844C15.0407 17.8564 15.175 17.728 15.3093 17.5996C15.1717 17.1793 14.8766 16.952 14.5722 16.6778C14.5203 16.6299 14.4684 16.5821 14.415 16.5327C14.199 16.2913 14.199 16.2913 13.9319 16.1815ZM17.9779 16.1815C17.9208 16.2386 17.8636 16.2956 17.8048 16.3544C17.7287 16.4299 17.6527 16.5055 17.5744 16.5833C17.4995 16.6579 17.4246 16.7325 17.3474 16.8093C17.1322 17.0177 16.9123 17.2159 16.6867 17.4105C16.7999 17.6909 16.915 17.8685 17.1272 18.0671C17.1794 18.1162 17.2317 18.1653 17.2856 18.2159C17.34 18.266 17.3945 18.3161 17.4507 18.3677C17.5045 18.4185 17.5583 18.4693 17.6138 18.5217C17.8699 18.7601 18.1023 18.9557 18.4084 19.1121C18.3708 18.4084 18.3211 17.7082 18.2416 17.0087C18.2284 16.8912 18.2152 16.7738 18.2016 16.6527C18.173 16.3608 18.173 16.3608 17.9779 16.1815ZM15.7014 18.3171C15.6253 18.3903 15.5491 18.4636 15.4707 18.539C15.3883 18.6169 15.3058 18.6948 15.2209 18.775C15.0942 18.8951 15.0942 18.8951 14.965 19.0176C14.8023 19.1602 14.6391 19.302 14.4754 19.443C14.3499 19.551 14.2255 19.6605 14.1041 19.7739C14.1041 19.8051 14.1041 19.8363 14.1041 19.8684C15.3541 19.8684 16.604 19.8684 17.8919 19.8684C17.5535 19.4969 17.2143 19.1478 16.8535 18.8049C16.8008 18.7537 16.7481 18.7025 16.6939 18.6498C16.6426 18.6011 16.5912 18.5523 16.5384 18.5021C16.4924 18.4581 16.4465 18.414 16.3991 18.3687C16.1269 18.1641 15.9829 18.1161 15.7014 18.3171ZM14.4484 20.7193C14.7647 21.0666 15.0343 21.3358 15.3954 21.6114C15.4824 21.6796 15.5694 21.7477 15.659 21.8179C15.8981 21.9743 15.8981 21.9743 16.12 21.9047C16.4149 21.7116 16.6944 21.5024 16.9718 21.2806C17.0274 21.2371 17.0829 21.1937 17.1401 21.1489C17.2778 21.04 17.4129 20.9272 17.5475 20.8138C17.5475 20.7826 17.5475 20.7514 17.5475 20.7193C16.5248 20.7193 15.5021 20.7193 14.4484 20.7193Z" />
</g>
<defs>
</defs>
</svg>
