<svg width="115" height="96" viewBox="0 0 89 75" fill="none" xmlns="http://www.w3.org/2000/svg">
<g clip-path="url(#clip0_800_7337)">
<path d="M68.428 69.4322H28.563C28.3159 69.4319 28.079 69.3341 27.9042 69.1603C27.7294 68.9865 27.6311 68.7509 27.6309 68.5051V41.431C27.6311 41.1852 27.7294 40.9496 27.9042 40.7758C28.079 40.602 28.3159 40.5042 28.563 40.5039H68.428C68.6751 40.5042 68.9121 40.602 69.0868 40.7758C69.2616 40.9496 69.3599 41.1852 69.3602 41.431V68.5051C69.3599 68.7509 69.2616 68.9865 69.0868 69.1603C68.9121 69.3341 68.6751 69.4319 68.428 69.4322Z" fill="#F2F2F2"/>
<path d="M68.428 69.4322H28.563C28.3159 69.4319 28.079 69.3341 27.9042 69.1603C27.7294 68.9865 27.6311 68.7509 27.6309 68.5051V41.431C27.6311 41.1852 27.7294 40.9496 27.9042 40.7758C28.079 40.602 28.3159 40.5042 28.563 40.5039H68.428C68.6751 40.5042 68.9121 40.602 69.0868 40.7758C69.2616 40.9496 69.3599 41.1852 69.3602 41.431V68.5051C69.3599 68.7509 69.2616 68.9865 69.0868 69.1603C68.9121 69.3341 68.6751 69.4319 68.428 69.4322ZM28.563 40.7099C28.3708 40.7101 28.1865 40.7862 28.0506 40.9214C27.9147 41.0566 27.8382 41.2398 27.838 41.431V68.5051C27.8382 68.6962 27.9147 68.8795 28.0506 69.0147C28.1865 69.1499 28.3708 69.2259 28.563 69.2262H68.428C68.6202 69.2259 68.8045 69.1499 68.9404 69.0147C69.0763 68.8795 69.1528 68.6962 69.153 68.5051V41.431C69.1528 41.2398 69.0763 41.0566 68.9404 40.9214C68.8045 40.7862 68.6202 40.7101 68.428 40.7099H28.563Z" fill="#3F3D56"/>
<path d="M53.1102 69.2688H43.8809V54.0723C43.8813 53.7119 44.0254 53.3664 44.2817 53.1115C44.5379 52.8567 44.8853 52.7133 45.2477 52.7129H51.7433C52.1057 52.7133 52.4531 52.8567 52.7094 53.1115C52.9656 53.3664 53.1098 53.7119 53.1102 54.0723V69.2688Z" fill="#3F3D56"/>
<path d="M66.2531 34.7326H60.9824V25.972C60.9827 25.7262 61.081 25.4906 61.2558 25.3168C61.4305 25.143 61.6674 25.0452 61.9146 25.0449H65.3209C65.5681 25.0452 65.805 25.143 65.9798 25.3168C66.1545 25.4906 66.2528 25.7262 66.2531 25.972V34.7326Z" fill="#3F3D56"/>
<path d="M66.2531 34.7326H60.9824V25.972C60.9827 25.7262 61.081 25.4906 61.2558 25.3168C61.4305 25.143 61.6674 25.0452 61.9146 25.0449H65.3209C65.5681 25.0452 65.805 25.143 65.9798 25.3168C66.1545 25.4906 66.2528 25.7262 66.2531 25.972V34.7326ZM61.1896 34.5266H66.0459V25.972C66.0457 25.7809 65.9693 25.5976 65.8334 25.4624C65.6974 25.3272 65.5131 25.2512 65.3209 25.2509H61.9146C61.7224 25.2512 61.5381 25.3272 61.4022 25.4624C61.2662 25.5976 61.1898 25.7809 61.1896 25.972V34.5266Z" fill="#3F3D56"/>
<path d="M36.5381 38.4211C42.1434 38.4211 46.6875 33.9017 46.6875 28.3268C46.6875 22.7518 42.1434 18.2324 36.5381 18.2324C30.9327 18.2324 26.3887 22.7518 26.3887 28.3268C26.3887 33.9017 30.9327 38.4211 36.5381 38.4211Z" fill="#CCCCCC"/>
<path d="M63.7763 23.5092C62.8622 23.4807 62.0486 22.6515 62.042 21.742C62.0355 20.8324 62.8372 19.9918 63.7507 19.9503C65.7849 19.8577 67.4503 17.6866 67.0027 15.7109C66.555 13.7352 64.1143 12.4844 62.2369 13.2685C60.7966 13.87 59.3413 11.9748 59.7063 10.4642C60.0713 8.95362 61.4526 7.93927 62.7307 7.04604C64.0087 6.1528 65.3759 5.10405 65.6844 3.58107C65.9929 2.05808 64.4137 0.233722 63.0222 0.939688" fill="#FF6584"/>
<path d="M39.9827 57.1278H32.1866C31.8756 57.1275 31.5775 57.0044 31.3576 56.7857C31.1377 56.567 31.014 56.2705 31.0137 55.9612V49.5689C31.014 49.2596 31.1377 48.9631 31.3576 48.7444C31.5775 48.5257 31.8756 48.4027 32.1866 48.4023H39.9827C40.2936 48.4027 40.5917 48.5257 40.8116 48.7444C41.0315 48.9631 41.1552 49.2596 41.1556 49.5689V55.9612C41.1552 56.2705 41.0315 56.567 40.8116 56.7857C40.5918 57.0044 40.2936 57.1275 39.9827 57.1278Z" fill="#3F3D56"/>
<path d="M64.9846 57.1278H57.1885C56.8776 57.1275 56.5794 57.0044 56.3595 56.7857C56.1397 56.567 56.016 56.2705 56.0156 55.9612V49.5689C56.016 49.2596 56.1397 48.9631 56.3596 48.7444C56.5794 48.5257 56.8776 48.4027 57.1885 48.4023H64.9846C65.2956 48.4027 65.5937 48.5257 65.8136 48.7444C66.0335 48.9631 66.1572 49.2596 66.1575 49.5689V55.9612C66.1572 56.2705 66.0335 56.567 65.8136 56.7857C65.5937 57.0044 65.2956 57.1275 64.9846 57.1278Z" fill="#3F3D56"/>
<path d="M24.6543 41.0606V36.8951C24.6543 36.5751 24.7393 36.2608 24.9008 35.984C25.0623 35.7073 25.2944 35.4779 25.5738 35.3191L48.8443 22.0908C49.1332 21.9266 49.4617 21.8441 49.7943 21.8521C50.1269 21.8601 50.451 21.9584 50.7315 22.1364L71.4926 35.3066C71.7512 35.4706 71.9641 35.6968 72.1115 35.9643C72.259 36.2318 72.3363 36.5319 72.3363 36.837V41.0606C72.3363 41.5421 72.144 42.0038 71.8017 42.3442C71.4594 42.6846 70.9952 42.8759 70.5111 42.8759H26.4794C25.9954 42.8759 25.5312 42.6846 25.1889 42.3442C24.8466 42.0038 24.6543 41.5421 24.6543 41.0606Z" fill="#FFC200"/>
<path opacity="0.2" d="M70.5112 41.0223H26.4794C25.9954 41.0223 25.5311 40.831 25.1889 40.4906C24.8466 40.1502 24.6543 39.6885 24.6543 39.207V40.8552C24.6543 41.3367 24.8466 41.7984 25.1889 42.1388C25.5311 42.4792 25.9954 42.6705 26.4794 42.6705H70.5112C70.9952 42.6705 71.4594 42.4792 71.8017 42.1388C72.144 41.7984 72.3363 41.3367 72.3363 40.8552V39.207C72.3363 39.6885 72.144 40.1502 71.8017 40.4906C71.4594 40.831 70.9952 41.0223 70.5112 41.0223Z" fill="black"/>
<path d="M74.0859 55.2764C74.0859 52.082 76.6896 44.502 79.9014 44.502C83.1131 44.502 85.7168 52.082 85.7168 55.2764C85.7168 56.8104 85.1041 58.2815 84.0135 59.3662C82.9229 60.4509 81.4437 61.0603 79.9014 61.0603C78.359 61.0603 76.8798 60.4509 75.7892 59.3662C74.6986 58.2815 74.0859 56.8104 74.0859 55.2764Z" fill="#F2F2F2"/>
<path d="M79.9024 69.3086C79.8749 69.3086 79.8486 69.2977 79.8292 69.2784C79.8097 69.2591 79.7988 69.2329 79.7988 69.2056V48.437C79.7988 48.4097 79.8097 48.3835 79.8292 48.3642C79.8486 48.3448 79.8749 48.334 79.9024 48.334C79.9299 48.334 79.9562 48.3448 79.9756 48.3642C79.9951 48.3835 80.006 48.4097 80.006 48.437V69.2056C80.006 69.2329 79.9951 69.2591 79.9756 69.2784C79.9562 69.2977 79.9299 69.3086 79.9024 69.3086Z" fill="#3F3D56"/>
<path d="M79.9024 57.6469C79.8821 57.6469 79.8623 57.641 79.8454 57.6299C79.8284 57.6188 79.8152 57.603 79.8072 57.5844C79.7992 57.5659 79.7969 57.5454 79.8005 57.5256C79.8041 57.5057 79.8135 57.4874 79.8274 57.4728L82.7837 54.3874C82.7931 54.3776 82.8043 54.3698 82.8168 54.3643C82.8292 54.3588 82.8426 54.3558 82.8562 54.3555C82.8698 54.3552 82.8833 54.3575 82.896 54.3624C82.9087 54.3673 82.9203 54.3746 82.9301 54.3839C82.94 54.3932 82.9479 54.4044 82.9534 54.4168C82.9589 54.4292 82.9619 54.4425 82.9622 54.456C82.9625 54.4695 82.9602 54.483 82.9553 54.4956C82.9504 54.5082 82.943 54.5198 82.9337 54.5296L79.9774 57.6149C79.9677 57.6251 79.9561 57.6331 79.9432 57.6386C79.9303 57.6441 79.9164 57.6469 79.9024 57.6469Z" fill="#3F3D56"/>
<path d="M79.9017 52.4454C79.8758 52.4454 79.8509 52.4358 79.8318 52.4184L77.2771 50.0952C77.267 50.0861 77.2588 50.0751 77.253 50.0628C77.2472 50.0506 77.2439 50.0373 77.2433 50.0238C77.2426 50.0102 77.2447 49.9967 77.2493 49.9839C77.254 49.9712 77.2611 49.9595 77.2703 49.9495C77.2795 49.9395 77.2906 49.9314 77.3029 49.9257C77.3153 49.9199 77.3286 49.9167 77.3423 49.9161C77.3559 49.9155 77.3695 49.9176 77.3823 49.9223C77.3951 49.9269 77.4068 49.934 77.4168 49.9432L79.9716 52.2663C79.987 52.2804 79.9978 52.2987 80.0025 52.3189C80.0073 52.3391 80.0058 52.3603 79.9982 52.3797C79.9907 52.399 79.9774 52.4156 79.9602 52.4274C79.9429 52.4391 79.9226 52.4454 79.9017 52.4454V52.4454Z" fill="#3F3D56"/>
<path d="M3.10547 48.92C3.10547 44.2209 6.93555 33.0703 11.6602 33.0703C16.3849 33.0703 20.2149 44.2209 20.2149 48.92C20.2149 51.1766 19.3136 53.3407 17.7093 54.9363C16.105 56.532 13.9291 57.4284 11.6602 57.4284C9.39135 57.4284 7.21542 56.532 5.61109 54.9363C4.00677 53.3407 3.10547 51.1766 3.10547 48.92Z" fill="#FFC200"/>
<path d="M11.6602 69.5152C11.6327 69.5152 11.6064 69.5044 11.587 69.485C11.5676 69.4657 11.5566 69.4395 11.5566 69.4122V38.8608C11.5566 38.8335 11.5676 38.8073 11.587 38.788C11.6064 38.7687 11.6327 38.7578 11.6602 38.7578C11.6877 38.7578 11.714 38.7687 11.7335 38.788C11.7529 38.8073 11.7638 38.8335 11.7638 38.8608V69.4122C11.7638 69.4395 11.7529 69.4657 11.7335 69.485C11.714 69.5044 11.6877 69.5152 11.6602 69.5152Z" fill="#3F3D56"/>
<path d="M11.6602 52.36C11.6399 52.36 11.6201 52.3541 11.6032 52.343C11.5863 52.3319 11.573 52.3161 11.565 52.2975C11.557 52.279 11.5547 52.2585 11.5583 52.2387C11.5619 52.2189 11.5713 52.2005 11.5853 52.1859L15.934 47.6472C15.9529 47.6274 15.979 47.6159 16.0065 47.6153C16.0339 47.6146 16.0605 47.6248 16.0804 47.6437C16.1003 47.6625 16.1118 47.6885 16.1125 47.7158C16.1132 47.7431 16.1029 47.7696 16.0839 47.7893L11.7352 52.3281C11.7255 52.3382 11.7139 52.3462 11.701 52.3517C11.6881 52.3572 11.6742 52.36 11.6602 52.36Z" fill="#3F3D56"/>
<path d="M11.6596 44.7075C11.6337 44.7075 11.6088 44.6979 11.5897 44.6805L7.83154 41.263C7.81126 41.2446 7.79918 41.2189 7.79796 41.1916C7.79673 41.1643 7.80645 41.1376 7.82499 41.1175C7.84352 41.0973 7.86935 41.0853 7.8968 41.0841C7.92424 41.0829 7.95105 41.0925 7.97132 41.111L11.7295 44.5285C11.7449 44.5425 11.7557 44.5608 11.7604 44.581C11.7652 44.6012 11.7637 44.6224 11.7561 44.6418C11.7486 44.6611 11.7353 44.6778 11.7181 44.6895C11.7008 44.7012 11.6805 44.7075 11.6596 44.7075H11.6596Z" fill="#3F3D56"/>
<path d="M75.8394 69.2997C75.8491 69.3072 75.8595 69.314 75.8694 69.3214H84.291C84.456 68.6564 84.5143 67.9907 84.2678 67.4127C83.9166 66.5889 82.8772 66.0747 82.0509 66.4285C81.8551 66.5145 81.6846 66.6487 81.5553 66.8184C81.2324 66.2435 80.6532 65.8101 79.9846 65.8105C79.1469 65.8111 78.4504 66.4925 78.2231 67.2794C77.8571 66.665 77.1342 66.2356 76.4276 66.4203C75.2458 66.7293 74.8725 68.5565 75.8394 69.2997Z" fill="#E6E6E6"/>
<path d="M3.48982 69.4831C3.50959 69.4983 3.53048 69.512 3.5505 69.5269H20.5514C20.8845 68.1845 21.0022 66.8407 20.5046 65.6737C19.7956 64.0107 17.6974 62.9727 16.0293 63.6868C15.6341 63.8606 15.2898 64.1315 15.0289 64.4741C14.377 63.3135 13.2076 62.4385 11.8579 62.4395C10.1669 62.4407 8.76086 63.8161 8.30201 65.4048C7.56319 64.1644 6.1038 63.2976 4.67733 63.6704C2.29153 64.2941 1.53794 67.9828 3.48982 69.4831Z" fill="#E6E6E6"/>
<path d="M88.8573 69.2269L0.823242 69.3926L0.823634 69.5986L88.8577 69.4329L88.8573 69.2269Z" fill="#3F3D56"/>
<path d="M30.53 65.0349C30.551 64.9535 30.5539 64.8685 30.5383 64.7859C30.5227 64.7032 30.489 64.625 30.4398 64.5567C30.3905 64.4884 30.3268 64.4317 30.2531 64.3906C30.1793 64.3494 30.0975 64.3248 30.0132 64.3185L26.724 60.2285L25.9102 60.983L29.3848 64.8899C29.3836 65.0314 29.4346 65.1685 29.5282 65.2751C29.6218 65.3817 29.7515 65.4505 29.8926 65.4683C30.0338 65.4862 30.1767 65.452 30.2941 65.3721C30.4116 65.2922 30.4955 65.1722 30.53 65.0349V65.0349Z" fill="#FFB8B8"/>
<path d="M27.3552 60.8779L26.3157 61.6696C26.2861 61.6922 26.252 61.7081 26.2157 61.7163C26.1794 61.7245 26.1417 61.7249 26.1052 61.7173C26.0687 61.7098 26.0343 61.6945 26.0043 61.6725C25.9743 61.6506 25.9495 61.6224 25.9314 61.59L25.2982 60.4547C25.1832 60.3036 25.1331 60.1132 25.159 59.9255C25.1849 59.7377 25.2846 59.5677 25.4362 59.4529C25.5879 59.3381 25.7791 59.2878 25.968 59.313C26.1569 59.3382 26.328 59.4368 26.4439 59.5873L27.3781 60.4881C27.4048 60.5139 27.4256 60.5451 27.4392 60.5797C27.4527 60.6142 27.4585 60.6512 27.4564 60.6882C27.4542 60.7252 27.444 60.7613 27.4266 60.794C27.4091 60.8267 27.3848 60.8553 27.3552 60.8779H27.3552Z" fill="#3F3D56"/>
<path d="M25.609 58.4087C26.339 58.4087 26.9308 57.8201 26.9308 57.094C26.9308 56.3679 26.339 55.7793 25.609 55.7793C24.8789 55.7793 24.2871 56.3679 24.2871 57.094C24.2871 57.8201 24.8789 58.4087 25.609 58.4087Z" fill="#FFB8B8"/>
<path d="M28.4305 74.1462H29.0904L29.0275 72.918H28.0537L28.4305 74.1462Z" fill="#FFB8B8"/>
<path d="M28.2617 73.9336L29.5611 73.9336H29.5612C29.6699 73.9336 29.7776 73.9549 29.8781 73.9963C29.9785 74.0377 30.0698 74.0983 30.1467 74.1748C30.2236 74.2513 30.2846 74.3421 30.3262 74.442C30.3678 74.5419 30.3893 74.649 30.3893 74.7572V74.7839L28.2618 74.784L28.2617 73.9336Z" fill="#2F2E41"/>
<path d="M21.3955 73.2181L21.9569 73.563L22.5524 72.4852L21.8732 72.0625L21.3955 73.2181Z" fill="#FFB8B8"/>
<path d="M21.3653 72.9473L22.4708 73.6264L22.4709 73.6265C22.5634 73.6833 22.6438 73.7577 22.7074 73.8455C22.771 73.9332 22.8166 74.0325 22.8416 74.1378C22.8666 74.243 22.8705 74.3522 22.8531 74.4589C22.8357 74.5657 22.7973 74.668 22.7402 74.76L22.726 74.7828L20.916 73.6707L21.3653 72.9473Z" fill="#2F2E41"/>
<path d="M28.3827 73.7866C28.3336 73.7866 28.2857 73.7717 28.2454 73.7439C28.205 73.7162 28.1741 73.6769 28.1568 73.6313L25.7701 67.9559C25.7649 67.9421 25.7561 67.9299 25.7444 67.9207C25.7328 67.9116 25.7188 67.9058 25.7041 67.904C25.6893 67.9022 25.6744 67.9045 25.6608 67.9106C25.6473 67.9167 25.6358 67.9265 25.6274 67.9387L22.3486 73.0758C22.3165 73.1237 22.2683 73.1585 22.2126 73.1739C22.1569 73.1893 22.0975 73.1843 22.0451 73.1598L21.5965 72.9516C21.539 72.9246 21.4945 72.8764 21.4723 72.8172C21.4501 72.7579 21.4522 72.6924 21.4779 72.6347L24.1642 66.6793C24.1055 66.5374 23.5334 65.0801 24.4125 64.3601L24.4186 64.3563L26.8022 63.2988L26.8623 65.1174L29.2381 73.316C29.2471 73.3468 29.2497 73.3791 29.2459 73.411C29.2422 73.4429 29.232 73.4737 29.216 73.5016C29.2001 73.5296 29.1787 73.554 29.1531 73.5736C29.1275 73.5932 29.0983 73.6075 29.0671 73.6157L28.4447 73.7785C28.4245 73.7839 28.4036 73.7866 28.3827 73.7866Z" fill="#2F2E41"/>
<path d="M26.8392 60.6384C26.7485 60.2761 26.6198 59.9109 26.4474 59.7423C26.384 59.6808 26.3244 59.6156 26.269 59.5469C26.153 59.4016 26.0071 59.2827 25.8411 59.1982C25.9018 59.1646 25.9375 59.1245 25.9375 59.0813C25.9375 58.963 25.6724 58.8672 25.3454 58.8672C25.0185 58.8672 24.7534 58.963 24.7534 59.0813C24.7542 59.095 24.7578 59.1085 24.7638 59.1209C24.7698 59.1332 24.7783 59.1443 24.7886 59.1534C24.5751 59.24 24.3896 59.3832 24.2522 59.5673C24.1149 59.7515 24.031 59.9697 24.0097 60.198C23.9333 61.0125 23.911 62.0536 24.1789 62.7121C24.4037 63.2567 24.4216 63.8639 24.2292 64.4206C24.2162 64.4594 24.2146 64.5011 24.2246 64.5407C24.2347 64.5804 24.2559 64.6163 24.2859 64.6443C24.3158 64.6723 24.3532 64.6912 24.3936 64.6987C24.434 64.7062 24.4758 64.702 24.5138 64.6866L26.879 63.7387C26.9188 63.7227 26.953 63.6953 26.977 63.6599C27.001 63.6245 27.0138 63.5828 27.0138 63.5401V62.1004C27.0157 61.6078 26.9571 61.1168 26.8392 60.6384Z" fill="#3F3D56"/>
<path d="M22.3131 66.5687C22.3955 66.5497 22.4726 66.513 22.5391 66.4611C22.6056 66.4092 22.6599 66.3435 22.6981 66.2685C22.7363 66.1935 22.7575 66.1111 22.7602 66.027C22.7629 65.943 22.7471 65.8594 22.7138 65.7822L24.5643 60.9285L23.6259 60.6875L21.9142 65.4912C21.7874 65.5554 21.6887 65.6637 21.6368 65.7954C21.5848 65.9272 21.5833 66.0733 21.6325 66.2062C21.6816 66.339 21.7781 66.4492 21.9035 66.5161C22.029 66.5829 22.1747 66.6016 22.3131 66.5687L22.3131 66.5687Z" fill="#FFB8B8"/>
<path d="M24.5568 61.85L23.371 61.298C23.3373 61.2822 23.3073 61.2595 23.2832 61.2312C23.2591 61.203 23.2414 61.1699 23.2314 61.1342C23.2213 61.0986 23.219 61.0611 23.2248 61.0245C23.2306 60.9879 23.2442 60.953 23.2648 60.9221L23.9854 59.8396C24.0674 59.6686 24.2141 59.5369 24.3934 59.4733C24.5728 59.4096 24.7702 59.4193 24.9425 59.5001C25.1147 59.5809 25.2477 59.7262 25.3124 59.9044C25.3772 60.0825 25.3683 60.2789 25.2877 60.4505L24.9151 61.6904C24.9044 61.7259 24.8861 61.7587 24.8616 61.7865C24.837 61.8144 24.8067 61.8367 24.7727 61.8518C24.7387 61.8669 24.7018 61.8746 24.6646 61.8743C24.6273 61.874 24.5906 61.8657 24.5568 61.85Z" fill="#3F3D56"/>
<path d="M26.8229 56.7708C26.8826 56.7779 26.9429 56.767 26.9963 56.7397C27.0938 56.6762 27.0842 56.5319 27.0512 56.4208C26.969 56.1543 26.8206 55.9128 26.6198 55.7184C26.419 55.524 26.1721 55.383 25.9021 55.3086C25.7139 55.2588 25.4758 55.2607 25.3681 55.4221C25.0976 55.2429 24.7714 55.166 24.4488 55.2054C24.1261 55.2448 23.8283 55.3979 23.6095 55.637C23.3956 55.8866 23.253 56.1887 23.1966 56.5119C23.0836 57.0623 22.5999 58.1976 22.8679 58.6921C23.0462 59.0211 23.8668 58.7648 24.2139 58.9081C24.3868 58.9829 24.5755 59.0141 24.7634 58.999C24.9514 58.9839 25.1326 58.923 25.2912 58.8216C25.4464 58.7151 25.5631 58.5617 25.6239 58.3842C25.6848 58.2068 25.6867 58.0145 25.6293 57.8358C25.5686 57.7045 25.4985 57.5777 25.4196 57.4563C25.3405 57.3334 25.3082 57.1864 25.3286 57.0418C25.3772 56.822 26.4205 56.7626 26.8229 56.7708Z" fill="#2F2E41"/>
</g>
<defs>
<clipPath id="clip0_800_7337">
<rect width="88.0345" height="74" fill="white" transform="translate(0.823242 0.783203)"/>
</clipPath>
</defs>
</svg>
