<svg width="115" height="96" viewBox="0 0 115 96" fill="none" xmlns="http://www.w3.org/2000/svg">
<path d="M31.7915 78.3369C35.1165 78.3369 37.837 75.6126 37.837 72.2829V51.0937C37.837 47.7639 35.1165 45.0396 31.7915 45.0396C28.4665 45.0396 25.7461 47.7639 25.7461 51.0937V72.2829C25.7461 75.6126 28.4665 78.3369 31.7915 78.3369ZM57.0918 61.4764L61.5352 63.0202C61.8677 63.1412 62.2002 63.2018 62.5327 63.2018H83.1779C86.5331 63.2018 89.2234 65.8958 89.2536 69.2558L66.9156 77.6407C65.7065 78.0948 64.3765 78.1553 63.1372 77.7921L43.8825 72.3434V45.0396H48.7188C49.4443 45.0396 50.1697 45.1607 50.8347 45.4331L71.7822 53.2731C73.1727 53.7877 74.1097 55.1196 74.1097 56.6331C74.1097 58.6007 72.5077 60.205 70.5429 60.205H62.5931C62.2304 60.205 61.8677 60.1445 61.505 59.9931L58.1195 58.6915C57.3336 58.3888 56.457 58.8126 56.185 59.5996C55.9129 60.3564 56.3059 61.2039 57.0918 61.4764ZM83.6615 29.6018L68.5479 18.7953C66.432 17.2818 63.6209 17.2818 61.5352 18.7953L46.4215 29.6018C44.8195 30.7521 43.8825 32.5683 43.8825 34.5358V38.9856H48.749C49.5047 38.9856 50.2906 39.1369 50.9859 39.4093L74.5329 48.8234C77.9184 50.2158 80.1552 53.485 80.1552 57.1477H86.2006V34.5358C86.2006 32.5683 85.2636 30.7521 83.6615 29.6018ZM62.0188 42.0126C61.1725 42.0126 60.5075 41.3466 60.5075 40.4991C60.5075 39.6515 61.1725 38.9856 62.0188 38.9856C62.8652 38.9856 63.5302 39.6515 63.5302 40.4991C63.5302 41.3466 62.8652 42.0126 62.0188 42.0126ZM62.0188 35.9585C61.1725 35.9585 60.5075 35.2926 60.5075 34.445C60.5075 33.5975 61.1725 32.9315 62.0188 32.9315C62.8652 32.9315 63.5302 33.5975 63.5302 34.445C63.5302 35.2926 62.8652 35.9585 62.0188 35.9585ZM68.0643 42.0126C67.2179 42.0126 66.5529 41.3466 66.5529 40.4991C66.5529 39.6515 67.2179 38.9856 68.0643 38.9856C68.9106 38.9856 69.5756 39.6515 69.5756 40.4991C69.5756 41.3466 68.9106 42.0126 68.0643 42.0126ZM68.0643 35.9585C67.2179 35.9585 66.5529 35.2926 66.5529 34.445C66.5529 33.5975 67.2179 32.9315 68.0643 32.9315C68.9106 32.9315 69.5756 33.5975 69.5756 34.445C69.5756 35.2926 68.9106 35.9585 68.0643 35.9585Z" fill="#006970"/>
</svg>
