<svg width="115" height="96" viewBox="0 0 115 96" xmlns="http://www.w3.org/2000/svg">
<path d="M31.6956 78.3883C35.036 78.3883 37.769 75.6514 37.769 72.3063V51.0195C37.769 47.6744 35.036 44.9375 31.6956 44.9375C28.3553 44.9375 25.6223 47.6744 25.6223 51.0195V72.3063C25.6223 75.6514 28.3553 78.3883 31.6956 78.3883ZM57.1125 61.45L61.5764 63.0009C61.9104 63.1226 62.2445 63.1834 62.5785 63.1834H83.3189C86.6896 63.1834 89.3922 65.8899 89.4226 69.2654L66.9817 77.6889C65.767 78.145 64.4309 78.2058 63.1858 77.8409L43.8423 72.3672V44.9375H48.701C49.4298 44.9375 50.1586 45.0591 50.8266 45.3328L71.8707 53.209C73.2676 53.7259 74.2089 55.064 74.2089 56.5845C74.2089 58.5611 72.5995 60.1728 70.6257 60.1728H62.6392C62.2748 60.1728 61.9104 60.112 61.546 59.96L58.145 58.6523C57.3554 58.3482 56.4748 58.774 56.2015 59.5646C55.9282 60.3249 56.323 61.1763 57.1125 61.45Z" />
<path d="M82.4988 34.9962H66.3741C64.5217 29.7961 59.1165 26.2686 53.0431 27.485C48.6096 28.3669 45.0263 31.9248 44.085 36.3342C43.9028 37.1857 43.842 38.0372 43.842 38.8582H48.7007C49.4599 38.8582 50.2494 39.0103 50.9478 39.284L51.6766 39.5881C51.6159 39.3448 51.5248 39.1319 51.5248 38.8582C51.5248 36.7296 53.2557 34.9962 55.3814 34.9962C57.507 34.9962 59.2379 36.7296 59.2379 38.8582C59.2379 40.1355 58.5699 41.2302 57.5678 41.9601L65.1594 45.001C65.6149 44.3016 66.0097 43.5414 66.283 42.7507H74.6945V46.6128C74.6945 48.7414 76.4254 50.4748 78.5511 50.4748C80.6768 50.4748 82.4077 48.7414 82.4077 46.6128V42.7507C84.5333 42.7507 86.2642 41.0173 86.2642 38.8887C86.2642 36.76 84.5333 35.0266 82.4077 35.0266L82.4988 34.9962Z" />
</svg>
