<?xml version="1.0" encoding="utf-8"?>
<!-- Generator: Adobe Illustrator 26.2.0, SVG Export Plug-In . SVG Version: 6.00 Build 0)  -->
<svg version="1.1" id="Layer_1" xmlns="http://www.w3.org/2000/svg" xmlns:xlink="http://www.w3.org/1999/xlink" x="0px" y="0px"
	 viewBox="0 0 22 25" style="enable-background:new 0 0 22 25;" xml:space="preserve">
<path class="st0" d="M4.5,18.8h5.9c0.4,0,0.7,0.3,0.7,0.7c0,0.4-0.3,0.7-0.7,0.7H4.5c-0.4,0-0.7-0.3-0.7-0.7
	C3.7,19.1,4.1,18.8,4.5,18.8z"/>
<path class="st0" d="M8.9,23.2v0.4c0,0.5-0.4,0.8-0.8,0.8H6.9c-0.5,0-0.8-0.4-0.8-0.8v-0.4c-0.5,0-0.9-0.2-1.2-0.6
	c-0.3-0.3-0.5-0.8-0.5-1.2h6.1c0,0.4-0.2,0.9-0.4,1.2C9.8,22.9,9.4,23.1,8.9,23.2L8.9,23.2z"/>
<path class="st1" d="M14.8,9.7c0-4.2-3.3-7.6-7.4-7.6C3.3,2.1,0,5.5,0,9.7c0,1,0.2,1.9,0.5,2.9c0,0.1,0.1,0.2,0.1,0.3
	c0.3,0.7,0.8,1.4,1.3,2l1.9,2.9H11l1.9-2.9c0.5-0.6,1-1.2,1.3-2c0-0.1,0.1-0.2,0.1-0.3C14.6,11.6,14.8,10.6,14.8,9.7z M6.8,5.9
	C6.8,5.4,7.2,5,7.7,5s0.9,0.4,0.9,0.9v2.7h2.7c0.5,0,0.9,0.4,0.9,0.9c0,0.5-0.4,0.9-0.9,0.9H8.6V13c0,0.5-0.4,0.9-0.9,0.9
	S6.8,13.5,6.8,13v-2.7H4.1c-0.5,0-0.9-0.4-0.9-0.9c0-0.5,0.4-0.9,0.9-0.9h2.7V5.9z"/>
<path class="st0" d="M15.5,16.3c-0.2,0-0.4-0.2-0.4-0.4c0-0.2,0.2-0.4,0.4-0.4h3.2c0.2,0,0.4,0.2,0.4,0.4c0,0.2-0.2,0.4-0.4,0.4
	H15.5z"/>
<path class="st1" d="M18.5,0.1c-0.4,0-0.7,0.3-0.7,0.7v2.1h-2.1c-0.4,0-0.7,0.3-0.7,0.7s0.3,0.7,0.7,0.7h2.1v2.1
	c0,0.4,0.3,0.7,0.7,0.7c0.4,0,0.7-0.3,0.7-0.7V4.2h2.1c0.4,0,0.7-0.3,0.7-0.7s-0.3-0.7-0.7-0.7h-2.1V0.8C19.2,0.4,18.9,0.1,18.5,0.1
	z"/>
</svg>
