<?xml version="1.0" encoding="utf-8"?>
<!-- Generator: Adobe Illustrator 26.2.0, SVG Export Plug-In . SVG Version: 6.00 Build 0)  -->
<svg version="1.1" id="Layer_1" xmlns="http://www.w3.org/2000/svg" xmlns:xlink="http://www.w3.org/1999/xlink" x="0px" y="0px"
	 viewBox="0 0 20 14" style="enable-background:new 0 0 20 14;" xml:space="preserve">
<path class="st0" d="M5.2,11C2.7,9.7,1.8,6.7,3.1,4.2c1.3-2.4,4.3-3.4,6.8-2.1c2.4,1.3,3.4,4.3,2.1,6.8S7.6,12.3,5.2,11z M1.7,3.5
	C0,6.7,1.3,10.6,4.4,12.3c2.8,1.5,6.3,0.7,8.2-1.7l5.2,2.7c0.6,0.3,1.3,0.1,1.6-0.5c0.3-0.6,0.1-1.3-0.5-1.6l-5.2-2.7
	c1-3-0.3-6.3-3.2-7.8C7.4-0.9,3.4,0.3,1.7,3.5z"/>
</svg>
