<svg width="24" height="24" viewBox="0 0 24 24" xmlns="http://www.w3.org/2000/svg">
<path d="M13.0001 11.0001V2.1001C15.3834 2.3501 17.3959 3.3001 19.0376 4.9501C20.6793 6.6001 21.6334 8.61676 21.9001 11.0001H13.0001ZM11.0251 21.8751C8.49177 21.6251 6.37093 20.5584 4.6626 18.6751C2.95426 16.7918 2.1001 14.5668 2.1001 12.0001C2.1001 9.41676 2.95426 7.18343 4.6626 5.3001C6.37093 3.41676 8.49177 2.3501 11.0251 2.1001V21.8751ZM13.0001 21.8751V12.9751H21.9001C21.6668 15.3584 20.7209 17.3793 19.0626 19.0376C17.4043 20.6959 15.3834 21.6418 13.0001 21.8751Z" />
</svg>
