<?xml version="1.0" encoding="utf-8"?>
<!-- Generator: Adobe Illustrator 26.2.0, SVG Export Plug-In . SVG Version: 6.00 Build 0)  -->
<svg version="1.1" id="Layer_1" xmlns="http://www.w3.org/2000/svg" xmlns:xlink="http://www.w3.org/1999/xlink" x="0px" y="0px"
	 viewBox="0 0 16 19" style="enable-background:new 0 0 16 19;" xml:space="preserve">
<path class="st0" d="M13.3,18.5H2.8c-1.4,0-2.5-1.1-2.5-2.5V9.8c0-0.4,0.3-0.7,0.7-0.7s0.7,0.3,0.7,0.7V16c0,0.6,0.5,1.1,1.1,1.1
	h10.5c0.6,0,1.1-0.5,1.1-1.1V7.7c0-0.4-0.2-0.7-0.3-0.8L8.8,1.7c-0.4-0.4-1.1-0.4-1.6,0L2,6.9C1.8,7,1.7,7.3,1.7,7.7
	c0,0.4-0.3,0.7-0.7,0.7S0.3,8.1,0.3,7.7C0.3,7,0.6,6.4,1,5.9l5.3-5.2c1-1,2.5-1,3.4,0l5.3,5.2c0.4,0.4,0.7,1.1,0.7,1.8V16
	C15.8,17.4,14.7,18.5,13.3,18.5z"/>
</svg>
