<?xml version="1.0" encoding="utf-8"?>
<!-- Generator: Adobe Illustrator 26.2.0, SVG Export Plug-In . SVG Version: 6.00 Build 0)  -->
<svg version="1.1" id="Layer_1" xmlns="http://www.w3.org/2000/svg" xmlns:xlink="http://www.w3.org/1999/xlink" x="0px" y="0px"
	 viewBox="0 0 23 23" style="enable-background:new 0 0 23 23;" xml:space="preserve">
<path class="st0" d="M4.9,9.1h2.4c0.3,0,0.6,0.3,0.6,0.6v9.1H4.2V9.7C4.2,9.3,4.5,9.1,4.9,9.1z"/>
<path class="st0" d="M11.2,3.6h2.4c0.3,0,0.6,0.3,0.6,0.6v14.5h-3.6V4.2C10.6,3.9,10.9,3.6,11.2,3.6z"/>
<path class="st0" d="M0,1c0-0.5,0.4-1,1-1c0.5,0,1,0.4,1,1v19.1c0,0.5,0.4,1,1,1H22c0.5,0,1,0.4,1,1c0,0.5-0.4,1-1,1H1
	c-0.5,0-1-0.4-1-1V1z"/>
<path class="st0" d="M17.6,6.7H20c0.3,0,0.6,0.3,0.6,0.6v11.5H17V7.3C17,6.9,17.2,6.7,17.6,6.7z"/>
</svg>
