<?xml version="1.0" encoding="utf-8"?>
<!-- Generator: Adobe Illustrator 26.2.0, SVG Export Plug-In . SVG Version: 6.00 Build 0)  -->
<svg version="1.1" id="Layer_1" xmlns="http://www.w3.org/2000/svg" xmlns:xlink="http://www.w3.org/1999/xlink" x="0px" y="0px"
	 viewBox="0 0 16 17" style="enable-background:new 0 0 16 17;" xml:space="preserve">
<path class="st0" d="M14.8,10.1c-0.3-0.3-0.4-0.7-0.4-1.1c0-0.2,0-0.3,0-0.5s0-0.3,0-0.5c0-0.4,0.1-0.8,0.4-1.1l1.1-1.2
	C16,5.6,16,5.4,15.9,5.2l-1.1-1.8c-0.1-0.2-0.3-0.3-0.5-0.2l-1.6,0.4c-0.4,0.1-0.8,0-1.1-0.2c-0.3-0.2-0.6-0.4-0.9-0.5
	c-0.4-0.2-0.6-0.5-0.8-0.9L9.5,0.3C9.5,0.1,9.3,0,9.1,0H6.9C6.7,0,6.5,0.1,6.5,0.3L6,1.9C5.9,2.3,5.6,2.6,5.3,2.8
	C5,2.9,4.7,3.1,4.4,3.3C4.1,3.5,3.6,3.6,3.2,3.5L1.7,3.1C1.5,3,1.2,3.1,1.1,3.3L0.1,5.2C0,5.4,0,5.6,0.1,5.7l1.1,1.2
	C1.5,7.2,1.7,7.6,1.6,8c0,0.2,0,0.3,0,0.5s0,0.3,0,0.5c0,0.4-0.1,0.8-0.4,1.1l-1.1,1.2C0,11.4,0,11.7,0.1,11.8l1.1,1.8
	c0.1,0.2,0.3,0.3,0.5,0.2l1.6-0.4c0.1,0,0.2,0,0.3,0c0.3,0,0.6,0.1,0.8,0.2c0.3,0.2,0.6,0.4,0.9,0.5c0.4,0.2,0.6,0.5,0.8,0.9
	l0.5,1.5C6.5,16.9,6.7,17,6.9,17h2.1c0.2,0,0.4-0.1,0.5-0.3l0.5-1.6c0.1-0.4,0.4-0.7,0.8-0.9c0.3-0.1,0.6-0.3,0.9-0.5
	c0.3-0.2,0.8-0.3,1.1-0.2l1.6,0.4c0.2,0.1,0.4,0,0.5-0.2l1.1-1.8c0.1-0.2,0.1-0.4,0-0.6L14.8,10.1L14.8,10.1z M8,11.1
	c-1.5,0-2.7-1.2-2.7-2.6S6.5,5.9,8,5.9s2.7,1.2,2.7,2.6C10.6,10,9.5,11.1,8,11.1z"/>
</svg>
