<svg width="17" height="17" viewBox="0 0 17 17" fill="none" xmlns="http://www.w3.org/2000/svg">
<path d="M5.5 14.5H3.83333C3.09695 14.5 2.5 13.9031 2.5 13.1667V3.83333C2.5 3.09695 3.09695 2.5 3.83333 2.5H13.1666C13.903 2.5 14.4999 3.09695 14.4999 3.83333L14.5 13.1667C14.5 13.9031 13.9031 14.5 13.1667 14.5H11.5" stroke="white" stroke-width="1.5" stroke-linecap="round" stroke-linejoin="round"/>
<path d="M14.5 5.16602H2.5" stroke="white" stroke-width="1.5" stroke-linecap="round" stroke-linejoin="round"/>
<path d="M8.50033 14.4993H9.83366M8.50033 11.166V14.4993V11.166ZM8.50033 14.4993H7.16699H8.50033Z" stroke="white" stroke-width="1.5" stroke-linecap="round" stroke-linejoin="round"/>
<path d="M8.5 11.166C9.6046 11.166 10.5 10.1711 10.5 8.94382V7.16602H6.5V8.94382C6.5 10.1711 7.3954 11.166 8.5 11.166Z" stroke="white" stroke-width="1.5" stroke-linecap="round" stroke-linejoin="round"/>
<path d="M12.5 3.83851L12.5058 3.83203" stroke="white" stroke-width="1.5" stroke-linecap="round" stroke-linejoin="round"/>
<path d="M10.5 3.83851L10.5058 3.83203" stroke="white" stroke-width="1.5" stroke-linecap="round" stroke-linejoin="round"/>
</svg>
