<svg width="15" height="15" viewBox="0 0 15 15" fill="none" xmlns="http://www.w3.org/2000/svg">
<path d="M14.4992 0.564238C14.4909 0.25524 14.252 0.0214069 13.943 0.0163674C13.7726 0.0146971 13.6006 0.0163674 13.4302 0.0163674H1.13834C1.09158 0.0163674 1.04648 0.014697 0.999706 0.0197081C0.699051 0.0497734 0.503633 0.296975 0.501953 0.590943V1.15216V2.00402H0.637248H14.499V0.694513C14.499 0.651084 14.5007 0.607656 14.499 0.564231L14.4992 0.564238Z" fill="white"/>
<path d="M14.4993 14.2204V2.67383H0.502227V14.0167C0.502227 14.157 0.497216 14.299 0.502227 14.4376C0.512249 14.7483 0.751101 14.9805 1.06012 14.9838H1.23383H13.9414H13.9564C13.9648 14.9838 13.9731 14.9838 13.9798 14.9822H13.9815C14.2855 14.9588 14.4976 14.7166 14.4993 14.4126C14.5009 14.3491 14.4993 14.2857 14.4993 14.2205L14.4993 14.2204ZM12.1141 8.95399C12.1091 9.01579 12.1041 9.07592 12.0957 9.13772C12.0941 9.15108 12.0924 9.16612 12.0907 9.17948V9.17614V9.17781V9.18115V9.18282V9.18449V9.18616V9.1895V9.19117V9.19284V9.19117C12.0857 9.22291 12.0807 9.25464 12.0757 9.28471C12.0356 9.53024 11.9771 9.77244 11.9003 10.008C11.8636 10.1215 11.8235 10.2318 11.7784 10.342C11.775 10.3487 11.7734 10.3554 11.77 10.3621C11.77 10.3621 11.77 10.3637 11.7683 10.3637V10.3654V10.3671V10.3688V10.3704C11.7683 10.3721 11.7667 10.3738 11.7667 10.3754V10.3771C11.765 10.3788 11.765 10.3821 11.7633 10.3821C11.7516 10.4088 11.7399 10.4356 11.7266 10.4623C11.6999 10.5191 11.6731 10.5759 11.6447 10.631C11.5362 10.8465 11.4109 11.0553 11.2723 11.2523C11.2405 11.2974 11.2088 11.3409 11.1754 11.3843V11.386C11.1754 11.3876 11.1737 11.3876 11.1721 11.3893C11.1721 11.391 11.1704 11.391 11.1704 11.391L11.1687 11.3927C11.1687 11.3927 11.1687 11.3943 11.167 11.3943L11.1654 11.396C11.1587 11.4043 11.152 11.411 11.147 11.4194C11.1236 11.4478 11.1019 11.4762 11.0785 11.5046C11.0034 11.5948 10.9265 11.6816 10.8447 11.7651C10.7612 11.852 10.676 11.9355 10.5858 12.0157C10.5424 12.0541 10.4989 12.0925 10.4538 12.1293C10.4321 12.1476 10.4087 12.166 10.387 12.1844C10.3787 12.1911 10.3436 12.2178 10.3352 12.2261C10.3352 12.2261 10.3336 12.2261 10.3336 12.2278C10.1448 12.3714 9.94604 12.5017 9.74061 12.6153C9.63705 12.6721 9.53183 12.7256 9.4266 12.7757C9.39988 12.7874 9.37315 12.8007 9.34643 12.8124C9.33975 12.8158 9.33307 12.8174 9.32639 12.8208H9.32472H9.32305H9.32138H9.3197H9.31803C9.31803 12.8208 9.31636 12.8208 9.31469 12.8224H9.31302H9.31135H9.30968C9.30801 12.8224 9.30801 12.8241 9.30634 12.8241H9.30467C9.303 12.8241 9.303 12.8241 9.30133 12.8258C9.24287 12.8492 9.18441 12.8725 9.12595 12.8943C8.89712 12.9778 8.66329 13.0446 8.42442 13.0947C8.36428 13.1064 8.30583 13.1181 8.24569 13.1281C8.21563 13.1331 8.18556 13.1381 8.1555 13.1415C8.14715 13.1431 8.1388 13.1431 8.13044 13.1448C8.12877 13.1448 8.08869 13.1498 8.08535 13.1498C7.96341 13.1649 7.83981 13.1749 7.71621 13.1799C7.45898 13.1916 7.2001 13.1816 6.94452 13.1532C6.9345 13.1515 6.89942 13.1482 6.88606 13.1465H6.8894C6.88606 13.1465 6.88439 13.1465 6.88439 13.1448H6.88272C6.85766 13.1415 6.83261 13.1381 6.80755 13.1331C6.74742 13.1231 6.68729 13.1131 6.62716 13.1014C6.50022 13.0763 6.37495 13.0463 6.25134 13.0112C6.13609 12.9795 6.02083 12.9427 5.90892 12.9009C5.8538 12.8809 5.79701 12.8592 5.74189 12.8358C5.73187 12.8308 5.72018 12.8275 5.71015 12.8224C5.70848 12.8224 5.70848 12.8208 5.70681 12.8208C5.70514 12.8191 5.7018 12.8191 5.70013 12.8174C5.67007 12.8041 5.63833 12.7907 5.60827 12.7773C5.38946 12.6771 5.17899 12.5619 4.97857 12.4299C4.87835 12.3648 4.7798 12.2963 4.68627 12.2245C4.67959 12.2195 4.65453 12.1994 4.64785 12.1944C4.62447 12.176 4.60275 12.1577 4.57937 12.1393C4.53093 12.0992 4.48416 12.0591 4.43739 12.0174C4.257 11.857 4.08829 11.6816 3.93463 11.4962C3.91626 11.4729 3.89789 11.4511 3.87951 11.4278C3.87283 11.4211 3.85446 11.396 3.84611 11.3843C3.84611 11.3843 3.84611 11.386 3.84778 11.386C3.84611 11.3843 3.84611 11.3827 3.84443 11.3827L3.84276 11.381C3.80936 11.3376 3.77762 11.2941 3.74589 11.2507C3.67406 11.1488 3.60558 11.0436 3.54044 10.9367C3.48031 10.8348 3.42185 10.7313 3.37007 10.626C3.34334 10.5726 3.31829 10.5191 3.29324 10.4657C3.28154 10.4389 3.26818 10.4122 3.25649 10.3838C3.25315 10.3755 3.24981 10.3671 3.2448 10.3588C3.2448 10.3588 3.2448 10.3571 3.24313 10.3571C3.24313 10.3571 3.24313 10.3554 3.24146 10.3554C3.23979 10.3554 3.24146 10.3538 3.23979 10.3521V10.3504V10.3488C3.23812 10.3437 3.23478 10.3371 3.23311 10.332C3.14124 10.1066 3.06607 9.8744 3.00929 9.6372C2.97922 9.51193 2.95417 9.38499 2.93412 9.25637C2.93078 9.23131 2.92577 9.20626 2.92243 9.18121V9.18455C2.92243 9.17954 2.92076 9.16951 2.92076 9.16617V9.16784C2.91909 9.15448 2.91742 9.14279 2.91575 9.12943C2.90907 9.06429 2.90239 8.99915 2.89738 8.93233C2.87733 8.66843 2.87901 8.40285 2.90072 8.13893C2.90573 8.07713 2.91241 8.017 2.91909 7.9552V7.95019V7.94685V7.94351V7.94184V7.9385V7.93682C2.92076 7.92847 2.92076 7.92179 2.92243 7.91344C2.92744 7.88338 2.93078 7.85331 2.93579 7.82324C2.95751 7.6963 2.98256 7.57103 3.0143 7.44577C3.07276 7.2136 3.14792 6.98644 3.23812 6.76595C3.23812 6.76595 3.23812 6.76428 3.23979 6.76261C3.23979 6.76261 3.23979 6.76094 3.24146 6.75927C3.24146 6.7576 3.24313 6.75593 3.24313 6.75426V6.75259C3.24313 6.75092 3.2448 6.75092 3.2448 6.74925C3.24981 6.73756 3.25482 6.72587 3.25983 6.71417C3.27152 6.68745 3.28322 6.66072 3.29658 6.634C3.3233 6.57721 3.35003 6.52042 3.37842 6.4653C3.43187 6.36007 3.48866 6.25819 3.55046 6.15798C3.61393 6.05442 3.67908 5.95421 3.74923 5.85566C3.76593 5.83228 3.78264 5.80889 3.80101 5.78551C3.80936 5.77381 3.81771 5.76212 3.82773 5.75043C3.8294 5.74876 3.83274 5.74542 3.83608 5.74041L3.83942 5.73707C3.83942 5.73707 3.83942 5.7354 3.84109 5.7354V5.73373C3.84109 5.73373 3.84109 5.73206 3.84276 5.73206L3.84443 5.73039C3.84443 5.72872 3.84611 5.72872 3.84611 5.72872V5.72705C3.84945 5.72204 3.85279 5.7187 3.85446 5.71703C3.86281 5.70533 3.87283 5.69364 3.88118 5.68195C3.90123 5.6569 3.92294 5.63184 3.94298 5.60679C4.09832 5.42306 4.26536 5.25103 4.44574 5.09068C4.48917 5.05226 4.53427 5.01385 4.57937 4.9771C4.59941 4.9604 4.61945 4.94536 4.6395 4.92866C4.65119 4.92031 4.66288 4.91029 4.67291 4.90194C4.67458 4.90027 4.67625 4.8986 4.67792 4.8986C4.67792 4.8986 4.67625 4.8986 4.67625 4.90027C4.67792 4.8986 4.67792 4.8986 4.67959 4.8986C4.68126 4.8986 4.68293 4.89693 4.6846 4.89525C4.78148 4.82343 4.87835 4.75328 4.98024 4.68814C5.17901 4.5612 5.39281 4.44428 5.6133 4.34405C5.63835 4.33235 5.66341 4.32066 5.69013 4.31064H5.68846C5.6918 4.30897 5.69848 4.30563 5.70182 4.30396C5.70349 4.30396 5.70349 4.30229 5.70516 4.30229C5.71686 4.29728 5.72688 4.29394 5.73857 4.28893C5.79703 4.26554 5.85549 4.24216 5.91562 4.22044C6.02754 4.18036 6.14111 4.14361 6.25636 4.11187C6.37662 4.07847 6.49688 4.05007 6.61881 4.02502C6.67894 4.01332 6.7374 4.0033 6.79753 3.99328C6.82592 3.98827 6.85599 3.98493 6.88439 3.97992H6.87938C6.88439 3.97992 6.89274 3.97825 6.89608 3.97825H6.89274C6.90944 3.97658 6.92615 3.97324 6.94452 3.97157C7.20007 3.94317 7.4573 3.93315 7.71285 3.94484C7.83645 3.94985 7.96005 3.95987 8.08366 3.97491C8.09202 3.97658 8.0987 3.97658 8.10705 3.97825H8.10872H8.11039H8.11206H8.11373H8.1154H8.11707H8.12041H8.12208H8.12375H8.12542H8.13043C8.1605 3.98326 8.19056 3.9866 8.22063 3.99161C8.2841 4.00163 8.34757 4.01332 8.41104 4.02668C8.65324 4.07512 8.89209 4.1436 9.12427 4.23046C9.17605 4.24883 9.22783 4.27055 9.27961 4.29059C9.28128 4.29059 9.28295 4.29226 9.28462 4.29226H9.28629C9.29798 4.29727 9.30967 4.30229 9.32137 4.3073C9.35477 4.32233 9.38818 4.33736 9.42325 4.3524C9.53015 4.4025 9.63538 4.45595 9.73894 4.51274C9.84417 4.57121 9.94773 4.63468 10.0496 4.70149C10.0981 4.73323 10.1465 4.76663 10.1949 4.80004C10.2183 4.81674 10.2434 4.83344 10.2668 4.85182C10.2734 4.85683 10.3169 4.89023 10.3236 4.89357C10.5106 5.03889 10.686 5.19757 10.848 5.36793C10.9282 5.45145 11.0067 5.53997 11.0819 5.63017C11.1002 5.65188 11.1186 5.67526 11.137 5.69865C11.142 5.70366 11.1637 5.73372 11.1721 5.74375C11.1721 5.74375 11.1721 5.74542 11.1737 5.74542V5.74709C11.2088 5.79219 11.2422 5.83895 11.274 5.88572C11.4143 6.08449 11.5379 6.29328 11.6464 6.50873C11.6715 6.55884 11.6949 6.60895 11.7182 6.65906C11.7299 6.68578 11.7433 6.71251 11.755 6.73923C11.7583 6.74758 11.7617 6.75427 11.765 6.76095C11.765 6.76095 11.7667 6.76262 11.7667 6.76596C11.7717 6.77598 11.78 6.79769 11.78 6.80103C11.8251 6.91127 11.8652 7.02318 11.902 7.13676C11.9771 7.37394 12.0356 7.6178 12.074 7.86333C12.0774 7.88839 12.0824 7.91344 12.0857 7.93682V7.94017V7.94184C12.0874 7.95687 12.0924 7.99194 12.0924 8.0003C12.0991 8.0621 12.1058 8.1239 12.1108 8.18403C12.1208 8.3093 12.1241 8.4329 12.1241 8.55817C12.1275 8.69848 12.1225 8.82542 12.1141 8.95404L12.1141 8.95399Z" fill="white"/>
<path d="M6.18448 9.34905C6.10765 8.98492 5.9473 8.6542 5.80031 8.31512C5.70845 8.08963 5.63662 7.85578 5.59821 7.61526C5.58485 7.48164 5.5815 7.34634 5.59487 7.21271C5.6099 7.12418 5.63328 7.039 5.66335 6.95548C5.69007 6.90203 5.71847 6.85192 5.75187 6.80182C5.75856 6.79346 5.76691 6.78678 5.77359 6.7801C5.96901 6.60472 5.96568 6.24729 5.77359 6.07188C5.5648 5.87979 5.27415 5.8848 5.06536 6.07188C4.9 6.22054 4.79812 6.43769 4.71626 6.63979C4.54255 7.06907 4.56092 7.56346 4.65446 8.00776C4.73129 8.37189 4.8883 8.70261 5.0353 9.04001C5.0353 9.04001 5.0353 9.04168 5.03697 9.04168C5.12716 9.2655 5.20066 9.49601 5.24075 9.7332C5.25244 9.85179 5.25578 9.97038 5.24409 10.089C5.23072 10.1608 5.21235 10.2309 5.18897 10.2977C5.17393 10.3278 5.1589 10.3562 5.14053 10.3863C5.13552 10.393 5.13218 10.3996 5.12717 10.4063C5.08207 10.4531 5.01025 10.5082 5.10879 10.433C5.10712 10.4347 5.10545 10.4364 5.10545 10.4381C5.02695 10.5049 4.96682 10.5784 4.93508 10.6886C4.90167 10.8089 4.91671 10.9675 4.98519 11.0744C5.05367 11.1813 5.15723 11.2749 5.28418 11.3049C5.40611 11.3333 5.56479 11.3333 5.67002 11.2548C6.25296 10.8139 6.32645 10.0188 6.18448 9.34904L6.18448 9.34905ZM5.7435 6.80686C5.68838 6.88202 5.70843 6.84695 5.7435 6.80686V6.80686ZM5.1205 10.4246C5.1205 10.423 5.12217 10.423 5.12384 10.4213C5.13219 10.4146 5.14054 10.4079 5.15223 10.3996C5.14054 10.4079 5.13052 10.4163 5.12049 10.4246H5.1205Z" fill="white"/>
<path d="M8.26811 9.27419C8.19128 8.91006 8.0326 8.58103 7.88562 8.24363C7.88562 8.24196 7.88562 8.24196 7.88395 8.24029C7.79376 8.0148 7.72026 7.78264 7.68185 7.54212C7.66849 7.40683 7.66515 7.27153 7.67684 7.13624C7.69187 7.04939 7.71525 6.96253 7.74365 6.87902C7.77037 6.82557 7.80044 6.77379 7.83217 6.72368C7.83886 6.71533 7.84721 6.70865 7.85389 6.70197C8.04931 6.52659 8.04597 6.16916 7.85389 5.99375C7.6451 5.80167 7.35445 5.80668 7.14567 5.99375C6.9803 6.14241 6.87842 6.35956 6.79656 6.56166C6.62285 6.99258 6.64123 7.48532 6.73643 7.92962C6.81326 8.29543 6.97194 8.62779 7.1206 8.96687C7.21079 9.18902 7.28429 9.41951 7.3227 9.6567C7.3344 9.77529 7.33774 9.89388 7.32604 10.0141C7.31268 10.086 7.29431 10.1544 7.27092 10.2229C7.25589 10.253 7.24086 10.2814 7.22249 10.3114C7.21747 10.3181 7.21413 10.3248 7.20912 10.3315C7.16402 10.3783 7.0922 10.4334 7.19075 10.3582C7.18908 10.3599 7.18741 10.3616 7.18741 10.3632C7.10891 10.43 7.0471 10.5052 7.01704 10.6138C6.98363 10.734 6.99867 10.8944 7.06715 10.9996C7.13563 11.1065 7.23919 11.2 7.36613 11.2301C7.48807 11.2585 7.64674 11.2585 7.75198 11.18C8.33824 10.739 8.41008 9.94398 8.26809 9.27422L8.26811 9.27419ZM7.8305 6.73035C7.77203 6.81052 7.79375 6.77043 7.8305 6.73035V6.73035ZM7.20413 10.3499C7.20413 10.3483 7.2058 10.3483 7.20747 10.3466C7.21582 10.3399 7.22584 10.3332 7.23586 10.3249C7.22417 10.3332 7.21415 10.3416 7.20413 10.3499H7.20413Z" fill="white"/>
<path d="M10.3519 9.2413C10.2751 8.87717 10.1164 8.54814 9.96941 8.21074C9.96941 8.20907 9.96941 8.20907 9.96774 8.2074C9.87754 7.98191 9.80405 7.74975 9.76563 7.51088C9.75227 7.37558 9.74893 7.24029 9.76062 7.105C9.77565 7.01814 9.79904 6.93129 9.8291 6.84777C9.85583 6.79432 9.88589 6.74254 9.91763 6.69244C9.92431 6.68408 9.93099 6.6774 9.93934 6.67072C10.1348 6.49534 10.1314 6.13791 9.93934 5.9625C9.73055 5.77042 9.43991 5.77543 9.23112 5.9625C9.06576 6.11116 8.96387 6.32831 8.88201 6.53041C8.7083 6.96133 8.72668 7.45408 8.82188 7.89838C8.89871 8.26418 9.05739 8.59655 9.20437 8.93563C9.29456 9.15778 9.36639 9.38662 9.40647 9.62213C9.41817 9.74239 9.42151 9.86265 9.41149 9.98125V9.98292C9.39812 10.0531 9.37975 10.1232 9.35636 10.19C9.34133 10.2201 9.3263 10.2485 9.30793 10.2786C9.30292 10.2852 9.29958 10.2919 9.29456 10.2986C9.24947 10.3454 9.17597 10.4005 9.27619 10.3253C9.27452 10.327 9.27285 10.3287 9.27285 10.3303C9.19435 10.3971 9.13254 10.4723 9.10248 10.5809C9.06907 10.7011 9.08411 10.8615 9.15259 10.9667C9.22107 11.0736 9.32463 11.1672 9.45157 11.1972C9.57351 11.2256 9.73219 11.2256 9.83742 11.1471C10.422 10.7061 10.4938 9.91109 10.3519 9.24133L10.3519 9.2413ZM9.91092 6.69913C9.8558 6.77763 9.87751 6.73922 9.91092 6.69913V6.69913ZM9.28791 10.3169C9.28791 10.3152 9.28958 10.3152 9.28958 10.3135C9.29793 10.3069 9.30795 10.3002 9.31797 10.2918C9.30795 10.3002 9.29793 10.3085 9.28791 10.3169V10.3169Z" fill="white"/>
</svg>
