<svg width="44" height="35" viewBox="0 0 44 35" fill="none" xmlns="http://www.w3.org/2000/svg">
<g clip-path="url(#clip0_999_11562)">
<g opacity="0.5">
<path opacity="0.5" d="M43.4321 16.3184H39.1813C38.8679 16.3184 38.6138 16.5989 38.6138 16.945V21.6383C38.6138 21.9844 38.8679 22.2649 39.1813 22.2649H43.4321C43.7455 22.2649 43.9996 21.9844 43.9996 21.6383V16.945C43.9996 16.5989 43.7455 16.3184 43.4321 16.3184Z" fill="#D0D2D5"/>
<path opacity="0.1" d="M40.5428 18.0273H42.0701C42.0701 18.0273 43.3563 19.2699 42.0701 20.5569H40.5428C40.5428 20.5569 39.2567 19.403 40.5428 18.0273Z" fill="black"/>
<path opacity="0.5" d="M40.9045 18.7383H40.7036V19.4039H40.9045V18.7383Z" fill="#3F3D56"/>
<path opacity="0.5" d="M41.9095 18.6484H41.7085V19.4472H41.9095V18.6484Z" fill="#3F3D56"/>
<path opacity="0.5" d="M41.3066 19.8008C41.3705 19.8008 41.4319 19.8288 41.4771 19.8788C41.5223 19.9287 41.5477 19.9964 41.5477 20.067V20.2889H41.0654V20.067C41.0654 19.9964 41.0908 19.9287 41.1361 19.8788C41.1813 19.8288 41.2426 19.8008 41.3066 19.8008Z" fill="#3F3D56"/>
</g>
<path d="M24.991 10.5827C25.1184 10.5795 25.2454 10.5902 25.3724 10.5827C25.4886 10.5764 25.604 10.5556 25.7201 10.5427C25.9187 10.521 26.1188 10.5227 26.3182 10.5134C26.4492 10.5072 26.5875 10.493 26.6936 10.4078C26.7933 10.3284 26.8487 10.1988 26.9376 10.1047C27.2993 9.72085 27.5473 9.2074 27.8688 8.78138C27.9492 8.6731 28.0332 8.56526 28.106 8.44944C28.2454 8.22755 28.3439 7.97593 28.442 7.72742C28.4806 7.63529 28.5129 7.54005 28.5384 7.44251C28.5565 7.36441 28.5658 7.28364 28.5899 7.20731C28.6397 7.05111 28.7595 6.91442 28.774 6.74978L28.7571 6.75245C28.9034 6.54698 28.8809 6.18885 28.9532 5.9257C28.9995 5.76939 29.0555 5.61681 29.1208 5.46905L29.3897 4.82247C29.4359 4.71153 29.4842 4.59704 29.5642 4.51183C29.661 4.40843 29.7961 4.35696 29.8933 4.254C29.9512 4.19061 29.9945 4.11286 30.0195 4.02723L30.028 4.03611C30.0794 4.09158 30.1196 4.15948 30.1699 4.21672C30.278 4.34009 30.4279 4.41065 30.538 4.5318C30.5943 4.59349 30.6405 4.66849 30.7084 4.71331C30.7431 4.73423 30.7829 4.74261 30.8221 4.73727C30.8613 4.73194 30.898 4.71316 30.9271 4.68357C31.1244 4.49186 31.4187 4.47411 31.6321 4.30503C31.6912 4.25799 31.7426 4.20075 31.7981 4.14927C31.9305 4.03276 32.0744 3.93303 32.2269 3.85194C32.3165 3.85355 32.4054 3.86757 32.4918 3.89366C32.6156 3.93138 32.7366 3.99395 32.8652 3.99129C32.98 3.98504 33.09 3.93838 33.1791 3.85816C33.2446 3.80224 33.3045 3.72502 33.3142 3.63627C33.3166 3.59071 33.3092 3.54517 33.2924 3.50347C33.2756 3.46176 33.25 3.42512 33.2177 3.39663C33.2088 3.3882 33.1996 3.38065 33.1904 3.37311C33.1876 3.33328 33.1777 3.29448 33.161 3.25901C33.1444 3.22355 33.1214 3.19217 33.0935 3.16676C33.0283 3.11046 32.954 3.06857 32.8744 3.04339C32.8302 3.02419 32.7836 3.01252 32.7362 3.00877C32.6622 3.01322 32.5896 3.03199 32.5216 3.06424C32.3847 3.11288 32.2437 3.1456 32.1007 3.16187C32.0754 3.16454 32.024 3.15877 31.9802 3.15832L31.9653 3.11128C31.7981 3.19649 31.6035 3.12637 31.4203 3.12682C31.331 3.12682 31.2422 3.14412 31.1534 3.15034C31.055 3.15463 30.9565 3.15226 30.8584 3.14324L30.5613 3.12238C30.4345 3.11518 30.3081 3.10036 30.1827 3.078C30.1494 3.003 30.116 2.92801 30.0786 2.85611C30.0157 2.73527 29.9417 2.62182 29.858 2.51752C29.8916 2.48552 29.9271 2.45588 29.9641 2.42876L29.9713 2.42388C29.9806 2.41811 29.9918 2.4119 30.0043 2.40568C30.1202 2.46656 30.2482 2.49405 30.3763 2.48562C30.5045 2.47718 30.6286 2.43308 30.7371 2.35743C30.8457 2.28178 30.9352 2.17703 30.9972 2.05294C31.0592 1.92885 31.0918 1.78945 31.0919 1.64772C31.1139 1.63837 31.1354 1.62755 31.1562 1.61532C31.1683 1.60822 31.1803 1.60068 31.192 1.59225L31.2093 1.57938C31.2202 1.57019 31.2307 1.56026 31.2406 1.54964C31.2454 1.54432 31.2502 1.53899 31.2547 1.53323C31.2635 1.52173 31.2712 1.50924 31.2776 1.49595C31.28 1.49062 31.2824 1.48574 31.2844 1.48042C31.2864 1.47509 31.2844 1.47642 31.2864 1.4742C31.2884 1.47198 31.2892 1.46622 31.2904 1.46267C31.2916 1.45912 31.2904 1.45734 31.2925 1.45468L31.2949 1.44403C31.2951 1.44122 31.2951 1.4384 31.2949 1.4356C31.2949 1.43204 31.2949 1.42849 31.2949 1.42539V1.41607C31.2947 1.41282 31.2947 1.40956 31.2949 1.40631C31.2951 1.40306 31.2951 1.39979 31.2949 1.39654C31.2949 1.39344 31.2949 1.38989 31.2949 1.38678C31.2951 1.38353 31.2951 1.38027 31.2949 1.37702V1.36504C31.2951 1.36164 31.2951 1.35823 31.2949 1.35483C31.2949 1.35172 31.2949 1.34862 31.2949 1.34551V1.33486V1.32598C31.2949 1.32199 31.2949 1.318 31.2949 1.31445C31.295 1.31179 31.295 1.30912 31.2949 1.30646C31.2951 1.30232 31.2951 1.29817 31.2949 1.29403C31.2949 1.29137 31.2949 1.28915 31.2949 1.28693C31.2949 1.28471 31.2949 1.27806 31.292 1.27362V1.2674L31.2884 1.2532V1.24788C31.2884 1.243 31.2856 1.23812 31.2844 1.23323V1.2288L31.2796 1.21282V1.21016C31.2796 1.20261 31.2752 1.19463 31.2728 1.18708C31.2426 1.09123 31.2101 0.995816 31.1755 0.901735C31.1503 0.823009 31.1124 0.749947 31.0638 0.686062C30.9926 0.602632 30.8905 0.560917 30.8053 0.494351C30.7048 0.416247 30.6297 0.305748 30.5445 0.20723C30.4593 0.108712 30.356 0.0195138 30.2334 0.00309414C30.136 -0.00317515 30.0387 0.0164573 29.9496 0.060341C29.2113 0.361219 28.6068 0.954101 27.9448 1.4245C27.6872 1.60778 27.3986 1.77952 27.0935 1.756L27.3628 2.22817C27.3757 2.25125 27.3889 2.27255 27.403 2.29652C27.4171 2.32048 27.4311 2.34089 27.446 2.36308C27.484 2.42059 27.5319 2.46916 27.5871 2.50598C27.601 2.5149 27.6155 2.52262 27.6305 2.52905C27.6436 2.53451 27.657 2.5391 27.6707 2.54281C27.7667 2.56811 27.8716 2.5468 27.9689 2.5255C28.0023 2.5184 28.0356 2.51086 28.0686 2.50243L28.1088 2.49H28.1152C28.1152 2.49266 28.1152 2.49488 28.1152 2.4971C28.0927 2.54148 28.0714 2.58186 28.0525 2.6258C27.9904 2.78482 27.9424 2.95008 27.909 3.11927C27.833 3.4521 27.7567 3.79203 27.7768 4.13374C27.7836 4.24912 27.8013 4.36716 27.7712 4.47811C27.7567 4.53269 27.731 4.58861 27.7446 4.64275C27.759 4.67401 27.7713 4.70634 27.7816 4.73949C27.788 4.79097 27.7511 4.83534 27.7245 4.87795C27.698 4.92055 27.6843 4.98845 27.7221 5.01818C27.6839 5.03298 27.6501 5.05933 27.6248 5.09424C27.5994 5.12915 27.5834 5.17122 27.5786 5.21566C27.5795 5.24178 27.5748 5.26776 27.565 5.29154C27.5537 5.30761 27.5401 5.32155 27.5248 5.33281C27.484 5.37062 27.4572 5.42371 27.4496 5.48192C27.372 5.48192 27.3065 5.56535 27.2358 5.61505C27.1739 5.64965 27.1084 5.67588 27.0408 5.69316C26.8467 5.7615 26.6791 5.90218 26.5276 6.0504C26.4432 6.13161 26.358 6.22125 26.321 6.33752C26.3089 6.37568 26.3025 6.41562 26.2921 6.45423C26.2704 6.52899 26.239 6.59986 26.1988 6.66458C26.1217 6.79554 26.0268 6.91259 25.9175 7.01161C25.8621 7.06082 25.8134 7.1185 25.7728 7.18291C25.7113 7.28098 25.5863 7.31027 25.5204 7.40479C25.4967 7.45136 25.4698 7.49586 25.44 7.53793C25.3889 7.59118 25.3118 7.59562 25.2466 7.62668C25.0943 7.69635 25.024 7.89294 24.8881 7.99679C24.8806 8.00378 24.871 8.00728 24.8612 8.00655C24.8495 8.00655 24.8427 7.99102 24.8326 7.98347C24.813 7.96883 24.7868 7.97992 24.7635 7.98658C24.7402 7.99324 24.7089 7.99057 24.7028 7.96484C24.3753 7.74561 24.0533 7.50775 23.7253 7.28852L23.5758 7.18868L22.776 6.65348C22.7665 6.64695 22.7556 6.64349 22.7444 6.64349C22.7333 6.64349 22.7223 6.64695 22.7129 6.65348L22.688 6.67257C22.6478 6.62553 22.6032 6.58381 22.5766 6.5492C22.5658 6.53544 22.5549 6.52168 22.5437 6.50837C22.551 6.50866 22.5583 6.50715 22.565 6.50393C22.574 6.49855 22.5807 6.48958 22.584 6.47887C22.5872 6.46815 22.5866 6.45648 22.5823 6.44624C22.5737 6.42602 22.5611 6.40825 22.5453 6.39432C22.5103 6.35691 22.4782 6.31639 22.4492 6.27317C22.418 6.21904 22.3826 6.16796 22.3435 6.12051C22.3237 6.09677 22.2994 6.07825 22.2722 6.06634C22.2451 6.05443 22.2159 6.04944 22.1868 6.05173C22.1544 6.05857 22.1235 6.07228 22.0959 6.09211C21.986 6.16263 21.8847 6.24838 21.7945 6.34728C21.7905 6.35043 21.7872 6.35455 21.7849 6.35932C21.7826 6.36409 21.7813 6.36939 21.7812 6.37479C21.7812 6.38367 21.7892 6.39033 21.7901 6.39876C21.7903 6.40698 21.7875 6.41496 21.7824 6.42095C21.7283 6.49509 21.6642 6.55959 21.5923 6.61221C21.4902 6.69653 21.3904 6.7841 21.2929 6.87493C21.2318 6.92285 21.1835 6.98798 21.153 7.06353C21.1317 7.15117 21.1404 7.24438 21.1775 7.32536C21.2442 7.49887 21.3612 7.64266 21.4769 7.78156C21.4959 7.81014 21.5229 7.83104 21.5537 7.84102C21.5782 7.84475 21.603 7.83809 21.6232 7.82238C21.6944 7.77091 21.706 7.6644 21.7113 7.57121C21.7133 7.52683 21.7157 7.486 21.7181 7.4434C21.7179 7.43486 21.7194 7.42638 21.7225 7.41855C21.7287 7.40888 21.7372 7.40133 21.747 7.39681L21.8576 7.33246C21.8544 7.32669 21.8507 7.32092 21.8471 7.31515C21.9305 7.28061 22.0213 7.27413 22.108 7.29651C22.1667 7.31559 22.2205 7.3542 22.2768 7.37817C22.2678 7.46098 22.2819 7.54485 22.317 7.61869C22.5232 7.64221 22.7089 7.74339 22.8933 7.84546C23.0421 7.92684 23.1867 8.01706 23.3266 8.11572C23.4402 8.19737 23.5514 8.28273 23.6602 8.37178C23.8146 8.49781 23.9637 8.63138 24.1112 8.76629C24.2071 8.85971 24.3102 8.94361 24.4195 9.01702C24.7097 9.19675 25.0987 9.20296 25.3652 8.97886C25.7012 8.69617 26.1289 8.54928 26.4906 8.30477C26.5981 8.2384 26.6962 8.15514 26.782 8.05758C26.7812 8.0691 26.7796 8.08052 26.7772 8.09175C26.7555 8.20225 26.6691 8.28213 26.6365 8.39396C26.6112 8.48272 26.6204 8.58523 26.5714 8.66023C26.534 8.71747 26.4641 8.7583 26.4621 8.82886C26.4621 8.84839 26.4673 8.86792 26.4673 8.88744C26.4653 8.91216 26.4587 8.93617 26.448 8.958C26.4078 9.05785 26.3628 9.16258 26.2804 9.22427C26.2482 9.24867 26.2072 9.27086 26.2 9.31302C26.1995 9.32524 26.1967 9.33721 26.1916 9.34808C26.1779 9.36894 26.1478 9.35784 26.1261 9.36672C26.0959 9.37914 26.0911 9.42219 26.079 9.45547C26.068 9.48312 26.0494 9.50622 26.0258 9.52152C26.0022 9.53681 25.9748 9.54352 25.9476 9.54068C25.6731 9.50384 25.4034 9.64097 25.1269 9.63298C25.0316 9.62987 24.9368 9.61922 24.8411 9.61834C24.5477 9.61567 24.2603 9.70709 23.9777 9.79585C23.9463 9.85726 23.9268 9.92529 23.9207 9.99554C23.8241 10.0229 23.7234 10.0272 23.6253 10.008C23.6008 10.0027 23.5761 9.99896 23.5513 9.99687C23.5584 9.97685 23.5606 9.95512 23.5577 9.93386C23.4423 9.97427 23.3313 10.0289 23.2269 10.0967C23.1582 10.1411 23.0855 10.2032 23.079 10.2907C23.0781 10.3244 23.0824 10.358 23.0919 10.3901L23.1293 10.5467C23.1339 10.5757 23.1454 10.6028 23.1626 10.6253C23.1751 10.6386 23.1916 10.6466 23.2028 10.6608C23.2138 10.6775 23.2212 10.6968 23.2245 10.7171L23.2559 10.8529C23.2676 10.8981 23.2759 10.9443 23.2808 10.9909C23.2844 11.0353 23.2808 11.0761 23.2836 11.1187C23.2878 11.189 23.2971 11.2587 23.3114 11.3273L23.356 11.5732C23.3659 11.6419 23.3836 11.709 23.4086 11.7729C23.4275 11.8172 23.4528 11.8554 23.4681 11.8998C23.4802 11.9339 23.4858 11.9703 23.5003 12.0027C23.5263 12.0554 23.5672 12.0971 23.6168 12.1217C23.6341 12.1329 23.6535 12.1396 23.6735 12.1412C23.7306 12.1412 23.7716 12.0826 23.7981 12.0267C23.851 11.925 23.8796 11.8102 23.8813 11.693C23.8813 11.6459 23.8728 11.5993 23.8692 11.5523C23.8596 11.4192 23.8941 11.2896 23.8941 11.1569C23.8955 11.1391 23.8912 11.1214 23.882 11.1067C23.8729 11.092 23.8594 11.0812 23.8439 11.0761C23.8475 10.9634 23.8471 10.844 23.901 10.7477C23.9277 10.7029 23.9608 10.6632 23.999 10.6301C24.0139 10.6825 24.0304 10.7344 24.0489 10.785C24.3548 10.6865 24.6707 10.5915 24.991 10.5827ZM31.526 3.76762C31.5043 3.7765 31.4822 3.78538 31.4597 3.79336C31.2724 3.86215 31.0577 3.92916 30.864 3.88212C30.8053 3.86341 30.75 3.83336 30.7008 3.79336L30.6867 3.7836C30.9597 3.73079 31.2446 3.74366 31.526 3.76762Z" fill="url(#paint0_linear_999_11562)"/>
<path d="M32.6133 3.31044C32.6809 3.27843 32.7532 3.25995 32.8267 3.25586C32.8739 3.25981 32.9202 3.27163 32.9641 3.29092C33.0436 3.3165 33.1178 3.35869 33.1828 3.41517C33.2149 3.44384 33.2405 3.4805 33.2573 3.52215C33.2741 3.5638 33.2818 3.60926 33.2797 3.65481C33.2704 3.74357 33.2109 3.82034 33.1458 3.8767C33.0575 3.95685 32.9481 4.00352 32.8339 4.00983C32.7061 4.01205 32.5855 3.94859 32.4621 3.91087C32.3724 3.88284 32.2797 3.86792 32.1864 3.86649C32.1395 3.86929 32.0924 3.86601 32.0461 3.85673C32.023 3.8519 32.0011 3.84111 31.9824 3.82523C31.9637 3.80934 31.9486 3.78882 31.9384 3.76531C31.9268 3.72187 31.9268 3.67562 31.9384 3.63218C31.9477 3.57715 31.9461 3.44668 31.9903 3.41384C32.0256 3.38722 32.1511 3.40852 32.1945 3.40452C32.3367 3.38964 32.4771 3.35811 32.6133 3.31044Z" fill="#FBBEBE"/>
<path d="M29.7437 2.41797C29.8655 2.54944 29.9703 2.69876 30.0552 2.86174C30.1967 3.13422 30.2867 3.45108 30.4998 3.66054C30.5564 3.71314 30.6164 3.76106 30.6794 3.80388C30.7287 3.84385 30.7839 3.8739 30.8426 3.89263C31.0339 3.94012 31.2486 3.87399 31.4351 3.80388C31.6197 3.73072 31.7988 3.64169 31.9708 3.53761C31.972 3.62335 31.9936 3.70723 32.0335 3.7808C32.0781 3.85047 32.1694 3.8913 32.2345 3.84737C32.0696 3.93293 31.9141 4.0391 31.7711 4.16378C31.716 4.21526 31.665 4.27206 31.6063 4.31866C31.3945 4.48685 31.1015 4.50371 30.9057 4.69453C30.8767 4.72374 30.8402 4.74223 30.8012 4.7474C30.7622 4.75257 30.7227 4.74417 30.6883 4.72338C30.6203 4.679 30.5741 4.60267 30.5183 4.54099C30.4081 4.41939 30.2586 4.34839 30.1505 4.22458C30.1002 4.16733 30.0601 4.09943 30.0086 4.04352C29.9351 3.96364 29.8394 3.91038 29.7719 3.82163C29.7216 3.75639 29.6915 3.67696 29.6445 3.60728C29.6043 3.54693 29.5568 3.49412 29.5211 3.42977C29.4334 3.27579 29.4342 3.07476 29.4845 2.90213C29.5347 2.7295 29.6501 2.56841 29.7437 2.41797Z" fill="#F86D70"/>
<path opacity="0.1" d="M29.7437 2.41797C29.8655 2.54944 29.9703 2.69876 30.0552 2.86174C30.1967 3.13422 30.2867 3.45108 30.4998 3.66054C30.5564 3.71314 30.6164 3.76106 30.6794 3.80388C30.7287 3.84385 30.7839 3.8739 30.8426 3.89263C31.0339 3.94012 31.2486 3.87399 31.4351 3.80388C31.6197 3.73072 31.7988 3.64169 31.9708 3.53761C31.972 3.62335 31.9936 3.70723 32.0335 3.7808C32.0781 3.85047 32.1694 3.8913 32.2345 3.84737C32.0696 3.93293 31.9141 4.0391 31.7711 4.16378C31.716 4.21526 31.665 4.27206 31.6063 4.31866C31.3945 4.48685 31.1015 4.50371 30.9057 4.69453C30.8767 4.72374 30.8402 4.74223 30.8012 4.7474C30.7622 4.75257 30.7227 4.74417 30.6883 4.72338C30.6203 4.679 30.5741 4.60267 30.5183 4.54099C30.4081 4.41939 30.2586 4.34839 30.1505 4.22458C30.1002 4.16733 30.0601 4.09943 30.0086 4.04352C29.9351 3.96364 29.8394 3.91038 29.7719 3.82163C29.7216 3.75639 29.6915 3.67696 29.6445 3.60728C29.6043 3.54693 29.5568 3.49412 29.5211 3.42977C29.4334 3.27579 29.4342 3.07476 29.4845 2.90213C29.5347 2.7295 29.6501 2.56841 29.7437 2.41797Z" fill="black"/>
<path d="M22.6003 6.51485C22.5691 6.46973 22.5307 6.43137 22.4869 6.40169C22.4204 6.36911 22.3462 6.36072 22.2751 6.37773C22.0958 6.4079 21.9295 6.49843 21.7719 6.59961C21.6449 6.67994 21.5187 6.76913 21.4278 6.89561C21.3979 6.93374 21.3771 6.97949 21.3672 7.02874C21.362 7.06938 21.3651 7.11078 21.3764 7.14989C21.3845 7.19393 21.4016 7.23532 21.4265 7.27087C21.4514 7.30642 21.4833 7.33518 21.5199 7.35491C21.6039 7.3913 21.6975 7.35269 21.7819 7.31719C21.8953 7.26882 22.0199 7.224 22.1364 7.26216C22.2229 7.29057 22.2972 7.3629 22.3885 7.36556C22.4958 7.36911 22.5826 7.27326 22.6509 7.18184C22.71 7.10196 22.8394 6.95774 22.831 6.84546C22.8225 6.73319 22.6638 6.59517 22.6003 6.51485Z" fill="#FBBEBE"/>
<path d="M23.9554 9.96939C23.857 9.99832 23.7541 10.003 23.6539 9.98314C23.5929 9.97072 23.5181 9.95474 23.4791 10.0076C23.4665 10.0271 23.4582 10.0496 23.4546 10.0732C23.3545 10.5254 23.4461 11.0051 23.6154 11.4334C23.6175 11.4406 23.6214 11.4471 23.6266 11.452C23.6375 11.4609 23.6523 11.4547 23.6648 11.4489C23.7057 11.4308 23.7441 11.4061 23.7785 11.3757C23.8557 11.2985 23.8722 11.1729 23.8758 11.058C23.8794 10.943 23.8778 10.8214 23.9317 10.7229C23.9992 10.6009 24.1403 10.5414 24.1958 10.4123C24.2404 10.3071 24.2171 10.1824 24.1777 10.075C24.1644 10.0377 24.1592 9.94187 24.1278 9.92368C24.0965 9.90548 23.9912 9.95874 23.9554 9.96939Z" fill="#FBBEBE"/>
<path d="M22.5886 6.46962C22.5975 6.46416 22.6042 6.45517 22.6073 6.44446C22.6104 6.43375 22.6098 6.42212 22.6054 6.41193C22.5968 6.39165 22.5842 6.37375 22.5685 6.35957C22.5334 6.32221 22.5014 6.28152 22.4728 6.23797C22.4412 6.18412 22.4059 6.13307 22.3671 6.08531C22.3474 6.0616 22.3231 6.04307 22.296 6.03109C22.269 6.01911 22.2398 6.01398 22.2107 6.01609C22.1785 6.02247 22.1477 6.03606 22.1203 6.05603C22.011 6.12599 21.9103 6.21131 21.8209 6.30986C21.814 6.31741 21.8064 6.32673 21.808 6.33738C21.8096 6.34803 21.8161 6.35247 21.8169 6.36134C21.8171 6.36936 21.8145 6.37716 21.8096 6.38309C21.7559 6.45693 21.6922 6.52115 21.6207 6.57347C21.5194 6.65749 21.4203 6.74476 21.3233 6.83529C21.2626 6.88296 21.2147 6.94781 21.1846 7.02301C21.1641 7.11064 21.1731 7.20354 21.2099 7.28439C21.2771 7.45835 21.394 7.60214 21.5094 7.74192C21.5287 7.77043 21.5557 7.79141 21.5865 7.80183C21.6109 7.80549 21.6356 7.79883 21.6557 7.7832C21.726 7.73216 21.7361 7.62566 21.7421 7.53291L21.7485 7.40466C21.7484 7.39626 21.7499 7.38793 21.7529 7.38025C21.759 7.37049 21.7675 7.36292 21.7775 7.3585L21.8868 7.2946C21.8534 7.23457 21.8058 7.18569 21.7492 7.15317C21.6925 7.12066 21.629 7.10573 21.5652 7.10999C21.5361 7.11764 21.5055 7.11305 21.4792 7.09712C21.4666 7.08257 21.4595 7.06317 21.4595 7.04298C21.4595 7.02279 21.4666 7.00339 21.4792 6.98884C21.5059 6.96088 21.5385 6.94087 21.5741 6.9307C21.8623 6.81399 22.1227 6.62672 22.4025 6.48693C22.4331 6.46981 22.467 6.46113 22.5013 6.46164C22.5295 6.46385 22.5624 6.48205 22.5886 6.46962Z" fill="#F86D70"/>
<path d="M23.7242 11.117C23.7113 11.1437 23.7069 11.1747 23.6928 11.2009C23.6787 11.2271 23.6482 11.2453 23.6245 11.232C23.612 11.2223 23.6027 11.2085 23.5979 11.1925C23.4761 10.8847 23.4417 10.5433 23.4995 10.2135C23.5075 10.1596 23.5219 10.107 23.5425 10.0573C23.5638 10.0094 23.5947 9.96057 23.5859 9.9082C23.4711 9.94817 23.3608 10.0024 23.2571 10.0697C23.1888 10.1141 23.1168 10.1758 23.1104 10.2628C23.1098 10.2965 23.1143 10.3301 23.1237 10.3622L23.1615 10.5188C23.166 10.5479 23.1777 10.5751 23.1952 10.5974C23.2073 10.6107 23.2237 10.6191 23.2354 10.6333C23.2465 10.6499 23.2539 10.669 23.2571 10.6892L23.2889 10.825C23.3007 10.8704 23.3092 10.9167 23.3142 10.9635C23.3178 11.0079 23.3142 11.0487 23.3174 11.0913C23.322 11.1614 23.3314 11.2309 23.3455 11.2994L23.391 11.5453C23.4012 11.614 23.419 11.681 23.444 11.745C23.4629 11.7894 23.4882 11.8275 23.5039 11.8723C23.5155 11.9065 23.5216 11.9429 23.536 11.9753C23.5622 12.0278 23.6029 12.0697 23.6522 12.0947C23.6695 12.1059 23.6889 12.1127 23.7089 12.1146C23.7655 12.1169 23.8061 12.0561 23.8327 12.0001C23.8845 11.8985 23.9122 11.784 23.9131 11.6673C23.9131 11.6203 23.9042 11.5737 23.9006 11.5266C23.8905 11.3935 23.9243 11.2644 23.9239 11.1317C23.9247 11.0074 23.7655 11.0309 23.7242 11.117Z" fill="#F86D70"/>
<path d="M29.6216 3.38501C29.4964 3.32138 29.3863 3.22642 29.3001 3.10765C29.2557 3.04503 29.2154 2.97904 29.1795 2.91017C29.0268 2.62572 28.8958 2.32782 28.7876 2.01951C28.9588 2.05812 29.1385 2.09318 29.3069 2.03993C29.3947 2.01037 29.4766 1.96246 29.548 1.89881C29.6396 1.81568 29.7246 1.72408 29.8021 1.625C29.8606 1.74891 29.9278 1.86761 30.003 1.98002C30.046 2.04392 30.1915 2.17395 30.1807 2.26093C30.1698 2.34791 30.0091 2.3914 29.9439 2.43267L29.9371 2.43755C29.8411 2.50456 29.7573 2.59081 29.6899 2.69183C29.5637 2.88976 29.5199 3.16578 29.6216 3.38501Z" fill="#FBBEBE"/>
<path opacity="0.1" d="M29.9467 2.43134C29.8501 2.37896 29.7647 2.30433 29.6964 2.21247C29.6281 2.1206 29.5785 2.01365 29.5508 1.89881C29.6424 1.81568 29.7273 1.72408 29.8048 1.625C29.8634 1.74891 29.9306 1.86761 30.0058 1.98002C30.0488 2.04392 30.1943 2.17395 30.1835 2.26093C30.1726 2.34791 30.0118 2.39006 29.9467 2.43134Z" fill="black"/>
<path d="M30.3085 2.49636C30.7242 2.49636 31.0613 2.12423 31.0613 1.66517C31.0613 1.20612 30.7242 0.833984 30.3085 0.833984C29.8927 0.833984 29.5557 1.20612 29.5557 1.66517C29.5557 2.12423 29.8927 2.49636 30.3085 2.49636Z" fill="#FBBEBE"/>
<path d="M28.6617 6.84295C28.6097 6.87744 28.5504 6.89643 28.4896 6.89807C28.4289 6.8997 28.3688 6.88392 28.3153 6.85227C28.2595 6.81433 28.2092 6.76752 28.1658 6.71337C27.9186 6.43335 27.6835 6.13646 27.5183 5.78899C27.4799 5.71567 27.455 5.63467 27.4451 5.55068C27.4405 5.50871 27.4451 5.46612 27.4586 5.42655C27.4721 5.38698 27.4941 5.35161 27.5227 5.32347C27.5381 5.31225 27.5516 5.29831 27.5629 5.2822C27.5726 5.25854 27.5771 5.2327 27.5761 5.20676C27.5806 5.16249 27.5963 5.12053 27.6215 5.08574C27.6467 5.05094 27.6803 5.02474 27.7184 5.01017C27.6782 4.97999 27.6943 4.91298 27.7204 4.86993C27.7466 4.82689 27.7831 4.78118 27.7767 4.73148C27.7664 4.69833 27.7541 4.666 27.7397 4.63473C27.7253 4.58059 27.7514 4.52468 27.7655 4.47054C27.7948 4.35959 27.7771 4.24155 27.7699 4.12617C27.7486 3.78446 27.8237 3.44542 27.8981 3.11303C27.931 2.94425 27.9783 2.77931 28.0396 2.62045C28.0585 2.57607 28.0798 2.53169 28.1015 2.49219C28.1774 2.35639 28.2619 2.22663 28.3543 2.10389C28.3975 2.03168 28.4569 1.973 28.5267 1.93348C28.5332 1.93036 28.54 1.92769 28.5468 1.9255C28.5969 1.91121 28.6489 1.90686 28.7003 1.91263C28.8362 1.92195 28.9789 1.957 29.0757 2.06262C29.1726 2.16824 29.204 2.31646 29.2478 2.45936C29.2617 2.50718 29.2786 2.55389 29.2984 2.59914C29.3623 2.73938 29.4664 2.85121 29.5689 2.95993L29.6802 3.07842C29.7361 3.13789 29.833 3.1228 29.8856 3.18537C29.9071 3.21478 29.923 3.24855 29.9326 3.28477C29.9921 3.44484 30.0268 3.61481 30.0351 3.78757C30.0355 3.82599 30.0335 3.86439 30.0291 3.90251C30.0155 4.03625 29.9619 4.16118 29.8768 4.25753C29.7803 4.36004 29.6461 4.41063 29.55 4.51358C29.4696 4.59879 29.423 4.71284 29.3772 4.82422C29.2888 5.03901 29.2002 5.25409 29.1115 5.46947C29.0473 5.61684 28.9921 5.76881 28.9463 5.92434C28.8627 6.23454 28.9101 6.6721 28.6617 6.84295Z" fill="#F86D70"/>
<path d="M26.341 10.5007C26.1425 10.5096 25.9435 10.5069 25.7458 10.5278C25.6304 10.5402 25.5155 10.561 25.3997 10.5664C25.2735 10.5726 25.1469 10.5615 25.0203 10.5641C24.7016 10.5717 24.3873 10.6653 24.0806 10.7621C23.994 10.5286 23.9489 10.279 23.9475 10.0267C23.9467 10.01 23.9467 9.9933 23.9475 9.97659C23.9531 9.90517 23.9725 9.83588 24.0042 9.77334C24.2856 9.68459 24.5709 9.59583 24.8631 9.60027C24.9584 9.60027 25.0528 9.6127 25.1477 9.6158C25.423 9.62512 25.6907 9.48888 25.964 9.52705C25.9911 9.53001 26.0184 9.52339 26.0418 9.50816C26.0653 9.49293 26.0838 9.46986 26.0946 9.44229C26.1063 9.40945 26.1111 9.3664 26.1413 9.35353C26.163 9.34466 26.1927 9.35575 26.2064 9.33534C26.2113 9.32438 26.2141 9.31247 26.2148 9.30028C26.2229 9.2559 26.2635 9.23593 26.2952 9.21153C26.3756 9.15029 26.421 9.04556 26.4612 8.94526C26.4718 8.92356 26.4782 8.8997 26.4801 8.87515C26.4801 8.85562 26.4745 8.83609 26.4749 8.81612C26.4749 8.74601 26.546 8.70562 26.583 8.64838C26.6316 8.57294 26.6232 8.47087 26.6469 8.38211C26.6791 8.27028 26.7647 8.19085 26.786 8.08079C26.7884 8.06956 26.79 8.05813 26.7908 8.04662C26.7055 8.1437 26.6079 8.22652 26.501 8.29247C26.1441 8.53522 25.7172 8.68033 25.384 8.96124C25.1196 9.18313 24.7321 9.17647 24.4427 8.99585C24.3336 8.92213 24.2306 8.83793 24.1348 8.74423C23.9877 8.6111 23.839 8.47486 23.6851 8.34794C23.5779 8.25919 23.4668 8.17354 23.3519 8.091C23.2127 7.98935 23.0686 7.89617 22.9202 7.81186C22.7361 7.70891 22.5508 7.60684 22.3459 7.58243C22.3195 7.52304 22.3049 7.45815 22.303 7.39206C22.301 7.32596 22.3118 7.26016 22.3346 7.19901C22.3814 7.07737 22.4449 6.96438 22.5227 6.86396C22.581 6.76963 22.6539 6.68745 22.7381 6.62122C22.7475 6.61467 22.7584 6.6112 22.7695 6.6112C22.7806 6.6112 22.7915 6.61467 22.8008 6.62122L23.5975 7.16129L23.7466 7.26203C24.0733 7.48392 24.3949 7.72133 24.7217 7.94189C24.7277 7.96718 24.7594 7.97029 24.7823 7.96363C24.8053 7.95698 24.8314 7.94633 24.8511 7.96097C24.8607 7.96807 24.8676 7.98139 24.8796 7.98405C24.8892 7.9844 24.8986 7.98094 24.9061 7.97429C25.0412 7.87177 25.1103 7.67474 25.2619 7.60595C25.3266 7.57666 25.4033 7.57223 25.454 7.5172C25.4839 7.47524 25.5108 7.43073 25.5344 7.38407C25.5999 7.28954 25.7241 7.26114 25.7848 7.16218C25.825 7.09809 25.8733 7.0407 25.9282 6.99177C26.0377 6.89336 26.1326 6.77673 26.2096 6.64607C26.2493 6.58156 26.2803 6.511 26.3016 6.43661C26.3121 6.398 26.3185 6.35806 26.3302 6.3199C26.3668 6.20363 26.4508 6.11443 26.5348 6.03366C26.6871 5.88633 26.8515 5.74654 27.0444 5.67864C27.1117 5.66144 27.1769 5.63537 27.2385 5.60098C27.3161 5.54862 27.3872 5.45143 27.4761 5.47406C27.5098 5.48559 27.5401 5.50671 27.5641 5.5353C27.6731 5.6523 27.7732 5.77889 27.8635 5.91384C28.0069 6.11532 28.1501 6.31694 28.2932 6.51871C28.3383 6.59126 28.3955 6.65374 28.4616 6.70287C28.5576 6.75739 28.6678 6.77309 28.7731 6.74725C28.759 6.91189 28.6405 7.04769 28.5914 7.20389C28.5677 7.27978 28.5585 7.36055 28.5408 7.43821C28.5159 7.53565 28.484 7.63077 28.4455 7.72267C28.3491 7.97073 28.2518 8.22014 28.1135 8.44291C28.042 8.55874 27.9596 8.6648 27.8788 8.77352C27.5601 9.19821 27.3161 9.71033 26.9544 10.0924C26.8668 10.1861 26.8113 10.3143 26.7132 10.3946C26.6067 10.4816 26.4692 10.4949 26.341 10.5007Z" fill="#434175"/>
<path opacity="0.1" d="M27.8554 4.86914C27.8199 4.87103 27.7854 4.88236 27.7549 4.90214C27.8284 4.87398 27.9181 4.94921 27.986 4.91357C28.0178 4.89686 28.0129 4.89202 27.986 4.8819C27.9454 4.86694 27.8964 4.88058 27.8554 4.86914Z" fill="black"/>
<path d="M40.5442 19.5351L37.5898 20.6934L37.7781 21.2788L40.7324 20.1205L40.5442 19.5351Z" fill="#D0D2D5"/>
<path d="M38.5786 21.9062L41.2678 20.8519C41.3381 20.8243 41.4155 20.8287 41.4828 20.8641C41.5502 20.8995 41.6021 20.9631 41.6271 21.0407C41.652 21.1183 41.6481 21.2037 41.616 21.2781C41.5839 21.3525 41.5264 21.4098 41.4561 21.4374L38.7669 22.4917L38.5786 21.9062Z" fill="#D0D2D5"/>
<path d="M36.0162 20.0851L36.6715 19.8282C37.2541 19.5997 37.8951 19.6362 38.4534 19.9296C39.0116 20.2229 39.4415 20.7491 39.6484 21.3924L39.8811 22.1158C39.962 22.3674 39.949 22.6441 39.8452 22.8851C39.7413 23.1262 39.5549 23.3118 39.3271 23.4011L37.3341 24.1825C37.1062 24.2718 36.8556 24.2575 36.6373 24.1428C36.419 24.0281 36.2509 23.8224 36.17 23.5708L35.4623 21.3703C35.3814 21.1188 35.3943 20.8421 35.4982 20.601C35.6021 20.36 35.7884 20.1744 36.0162 20.0851Z" fill="#3F3D56"/>
<path opacity="0.1" d="M27.8189 5.3026C27.7916 5.29213 27.7623 5.29015 27.7341 5.29688C27.692 5.30177 27.6528 5.32281 27.6235 5.35627C27.6313 5.3601 27.6397 5.36207 27.6483 5.36207C27.6568 5.36207 27.6652 5.3601 27.673 5.35627C27.6992 5.34898 27.7263 5.34573 27.7534 5.34659C27.7767 5.34659 27.8462 5.37475 27.8643 5.36243C27.8908 5.34351 27.837 5.31008 27.8189 5.3026Z" fill="black"/>
<path opacity="0.1" d="M30.0291 3.90188C29.9686 3.8793 29.9108 3.84859 29.857 3.81047C29.716 3.7115 29.5974 3.57704 29.4579 3.47586C29.3875 3.427 29.3146 3.38256 29.2397 3.34273L28.769 3.07646C28.7332 3.05392 28.6948 3.03662 28.6549 3.02499C28.5781 3.00635 28.4917 3.06315 28.4137 3.05117C28.3733 3.04297 28.3349 3.0254 28.3011 2.99962C28.2673 2.97384 28.2388 2.94044 28.2176 2.90162C28.1751 2.82406 28.1452 2.73891 28.1292 2.65C28.1172 2.59757 28.1082 2.54436 28.1022 2.49068C28.0953 2.43494 28.0943 2.37848 28.0994 2.32249C28.1075 2.2113 28.1552 2.10818 28.2321 2.03581C28.2879 1.99206 28.3514 1.96181 28.4186 1.94706C28.4609 1.93524 28.504 1.92737 28.5476 1.92354C28.5723 1.92132 28.5972 1.92132 28.6219 1.92354C28.7996 1.93907 28.9499 2.0722 29.0685 2.21865C29.1308 2.29587 29.189 2.37885 29.2485 2.4574C29.2625 2.50522 29.2794 2.55193 29.2992 2.59719C29.3631 2.73742 29.4672 2.84925 29.5697 2.95798L29.681 3.07646C29.7369 3.13593 29.8337 3.12084 29.8864 3.18341C29.9078 3.21282 29.9238 3.2466 29.9334 3.28282C29.9927 3.44335 30.0271 3.61379 30.0351 3.78695C30.0355 3.82537 30.0335 3.86377 30.0291 3.90188Z" fill="black"/>
<path opacity="0.1" d="M26.3683 9.5815L23.9463 9.97513C23.9519 9.9037 23.9712 9.83441 24.003 9.77188C24.2843 9.68312 24.5697 9.59437 24.8619 9.59881C24.9571 9.59881 25.0516 9.61123 25.1465 9.61434C25.4218 9.62366 25.6895 9.48742 25.9628 9.52558C25.9899 9.52854 26.0171 9.52193 26.0406 9.50669C26.0641 9.49146 26.0826 9.4684 26.0934 9.44082C26.1051 9.40798 26.1099 9.36494 26.14 9.35207C26.1617 9.34319 26.1915 9.35429 26.2051 9.33387C26.21 9.32291 26.2129 9.311 26.2136 9.29881C26.2216 9.25444 26.2622 9.23447 26.294 9.21006C26.3743 9.14882 26.4198 9.04409 26.46 8.94379C26.4705 8.92209 26.4769 8.89823 26.4788 8.87368C26.4788 8.85415 26.4732 8.83462 26.4736 8.81465C26.4736 8.74454 26.5448 8.70415 26.5817 8.64691C26.6304 8.57146 26.6219 8.4694 26.6456 8.38064C26.6778 8.26881 26.7634 8.18937 26.7847 8.07932L26.7952 8.06423L27.2075 7.88672L26.3683 9.5815Z" fill="black"/>
<path opacity="0.1" d="M17.082 31.1379C26.5161 31.1379 34.164 30.4822 34.164 29.6734C34.164 28.8646 26.5161 28.209 17.082 28.209C7.64787 28.209 0 28.8646 0 29.6734C0 30.4822 7.64787 31.1379 17.082 31.1379Z" fill="#FFC200"/>
<path opacity="0.1" d="M32.1834 35.0009C38.2879 35.0009 43.2365 34.2902 43.2365 33.4135C43.2365 32.5369 38.2879 31.8262 32.1834 31.8262C26.079 31.8262 21.1304 32.5369 21.1304 33.4135C21.1304 34.2902 26.079 35.0009 32.1834 35.0009Z" fill="#FFC200"/>
<path d="M19.1021 28.4876L19.1133 27.8592C19.6492 27.8255 20.1851 27.803 20.721 27.7918C21.0321 27.7856 21.3472 27.7833 21.6483 27.8694C21.8569 27.9293 22.0542 28.0305 22.26 28.1015C22.67 28.2427 23.1041 28.2613 23.5345 28.2742C23.9521 28.287 24.3882 28.2915 24.7632 28.0878C25.4123 27.7328 25.6852 26.8607 25.717 26.0624C25.7487 25.264 25.6049 24.4595 25.7049 23.666" stroke="#3F3D56" stroke-width="9.46372" stroke-miterlimit="10"/>
<path d="M20.5712 29.718L13.4092 29.6168L13.4301 29.414L13.7765 26.0684H20.0659L20.529 29.414L20.5643 29.6674L20.5712 29.718Z" fill="#D0D2D5"/>
<path opacity="0.1" d="M20.5643 29.6655H16.99L13.4092 29.6149L13.4301 29.4121H20.529L20.5643 29.6655Z" fill="black"/>
<path d="M21.7189 29.4648H12.2153V29.7182H21.7189V29.4648Z" fill="#D0D2D5"/>
<path d="M30.7865 5.97425C30.7872 5.88737 30.7724 5.8012 30.7428 5.72067C30.7133 5.64014 30.6696 5.56685 30.6143 5.50501C30.5591 5.44316 30.4933 5.39397 30.4207 5.36026C30.3482 5.32656 30.2704 5.309 30.1917 5.30859H3.65152C3.57284 5.30906 3.49502 5.32666 3.42251 5.36038C3.35001 5.39411 3.28424 5.4433 3.22898 5.50514C3.17372 5.56697 3.13006 5.64024 3.10049 5.72074C3.07092 5.80124 3.05602 5.88739 3.05666 5.97425V23.7368H30.7865V5.97425Z" fill="#3F3D56"/>
<path d="M3.05664 23.5586V25.6394C3.05664 25.8136 3.11931 25.9807 3.23087 26.1039C3.34243 26.227 3.49373 26.2962 3.6515 26.2962H30.1917C30.3495 26.2962 30.5008 26.227 30.6123 26.1039C30.7239 25.9807 30.7866 25.8136 30.7866 25.6394V23.5586H3.05664Z" fill="#D0D2D5"/>
<path d="M29.7761 6.42578H4.2041V22.3932H29.7761V6.42578Z" fill="#2F2E41"/>
<path d="M17.0589 25.5078C17.1528 25.5078 17.2455 25.4843 17.3299 25.439C17.4144 25.3938 17.4884 25.3279 17.5465 25.2464C17.5642 25.2215 17.5803 25.1953 17.5947 25.1679L17.2547 25.1062L17.6225 25.1093C17.6577 25.0246 17.6769 24.9327 17.679 24.8395C17.681 24.7462 17.6657 24.6535 17.6341 24.567L17.1409 24.8497L17.5959 24.4805C17.5539 24.3978 17.4969 24.3257 17.4283 24.2687C17.3598 24.2116 17.2813 24.1709 17.1978 24.1492C17.1142 24.1274 17.0275 24.125 16.9431 24.1422C16.8587 24.1593 16.7784 24.1957 16.7074 24.2489C16.6364 24.302 16.5761 24.371 16.5305 24.4512C16.4848 24.5314 16.4548 24.6213 16.4422 24.715C16.4297 24.8088 16.4349 24.9044 16.4575 24.9958C16.4802 25.0872 16.5198 25.1724 16.5738 25.246C16.6315 25.3273 16.7051 25.393 16.7892 25.4384C16.8732 25.4837 16.9654 25.5075 17.0589 25.5078Z" fill="#FFC200"/>
<path opacity="0.1" d="M17.6787 26.2969L20.536 29.465L20.0975 26.2969H17.6787Z" fill="black"/>
<path d="M29.9513 6.29496L31.4859 4.04991C31.5775 3.91677 31.672 3.77787 31.7978 3.68202C32.1595 3.40599 32.6896 3.5693 32.9923 3.92299C33.295 4.27667 33.422 4.76882 33.5148 5.24454C33.731 6.33951 33.8277 7.45915 33.8026 8.5795C33.7897 9.16928 33.7419 9.76527 33.5719 10.3249C33.3138 11.176 32.7909 11.8927 32.3958 12.6769C31.7596 13.9403 31.4931 15.6253 32.2986 16.7654C32.561 17.1368 32.9183 17.4208 33.1607 17.8087C33.4344 18.2467 33.5409 18.7823 33.643 19.3024C33.7954 20.0879 33.9481 20.8782 33.9762 21.681C34.0671 24.2767 32.7266 26.8701 30.6567 28.1047C29.2198 28.962 27.4814 29.2105 26.2318 30.3732C25.7897 30.7828 25.4087 31.385 25.5172 32.009C25.6056 32.5153 26.0084 32.9001 26.4505 33.0674C26.8926 33.2347 27.3721 33.2209 27.8384 33.1916C28.9582 33.1209 30.0726 32.969 31.1744 32.7368C32.1081 32.5397 33.0401 32.3698 33.854 31.8275C33.9356 31.7799 34.0053 31.7108 34.057 31.6264C34.1097 31.5293 34.1185 31.4117 34.1257 31.2985C34.1478 30.9652 34.1687 30.6195 34.0622 30.3067C33.938 29.941 33.6547 29.6641 33.5188 29.3037C33.383 28.9434 33.4075 28.5285 33.4955 28.1499C33.604 27.6822 33.8014 27.2464 33.9999 26.8164C34.1933 26.3975 34.3894 25.9799 34.6169 25.5827C35.2576 24.4662 36.133 23.5413 36.9991 22.6294" stroke="#3F3D56" stroke-width="9.46372" stroke-miterlimit="10"/>
<path d="M32.4902 3.07802C32.5578 3.04559 32.6301 3.02709 32.7037 3.02344C32.7508 3.02748 32.7971 3.03914 32.8411 3.05805C32.9206 3.08379 32.9948 3.12613 33.0598 3.18275C33.0919 3.21137 33.1175 3.24802 33.1343 3.28968C33.1512 3.33135 33.1588 3.37683 33.1566 3.42239C33.1474 3.51115 33.0879 3.58747 33.0228 3.64428C32.9345 3.72456 32.8251 3.77125 32.7109 3.77741C32.5831 3.77741 32.4625 3.71617 32.3391 3.678C32.2494 3.64997 32.1567 3.63505 32.0634 3.63363C32.0164 3.63628 31.9694 3.63285 31.9231 3.62342C31.9 3.61867 31.8781 3.60796 31.8594 3.59215C31.8407 3.57634 31.8256 3.55589 31.8154 3.53245C31.8044 3.48966 31.8044 3.44432 31.8154 3.40153C31.8251 3.3465 31.8235 3.21559 31.8677 3.18275C31.903 3.15657 32.0284 3.17787 32.0718 3.17388C32.2139 3.15796 32.3541 3.12584 32.4902 3.07802Z" fill="#FBBEBE"/>
<path d="M31.9328 3.12203C31.7664 3.20634 31.571 3.13623 31.3902 3.13578C31.3013 3.13578 31.2129 3.1522 31.1245 3.15797C31.0265 3.16182 30.9284 3.15901 30.8307 3.14954L30.5365 3.12735C30.3631 3.121 30.1908 3.09483 30.0224 3.04925C29.8785 2.86198 29.645 2.77943 29.4714 2.62678C29.3323 2.50429 29.2326 2.33744 29.114 2.19055C28.9955 2.04366 28.8452 1.91097 28.6679 1.89544C28.5993 1.89165 28.5305 1.89974 28.4641 1.9194C28.397 1.93386 28.3336 1.96413 28.278 2.00816C28.2399 2.04392 28.2086 2.08767 28.1858 2.13687C28.163 2.18607 28.1493 2.23975 28.1454 2.29483C28.1381 2.40505 28.148 2.51584 28.1747 2.62234C28.1907 2.71139 28.2207 2.79669 28.2632 2.8744C28.2847 2.91307 28.3133 2.94635 28.3471 2.97211C28.381 2.99786 28.4193 3.01552 28.4597 3.02395C28.5373 3.03549 28.6233 2.97958 28.7009 2.99733C28.7408 3.00896 28.7791 3.02627 28.815 3.0488L29.2861 3.31507C29.3608 3.355 29.4336 3.39944 29.5039 3.4482C29.6438 3.54938 29.762 3.68385 29.903 3.78281C30.0441 3.88177 30.2222 3.9439 30.3789 3.87911C30.8612 3.68074 31.4046 3.77304 31.9163 3.8223C31.9131 3.81165 31.934 3.80189 31.94 3.79301C32.0033 3.69711 32.032 3.57861 32.0204 3.46063C32.0079 3.34391 31.9677 3.23386 31.9328 3.12203Z" fill="#F86D70"/>
<path d="M31.124 1.62727C31.1741 1.60184 31.2161 1.56041 31.2446 1.50834C31.2904 1.4147 31.2623 1.29976 31.2309 1.1977C31.1996 1.09563 31.1678 1.00643 31.1329 0.912349C31.1078 0.833404 31.07 0.760165 31.0211 0.696231C30.95 0.612358 30.8483 0.570199 30.7635 0.504077C30.663 0.425529 30.5878 0.314142 30.503 0.216068C30.4182 0.117994 30.3145 0.0270205 30.1923 0.0106009C30.0982 0.0053803 30.0043 0.0246872 29.9182 0.0669602C29.1843 0.364732 28.5842 0.954507 27.9271 1.42224C27.6714 1.60464 27.3845 1.7746 27.083 1.75019L27.3527 2.22326C27.4214 2.34441 27.4986 2.47266 27.6192 2.52458C27.7257 2.56896 27.8447 2.54677 27.9564 2.52458C28.0454 2.51036 28.1319 2.48164 28.2132 2.43937C28.374 2.34308 28.4773 2.14293 28.6501 2.07326C28.7792 2.02134 28.923 2.05329 29.0521 2.10299C29.1811 2.1527 29.3077 2.22015 29.4435 2.24056C29.6847 2.27651 29.9259 2.15625 30.1268 2.00093C30.2474 1.90862 30.3571 1.80256 30.4886 1.73466C30.5874 1.67801 30.6997 1.65618 30.8101 1.67209C30.9319 1.69073 31.0034 1.69694 31.124 1.62727Z" fill="#2F2E41"/>
<path opacity="0.1" d="M31.2444 1.50667C31.2894 1.4148 31.2629 1.30209 31.2323 1.20312C31.2422 1.25982 31.2352 1.31854 31.2122 1.37043C31.1834 1.42224 31.1415 1.46359 31.0916 1.48936C30.9711 1.55947 30.8979 1.55326 30.7741 1.53063C30.6637 1.515 30.5515 1.53683 30.4526 1.5932C30.3219 1.66287 30.2114 1.77071 30.0908 1.85947C29.8899 2.01479 29.6487 2.13461 29.4076 2.09866C29.2713 2.07869 29.1455 2.00991 29.0161 1.96109C28.8867 1.91227 28.7424 1.87944 28.6142 1.93136C28.4417 2.00103 28.3396 2.20161 28.1777 2.29747C28.0963 2.33968 28.0098 2.36839 27.9208 2.38267C27.8087 2.40664 27.6897 2.43016 27.5836 2.38267C27.463 2.3312 27.3859 2.2025 27.3167 2.08135L27.1258 1.7463C27.1105 1.7463 27.0949 1.7463 27.0796 1.7463L27.3493 2.21937C27.418 2.34052 27.4952 2.46877 27.6158 2.52069C27.7223 2.56507 27.8412 2.54288 27.953 2.52069C28.0419 2.50647 28.1285 2.47775 28.2098 2.43548C28.3706 2.33918 28.4739 2.13904 28.6467 2.06937C28.7757 2.01745 28.9196 2.0494 29.0486 2.0991C29.1777 2.14881 29.3043 2.21626 29.4401 2.23667C29.6813 2.27262 29.9224 2.15236 30.1234 1.99704C30.244 1.90473 30.3537 1.79867 30.4851 1.73077C30.584 1.67412 30.6962 1.65229 30.8067 1.6682C30.9305 1.69039 31.0036 1.6966 31.1238 1.62693C31.174 1.60115 31.2161 1.55923 31.2444 1.50667Z" fill="black"/>
<path d="M33.322 31.8631C33.3457 31.8223 33.3753 31.786 33.4096 31.7557C33.5852 31.5729 33.6668 31.3039 33.7102 31.0403C33.7537 30.7767 33.7661 30.5078 33.8356 30.25C33.8732 30.1177 33.9205 29.989 33.9771 29.8652C34.0173 29.7703 34.0676 29.5839 34.1415 29.5178C34.1559 29.5039 34.1734 29.4946 34.1922 29.4907C34.2267 29.409 34.2763 29.3362 34.3377 29.2768C34.4526 29.1618 34.5929 29.0704 34.6696 28.9218C34.6907 28.8701 34.7167 28.8212 34.7472 28.7758C34.7991 28.7123 34.8811 28.687 34.9289 28.62C34.9912 28.5339 34.9771 28.411 34.9691 28.3009C34.961 28.1909 34.9691 28.06 35.0551 28.0027C35.1065 27.9677 35.1729 27.9708 35.2263 27.9401C35.3067 27.8958 35.3385 27.7835 35.3369 27.6836C35.3352 27.5838 35.3071 27.4866 35.2999 27.3872C35.2774 27.0695 35.4671 26.7535 35.3935 26.4455C35.3658 26.3288 35.3027 26.2272 35.2557 26.1189C35.2396 26.0826 35.2261 26.0449 35.2155 26.0062C35.0902 26.0611 34.9586 26.0962 34.8244 26.1105C35.0459 25.562 34.9896 24.9243 35.0929 24.3354L35.0796 24.3149C34.9751 24.1633 34.9158 23.9795 34.91 23.7891C34.91 23.5672 35.0028 23.3644 35.0446 23.15C35.08 22.9672 35.0788 22.7768 35.125 22.5975C35.1574 22.4862 35.2001 22.3788 35.2524 22.2771C35.3027 22.1742 35.3553 22.0734 35.4104 21.974C35.4618 21.7859 35.5134 21.5977 35.5651 21.4096C35.6375 21.1433 35.7118 20.877 35.8525 20.6489C35.904 20.5651 35.9196 20.396 35.9988 20.3454C36.063 20.3084 36.1361 20.2943 36.2078 20.305C36.3196 20.2358 36.4176 20.1359 36.4317 19.9992C36.4331 19.9694 36.4304 19.9395 36.4237 19.9105H36.41C36.2327 19.8923 36.1435 19.7201 36.0515 19.5697C35.9024 19.3252 35.9594 18.995 36.0515 18.7176C36.0743 18.63 36.1156 18.5495 36.1721 18.4829C36.3011 18.3497 36.5053 18.379 36.6717 18.3147C36.7256 18.2886 36.7807 18.2657 36.8368 18.2459C36.9474 18.2171 37.0631 18.2574 37.1644 18.3134C37.2657 18.3693 37.3602 18.4429 37.4663 18.4873C37.5724 18.5317 37.7034 18.5667 37.7295 18.687C37.7369 18.7275 37.7337 18.7696 37.7203 18.8082C37.6959 18.8851 37.6531 18.9534 37.5965 19.0056C37.6417 19.1085 37.6661 19.221 37.6681 19.3353C37.6701 19.4496 37.6497 19.5631 37.6081 19.6678C37.5666 19.7725 37.505 19.8661 37.4276 19.942C37.3501 20.0179 37.2587 20.0744 37.1596 20.1075C37.129 20.1612 37.1005 20.2167 37.0744 20.2731C37.0278 20.3725 36.9884 20.4896 37.004 20.5961C37.0332 20.63 37.0601 20.6662 37.0844 20.7044C37.1998 20.8819 37.2653 21.0905 37.3256 21.2982C37.4069 21.5633 37.4719 21.8342 37.5201 22.1089C37.6182 22.3388 37.738 22.5589 37.8091 22.8008C37.9365 22.8011 38.0633 22.7825 38.1861 22.7453L38.5253 22.6601C38.6431 22.6308 38.7665 22.5989 38.8589 22.5128C38.908 22.4684 38.9462 22.4094 38.996 22.365C39.0458 22.3206 39.1459 22.2696 39.2006 22.306C39.2106 22.3127 39.2199 22.3206 39.2283 22.3295C39.2778 22.2186 39.5941 22.6725 39.3778 22.7174L39.3919 22.7617C39.4204 22.8536 39.4811 22.9654 39.4659 23.0613L37.9562 23.6333C37.8594 23.6766 37.7567 23.7017 37.6524 23.7074C37.6117 23.7071 37.5711 23.7011 37.5318 23.6897V23.7749V23.778C37.5278 24.3633 37.6122 24.9451 37.6278 25.53C37.6307 25.6365 37.6278 25.7519 37.5667 25.8353C37.4984 25.9267 37.377 25.9445 37.2713 25.9241C37.2461 25.9196 37.2212 25.9135 37.1966 25.9059C37.1609 26.053 37.1351 26.2028 37.1194 26.3541L37.0193 27.1422C37.0063 27.2234 37.001 27.3058 37.0036 27.3881C37.0153 27.5736 37.1041 27.7404 37.1684 27.9122C37.2327 28.0839 37.2709 28.2894 37.1861 28.4496C37.16 28.4993 37.1234 28.5419 37.0997 28.5934C37.0696 28.6729 37.0558 28.7589 37.0595 28.845C37.0534 29.0846 37.0475 29.324 37.0418 29.563C37.0594 29.5602 37.0773 29.5643 37.0925 29.5746C37.1761 29.646 37.1668 29.9886 37.1729 30.0947C37.1793 30.2722 37.1729 30.4532 37.1817 30.6325C37.1926 30.8749 37.2287 31.1151 37.2894 31.3483C37.3039 31.424 37.3356 31.4944 37.3815 31.5529C37.4284 31.5979 37.4843 31.6299 37.5446 31.6465C37.745 31.7158 37.9546 31.7473 38.1644 31.7397C38.2492 31.7366 38.3376 31.7277 38.4164 31.7632C38.4952 31.7988 38.5587 31.8964 38.5302 31.9851C38.5057 32.0597 38.4313 32.0952 38.3642 32.1232C38.2108 32.1826 38.0628 32.2578 37.9221 32.3477C37.8678 32.3886 37.8105 32.4243 37.7508 32.4546C37.6938 32.4774 37.6348 32.4934 37.5748 32.5026L36.8626 32.6357C36.7167 32.6637 36.541 32.6801 36.4482 32.547C36.3979 32.4751 36.3907 32.3774 36.3931 32.2865C36.3971 32.109 36.4293 31.9283 36.408 31.7508C36.3924 31.6457 36.3675 31.5426 36.3336 31.4428L36.1198 30.7452C36.0483 30.5114 35.9759 30.2757 35.9482 30.0308C35.9381 29.942 35.9389 29.8413 36.0004 29.7858C36.016 29.7717 36.0341 29.7614 36.0535 29.7556C36.0559 29.5417 36.0812 29.3274 36.0704 29.1135C36.0676 29.0602 36.0627 29.0065 36.0587 28.9533C36.0211 28.9921 35.9877 29.0356 35.959 29.0829C35.8907 29.2013 35.8654 29.3584 35.7605 29.4379C35.6713 29.5053 35.539 29.5018 35.4763 29.5994C35.4562 29.6369 35.441 29.6774 35.4313 29.7197C35.3947 29.8242 35.3401 29.9198 35.2705 30.0015C35.2463 30.0988 35.2131 30.1931 35.1713 30.2828C35.112 30.4204 35.0531 30.558 34.9944 30.6955C34.9313 30.8429 34.8678 30.9902 34.7934 31.1295C34.7371 31.218 34.6918 31.3144 34.6588 31.4162C34.6021 31.6354 34.6942 31.876 34.8409 32.0375C34.9876 32.199 35.1801 32.2918 35.3698 32.3783C35.39 32.3856 35.4086 32.3978 35.4241 32.4138C35.4404 32.4354 35.449 32.4629 35.4482 32.491C35.4482 32.5936 35.3722 32.6814 35.2846 32.7129C35.195 32.7395 35.1012 32.7433 35.0101 32.724C34.4964 32.6552 33.9844 32.5168 33.5302 32.2412C33.4623 32.2054 33.402 32.1542 33.3533 32.0908C33.3304 32.0592 33.3155 32.0215 33.31 31.9816C33.3045 31.9416 33.3086 31.9007 33.322 31.8631Z" fill="url(#paint1_linear_999_11562)"/>
<path d="M35.4938 21.9114C35.4084 22.0564 35.328 22.2052 35.2527 22.3578C35.2002 22.4585 35.1575 22.565 35.1253 22.6756C35.0782 22.8531 35.0799 23.043 35.0449 23.2241C35.0047 23.4371 34.9106 23.6403 34.9106 23.8582C34.9165 24.0476 34.9758 24.2302 35.0803 24.3806C35.1844 24.5294 35.3033 24.6649 35.4348 24.7844C35.7383 23.9163 35.9078 22.9981 35.9364 22.0681C35.9404 21.9394 35.9408 21.8062 35.8986 21.6864C35.8721 21.611 35.7471 21.4042 35.6663 21.4854C35.6369 21.5151 35.6293 21.6491 35.6112 21.6935C35.5773 21.7694 35.5381 21.8423 35.4938 21.9114Z" fill="#F86D70"/>
<path opacity="0.1" d="M35.4938 21.9114C35.4084 22.0564 35.328 22.2052 35.2527 22.3578C35.2002 22.4585 35.1575 22.565 35.1253 22.6756C35.0782 22.8531 35.0799 23.043 35.0449 23.2241C35.0047 23.4371 34.9106 23.6403 34.9106 23.8582C34.9165 24.0476 34.9758 24.2302 35.0803 24.3806C35.1844 24.5294 35.3033 24.6649 35.4348 24.7844C35.7383 23.9163 35.9078 22.9981 35.9364 22.0681C35.9404 21.9394 35.9408 21.8062 35.8986 21.6864C35.8721 21.611 35.7471 21.4042 35.6663 21.4854C35.6369 21.5151 35.6293 21.6491 35.6112 21.6935C35.5773 21.7694 35.5381 21.8423 35.4938 21.9114Z" fill="black"/>
<path d="M39.8084 22.3977C39.9655 22.3688 40.1399 22.383 40.2621 22.4953C40.3359 22.5644 40.3825 22.6624 40.3924 22.7687C40.4028 22.892 40.3381 23.0376 40.2264 23.0473C40.1995 23.0477 40.1726 23.0457 40.146 23.0416C40.0754 23.0411 40.0049 23.0475 39.9354 23.0606C39.7984 23.0748 39.6604 23.0526 39.5329 22.9957C39.4053 22.9389 39.2919 22.8492 39.2023 22.734C39.1066 22.6036 39.2328 22.5437 39.3466 22.517C39.5017 22.4806 39.6532 22.427 39.8084 22.3977Z" fill="#FBBEBE"/>
<path d="M37.12 26.4048L37.0204 27.1867C37.0075 27.2673 37.0023 27.3491 37.0051 27.4308C37.0167 27.615 37.1052 27.7805 37.1695 27.9509C37.2338 28.1213 37.2724 28.325 37.1876 28.4834C37.1614 28.5331 37.1245 28.5748 37.1011 28.6259C37.0711 28.705 37.0573 28.7905 37.061 28.8762L37.0336 29.9856C36.7234 30.0087 36.412 30.0068 36.102 29.9798C36.0898 29.981 36.0776 29.9775 36.0674 29.9701C36.0593 29.9586 36.0552 29.9442 36.0557 29.9297C36.0421 29.6701 36.0831 29.41 36.0698 29.1504C36.065 29.0555 36.0525 28.9609 36.0513 28.8655C36.0461 28.479 36.2193 28.1005 36.1671 27.7179C36.1506 27.6217 36.1292 27.5265 36.1028 27.433C35.9376 26.7674 35.9725 26.0675 36.0087 25.3806C36.0084 25.3695 36.0112 25.3587 36.0168 25.3495C36.023 25.343 36.0306 25.3385 36.0389 25.3362C36.2147 25.2781 36.4007 25.2676 36.581 25.3055C36.7614 25.3434 36.9308 25.4287 37.075 25.5541C37.1188 25.5931 37.2294 25.6309 37.2583 25.677C37.2985 25.7423 37.2454 25.8066 37.2225 25.8758C37.1713 26.0476 37.1369 26.2249 37.12 26.4048Z" fill="#3F3D56"/>
<path opacity="0.1" d="M37.12 26.4048L37.0204 27.1867C37.0075 27.2673 37.0023 27.3491 37.0051 27.4308C37.0167 27.615 37.1052 27.7805 37.1695 27.9509C37.2338 28.1213 37.2724 28.325 37.1876 28.4834C37.1614 28.5331 37.1245 28.5748 37.1011 28.6259C37.0711 28.705 37.0573 28.7905 37.061 28.8762L37.0336 29.9856C36.7234 30.0087 36.412 30.0068 36.102 29.9798C36.0898 29.981 36.0776 29.9775 36.0674 29.9701C36.0593 29.9586 36.0552 29.9442 36.0557 29.9297C36.0421 29.6701 36.0831 29.41 36.0698 29.1504C36.065 29.0555 36.0525 28.9609 36.0513 28.8655C36.0461 28.479 36.2193 28.1005 36.1671 27.7179C36.1506 27.6217 36.1292 27.5265 36.1028 27.433C35.9376 26.7674 35.9725 26.0675 36.0087 25.3806C36.0084 25.3695 36.0112 25.3587 36.0168 25.3495C36.023 25.343 36.0306 25.3385 36.0389 25.3362C36.2147 25.2781 36.4007 25.2676 36.581 25.3055C36.7614 25.3434 36.9308 25.4287 37.075 25.5541C37.1188 25.5931 37.2294 25.6309 37.2583 25.677C37.2985 25.7423 37.2454 25.8066 37.2225 25.8758C37.1713 26.0476 37.1369 26.2249 37.12 26.4048Z" fill="black"/>
<path d="M35.2558 26.1689C35.3028 26.2768 35.3659 26.3775 35.3936 26.4933C35.4672 26.7991 35.2779 27.1146 35.3004 27.4279C35.3076 27.5269 35.3353 27.6232 35.3373 27.7221C35.3394 27.8211 35.3064 27.9311 35.2268 27.9764C35.1734 28.007 35.1062 28.0039 35.056 28.0385C34.9712 28.0953 34.9615 28.2258 34.97 28.3345C34.9784 28.4433 34.9921 28.5657 34.9298 28.6514C34.882 28.7175 34.8 28.7428 34.7485 28.8054C34.7178 28.8504 34.6916 28.8991 34.6705 28.9505C34.5938 29.0983 34.4539 29.1892 34.339 29.3055C34.224 29.4218 34.1267 29.5922 34.1782 29.7528C34.216 29.8713 34.3221 29.9441 34.4242 29.9996C34.6104 30.1012 34.807 30.178 35.0098 30.2281C35.0316 30.2353 35.0546 30.2365 35.0769 30.2317C35.0995 30.2224 35.1196 30.2072 35.1356 30.1873C35.2542 30.059 35.3767 29.9246 35.4314 29.752C35.4412 29.71 35.4563 29.6698 35.4764 29.6326C35.5391 29.5358 35.671 29.5389 35.7606 29.4724C35.8651 29.3938 35.8904 29.2376 35.9587 29.12C36.0234 29.0091 36.1271 28.9327 36.1999 28.8289C36.3205 28.6567 36.353 28.4273 36.4411 28.2307C36.4784 28.1468 36.5263 28.0692 36.556 27.9817C36.5861 27.8776 36.6045 27.7699 36.6111 27.6609C36.6677 27.1426 36.812 26.6207 36.7212 26.1077C36.7011 25.9945 36.6702 25.8858 36.6573 25.7695C36.6348 25.568 36.6702 25.3626 36.6432 25.1615C36.6426 25.1364 36.6368 25.1118 36.6263 25.0895C36.6158 25.0672 36.6008 25.0478 36.5825 25.0329C36.5608 25.0222 36.5372 25.0167 36.5134 25.0169C36.2751 25.0032 36.0362 25.0093 35.7988 25.0351C35.6782 25.0479 35.5427 25.075 35.4708 25.1837C35.4093 25.2765 35.4125 25.4016 35.3904 25.5148C35.3663 25.6537 35.3024 25.73 35.2353 25.8392C35.1681 25.9484 35.2063 26.0566 35.2558 26.1689Z" fill="#3F3D56"/>
<path d="M36.1837 29.7765C36.1202 29.7765 36.0499 29.7725 36.0008 29.8169C35.9397 29.8719 35.9385 29.9736 35.9486 30.0605C35.9767 30.3033 36.0487 30.5372 36.1206 30.7706L36.3344 31.4633C36.3683 31.5621 36.3932 31.6644 36.4088 31.7686C36.4301 31.9461 36.3979 32.1237 36.3939 32.3012C36.3939 32.3899 36.3991 32.4884 36.4494 32.5599C36.5402 32.6886 36.7175 32.6735 36.8634 32.646L37.5752 32.5128C37.6352 32.5038 37.6942 32.4879 37.7512 32.4654C37.8107 32.4351 37.8678 32.3995 37.922 32.3589C38.0629 32.27 38.2109 32.1957 38.3642 32.137C38.4309 32.1094 38.5056 32.0739 38.5298 31.9998C38.5583 31.9111 38.4948 31.8139 38.416 31.778C38.3372 31.742 38.2492 31.7513 38.164 31.7544C37.9544 31.7619 37.7452 31.7305 37.545 31.6617C37.4847 31.6457 37.4287 31.6139 37.3818 31.5689C37.3358 31.5112 37.304 31.4414 37.2894 31.3661C37.2291 31.1347 37.193 30.8965 37.1817 30.6561C37.1736 30.4786 37.1793 30.3011 37.1728 30.1235C37.1688 30.0184 37.1781 29.6798 37.0925 29.6074C37.0286 29.5533 36.7653 29.7028 36.6793 29.7246C36.5167 29.7647 36.3502 29.7822 36.1837 29.7765Z" fill="#2F2E41"/>
<path d="M33.8381 30.2679C33.769 30.5226 33.7578 30.7911 33.7131 31.0525C33.6685 31.3138 33.5886 31.581 33.4129 31.7625C33.3786 31.7924 33.3491 31.8284 33.3257 31.869C33.3109 31.907 33.3058 31.9488 33.3111 31.9897C33.3165 32.0307 33.3319 32.0692 33.3558 32.1011C33.4044 32.1642 33.4645 32.2152 33.5323 32.2506C33.9861 32.524 34.4969 32.6616 35.0118 32.7299C35.1027 32.7491 35.1964 32.7455 35.2859 32.7193C35.3735 32.6864 35.4511 32.5995 35.4495 32.4974C35.4503 32.4695 35.4417 32.4423 35.4254 32.4211C35.4097 32.4053 35.3913 32.3933 35.3711 32.386C35.1814 32.2999 34.9885 32.2058 34.8422 32.0474C34.6959 31.889 34.6034 31.648 34.6601 31.4323C34.6933 31.3314 34.7384 31.2357 34.7944 31.1479C34.868 31.0083 34.9351 30.8646 34.9953 30.7174L35.1722 30.3078C35.2236 30.1884 35.2763 30.0651 35.2847 29.9324C35.0627 29.9435 34.841 29.9044 34.6332 29.8174C34.5361 29.7737 34.4457 29.7139 34.3651 29.6399C34.2968 29.5769 34.2345 29.4598 34.1424 29.5419C34.0685 29.6075 34.0218 29.7921 33.978 29.8862C33.9225 30.0092 33.8757 30.1368 33.8381 30.2679Z" fill="#2F2E41"/>
<path d="M36.429 20.0975C36.4113 20.2675 36.2618 20.3802 36.1191 20.4472L37.0219 20.7658C36.9636 20.6425 37.011 20.4916 37.0689 20.3664C37.1161 20.2675 37.1698 20.1726 37.2297 20.0824C37.2385 20.0687 37.2486 20.0509 37.2421 20.0354C37.2364 20.025 37.2274 20.0172 37.2168 20.0136C37.0311 19.9222 36.8398 19.8277 36.6368 19.7944C36.5782 19.7847 36.4672 19.7589 36.4234 19.825C36.3796 19.8912 36.4387 20.019 36.429 20.0975Z" fill="#FBBEBE"/>
<path opacity="0.1" d="M36.429 20.0975C36.4113 20.2675 36.2618 20.3802 36.1191 20.4472L37.0219 20.7658C36.9636 20.6425 37.011 20.4916 37.0689 20.3664C37.1161 20.2675 37.1698 20.1726 37.2297 20.0824C37.2385 20.0687 37.2486 20.0509 37.2421 20.0354C37.2364 20.025 37.2274 20.0172 37.2168 20.0136C37.0311 19.9222 36.8398 19.8277 36.6368 19.7944C36.5782 19.7847 36.4672 19.7589 36.4234 19.825C36.3796 19.8912 36.4387 20.019 36.429 20.0975Z" fill="black"/>
<path d="M36.9553 20.2357C37.3464 20.2357 37.6635 19.8857 37.6635 19.4538C37.6635 19.022 37.3464 18.6719 36.9553 18.6719C36.5641 18.6719 36.2471 19.022 36.2471 19.4538C36.2471 19.8857 36.5641 20.2357 36.9553 20.2357Z" fill="#FBBEBE"/>
<path d="M37.5672 25.8866C37.4988 25.9753 37.3779 25.9948 37.2722 25.9753C37.025 25.9309 36.8224 25.7299 36.5808 25.6576C36.2842 25.5688 35.9699 25.6829 35.6902 25.8222C35.4104 25.9616 35.1315 26.1306 34.8252 26.1573C35.1021 25.4756 34.9438 24.6551 35.2082 23.9677C35.2733 23.7999 35.3638 23.6375 35.3783 23.456C35.3963 23.2301 35.2942 23.0122 35.2786 22.7872C35.2641 22.5871 35.3188 22.3878 35.3706 22.1975L35.5647 21.4941C35.6371 21.2323 35.7115 20.9655 35.8517 20.7397C35.9032 20.6567 35.9193 20.4889 35.998 20.4383C36.1701 20.3292 36.4309 20.4672 36.6174 20.4747C36.8039 20.4823 36.9739 20.6287 37.0828 20.7942C37.1982 20.9691 37.2637 21.1772 37.324 21.3831C37.4203 21.6897 37.4921 22.0049 37.5386 22.3253C37.5447 22.3732 37.5499 22.4211 37.5539 22.4695C37.5941 22.9253 37.5354 23.3837 37.5322 23.8412C37.5322 23.8412 37.5322 23.8412 37.5322 23.8448C37.5286 24.4252 37.6126 25.0026 37.6287 25.583C37.6311 25.6909 37.6287 25.8067 37.5672 25.8866Z" fill="#F86D70"/>
<path opacity="0.1" d="M37.5317 23.8462C37.3931 23.8076 37.2673 23.7091 37.16 23.6008C37.0669 23.5092 36.984 23.4057 36.9132 23.2924C36.8241 23.1376 36.7527 22.9712 36.7005 22.7971C36.5517 22.3349 36.4571 21.8534 36.4192 21.3646C36.4087 21.2315 36.4055 21.089 36.4775 20.9834C36.5177 20.9262 36.5744 20.8857 36.6382 20.8685C36.702 20.8513 36.7691 20.8585 36.8288 20.8889C36.924 20.9404 36.9855 21.0438 37.0422 21.1423C37.1555 21.3389 37.2693 21.5373 37.342 21.7556C37.3742 21.8523 37.3979 21.9522 37.4292 22.0494C37.4611 22.1452 37.4979 22.239 37.5394 22.3303C37.5454 22.3782 37.5506 22.4261 37.5546 22.4745C37.592 22.928 37.535 23.3865 37.5317 23.8462Z" fill="black"/>
<path d="M36.4797 20.8974C36.4081 21.0026 36.4113 21.1468 36.4214 21.2786C36.4593 21.7673 36.5539 22.2486 36.7027 22.7107C36.7546 22.885 36.826 23.0513 36.9154 23.206C36.9861 23.3193 37.069 23.4229 37.1621 23.5144C37.2988 23.6524 37.4652 23.7753 37.6505 23.7771C37.7547 23.7715 37.8574 23.7467 37.9543 23.7039L39.462 23.1385C39.4773 23.0431 39.4166 22.9326 39.388 22.8412L39.3076 22.5776C39.2847 22.5052 39.2578 22.4267 39.1983 22.3872C39.1388 22.3477 39.0436 22.4018 38.9937 22.4458C38.9439 22.4897 38.9057 22.5474 38.8571 22.5922C38.7638 22.6774 38.6412 22.7089 38.5235 22.7382L38.1847 22.8225C38.0618 22.8593 37.935 22.8778 37.8076 22.8776C37.7132 22.5594 37.5335 22.2789 37.4318 21.9629C37.4005 21.8662 37.3764 21.7663 37.3442 21.6696C37.2715 21.4513 37.1577 21.2529 37.0448 21.0563C36.9881 20.9573 36.9266 20.8539 36.8314 20.8029C36.7717 20.7726 36.7044 20.7654 36.6406 20.7826C36.5768 20.7997 36.52 20.8402 36.4797 20.8974Z" fill="#F86D70"/>
<path d="M36.7289 19.6298C36.7343 19.5785 36.7488 19.5289 36.7715 19.4838C36.7834 19.4611 36.8015 19.4432 36.8231 19.4326C36.8448 19.422 36.8689 19.4193 36.8921 19.4248C36.9628 19.4492 36.9866 19.5703 37.0605 19.5743C37.1103 19.577 37.1461 19.5211 37.1618 19.4683C37.1775 19.4154 37.1859 19.3564 37.2233 19.3191C37.2493 19.2976 37.2791 19.2824 37.3109 19.2748C37.4825 19.2149 37.6598 19.1039 37.7169 18.9153C37.7301 18.8771 37.7333 18.8356 37.7261 18.7955C37.7 18.6761 37.5653 18.6402 37.4628 18.5967C37.3603 18.5532 37.2619 18.4804 37.1614 18.4245C37.0609 18.3686 36.9444 18.3286 36.8338 18.357C36.7777 18.3765 36.7225 18.3993 36.6686 18.4254C36.5022 18.4888 36.2981 18.4596 36.169 18.5918C36.1128 18.6579 36.0715 18.7377 36.0485 18.8248C35.958 19.1004 35.9014 19.4283 36.0505 19.6706C36.1421 19.8202 36.2317 19.991 36.4086 20.0088C36.6144 20.0292 36.6964 19.8215 36.7289 19.6298Z" fill="#2F2E41"/>
<g opacity="0.1">
<path opacity="0.1" d="M37.0436 19.374C37.0593 19.3216 37.0678 19.2622 37.1047 19.2249C37.1308 19.2036 37.1607 19.1884 37.1924 19.1805C37.3644 19.1206 37.5412 19.0101 37.5987 18.8211C37.6118 18.7828 37.6149 18.7413 37.6075 18.7012C37.6036 18.6823 37.5964 18.6644 37.5862 18.6484C37.6517 18.6795 37.7088 18.7217 37.7249 18.7953C37.7321 18.8354 37.7289 18.877 37.7157 18.9151C37.6586 19.1037 37.4813 19.2147 37.3097 19.2746C37.278 19.2822 37.2481 19.2974 37.2221 19.319C37.1847 19.3562 37.1763 19.4157 37.1606 19.4681C37.1449 19.5204 37.1092 19.5768 37.0593 19.5741C37.0095 19.5715 36.9854 19.5213 36.9536 19.4792C36.9974 19.473 37.0288 19.4224 37.0436 19.374Z" fill="black"/>
<path opacity="0.1" d="M36.2909 19.9137C36.4975 19.9345 36.5791 19.7273 36.6125 19.5356C36.6179 19.4843 36.6324 19.4347 36.6551 19.3896C36.6669 19.367 36.685 19.3491 36.7067 19.3386C36.7284 19.328 36.7525 19.3254 36.7756 19.331C36.8138 19.3439 36.8383 19.3856 36.8645 19.4197C36.846 19.4217 36.8282 19.4283 36.8125 19.4391C36.7967 19.4499 36.7834 19.4645 36.7736 19.4819C36.7509 19.527 36.7365 19.5766 36.731 19.6279C36.6985 19.8196 36.6165 20.0273 36.4095 20.006C36.3275 19.9963 36.2518 19.9531 36.1973 19.8848C36.2269 19.9 36.2585 19.9097 36.2909 19.9137Z" fill="black"/>
</g>
<path d="M6.86455 28.8577L7.63384 28.358C7.52959 28.1621 7.39662 27.9866 7.24036 27.8388L5.78899 28.3371L6.92806 27.5987C6.64649 27.4284 6.3296 27.342 6.0086 27.3479C5.6876 27.3539 5.37353 27.4521 5.09733 27.6328C4.82112 27.8135 4.59229 28.0705 4.43336 28.3785C4.27443 28.6865 4.19087 29.0348 4.19092 29.3893C4.19092 30.5165 5.01849 30.556 6.03979 30.556C7.06109 30.556 7.88867 30.5165 7.88867 29.3893C7.88844 29.1039 7.83366 28.8217 7.7279 28.5612L6.86455 28.8577Z" fill="#FFC200"/>
<path opacity="0.1" d="M7.06018 29.9542C6.9783 29.8635 6.88681 29.7841 6.78767 29.7177C6.6478 29.6152 6.50351 29.5104 6.33872 29.4758C6.19402 29.4452 6.0449 29.4709 5.89659 29.4621C5.64068 29.4448 5.39979 29.3228 5.22095 29.1199C5.11604 29.0001 5.03325 28.8537 4.90704 28.7609C4.77079 28.6624 4.59796 28.6411 4.43638 28.6655C4.38952 28.6731 4.34309 28.6836 4.29731 28.697C4.22478 28.9192 4.18778 29.1536 4.18799 29.3897C4.18799 30.5169 5.01556 30.5564 6.03687 30.5564C6.53245 30.5564 6.9822 30.5471 7.3142 30.4086L7.25873 30.2942C7.20583 30.172 7.13911 30.0578 7.06018 29.9542Z" fill="black"/>
<path d="M23.4705 31.7114L22.45 31.0489C22.5883 30.7888 22.7649 30.5561 22.9726 30.3601L24.8974 31.0209L23.3889 30.042C23.7623 29.8161 24.1825 29.7015 24.6082 29.7094C25.0339 29.7173 25.4503 29.8474 25.8166 30.087C26.1829 30.3266 26.4864 30.6673 26.6972 31.0757C26.9079 31.4841 27.0188 31.9461 27.0188 32.4161C27.0188 33.9112 25.9211 33.9631 24.567 33.9631C23.2129 33.9631 22.1152 33.9112 22.1152 32.4161C22.1148 32.0378 22.1865 31.6636 22.3254 31.3178L23.4705 31.7114Z" fill="#FFC200"/>
<path opacity="0.1" d="M23.2105 33.1647C23.3192 33.0444 23.4407 32.9391 23.5722 32.8509C23.7575 32.7152 23.9492 32.5767 24.1675 32.5305C24.3592 32.4902 24.557 32.5243 24.7519 32.5119C25.0912 32.4889 25.4107 32.3274 25.6482 32.0588C25.7873 31.8995 25.897 31.7038 26.0646 31.5826C26.245 31.4495 26.4741 31.4233 26.6884 31.4562C26.7507 31.4659 26.8125 31.4798 26.8733 31.4979C26.9693 31.7924 27.0183 32.1031 27.018 32.416C27.018 33.9111 25.9203 33.963 24.5662 33.963C23.909 33.963 23.3126 33.9511 22.8721 33.7673L22.9456 33.6156C23.0224 33.4571 23.1004 33.2978 23.2105 33.1647Z" fill="black"/>
</g>
<defs>
<linearGradient id="paint0_linear_999_11562" x1="22.0199" y1="9.25124" x2="33.1641" y2="3.26565" gradientUnits="userSpaceOnUse">
<stop stop-color="#808080" stop-opacity="0.25"/>
<stop offset="0.54" stop-color="#808080" stop-opacity="0.12"/>
<stop offset="1" stop-color="#808080" stop-opacity="0.1"/>
</linearGradient>
<linearGradient id="paint1_linear_999_11562" x1="36.1561" y1="32.8324" x2="36.7995" y2="18.2644" gradientUnits="userSpaceOnUse">
<stop stop-color="#808080" stop-opacity="0.25"/>
<stop offset="0.54" stop-color="#808080" stop-opacity="0.12"/>
<stop offset="1" stop-color="#808080" stop-opacity="0.1"/>
</linearGradient>
<clipPath id="clip0_999_11562">
<rect width="44" height="35" fill="white"/>
</clipPath>
</defs>
</svg>
