<svg width="44" height="34" viewBox="0 0 44 34" fill="none" xmlns="http://www.w3.org/2000/svg">
<g clip-path="url(#clip0_999_12039)">
<path d="M22.4724 33.9267C23.7957 33.9267 24.8685 32.7504 24.8685 31.2993C24.8685 29.8482 23.7957 28.6719 22.4724 28.6719C21.149 28.6719 20.0762 29.8482 20.0762 31.2993C20.0762 32.7504 21.149 33.9267 22.4724 33.9267Z" fill="#FFC200"/>
<path d="M36.7873 33.7814C38.1278 33.34 39.553 32.8796 40.6161 31.8302C41.5661 30.8924 42.2075 29.4604 41.8139 28.0541C41.4212 26.6506 40.2447 25.7147 39.0301 25.2493C38.3412 24.9853 37.6205 24.8388 36.9 24.7238C36.1168 24.5987 35.3302 24.4962 34.5439 24.3976C31.3602 23.9984 28.1646 23.7544 24.9569 23.6659C23.3741 23.6222 21.7917 23.6232 20.2087 23.6484C18.795 23.6709 17.3061 23.6704 15.9946 23.0115C14.9747 22.4992 14.0491 21.5671 13.7649 20.3422C13.4369 18.9283 14.0419 17.4884 14.9099 16.4644C15.3674 15.9246 15.9021 15.4703 16.4536 15.0526C17.052 14.5994 17.6713 14.1783 18.304 13.7853C19.55 13.0115 20.8528 12.3529 22.1986 11.8165C22.8626 11.5518 23.5364 11.3234 24.216 11.1127C24.7899 10.9348 25.3656 10.7567 25.9202 10.5143C26.9924 10.0457 28.0122 9.25198 28.2848 7.95075C28.5432 6.71749 28.1076 5.3787 27.3438 4.46254C26.4602 3.4026 25.1279 2.93796 23.8506 2.86279C22.4166 2.77839 21.0157 3.17191 19.6679 3.67134C18.2303 4.20401 16.8238 4.8165 15.3559 5.24797C13.9002 5.6754 12.4164 5.97783 10.9179 6.15252C10.1844 6.23816 9.42863 6.33488 8.6907 6.26931C8.07225 6.21435 7.45697 6.01492 7.00118 5.53365C6.61036 5.12099 6.37755 4.55385 6.45759 3.95535C6.47213 3.84665 6.62273 3.89286 6.60828 4.00091C6.51085 4.72945 6.9625 5.40078 7.51905 5.74467C8.16228 6.14211 8.945 6.14265 9.66113 6.0972C11.2139 5.99437 12.7562 5.7499 14.2719 5.36634C15.7614 4.99333 17.1976 4.46009 18.6322 3.89047C19.9947 3.34948 21.3876 2.82147 22.8432 2.70429C24.1062 2.60262 25.4348 2.80438 26.5351 3.52811C27.5021 4.16417 28.2132 5.22492 28.4398 6.44215C28.6612 7.6316 28.3546 8.82881 27.5334 9.65885C26.6832 10.5183 25.5175 10.8857 24.4311 11.2241C23.0531 11.6533 21.7048 12.155 20.3996 12.8064C19.0767 13.4649 17.8079 14.247 16.6074 15.1441C15.4485 16.0125 14.3049 17.105 13.9384 18.6541C13.7677 19.3757 13.7992 20.141 14.0849 20.8225C14.3389 21.4286 14.7572 21.9383 15.2445 22.3315C16.4072 23.2696 17.8726 23.4623 19.2771 23.4814C20.8545 23.5029 22.4319 23.4446 24.0098 23.473C27.2255 23.5308 30.4347 23.7455 33.6372 24.1168C34.4397 24.21 35.2411 24.3129 36.0416 24.4257C36.7616 24.5271 37.484 24.6279 38.1918 24.8081C39.4505 25.1284 40.6752 25.7443 41.4575 26.9144C41.8047 27.4216 42.0198 28.0227 42.0799 28.6534C42.1346 29.3117 41.9877 29.9711 41.7162 30.5567C41.1155 31.8527 39.9903 32.677 38.7953 33.2186C38.1553 33.5087 37.4914 33.7284 36.8288 33.9466C36.7323 33.9784 36.691 33.8131 36.7873 33.7814L36.7873 33.7814Z" fill="#F2F2F2"/>
<path d="M6.5578 5.33931C7.24826 5.33931 7.80799 4.72557 7.80799 3.96848C7.80799 3.2114 7.24826 2.59766 6.5578 2.59766C5.86734 2.59766 5.30762 3.2114 5.30762 3.96848C5.30762 4.72557 5.86734 5.33931 6.5578 5.33931Z" fill="#F2F2F2"/>
<path d="M15.2311 7.93892C15.9216 7.93892 16.4813 7.32518 16.4813 6.56809C16.4813 5.81101 15.9216 5.19727 15.2311 5.19727C14.5407 5.19727 13.981 5.81101 13.981 6.56809C13.981 7.32518 14.5407 7.93892 15.2311 7.93892Z" fill="#F2F2F2"/>
<path d="M22.5754 2.74165C23.2658 2.74165 23.8255 2.12791 23.8255 1.37083C23.8255 0.61374 23.2658 0 22.5754 0C21.8849 0 21.3252 0.61374 21.3252 1.37083C21.3252 2.12791 21.8849 2.74165 22.5754 2.74165Z" fill="#F2F2F2"/>
<path d="M27.1599 8.56782C27.8503 8.56782 28.4101 7.95408 28.4101 7.197C28.4101 6.43991 27.8503 5.82617 27.1599 5.82617C26.4694 5.82617 25.9097 6.43991 25.9097 7.197C25.9097 7.95408 26.4694 8.56782 27.1599 8.56782Z" fill="#F2F2F2"/>
<path d="M20.9611 15.3061C21.6516 15.3061 22.2113 14.6924 22.2113 13.9353C22.2113 13.1782 21.6516 12.5645 20.9611 12.5645C20.2707 12.5645 19.7109 13.1782 19.7109 13.9353C19.7109 14.6924 20.2707 15.3061 20.9611 15.3061Z" fill="#F2F2F2"/>
<path d="M13.0954 18.562C13.7859 18.562 14.3456 17.9482 14.3456 17.1911C14.3456 16.4341 13.7859 15.8203 13.0954 15.8203C12.4049 15.8203 11.8452 16.4341 11.8452 17.1911C11.8452 17.9482 12.4049 18.562 13.0954 18.562Z" fill="#F2F2F2"/>
<path d="M21.4299 23.646C22.1203 23.646 22.68 23.0322 22.68 22.2751C22.68 21.518 22.1203 20.9043 21.4299 20.9043C20.7394 20.9043 20.1797 21.518 20.1797 22.2751C20.1797 23.0322 20.7394 23.646 21.4299 23.646Z" fill="#F2F2F2"/>
<path d="M30.3898 26.5014C31.0803 26.5014 31.64 25.8877 31.64 25.1306C31.64 24.3735 31.0803 23.7598 30.3898 23.7598C29.6994 23.7598 29.1396 24.3735 29.1396 25.1306C29.1396 25.8877 29.6994 26.5014 30.3898 26.5014Z" fill="#F2F2F2"/>
<path d="M40.86 25.8725C41.5505 25.8725 42.1102 25.2588 42.1102 24.5017C42.1102 23.7446 41.5505 23.1309 40.86 23.1309C40.1696 23.1309 39.6099 23.7446 39.6099 24.5017C39.6099 25.2588 40.1696 25.8725 40.86 25.8725Z" fill="#F2F2F2"/>
<path d="M22.2152 3.88301C18.4703 3.91202 15.404 7.24895 15.3508 11.3549C15.3503 11.3929 15.3501 11.6594 15.3501 12.008C15.3501 12.5192 15.5353 13.0094 15.865 13.3709C16.1946 13.7324 16.6417 13.9355 17.1079 13.9355H17.1079C17.339 13.9355 17.5678 13.8855 17.7812 13.7884C17.9947 13.6914 18.1887 13.5491 18.352 13.3699C18.5153 13.1906 18.6448 12.9778 18.7331 12.7436C18.8214 12.5094 18.8667 12.2585 18.8665 12.0051C18.8663 11.7679 18.8662 11.6038 18.8662 11.5937C18.8661 10.9591 19.0166 10.3354 19.303 9.78402C19.5894 9.23258 20.0018 8.77239 20.4995 8.4487C20.9973 8.12502 21.5634 7.94899 22.142 7.93794C22.7207 7.92689 23.292 8.0812 23.7997 8.38568C24.3075 8.69016 24.7342 9.13433 25.0379 9.6745C25.3416 10.2147 25.5119 10.8322 25.5319 11.4664C25.552 12.1006 25.4211 12.7296 25.1522 13.2915C24.8833 13.8534 24.4856 14.3289 23.9982 14.6712L23.9989 14.672C23.9989 14.672 21.497 16.438 20.7343 18.8607L20.7349 18.8609C20.6008 19.3572 20.5328 19.8722 20.5331 20.3898C20.5331 20.6026 20.5446 22.4644 20.5666 23.9756C20.5743 24.4969 20.7687 24.9941 21.1077 25.3598C21.4467 25.7255 21.9033 25.9304 22.3789 25.9303H22.3789C22.6178 25.9302 22.8544 25.8784 23.0751 25.7778C23.2957 25.6771 23.496 25.5296 23.6644 25.3438C23.8329 25.1579 23.9662 24.9374 24.0566 24.6948C24.147 24.4523 24.1928 24.1925 24.1913 23.9305C24.1837 22.5466 24.1795 20.9352 24.1795 20.8182C24.1795 19.3306 25.4883 17.8484 26.5634 16.8818C27.8014 15.7688 28.6922 14.2519 29.0501 12.5409C29.1292 12.1886 29.1729 11.8279 29.1803 11.4652C29.1803 10.4649 28.9997 9.4744 28.6491 8.55089C28.2984 7.62739 27.7846 6.7891 27.1372 6.08431C26.4898 5.37952 25.7215 4.82217 24.8768 4.44437C24.0321 4.06657 23.1275 3.87578 22.2152 3.88301Z" fill="#FFC200"/>
<path d="M43.9378 34.0013H0.0618446C0.0454259 34.0012 0.0296964 33.994 0.0181034 33.9813C0.00651046 33.9685 0 33.9512 0 33.9332C0 33.9152 0.00651046 33.898 0.0181034 33.8852C0.0296964 33.8725 0.0454259 33.8653 0.0618446 33.8652H43.9378C43.9543 33.8652 43.97 33.8724 43.9817 33.8852C43.9933 33.8979 43.9998 33.9152 43.9998 33.9332C43.9998 33.9513 43.9933 33.9686 43.9817 33.9813C43.97 33.9941 43.9543 34.0013 43.9378 34.0013Z" fill="#3F3D56"/>
<path d="M32.7366 15.5931C33.5996 15.5931 34.2993 14.8259 34.2993 13.8795C34.2993 12.9332 33.5996 12.166 32.7366 12.166C31.8735 12.166 31.1738 12.9332 31.1738 13.8795C31.1738 14.8259 31.8735 15.5931 32.7366 15.5931Z" fill="#2F2E41"/>
<path d="M29.8487 33.2498H29.2101L28.9062 30.5488H29.8488L29.8487 33.2498Z" fill="#A0616A"/>
<path d="M28.754 33.0488H29.9856V33.8991H27.9785C27.9785 33.7875 27.9986 33.6769 28.0375 33.5737C28.0765 33.4706 28.1336 33.3768 28.2056 33.2979C28.2777 33.2189 28.3631 33.1563 28.4572 33.1136C28.5513 33.0708 28.6522 33.0488 28.754 33.0488Z" fill="#2F2E41"/>
<path d="M34.7974 33.2498H34.1588L33.855 30.5488H34.7976L34.7974 33.2498Z" fill="#A0616A"/>
<path d="M33.7032 33.0488H34.9348V33.8991H32.9277C32.9277 33.7875 32.9478 33.6769 32.9868 33.5737C33.0257 33.4706 33.0829 33.3768 33.1549 33.2979C33.2269 33.2189 33.3124 33.1563 33.4064 33.1136C33.5005 33.0708 33.6014 33.0488 33.7032 33.0488Z" fill="#2F2E41"/>
<path d="M32.4991 15.6026C33.2057 15.6026 33.7785 14.9745 33.7785 14.1997C33.7785 13.425 33.2057 12.7969 32.4991 12.7969C31.7925 12.7969 31.2197 13.425 31.2197 14.1997C31.2197 14.9745 31.7925 15.6026 32.4991 15.6026Z" fill="#A0616A"/>
<path d="M33.2619 20.1284L33.8344 18.6862C33.9734 18.3478 34.0132 17.9705 33.9484 17.6063C33.8835 17.2421 33.7172 16.9089 33.4723 16.6528C33.422 16.5983 33.3686 16.5473 33.3124 16.5003C33.0299 16.258 32.6818 16.1259 32.3232 16.125C32.0821 16.126 31.844 16.1841 31.6252 16.2952C31.6064 16.3044 31.5882 16.3141 31.5694 16.3238C31.5335 16.3426 31.4981 16.3632 31.4637 16.3843C31.2394 16.5255 31.0486 16.7225 30.9065 16.9594C30.7645 17.1964 30.6752 17.4666 30.6459 17.7483L30.3932 20.0695C30.3297 20.2518 28.0627 26.8317 28.8555 31.8552C28.8639 31.9089 28.8878 31.9581 28.9236 31.9959C28.9594 32.0336 29.0053 32.0577 29.0545 32.0648L29.8583 32.1848C29.917 32.1936 29.9765 32.1777 30.0249 32.1403C30.0733 32.1029 30.107 32.0467 30.1192 31.9832L31.4679 24.9343C31.4763 24.8905 31.4978 24.851 31.5291 24.8222C31.5603 24.7935 31.5995 24.777 31.6403 24.7755C31.6811 24.774 31.7212 24.7875 31.7541 24.8139C31.7871 24.8403 31.811 24.8781 31.8221 24.9211L33.7276 32.3339C33.7412 32.3877 33.7705 32.4352 33.811 32.469C33.8516 32.5029 33.9011 32.5212 33.9521 32.5212C33.9673 32.5211 33.9825 32.5196 33.9974 32.5166L34.9793 32.3093C35.0364 32.2976 35.0874 32.2629 35.1224 32.2121C35.1574 32.1613 35.1738 32.098 35.1684 32.0346C35.0241 30.2702 34.2573 21.4324 33.2619 20.1284Z" fill="#2F2E41"/>
<path d="M27.5275 15.3678C27.5186 15.4512 27.5265 15.5357 27.5506 15.6154C27.5748 15.6951 27.6145 15.768 27.6671 15.829C27.7198 15.89 27.7839 15.9376 27.8551 15.9685C27.9264 15.9994 28.0029 16.0127 28.0793 16.0077L28.7945 17.8921L29.3354 17.0128L28.5734 15.3581C28.5571 15.2179 28.4945 15.0891 28.3974 14.9961C28.3003 14.9031 28.1754 14.8523 28.0465 14.8535C27.9176 14.8547 27.7935 14.9077 27.6979 15.0025C27.6022 15.0973 27.5416 15.2272 27.5275 15.3677L27.5275 15.3678Z" fill="#A0616A"/>
<path d="M32.4285 22.026C32.5045 22.0161 32.5776 21.988 32.6427 21.9437C32.7077 21.8993 32.7631 21.8399 32.805 21.7696C32.8468 21.6993 32.8741 21.6198 32.8849 21.5366C32.8957 21.4535 32.8897 21.3688 32.8674 21.2885L34.3721 20.0868L33.4662 19.7148L32.1762 20.913C32.0556 20.963 31.956 21.0598 31.8961 21.185C31.8363 21.3102 31.8204 21.4552 31.8515 21.5924C31.8826 21.7296 31.9585 21.8495 32.0648 21.9294C32.1712 22.0093 32.3006 22.0437 32.4285 22.026Z" fill="#A0616A"/>
<path d="M29.9752 19.1492C29.9176 19.1492 29.86 19.1429 29.8034 19.1306C29.6666 19.1021 29.5382 19.037 29.4297 18.9413C29.3212 18.8455 29.2358 18.7219 29.1811 18.5814L28.1791 17.2418C28.158 17.2135 28.1425 17.1805 28.1339 17.1451C28.1253 17.1097 28.1237 17.0727 28.1292 17.0366C28.1346 17.0005 28.1471 16.9661 28.1657 16.9356C28.1843 16.9052 28.2086 16.8795 28.237 16.8602L28.9498 16.3764C28.9762 16.3585 29.0054 16.3465 29.036 16.3412C29.0666 16.3358 29.0978 16.3371 29.1279 16.345C29.158 16.3529 29.1864 16.3673 29.2114 16.3873C29.2364 16.4073 29.2575 16.4325 29.2736 16.4615L29.9798 17.7372L31.3321 16.6413C31.4398 16.5794 31.5642 16.562 31.6826 16.5924C31.801 16.6227 31.9054 16.6988 31.9769 16.8066C32.0484 16.9144 32.0821 17.0469 32.0719 17.1797C32.0617 17.3126 32.0082 17.4369 31.9213 17.5301L30.5715 18.8802C30.4129 19.0526 30.1986 19.1493 29.9752 19.1492Z" fill="#2F2E41"/>
<path d="M33.6299 21.163C33.6281 21.163 33.6262 21.163 33.6244 21.1629C33.5915 21.1621 33.5592 21.1536 33.5295 21.1382C33.4998 21.1227 33.4733 21.1006 33.4519 21.0733L32.8182 20.2626C32.7966 20.235 32.7806 20.2026 32.7712 20.1677C32.7619 20.1329 32.7594 20.0962 32.7639 20.0602C32.7684 20.0241 32.7799 19.9896 32.7975 19.9588C32.8151 19.928 32.8385 19.9016 32.8661 19.8814L34.0528 19.0139L32.9777 17.5967C32.9152 17.4824 32.8923 17.3472 32.9131 17.2159C32.934 17.0846 32.9972 16.9658 33.0913 16.8814C33.1854 16.797 33.304 16.7525 33.4256 16.7561C33.5471 16.7596 33.6634 16.811 33.7532 16.9009L35.0599 18.301C35.1627 18.404 35.2412 18.5328 35.2886 18.6764C35.3361 18.82 35.351 18.9741 35.3322 19.1254C35.3134 19.2768 35.2613 19.4208 35.1805 19.5452C35.0998 19.6696 34.9927 19.7707 34.8684 19.8398L33.8005 21.0823C33.7785 21.1078 33.7521 21.1281 33.7228 21.1419C33.6934 21.1558 33.6618 21.163 33.6299 21.163Z" fill="#2F2E41"/>
<path d="M32.174 18.1756C32.1639 18.1756 32.1537 18.1749 32.1436 18.1735C32.0995 18.1676 32.0578 18.148 32.0235 18.1169C31.9893 18.0859 31.9639 18.0447 31.9503 17.9982L31.4741 16.3973C31.4622 16.3568 31.464 16.313 31.4793 16.2739C31.4945 16.2347 31.5222 16.203 31.5571 16.1845L31.5726 16.1765C31.5866 16.1692 31.6005 16.162 31.6146 16.1551C31.8367 16.0422 32.0784 15.9833 32.3232 15.9824C32.641 15.9831 32.9517 16.0854 33.2172 16.277C33.2528 16.3029 33.2776 16.3432 33.2864 16.3891C33.2952 16.435 33.2872 16.4828 33.2641 16.5222L32.3708 18.0569C32.3498 18.0933 32.3208 18.1233 32.2864 18.1441C32.252 18.1649 32.2133 18.1757 32.174 18.1756Z" fill="#E6E6E6"/>
<path d="M33.9684 13.1136C34.2508 13.1136 34.4798 12.8626 34.4798 12.5529C34.4798 12.2432 34.2508 11.9922 33.9684 11.9922C33.686 11.9922 33.457 12.2432 33.457 12.5529C33.457 12.8626 33.686 13.1136 33.9684 13.1136Z" fill="#2F2E41"/>
<path d="M32.2157 11.9355C31.8565 11.9355 31.512 12.092 31.258 12.3705C31.004 12.649 30.8613 13.0267 30.8613 13.4206V14.0489H31.5661L31.9031 13.4206L32.0043 14.0489H34.1431L33.5701 13.4206C33.5701 13.0267 33.4274 12.649 33.1734 12.3705C32.9194 12.092 32.5749 11.9355 32.2157 11.9355Z" fill="#2F2E41"/>
<path d="M34.2314 12.1681C34.288 11.9743 34.4051 11.8084 34.5621 11.6998C34.7191 11.5912 34.906 11.5468 35.0899 11.5744C35.4158 11.6341 35.6735 11.9213 35.827 12.2421C35.9805 12.5629 36.0514 12.922 36.1546 13.2661C36.2578 13.6103 36.4042 13.9563 36.6648 14.1791C36.9253 14.4019 37.3251 14.4623 37.581 14.2332C37.5518 14.472 37.4548 14.6947 37.3038 14.8698C37.1528 15.0449 36.9554 15.1635 36.7396 15.2089C36.5237 15.2542 36.3003 15.224 36.101 15.1225C35.9017 15.021 35.7365 14.8534 35.6288 14.6433C35.4938 14.3799 35.4589 14.0712 35.4189 13.7722C35.3788 13.4733 35.3268 13.1639 35.1656 12.9189C35.0044 12.6738 34.7026 12.5137 34.4466 12.6254L34.2314 12.1681Z" fill="#2F2E41"/>
<path d="M17.6034 13.0239C17.1372 13.0239 16.6901 12.8208 16.3605 12.4593C16.0308 12.0978 15.8456 11.6076 15.8456 11.0964C15.8456 10.7478 15.8458 10.4812 15.8463 10.4433C15.8611 9.2492 16.1354 8.07615 16.6464 7.02148C15.8068 8.28167 15.3452 9.79678 15.3254 11.3572C15.3249 11.3951 15.3247 11.6617 15.3247 12.0103C15.3247 12.5215 15.5099 13.0117 15.8396 13.3732C16.1692 13.7347 16.6163 13.9378 17.0825 13.9378C17.4656 13.9377 17.8381 13.8004 18.1436 13.5469C18.449 13.2934 18.6706 12.9375 18.7748 12.5333C18.4529 12.8497 18.0357 13.0245 17.6034 13.0239Z" fill="#3F3D56"/>
<path d="M22.3348 7.94348C22.8737 7.9717 23.3983 8.14293 23.8636 8.44245C24.3289 8.74198 24.721 9.16086 25.0061 9.66312C25.2913 10.1654 25.461 10.736 25.5007 11.326C25.5404 11.9161 25.4489 12.5078 25.2341 13.0505C25.5448 12.6504 25.7732 12.1815 25.9037 11.6758C26.0341 11.1702 26.0636 10.6396 25.9901 10.1203C25.9166 9.60094 25.7419 9.10511 25.4778 8.66656C25.2137 8.22801 24.8665 7.85706 24.4598 7.57899C24.0531 7.30093 23.5965 7.12229 23.1211 7.05525C22.6458 6.98822 22.1628 7.03436 21.7052 7.19054C21.2476 7.34672 20.826 7.60926 20.4693 7.96026C20.1126 8.31126 19.8291 8.74248 19.6382 9.2245C19.9682 8.79882 20.383 8.46194 20.8505 8.23984C21.318 8.01773 21.8258 7.91634 22.3348 7.94348Z" fill="#3F3D56"/>
<path d="M22.8754 25.0196C22.3999 25.0197 21.9433 24.8148 21.6043 24.4491C21.2652 24.0834 21.0709 23.5863 21.0632 23.0649C21.0411 21.5537 21.0297 19.6919 21.0297 19.4792C21.0294 18.9615 21.0974 18.4465 21.2315 17.9502L21.2308 17.9501C21.31 17.7009 21.4057 17.4585 21.517 17.2246C21.1752 17.7241 20.9032 18.2766 20.7099 18.8639L20.7106 18.8641C20.5764 19.3604 20.5085 19.8754 20.5088 20.393C20.5088 20.6058 20.5202 22.4676 20.5423 23.9788C20.55 24.5001 20.7443 24.9973 21.0834 25.363C21.4224 25.7287 21.8789 25.9336 22.3545 25.9335C22.7466 25.9334 23.1282 25.7939 23.4419 25.536C23.7556 25.278 23.9846 24.9155 24.0945 24.5027C23.7612 24.8359 23.3264 25.0203 22.8754 25.0196Z" fill="#3F3D56"/>
<path d="M6.59195 33.2772L7.23053 33.2772L7.53438 30.5762L6.5918 30.5762L6.59195 33.2772Z" fill="#FFB8B8"/>
<path d="M8.4624 33.9258L6.4553 33.9259L6.45526 33.0756L7.6869 33.0755C7.89256 33.0755 8.08981 33.1651 8.23525 33.3245C8.38068 33.484 8.46239 33.7003 8.4624 33.9258L8.4624 33.9258Z" fill="#2F2E41"/>
<path d="M4.29996 33.2772L4.93854 33.2772L5.24239 30.5762L4.2998 30.5762L4.29996 33.2772Z" fill="#FFB8B8"/>
<path d="M6.16992 33.9258L4.16282 33.9259L4.16278 33.0756L5.39442 33.0755C5.60008 33.0755 5.79733 33.1651 5.94277 33.3245C6.0882 33.484 6.16991 33.7003 6.16992 33.9258L6.16992 33.9258Z" fill="#2F2E41"/>
<path d="M4.85787 32.4451L4.23408 32.4091C4.20192 32.4073 4.17041 32.3984 4.14138 32.3831C4.11235 32.3678 4.08638 32.3464 4.06497 32.32C4.04356 32.2936 4.02714 32.2628 4.01666 32.2294C4.00618 32.196 4.00185 32.1607 4.00392 32.1254L4.74948 23.0742L8.18285 24.0901L8.51364 23.9911L7.4792 32.0039C7.47039 32.0642 7.44309 32.1193 7.40181 32.1603C7.36054 32.2013 7.30775 32.2256 7.25218 32.2292L6.57974 32.2635C6.54612 32.2656 6.51247 32.26 6.48093 32.247C6.44939 32.2341 6.42064 32.2141 6.3965 32.1884C6.37236 32.1626 6.35335 32.1317 6.34067 32.0975C6.328 32.0633 6.32193 32.0265 6.32286 31.9896L6.4447 27.1805C6.44527 27.1583 6.43822 27.1366 6.42495 27.1198C6.41167 27.103 6.39313 27.0922 6.37298 27.0896C6.35283 27.0871 6.33252 27.0928 6.31607 27.1059C6.29962 27.1189 6.28821 27.1382 6.28409 27.16L5.10908 32.2327C5.09799 32.2929 5.0682 32.347 5.0248 32.3858C4.9814 32.4246 4.92707 32.4457 4.87107 32.4455C4.8667 32.4455 4.8623 32.4454 4.85787 32.4451Z" fill="#2F2E41"/>
<path d="M6.70665 15.669C7.41325 15.669 7.98606 15.0409 7.98606 14.2662C7.98606 13.4914 7.41325 12.8633 6.70665 12.8633C6.00006 12.8633 5.42725 13.4914 5.42725 14.2662C5.42725 15.0409 6.00006 15.669 6.70665 15.669Z" fill="#FFB8B8"/>
<path d="M4.57597 18.3848L4.71665 21.7129L4.7675 22.9237C4.76953 22.9764 4.78585 23.0272 4.81438 23.0697C4.84291 23.1122 4.88234 23.1444 4.92765 23.1622L8.22688 24.4726C8.25354 24.4835 8.28177 24.4889 8.31021 24.4887C8.3427 24.4888 8.3749 24.4818 8.40487 24.468C8.43484 24.4543 8.46197 24.434 8.48465 24.4085C8.50732 24.383 8.52508 24.3527 8.53684 24.3195C8.54861 24.2863 8.55415 24.2508 8.55314 24.2152L8.41788 18.2311C8.409 17.7401 8.24418 17.268 7.95183 16.896C7.65949 16.524 7.25794 16.2755 6.81641 16.1933C6.7845 16.188 6.75203 16.1826 6.71956 16.1779C6.44578 16.1406 6.16788 16.1696 5.9054 16.2628C5.64293 16.3559 5.40226 16.511 5.20033 16.7171C4.99124 16.928 4.82694 17.1867 4.71905 17.4748C4.61116 17.763 4.56232 18.0736 4.57597 18.3848L4.57597 18.3848Z" fill="#CCCCCC"/>
<path d="M9.80326 23.8087C9.72523 23.7821 9.65394 23.736 9.59507 23.6738C9.53621 23.6117 9.49141 23.5353 9.46424 23.4509C9.43707 23.3664 9.42829 23.2761 9.43859 23.1872C9.4489 23.0983 9.47801 23.0133 9.5236 22.939L8.40479 21.3077L9.37025 21.2422L10.2847 22.8013C10.3826 22.8843 10.4507 23.0025 10.4771 23.135C10.5035 23.2676 10.4865 23.4061 10.4291 23.5263C10.3716 23.6464 10.2774 23.7406 10.163 23.7923C10.0486 23.8439 9.92121 23.8497 9.80327 23.8087H9.80326Z" fill="#FFB8B8"/>
<path d="M9.01619 22.6446C8.98655 22.6314 8.95959 22.6119 8.93687 22.5872C8.91415 22.5625 8.89612 22.5331 8.88382 22.5007L7.19825 18.0973C7.16517 18.0111 7.14792 17.9185 7.14747 17.825C7.14702 17.7315 7.16338 17.6388 7.19563 17.5522C7.22787 17.4656 7.27536 17.3868 7.33538 17.3203C7.3954 17.2539 7.46678 17.201 7.54543 17.1648C7.62409 17.1287 7.70848 17.1098 7.79377 17.1094C7.87907 17.109 7.96361 17.127 8.04256 17.1624C8.12151 17.1978 8.19332 17.25 8.25388 17.3158C8.31444 17.3817 8.36258 17.46 8.39553 17.5463L10.0811 21.9498C10.106 22.0151 10.1063 22.0885 10.0819 22.154C10.0575 22.2196 10.0103 22.2718 9.95085 22.2992L9.20254 22.6436C9.17308 22.6573 9.14144 22.6644 9.10945 22.6646C9.07746 22.6647 9.04576 22.6579 9.01619 22.6446L9.01619 22.6446Z" fill="#CCCCCC"/>
<path d="M6.29534 22.4898L7.91429 19.0908C7.94551 19.0254 7.9991 18.9763 8.06331 18.9542C8.12752 18.9321 8.1971 18.9388 8.25678 18.9729L10.6067 20.3186C10.6663 20.3528 10.7111 20.4116 10.7313 20.482C10.7514 20.5524 10.7453 20.6287 10.7142 20.6942L9.09522 24.0932C9.064 24.1585 9.01041 24.2077 8.9462 24.2298C8.88199 24.2519 8.81241 24.2451 8.75273 24.211L6.40282 22.8653C6.34321 22.8311 6.29841 22.7723 6.27826 22.7019C6.25811 22.6315 6.26425 22.5552 6.29534 22.4898Z" fill="#3F3D56"/>
<path d="M7.38068 20.9378C7.3519 20.8539 7.30564 20.7786 7.2456 20.7178C7.18556 20.6571 7.1134 20.6125 7.03488 20.5878C6.95635 20.563 6.87364 20.5588 6.79334 20.5753C6.71304 20.5918 6.63737 20.6287 6.57238 20.683L5.02119 19.5547L5.01855 20.6153L6.49199 21.5242C6.57333 21.6264 6.6849 21.694 6.80714 21.7151C6.92938 21.7362 7.05448 21.7094 7.16051 21.6394C7.26653 21.5694 7.3467 21.4608 7.38696 21.3325C7.42722 21.2042 7.42499 21.0644 7.38068 20.9378Z" fill="#FFB8B8"/>
<path d="M5.41967 21.1767L4.15194 20.0756C4.0148 20.0251 3.89088 19.9389 3.79082 19.8243C3.69076 19.7098 3.61755 19.5703 3.57747 19.4179C3.5374 19.2654 3.53165 19.1046 3.56073 18.9492C3.5898 18.7939 3.65284 18.6485 3.74441 18.5257L4.89548 16.8716C4.97547 16.7644 5.08796 16.6924 5.2124 16.6687C5.33684 16.645 5.4649 16.6711 5.57319 16.7424C5.68147 16.8137 5.76275 16.9253 5.80215 17.0569C5.84155 17.1885 5.83645 17.3312 5.78778 17.459L4.87703 19.0926L6.21545 19.7887C6.24658 19.8049 6.27421 19.8281 6.29654 19.8569C6.31886 19.8857 6.33536 19.9193 6.34496 19.9556C6.35455 19.9918 6.35701 20.0299 6.35218 20.0673C6.34735 20.1047 6.33534 20.1406 6.31693 20.1725L5.77666 21.11C5.75839 21.1417 5.73427 21.1688 5.70586 21.1895C5.67744 21.2103 5.64536 21.2243 5.6117 21.2306C5.61036 21.2309 5.60902 21.2311 5.60767 21.2313C5.5746 21.2368 5.54085 21.2348 5.50851 21.2254C5.47618 21.216 5.44594 21.1994 5.41967 21.1767Z" fill="#CCCCCC"/>
<path d="M5.73985 15.2045C5.73436 15.1869 5.73262 15.1681 5.73476 15.1497C5.7369 15.1312 5.74287 15.1135 5.7522 15.098C5.76153 15.0824 5.77399 15.0694 5.78861 15.06C5.80323 15.0505 5.81963 15.0449 5.83655 15.0435C5.8712 15.0455 5.90511 15.0553 5.93623 15.0721C5.96736 15.0889 5.99504 15.1125 6.01762 15.1414C6.06393 15.2 6.11783 15.2507 6.1776 15.292C6.2395 15.3263 6.32343 15.3214 6.35872 15.2562C6.39185 15.1949 6.36915 15.1129 6.34909 15.0418C6.29805 14.8608 6.26949 14.6731 6.26419 14.4837C6.25841 14.2724 6.2856 14.0518 6.39232 13.887C6.53004 13.6742 6.7763 13.5934 7.00936 13.5993C7.24241 13.6052 7.47169 13.684 7.70254 13.7339C7.78224 13.7511 7.87591 13.7599 7.92922 13.6922C7.98589 13.6202 7.96508 13.5036 7.94097 13.4064C7.87841 13.1541 7.81204 12.8932 7.6667 12.6894C7.50954 12.4777 7.28505 12.3391 7.03844 12.3016C6.80167 12.2694 6.56133 12.2994 6.33717 12.3889C5.97195 12.5151 5.65058 12.7606 5.41605 13.0925C5.17428 13.4455 5.06981 13.8891 5.12548 14.3263C5.17987 14.707 5.36389 15.0511 5.64044 15.289L5.73985 15.2045Z" fill="#2F2E41"/>
<path d="M21.9441 33.2864C21.6037 33.1238 21.3025 32.8768 21.0641 32.5647C20.8257 32.2526 20.6567 31.884 20.5705 31.488C20.4842 31.092 20.4831 30.6795 20.5672 30.283C20.6513 29.8865 20.8182 29.5168 21.0549 29.2031C20.7805 29.4228 20.5518 29.704 20.3841 30.028C20.2164 30.352 20.1134 30.7114 20.082 31.0824C20.0506 31.4534 20.0916 31.8275 20.2021 32.1798C20.3127 32.5321 20.4903 32.8546 20.7232 33.1258C20.9561 33.3971 21.239 33.611 21.553 33.7532C21.8671 33.8955 22.2051 33.9628 22.5447 33.9509C22.8843 33.9389 23.2177 33.8479 23.5228 33.6839C23.8279 33.5198 24.0976 33.2865 24.3142 32.9994C23.9764 33.2701 23.5799 33.439 23.1641 33.4894C22.7482 33.5397 22.3276 33.4697 21.9441 33.2864Z" fill="#3F3D56"/>
</g>
<defs>
<clipPath id="clip0_999_12039">
<rect width="44" height="34" fill="white"/>
</clipPath>
</defs>
</svg>
