<svg width="21" height="35" viewBox="0 0 21 35" fill="none" xmlns="http://www.w3.org/2000/svg">
<path d="M10.6226 34.9721C12.4741 34.9721 13.9751 33.6028 13.9751 31.9138C13.9751 30.2247 12.4741 28.8555 10.6226 28.8555C8.771 28.8555 7.27002 30.2247 7.27002 31.9138C7.27002 33.6028 8.771 34.9721 10.6226 34.9721Z" fill="#3F3D56"/>
<path d="M10.2633 0.000230313C5.02371 0.0339926 0.733601 3.91817 0.659172 8.69752C0.658483 8.74164 0.658165 9.05191 0.658207 9.45772C0.658241 10.0527 0.917353 10.6233 1.37855 11.0441C1.83975 11.4648 2.46526 11.7012 3.11751 11.7013H3.11752C3.44085 11.7012 3.76099 11.6431 4.05966 11.5301C4.35833 11.4171 4.62967 11.2516 4.85818 11.0429C5.08668 10.8342 5.26788 10.5865 5.3914 10.3139C5.51492 10.0413 5.57835 9.74923 5.57807 9.45428C5.57782 9.17823 5.57767 8.98717 5.57767 8.97544C5.57751 8.2368 5.78812 7.51083 6.1888 6.86897C6.58948 6.2271 7.16643 5.69144 7.86288 5.31467C8.55933 4.93791 9.35131 4.73301 10.1609 4.72015C10.9705 4.70729 11.7698 4.8869 12.4802 5.24132C13.1906 5.59573 13.7877 6.11274 14.2126 6.74149C14.6375 7.37024 14.8757 8.08907 14.9038 8.82727C14.9318 9.56547 14.7487 10.2976 14.3724 10.9517C13.9962 11.6057 13.4398 12.1592 12.758 12.5576L12.7588 12.5585C12.7588 12.5585 9.25845 14.6142 8.19128 17.4342L8.19219 17.4344C8.00454 18.0121 7.90945 18.6116 7.90988 19.2141C7.90988 19.4618 7.92586 21.6289 7.95672 23.3878C7.96751 23.9947 8.23941 24.5735 8.71376 24.9991C9.18811 25.4248 9.82688 25.6632 10.4923 25.6631H10.4923C10.8266 25.6631 11.1576 25.6028 11.4663 25.4856C11.775 25.3685 12.0553 25.1968 12.2909 24.9804C12.5266 24.7641 12.7131 24.5074 12.8396 24.2251C12.9661 23.9428 13.0302 23.6404 13.0281 23.3354C13.0174 21.7246 13.0116 19.8489 13.0116 19.7127C13.0116 17.9811 14.8427 16.2559 16.3469 15.1308C18.079 13.8352 19.3254 12.0696 19.8261 10.078C19.9368 9.66795 19.9979 9.24805 20.0082 8.82585C20.0082 7.66146 19.7556 6.50857 19.265 5.43362C18.7744 4.35867 18.0555 3.3829 17.1497 2.56253C16.2439 1.74216 15.1691 1.09341 13.9872 0.653648C12.8053 0.21389 11.5397 -0.0081812 10.2633 0.000230313Z" fill="#3F3D56"/>
<path d="M9.8838 34.2256C9.40755 34.0364 8.98602 33.7488 8.65248 33.3855C8.31895 33.0222 8.08253 32.5932 7.96188 32.1323C7.84123 31.6713 7.83967 31.1912 7.95729 30.7296C8.07492 30.2681 8.30853 29.8377 8.63969 29.4727C8.25574 29.7284 7.9358 30.0557 7.70112 30.4328C7.46643 30.81 7.32237 31.2283 7.27848 31.6602C7.23459 32.092 7.29188 32.5274 7.44655 32.9374C7.60122 33.3475 7.84973 33.7229 8.17559 34.0387C8.50145 34.3544 8.89721 34.6034 9.33659 34.7689C9.77598 34.9345 10.2489 35.0129 10.7241 34.999C11.1992 34.9851 11.6657 34.8792 12.0926 34.6882C12.5194 34.4973 12.8968 34.2257 13.1998 33.8915C12.7272 34.2066 12.1724 34.4032 11.5906 34.4618C11.0088 34.5204 10.4203 34.439 9.8838 34.2256Z" fill="#3F3D56"/>
</svg>
