<svg width="40" height="35" viewBox="0 0 40 35" fill="none" xmlns="http://www.w3.org/2000/svg">
<path d="M1.54424 34.1357C1.01648 33.5515 0.643941 33.1376 0.333496 32.7968C1.63219 30.837 2.8481 28.9624 4.10023 27.1243C4.56072 26.4488 4.52966 25.8888 4.19852 25.1159C1.43557 18.6157 0.892297 11.8051 2.31517 4.77548C2.53765 3.69212 2.9464 2.60268 3.45863 1.66539C4.63832 -0.501329 6.739 -0.562191 7.76347 1.72625C8.59132 3.58257 9.13978 5.71277 9.40366 7.79429C10.1849 13.9475 9.33122 19.8451 6.94079 25.4263C6.80109 25.7549 6.73382 26.3453 6.88387 26.6009C7.97043 28.4146 9.11908 30.1797 10.4178 32.2125C11.7113 30.1797 12.8496 28.4633 13.8999 26.6679C14.081 26.3636 13.9827 25.6697 13.8171 25.2741C11.1525 18.9809 10.5626 12.3773 11.7527 5.54844C11.9855 4.20337 12.4512 2.84613 13.0669 1.67756C14.2311 -0.53176 16.161 -0.489156 17.408 1.69582C18.5618 3.71647 18.8774 6.07187 19.0999 8.43335C19.6638 14.4344 18.836 20.1373 16.487 25.5297C16.3524 25.834 16.368 26.4183 16.5335 26.6922C17.5787 28.4451 18.6911 30.1431 20.0053 32.2186C21.3299 30.1188 22.5148 28.299 23.6117 26.4122C23.7565 26.1627 23.5289 25.5297 23.3633 25.1341C20.6055 18.4757 20.0157 11.5434 21.6041 4.39813C21.868 3.21131 22.4268 2.03057 23.0891 1.06893C24.0722 -0.355257 25.6451 -0.373516 26.5505 1.11762C27.3267 2.40183 27.9631 3.94166 28.2476 5.46932C29.5049 12.286 28.8892 18.9018 26.2142 25.1767C25.909 25.8949 25.8572 26.4244 26.2867 27.0635C27.3422 28.6459 28.3666 30.2588 29.6136 32.1942C30.9123 30.1371 32.1023 28.3173 33.2044 26.4305C33.3493 26.181 33.132 25.5358 32.9716 25.1402C30.3017 18.7496 29.6964 12.079 31.0106 5.15892C31.2279 4.02078 31.6108 2.88265 32.1179 1.8845C33.3648 -0.574364 35.6466 -0.641313 36.671 1.93319C37.5196 4.06948 38.0577 6.47965 38.2905 8.82895C38.8545 14.617 38.0111 20.186 35.75 25.4263C35.5845 25.8158 35.6414 26.5644 35.8587 26.9174C37.0539 28.8711 38.3371 30.7518 39.6668 32.7785L38.5389 34.1723C37.1264 32.1881 35.7604 30.2649 34.4255 28.3964C32.925 30.4657 31.378 32.5898 29.6291 35C27.9217 32.675 26.3539 30.5387 24.8017 28.4329C23.3116 30.4718 21.7542 32.6081 20.0105 34.9939C18.2875 32.6385 16.7198 30.5022 15.209 28.4329C13.6981 30.5022 12.1356 32.6446 10.4126 35C8.68963 32.6385 7.14775 30.5266 5.59035 28.3903C4.30201 30.2223 2.96193 32.1212 1.54424 34.1418V34.1357ZM15.1883 23.856C15.3901 23.4117 15.5505 23.1256 15.6643 22.8092C17.5321 17.7089 18.0081 12.4077 17.1751 6.97263C16.9578 5.53627 16.4507 4.13642 15.9333 2.79744C15.5815 1.8845 14.9503 1.92101 14.4846 2.7731C14.1845 3.32086 13.874 3.91123 13.755 4.53203C13.4343 6.2362 13.1083 7.95253 12.9686 9.68712C12.5754 14.5866 13.3153 19.2669 15.1883 23.856ZM24.5327 23.783L24.869 23.6978C25.0035 23.3874 25.1484 23.0891 25.2674 22.7726C27.099 17.8549 27.5491 12.7242 26.8662 7.45345C26.6902 6.08404 26.2815 4.74505 25.8572 3.44867C25.6916 2.93743 25.1949 2.57833 24.8483 2.14621C24.4706 2.59051 24.0049 2.96786 23.7358 3.49128C23.4357 4.07556 23.2547 4.77548 23.115 5.45106C22.3337 9.2063 22.1888 13.0163 22.8563 16.7959C23.2702 19.1635 23.9635 21.458 24.5327 23.7891V23.783ZM34.1461 23.783L34.4876 23.6856C34.6014 23.4117 34.7256 23.1439 34.8342 22.87C36.6969 17.9158 37.1781 12.7424 36.4434 7.43519C36.2261 5.86493 35.7345 4.31293 35.1706 2.8583C34.7722 1.83581 34.172 1.84798 33.6804 2.83396C33.2148 3.76516 32.8215 4.79983 32.6249 5.84667C31.9419 9.5654 31.8022 13.3389 32.5059 17.0698C32.9354 19.34 33.5925 21.5493 34.1461 23.7891V23.783ZM5.54897 23.7343C5.68349 23.5882 5.79732 23.5213 5.83353 23.4117C6.12328 22.6083 6.43374 21.8049 6.66657 20.9772C8.26018 15.3778 8.48783 9.72972 6.91491 4.07556C6.70795 3.33912 6.03532 2.77918 5.57483 2.14012C5.15056 2.76701 4.48311 3.32695 4.34341 4.03296C3.88809 6.36401 3.44829 8.73766 3.31894 11.1174C3.08093 15.5056 3.87775 19.7112 5.53862 23.7282L5.54897 23.7343Z" fill="#3F3D56"/>
</svg>
