<svg width="17" height="15" viewBox="0 0 17 15" fill="none" xmlns="http://www.w3.org/2000/svg">
<path d="M2.49951 5.68945H14.5008V5.98442H2.49951V5.68945Z" fill="white"/>
<path d="M0.5 14.5148H16.5V3.28906H0.5V14.5148ZM14.5005 13.7413H2.49915V13.4462H14.5005V13.7413ZM1.68703 4.98723C1.68703 4.57912 2.02075 4.24556 2.42886 4.24556H14.5708C14.9789 4.24556 15.3125 4.57927 15.3125 4.98723V9.84866C15.3125 10.2568 14.9789 10.5905 14.5708 10.5905H2.42886C2.02076 10.5905 1.68703 10.2568 1.68703 9.84866L1.68687 4.98723H1.68703Z" fill="white"/>
<path d="M0.5 0.486328V2.80256H16.5V0.486328H0.5ZM1.70945 2.1081C1.41388 2.1081 1.1742 1.8681 1.1742 1.57254C1.1742 1.27681 1.41405 1.03745 1.70945 1.03745C2.00534 1.03745 2.2447 1.27682 2.2447 1.57254C2.2447 1.86811 2.00533 2.1081 1.70945 2.1081ZM3.70309 2.1081C3.40752 2.1081 3.16785 1.8681 3.16785 1.57254C3.16785 1.27681 3.4077 1.03745 3.70309 1.03745C3.99898 1.03745 4.23834 1.27682 4.23834 1.57254C4.23866 1.86811 3.99897 2.1081 3.70309 2.1081ZM7.96459 2.1081C7.66902 2.1081 7.42934 1.8681 7.42934 1.57254C7.42934 1.27681 7.66919 1.03745 7.96459 1.03745C8.26048 1.03745 8.49984 1.27682 8.49984 1.57254C8.5 1.86811 8.26031 2.1081 7.96459 2.1081ZM12.5841 2.1081C12.2884 2.1081 12.0486 1.8681 12.0486 1.57254C12.0486 1.27681 12.2884 1.03745 12.5841 1.03745C12.88 1.03745 13.1194 1.27682 13.1194 1.57254C13.1192 1.86811 12.8797 2.1081 12.5841 2.1081ZM14.5776 2.1081C14.282 2.1081 14.0424 1.8681 14.0424 1.57254C14.0424 1.27681 14.2822 1.03745 14.5776 1.03745C14.8735 1.03745 15.1132 1.27682 15.1132 1.57254C15.1132 1.86811 14.8735 2.1081 14.5776 2.1081Z" fill="white"/>
</svg>
