<svg width="16" height="15" viewBox="0 0 16 15" fill="none" xmlns="http://www.w3.org/2000/svg">
<path fill-rule="evenodd" clip-rule="evenodd" d="M15.2981 13.6121H13.1445L10.2844 1.04419C10.2507 0.875893 10.133 0.741406 9.96472 0.690812C8.06352 0.102016 6.36428 0.169284 5.27069 0.875887C4.61453 1.2965 4.21072 1.93586 4.10977 2.67616C3.94148 4.07259 5.08559 4.77922 6.07824 5.4017C6.7176 5.80551 7.32328 6.17568 7.52514 6.66353C7.94575 7.67306 7.47468 8.98534 7.08773 9.77606L6.91944 9.67513C6.70069 9.54052 6.41468 9.60788 6.28008 9.80974L6.04454 10.1631C4.17703 9.18729 1.98984 8.71621 1.03085 9.79297C0.711152 10.1463 0.475639 10.6679 0.324219 11.2399C0.526077 11.1726 0.744831 11.1389 0.963579 11.1389C2.1245 11.1389 3.06664 12.0811 3.06664 13.242C3.06664 13.7804 2.86478 14.2683 2.5282 14.6552H7.72696C9.29158 14.6552 9.40941 12.855 7.92882 11.4418L8.19804 11.0211C8.33265 10.8024 8.26529 10.5164 8.06343 10.3818L7.91203 10.2976C8.38312 9.37227 9.00557 7.70673 8.4168 6.31024C8.0971 5.53626 7.32327 5.06521 6.58296 4.611C5.57343 3.98853 4.96775 3.55103 5.0519 2.81073C5.10237 2.35644 5.35468 1.95271 5.7753 1.68349C6.58284 1.16196 7.89515 1.11149 9.40938 1.5321L12.1686 13.6121H11.2937C11.1928 13.6121 11.1086 13.6962 11.1086 13.7971V14.4533C11.1086 14.5542 11.1928 14.6384 11.2937 14.6384H15.3147C15.4157 14.6384 15.4998 14.5542 15.4998 14.4533V13.7971C15.4832 13.6961 15.399 13.6121 15.2981 13.6121H15.2981Z" fill="white"/>
</svg>
