<svg width="15" height="19" viewBox="0 0 15 19" fill="none" xmlns="http://www.w3.org/2000/svg">
<path d="M9.09091 0.589844H1.13636C0.786364 0.589844 0.5 0.876209 0.5 1.22621V3.45349H9.09091V0.589844ZM2.72727 2.82353C2.37727 2.82353 2.09091 2.53716 2.09091 2.18716C2.09091 1.83716 2.37727 1.55079 2.72727 1.55079C3.07727 1.55079 3.36364 1.83716 3.36364 2.18716C3.36364 2.53716 3.07727 2.82353 2.72727 2.82353ZM4.95455 2.81713C4.60455 2.81713 4.31818 2.53077 4.31818 2.18077C4.31818 1.83077 4.60455 1.5444 4.95455 1.5444C5.30455 1.5444 5.59091 1.83077 5.59091 2.18077C5.59091 2.53077 5.30455 2.81713 4.95455 2.81713ZM7.18182 2.81074C6.83182 2.81074 6.54545 2.52438 6.54545 2.17438C6.54545 1.82437 6.83182 1.53801 7.18182 1.53801C7.53182 1.53801 7.81818 1.82437 7.81818 2.17438C7.81818 2.52438 7.53182 2.81074 7.18182 2.81074Z" fill="white"/>
<path d="M14 4.58984V15.6807H1V4.58984H14ZM11.433 8.36255C10.7569 6.86337 9.25321 5.81711 7.5 5.81711C5.11433 5.81711 3.18182 7.74961 3.18182 10.1353C3.18182 12.5209 5.11433 14.4534 7.5 14.4534C9.25322 14.4534 10.7569 13.4072 11.433 11.908H11.9545C12.4057 11.908 12.7727 11.541 12.7727 11.0898V9.18073C12.7727 8.72959 12.4057 8.36255 11.9545 8.36255H11.433Z" stroke="white"/>
<path d="M13.8629 0.589844H9.72656V3.45349H14.4992V1.22621C14.4992 0.876209 14.2129 0.589844 13.8629 0.589844ZM12.9084 2.49894H10.9993C10.8243 2.49894 10.6811 2.35576 10.6811 2.18076C10.6811 2.00576 10.8243 1.86258 10.9993 1.86258H12.9084C13.0833 1.86258 13.2265 2.00576 13.2265 2.18076C13.2265 2.35576 13.0833 2.49894 12.9084 2.49894Z" fill="white"/>
<path d="M0.5 17.7729C0.5 18.1229 0.786364 18.4093 1.13636 18.4093H13.8636C14.2136 18.4093 14.5 18.1229 14.5 17.7729V16.8184H0.5V17.7729Z" fill="white"/>
<path d="M7.50036 12.9987C9.07934 12.9987 10.364 11.7141 10.364 10.1351C10.364 8.55613 9.07934 7.27148 7.50036 7.27148C5.92137 7.27148 4.63672 8.55613 4.63672 10.1351C4.63672 11.7141 5.92137 12.9987 7.50036 12.9987ZM7.50036 7.90784C8.63374 7.90784 9.57025 8.7594 9.70817 9.85612C9.53019 9.83197 9.33007 9.81692 9.09127 9.81692C7.50036 9.81692 7.50036 10.4533 5.90945 10.4533C5.67067 10.4533 5.47054 10.4382 5.29254 10.4141C5.28103 10.3225 5.27308 10.2297 5.27308 10.1351C5.27308 8.907 6.27224 7.90784 7.50035 7.90784L7.50036 7.90784Z" fill="white"/>
</svg>
