<svg width="60" height="62" viewBox="0 0 60 62" fill="none" xmlns="http://www.w3.org/2000/svg">
<path d="M13.8144 38.5666C9.70932 31.4737 11.5442 21.5471 17.9024 16.3918L36.9684 0.925781C41.0735 8.0101 39.2471 17.9452 32.8804 23.1006L13.8144 38.5666ZM42.0976 45.6082C48.4558 40.4529 50.2907 30.5263 46.1856 23.4334L27.1282 38.8994C20.7785 44.0548 18.9436 53.9814 23.0487 61.0742L42.0976 45.6082Z" fill="white"/>
<path d="M13.8145 38.5667C17.7488 44.7207 25.8651 47.6056 36.1406 38.3107L37.233 37.1328L46.2028 23.4336L43.6595 25.5247C32.9743 34.1369 26.9319 34.0089 24.3887 29.9887L13.8145 38.5667Z" fill="url(#paint0_linear_7535_96593)"/>
<defs>
<linearGradient id="paint0_linear_7535_96593" x1="31.46" y1="33.8508" x2="-1.07818" y2="33.8253" gradientUnits="userSpaceOnUse">
<stop stop-color="white" stop-opacity="0"/>
<stop offset="1" stop-color="white"/>
</linearGradient>
</defs>
</svg>
