<svg width="650" height="258" viewBox="0 0 650 258" fill="none" xmlns="http://www.w3.org/2000/svg">
<path d="M50.0085 195.014C47.1319 192.371 45.6936 188.517 45.6936 183.562V140.617H60.5191V182.791C60.5191 184.333 60.9617 185.544 61.7362 186.425C62.5106 187.306 63.7277 187.636 65.1659 187.636C66.383 187.636 67.4894 187.416 68.4851 186.865L69.1489 197.987C66.9362 198.758 64.6128 199.088 62.1787 199.088C56.9787 198.978 52.8851 197.657 50.0085 195.014ZM116.945 156.143V198.317H102.783V194.133C100.017 197.436 95.8128 199.088 90.2808 199.088C86.4085 199.088 82.8681 198.207 79.7702 196.445C76.5617 194.684 74.1277 192.151 72.2468 188.737C70.366 185.434 69.4808 181.58 69.4808 177.175C69.4808 172.771 70.366 169.027 72.2468 165.723C74.1277 162.42 76.5617 159.887 79.7702 158.125C82.9787 156.363 86.4085 155.483 90.2808 155.483C95.2596 155.483 99.2425 156.914 102.119 159.887V156.253H116.945V156.143ZM99.7957 184.553C101.455 182.791 102.34 180.258 102.34 177.065C102.34 173.982 101.455 171.559 99.7957 169.797C98.1362 168.036 96.034 167.155 93.3787 167.155C90.7234 167.155 88.6213 168.036 86.9617 169.797C85.3021 171.559 84.417 173.982 84.417 177.065C84.417 180.258 85.3021 182.681 86.9617 184.553C88.6213 186.315 90.7234 187.196 93.3787 187.196C96.034 187.196 98.1362 186.315 99.7957 184.553ZM183.217 158.015C186.426 159.777 188.86 162.31 190.74 165.613C192.621 168.917 193.506 172.771 193.506 177.065C193.506 181.47 192.621 185.214 190.74 188.627C188.86 191.931 186.426 194.463 183.217 196.335C180.009 198.097 176.579 198.978 172.706 198.978C167.174 198.978 162.97 197.326 160.204 194.023V198.207H146.043V140.507H160.868V159.777C163.745 156.914 167.617 155.372 172.706 155.372C176.579 155.372 180.119 156.253 183.217 158.015ZM176.026 184.553C177.685 182.791 178.57 180.258 178.57 177.065C178.57 173.982 177.685 171.559 176.026 169.797C174.366 168.036 172.264 167.155 169.609 167.155C166.953 167.155 164.851 168.036 163.191 169.797C161.532 171.559 160.647 173.982 160.647 177.065C160.647 180.258 161.532 182.681 163.191 184.553C164.851 186.315 166.953 187.196 169.609 187.196C172.264 187.196 174.366 186.315 176.026 184.553ZM226.809 186.865C228.247 186.315 229.796 185.324 231.345 184.112L239.089 192.261C235.106 196.776 229.132 199.088 221.055 199.088C216.077 199.088 211.762 198.207 208 196.335C204.238 194.463 201.362 191.821 199.26 188.517C197.157 185.214 196.162 181.47 196.162 177.285C196.162 173.101 197.157 169.357 199.26 166.164C201.251 162.86 204.128 160.328 207.668 158.456C211.209 156.584 215.191 155.703 219.728 155.703C223.821 155.703 227.583 156.584 231.013 158.235C234.443 159.887 237.098 162.42 239.2 165.613C241.191 168.806 242.298 172.66 242.298 177.175L211.983 182.901C213.643 186.315 216.851 187.966 221.609 187.966C223.6 187.746 225.37 187.416 226.809 186.865ZM213.532 168.256C211.872 169.797 210.987 172.11 210.766 175.083L228.026 171.78C227.472 170.018 226.477 168.586 225.038 167.485C223.6 166.384 221.83 165.943 219.838 165.943C217.183 165.943 215.081 166.714 213.532 168.256ZM251.813 195.014C248.936 192.371 247.498 188.517 247.498 183.562V140.617H262.323V182.791C262.323 184.333 262.766 185.544 263.54 186.425C264.315 187.306 265.532 187.636 266.97 187.636C268.187 187.636 269.294 187.416 270.289 186.865L270.953 197.987C268.74 198.758 266.417 199.088 263.983 199.088C258.783 198.978 254.689 197.657 251.813 195.014ZM279.03 195.014C276.153 192.371 274.715 188.517 274.715 183.562V140.617H289.54V182.791C289.54 184.333 289.983 185.544 290.757 186.425C291.532 187.306 292.749 187.636 294.187 187.636C295.404 187.636 296.511 187.416 297.506 186.865L298.17 197.987C295.957 198.758 293.634 199.088 291.2 199.088C286 198.978 281.906 197.657 279.03 195.014Z" fill="#84BC31"/>
<path d="M329.149 186.866C330.587 186.315 332.136 185.324 333.685 184.113L341.43 192.261C337.447 196.776 331.472 199.088 323.396 199.088C318.417 199.088 314.102 198.208 310.341 196.336C306.579 194.464 303.702 191.821 301.6 188.517C299.498 185.214 298.502 181.47 298.502 177.286C298.502 173.101 299.498 169.357 301.6 166.164C303.592 162.861 306.468 160.328 310.009 158.456C313.549 156.584 317.532 155.703 322.068 155.703C326.162 155.703 329.923 156.584 333.353 158.236C336.783 159.887 339.438 162.42 341.541 165.613C343.532 168.807 344.638 172.661 344.638 177.176L314.323 182.902C315.983 186.315 319.192 187.967 323.949 187.967C325.83 187.747 327.6 187.416 329.149 186.866ZM315.762 168.256C314.102 169.798 313.217 172.11 312.996 175.083L330.255 171.78C329.702 170.018 328.706 168.587 327.268 167.485C325.83 166.384 324.06 165.944 322.068 165.944C319.523 165.944 317.421 166.715 315.762 168.256ZM390.111 160.108C393.319 163.191 394.868 167.926 394.868 174.202V198.318H380.043V176.625C380.043 170.899 377.719 168.036 373.072 168.036C370.528 168.036 368.426 168.917 366.987 170.569C365.438 172.22 364.664 174.753 364.664 178.056V198.428H349.838V156.254H364V160.879C365.66 159.117 367.651 157.905 369.975 156.914C372.298 156.033 374.732 155.593 377.498 155.593C382.698 155.373 386.902 156.914 390.111 160.108ZM431.268 186.866C432.706 186.315 434.255 185.324 435.804 184.113L443.549 192.261C439.566 196.776 433.592 199.088 425.515 199.088C420.536 199.088 416.221 198.208 412.46 196.336C408.698 194.464 405.821 191.821 403.719 188.517C401.617 185.214 400.621 181.47 400.621 177.286C400.621 173.101 401.617 169.357 403.719 166.164C405.711 162.861 408.587 160.328 412.128 158.456C415.668 156.584 419.651 155.703 424.077 155.703C428.17 155.703 431.932 156.584 435.362 158.236C438.792 159.887 441.558 162.42 443.549 165.613C445.541 168.807 446.647 172.661 446.647 177.176L416.332 182.902C417.992 186.315 421.2 187.967 425.958 187.967C427.949 187.747 429.719 187.416 431.268 186.866ZM417.881 168.256C416.221 169.798 415.336 172.11 415.115 175.083L432.375 171.78C431.821 170.018 430.826 168.587 429.387 167.485C427.949 166.384 426.179 165.944 424.187 165.944C421.643 165.944 419.541 166.715 417.881 168.256ZM471.983 156.804C474.417 155.813 477.183 155.373 480.281 155.373V168.697C478.953 168.587 477.847 168.476 476.962 168.476C473.753 168.476 471.319 169.357 469.438 171.009C467.668 172.771 466.783 175.304 466.783 178.827V198.208H451.958V156.033H466.119V161.099C467.558 159.227 469.549 157.795 471.983 156.804ZM530.068 156.144V190.61C530.068 198.428 527.966 204.374 523.651 208.228C519.336 212.192 513.251 214.064 505.175 214.064C500.97 214.064 497.098 213.624 493.447 212.633C489.796 211.752 486.698 210.32 484.153 208.558L489.575 198.208C491.345 199.639 493.447 200.74 496.102 201.511C498.758 202.282 501.302 202.722 503.847 202.722C507.719 202.722 510.596 201.841 512.477 200.19C514.358 198.538 515.243 195.895 515.243 192.592V191.16C512.366 194.464 508.162 196.115 502.63 196.115C498.868 196.115 495.438 195.234 492.23 193.583C489.021 191.931 486.477 189.508 484.596 186.425C482.715 183.342 481.83 179.818 481.83 175.744C481.83 171.78 482.715 168.256 484.596 165.173C486.477 162.09 489.021 159.667 492.23 158.016C495.438 156.364 498.868 155.483 502.63 155.483C508.715 155.483 513.14 157.465 515.906 161.319V156.144H530.068ZM512.698 181.911C514.468 180.259 515.353 178.277 515.353 175.634C515.353 173.101 514.468 171.009 512.809 169.467C511.038 167.926 508.826 167.045 506.17 167.045C503.404 167.045 501.192 167.816 499.532 169.467C497.762 171.009 496.877 173.101 496.877 175.634C496.877 178.167 497.762 180.259 499.532 181.911C501.302 183.562 503.515 184.333 506.17 184.333C508.826 184.333 511.038 183.562 512.698 181.911ZM538.919 149.206C537.26 147.665 536.375 145.793 536.375 143.59C536.375 141.388 537.26 139.516 538.919 137.975C540.579 136.433 542.792 135.662 545.447 135.662C548.102 135.662 550.315 136.323 551.975 137.754C553.634 139.186 554.519 141.058 554.519 143.26C554.519 145.572 553.634 147.555 551.975 149.096C550.315 150.638 548.102 151.409 545.447 151.409C542.792 151.409 540.579 150.638 538.919 149.206ZM538.034 156.144H552.86V198.318H538.034V156.144ZM588.928 186.866C590.366 186.315 591.915 185.324 593.464 184.113L601.209 192.261C597.226 196.776 591.251 199.088 583.175 199.088C578.196 199.088 573.881 198.208 570.119 196.336C566.358 194.464 563.481 191.821 561.379 188.517C559.277 185.214 558.281 181.47 558.281 177.286C558.281 173.101 559.277 169.357 561.379 166.164C563.37 162.861 566.247 160.328 569.787 158.456C573.328 156.584 577.311 155.703 581.847 155.703C585.941 155.703 589.702 156.584 593.132 158.236C596.562 159.887 599.217 162.42 601.319 165.613C603.311 168.807 604.417 172.661 604.417 177.176L574.102 182.902C575.762 186.315 578.97 187.967 583.728 187.967C585.609 187.747 587.379 187.416 588.928 186.866ZM575.541 168.256C573.881 169.798 572.996 172.11 572.775 175.083L590.034 171.78C589.481 170.018 588.485 168.587 587.047 167.485C585.609 166.384 583.838 165.944 581.847 165.944C579.302 165.944 577.2 166.715 575.541 168.256Z" fill="#48914A"/>
<path d="M316.757 85.8898C320.519 91.7259 329.26 91.9462 344.97 79.393L348.732 76.4199L335.566 96.3508L334.017 98.1126C318.97 111.657 307.132 107.362 301.379 98.443" fill="url(#paint0_linear_7535_96601)"/>
<path d="M301.268 98.3327C295.294 87.9819 297.949 73.5568 307.242 66.069L335.123 43.6055C341.098 53.9563 338.442 68.3814 329.149 75.8692L301.268 98.3327ZM342.647 108.573C351.94 101.086 354.596 86.6605 348.621 76.3097L320.74 98.7732C311.447 106.261 308.791 120.686 314.766 131.037L342.647 108.573Z" fill="url(#paint1_linear_7535_96601)"/>
<defs>
<linearGradient id="paint0_linear_7535_96601" x1="348.648" y1="91.4974" x2="301.293" y2="91.4981" gradientUnits="userSpaceOnUse">
<stop offset="0.00151054" stop-color="#D6DA25"/>
<stop offset="1" stop-color="#48914A"/>
</linearGradient>
<linearGradient id="paint1_linear_7535_96601" x1="298.094" y1="87.3498" x2="351.847" y2="87.349" gradientUnits="userSpaceOnUse">
<stop offset="0.001511" stop-color="#CED72F"/>
<stop offset="1" stop-color="#48914A"/>
</linearGradient>
</defs>
</svg>
