<svg width="40" height="35" viewBox="0 0 40 35" fill="none" xmlns="http://www.w3.org/2000/svg">
<path d="M20.9873 35.0005C20.6795 33.5538 20.6847 33.5766 22.1259 33.3895C25.3314 32.9742 28.219 31.888 30.7732 30.1081C31.004 29.9484 31.2296 29.7887 31.4861 29.6016C31.6861 29.7567 31.8605 29.8708 32.0092 30.0032C32.2144 30.1857 32.399 30.382 32.6811 30.6558C29.2807 33.2799 25.4084 34.7038 20.9873 34.9913V35.0005Z" fill="#3F3D56"/>
<path d="M18.4175 33.4975V34.8346C15.8172 35.3914 9.50864 33.1506 6.6416 30.5949L8.05204 29.7734C10.8832 31.891 14.3503 33.2145 18.4175 33.502V33.4975Z" fill="#3F3D56"/>
<path d="M18.341 0.0868869C18.659 1.44688 18.6487 1.42863 17.1819 1.61118C14.0174 2.00823 11.1657 3.08527 8.63718 4.82406C8.38074 5.00205 8.1243 5.1846 7.83708 5.3854C7.61141 5.21198 7.41138 5.07507 7.23187 4.9199C7.05236 4.76474 6.89337 4.58675 6.73438 4.42702C8.72438 2.18165 15.0329 -0.164117 18.341 0.0823256V0.0868869Z" fill="#3F3D56"/>
<path d="M31.3731 5.31677C28.9061 3.45019 25.9878 2.19059 22.6848 1.68402C22.5053 1.65664 22.3206 1.62469 22.1411 1.60644C21.1598 1.50299 20.7768 0.967515 20.9922 0C25.3979 0.260134 29.2343 1.7114 32.7271 4.35838L31.3731 5.31677Z" fill="#3F3D56"/>
<path d="M33.2402 6.98273L34.4045 5.8418C37.3433 8.92233 39.0307 12.3314 39.3333 16.3521H37.687C37.2664 12.8928 35.9072 9.72098 33.2402 6.98273Z" fill="#3F3D56"/>
<path d="M6.15464 28.0863L4.85191 29.0675C1.94897 26.0965 0.307732 22.6691 0 18.6484H1.63611C2.10284 22.1443 3.41583 25.3298 6.15464 28.0908V28.0863Z" fill="#3F3D56"/>
<path d="M34.4966 29.0675L33.1733 28.1C35.8455 25.3206 37.2611 22.2036 37.6714 18.6484H39.3075C39.0818 22.6372 37.3534 26.0417 34.4966 29.072V29.0675Z" fill="#3F3D56"/>
<path d="M4.87731 5.87891C5.32865 6.26683 5.6928 6.57716 6.11337 6.9377C3.45661 9.67595 2.03079 12.8249 1.67177 16.4212C1.27171 16.4212 0.943464 16.4257 0.620346 16.4212C0.440835 16.4212 0.266455 16.3938 0.00488281 16.371C0.281842 12.3777 1.9436 8.964 4.87731 5.87891Z" fill="#3F3D56"/>
<path d="M9.60645 6.97918C12.1658 5.07154 15.0379 3.98993 18.3255 3.74805C18.6486 5.14912 18.6435 5.13543 17.1818 5.38187C14.8225 5.77892 12.7094 6.66885 10.7194 8.10643C10.3399 7.72308 10.0116 7.38536 9.60645 6.97918Z" fill="#3F3D56"/>
<path d="M33.4507 16.352C33.0814 13.8876 32.1377 11.6057 30.2041 9.53835C30.6401 9.2554 31.0555 8.9907 31.5632 8.66211C33.6251 10.7888 34.815 13.3582 35.1483 16.352H33.4507Z" fill="#3F3D56"/>
<path d="M21.0075 3.75195C24.2797 3.97558 27.1519 5.07087 29.7317 6.99677L28.5982 8.07839C26.3928 6.55866 24.054 5.60027 21.3921 5.24886C21.0793 5.20779 20.8792 4.45933 20.6279 4.03946L21.0075 3.75651V3.75195Z" fill="#3F3D56"/>
<path d="M9.58057 28.0074L10.7243 26.9258C12.9246 28.4592 15.2736 29.3993 17.9304 29.7599C18.2432 29.8009 18.4227 30.5996 18.792 31.2796C15.0428 31.0332 12.1809 29.9242 9.58057 28.0074Z" fill="#3F3D56"/>
<path d="M31.4807 26.4433C31.2704 26.2927 31.1473 26.2197 31.0447 26.1285C30.8088 25.9185 30.5883 25.704 30.2754 25.4119C32.0705 23.4313 33.1219 21.1631 33.4655 18.6348H35.1119C34.8401 21.5966 33.6399 24.1432 31.4755 26.4433H31.4807Z" fill="#3F3D56"/>
<path d="M4.1543 18.6211H5.84683C6.21098 21.1403 7.20085 23.3993 9.10366 25.453L7.82144 26.4023C5.67245 24.2071 4.52358 21.6286 4.1543 18.6211Z" fill="#3F3D56"/>
<path d="M5.85732 16.3717H4.15967C4.51356 13.4235 5.64704 10.845 7.82681 8.57227C8.05761 8.74569 8.28328 8.89629 8.4833 9.06515C8.66794 9.22032 8.82694 9.3983 9.03722 9.60367C7.22673 11.5798 6.19583 13.8251 5.8522 16.3717H5.85732Z" fill="#3F3D56"/>
<path d="M28.6394 27.0117L29.5267 28.0066C28.1726 29.5948 23.3053 31.4066 20.9255 31.1374C20.6896 30.2657 20.746 29.7089 22.0642 29.5857C23.213 29.4807 24.3568 29.0791 25.4287 28.6547C26.5006 28.2302 27.4751 27.6187 28.6445 27.0117H28.6394Z" fill="#3F3D56"/>
<path d="M13.4835 24.4941C15.2273 25.1468 16.7763 25.7218 18.4175 26.3379V27.6066C16.1557 27.4241 14.258 26.6665 12.4834 25.4388L13.4835 24.4987V24.4941Z" fill="#3F3D56"/>
<path d="M25.8649 24.4805L26.9009 25.3613C25.0853 26.6893 23.1671 27.3921 20.9053 27.6112V26.3333C22.5209 25.7309 24.0647 25.1513 25.8649 24.4805Z" fill="#3F3D56"/>
<path d="M31.0296 16.3883H29.5679C28.8806 14.9233 28.2241 13.5177 27.501 11.9797C27.7369 11.7835 28.0805 11.496 28.5216 11.1309C30.0244 12.6369 30.7476 14.3666 31.0296 16.3883Z" fill="#3F3D56"/>
<path d="M28.5473 23.915C28.1113 23.5271 27.7523 23.2122 27.5112 22.9931C28.2139 21.5053 28.855 20.1362 29.5577 18.6484H30.9783C30.8142 20.6154 29.968 22.304 28.5421 23.915H28.5473Z" fill="#3F3D56"/>
<path d="M10.7602 11.0723L11.7501 12.09C11.0936 13.5093 10.4576 14.8876 9.77031 16.3708H8.3291C8.43168 14.3992 9.35487 12.7517 10.7551 11.0723H10.7602Z" fill="#3F3D56"/>
<path d="M26.8855 9.61058L25.6905 10.4594C24.1775 9.88897 22.6132 9.30024 20.9155 8.66132V7.37891C23.1517 7.61166 25.075 8.30535 26.8907 9.61058H26.8855Z" fill="#3F3D56"/>
<path d="M18.3769 8.68482C16.7716 9.28267 15.2227 9.8577 13.5353 10.4829L12.6274 9.50173C14.1866 8.28321 16.1356 7.65797 18.3718 7.36133V8.68482H18.3769Z" fill="#3F3D56"/>
<path d="M11.8116 22.9612L10.8012 23.9515C9.33949 22.3314 8.50862 20.6382 8.31885 18.6895C9.42668 18.3928 10.0268 18.5206 10.2986 19.657C10.5653 20.7523 11.2474 21.7655 11.8167 22.9657L11.8116 22.9612Z" fill="#3F3D56"/>
<path d="M25.6238 13.8457C26.0136 14.6717 26.3829 15.4567 26.8291 16.4014C25.9726 16.2919 25.2135 16.8395 24.7724 15.9405C24.2083 14.7904 24.1929 14.7995 25.6238 13.8457Z" fill="#3F3D56"/>
<path d="M20.895 12.7366V11.1484C21.9157 11.5181 22.803 11.8376 23.7313 12.1753C23.085 12.9724 22.1396 13.1595 20.895 12.7366Z" fill="#3F3D56"/>
<path d="M23.726 22.8154C22.813 23.1531 21.9258 23.4817 21.0385 23.8058L20.6948 23.6004C20.8692 23.1166 20.8846 22.464 21.259 22.1811C22.136 21.5102 23.0336 21.6243 23.7209 22.8154H23.726Z" fill="#3F3D56"/>
<path d="M18.5358 23.9283C17.3715 23.4902 16.4893 23.157 15.5918 22.8147C16.1765 21.8746 16.7407 21.5414 17.8485 22.0024C18.8897 22.4314 18.3563 23.0612 18.5306 23.9283H18.5358Z" fill="#3F3D56"/>
<path d="M18.623 11.4235C18.4332 11.9073 18.4127 12.6192 18.028 12.8383C16.7971 13.5411 16.7458 13.4726 15.5303 12.2359C16.4894 11.8662 17.3818 11.5239 18.2691 11.1816L18.6179 11.4235H18.623Z" fill="#3F3D56"/>
<path d="M26.7933 18.6708C26.383 19.5471 26.0137 20.332 25.547 21.3269C25.1008 20.6013 24.1263 20.5739 24.4905 19.5927C24.8803 18.5567 25.5675 18.4426 26.7933 18.6708Z" fill="#3F3D56"/>
<path d="M14.2533 16.3831H12.5352C12.9403 15.4932 13.3045 14.6991 13.684 13.873C14.6585 14.4876 14.8483 15.3243 14.2533 16.3831Z" fill="#3F3D56"/>
<path d="M14.9355 19.989C14.5046 20.4088 14.1661 20.7466 13.7097 21.1892C13.3096 20.3084 12.9455 19.5143 12.5659 18.6792C13.6874 18.5605 14.4773 18.9971 14.9355 19.989Z" fill="#3F3D56"/>
</svg>
