<?xml version="1.0" encoding="UTF-8"?>
<svg xmlns="http://www.w3.org/2000/svg" xmlns:xlink="http://www.w3.org/1999/xlink" width="787px" height="500px" viewBox="0 0 786 500" version="1.1">
<defs>
<filter id="alpha" filterUnits="objectBoundingBox" x="0%" y="0%" width="100%" height="100%">
  <feColorMatrix type="matrix" in="SourceGraphic" values="0 0 0 0 1 0 0 0 0 1 0 0 0 0 1 0 0 0 1 0"/>
</filter>
<mask id="mask0">
  <g filter="url(#alpha)">
<rect x="0" y="0" width="786" height="500" style="fill:rgb(0%,0%,0%);fill-opacity:0.101961;stroke:none;"/>
  </g>
</mask>
<clipPath id="clip1">
  <rect x="0" y="0" width="786" height="501"/>
</clipPath>
<g id="surface5" clip-path="url(#clip1)">
<path style=" stroke:none;fill-rule:nonzero;fill:rgb(100%,76.078431%,0%);fill-opacity:1;" d="M 786 317.285156 C 786.015625 330.664062 784.4375 343.996094 781.292969 357 C 778.328125 369.304688 773.882812 381.207031 768.0625 392.441406 C 768.097656 419.386719 757.421875 445.238281 738.390625 464.292969 C 719.355469 483.34375 693.535156 494.035156 666.617188 494.003906 L 149.210938 494.003906 C 100.445312 493.972656 55.839844 466.5 33.835938 422.9375 C 24.722656 404.878906 19.988281 384.929688 20.019531 364.699219 C 7.367188 342 0 314.855469 0 285.667969 C 0 206.277344 54.441406 141.925781 121.609375 141.925781 C 123.988281 141.925781 126.351562 142.015625 128.695312 142.171875 C 170.839844 58.410156 265.894531 0 376.332031 0 C 444.226562 0 506.289062 22.0625 553.835938 58.515625 C 571.3125 47.023438 591.4375 40.460938 612.851562 40.460938 C 680.011719 40.460938 734.464844 104.820312 734.464844 184.203125 C 734.464844 189.28125 734.234375 194.292969 733.777344 199.238281 C 765.347656 225.207031 786 268.390625 786 317.285156 Z M 786 317.285156 "/>
</g>
<mask id="mask1">
  <g filter="url(#alpha)">
<rect x="0" y="0" width="786" height="500" style="fill:rgb(0%,0%,0%);fill-opacity:0.101961;stroke:none;"/>
  </g>
</mask>
<clipPath id="clip2">
  <rect x="0" y="0" width="786" height="501"/>
</clipPath>
<g id="surface8" clip-path="url(#clip2)">
<path style=" stroke:none;fill-rule:nonzero;fill:rgb(100%,76.078431%,0%);fill-opacity:1;" d="M 227.453125 490.308594 C 227.453125 484.875 189.949219 480.46875 143.683594 480.46875 C 97.421875 480.46875 59.917969 484.875 59.917969 490.308594 C 59.917969 495.746094 97.421875 500.152344 143.683594 500.152344 C 189.949219 500.152344 227.453125 495.746094 227.453125 490.308594 Z M 227.453125 490.308594 "/>
</g>
<linearGradient id="linear0" gradientUnits="userSpaceOnUse" x1="241.37" y1="811.22" x2="241.37" y2="492.1" gradientTransform="matrix(0.687063,0,0,0.687758,-19.237762,-59.415406)">
<stop offset="0" style="stop-color:rgb(50.196078%,50.196078%,50.196078%);stop-opacity:0.25098;"/>
<stop offset="0.54" style="stop-color:rgb(50.196078%,50.196078%,50.196078%);stop-opacity:0.121569;"/>
<stop offset="1" style="stop-color:rgb(50.196078%,50.196078%,50.196078%);stop-opacity:0.101961;"/>
</linearGradient>
<mask id="mask2">
  <g filter="url(#alpha)">
<rect x="0" y="0" width="786" height="500" style="fill:rgb(0%,0%,0%);fill-opacity:0.101961;stroke:none;"/>
  </g>
</mask>
<clipPath id="clip3">
  <rect x="0" y="0" width="786" height="501"/>
</clipPath>
<g id="surface11" clip-path="url(#clip3)">
<path style=" stroke:none;fill-rule:nonzero;fill:rgb(0%,0%,0%);fill-opacity:1;" d="M 167.09375 479.222656 C 167.09375 479.222656 167.09375 485.109375 171.386719 485 C 175.683594 484.890625 176.257812 482.65625 174.898438 481.140625 C 173.976562 480.070312 173.179688 478.894531 172.523438 477.640625 Z M 167.09375 479.222656 "/>
</g>
<mask id="mask3">
  <g filter="url(#alpha)">
<rect x="0" y="0" width="786" height="500" style="fill:rgb(0%,0%,0%);fill-opacity:0.101961;stroke:none;"/>
  </g>
</mask>
<clipPath id="clip4">
  <rect x="0" y="0" width="786" height="501"/>
</clipPath>
<g id="surface14" clip-path="url(#clip4)">
<path style=" stroke:none;fill-rule:nonzero;fill:rgb(0%,0%,0%);fill-opacity:1;" d="M 120.730469 477.414062 C 120.730469 477.414062 120.773438 478.789062 120.730469 480.46875 L 108.089844 478.40625 C 108.089844 478.40625 108.152344 478.164062 108.238281 477.765625 C 109.25 476.5625 110.011719 475.804688 110.011719 475.804688 Z M 120.730469 477.414062 "/>
</g>
<mask id="mask4">
  <g filter="url(#alpha)">
<rect x="0" y="0" width="786" height="500" style="fill:rgb(0%,0%,0%);fill-opacity:0.101961;stroke:none;"/>
  </g>
</mask>
<clipPath id="clip5">
  <rect x="0" y="0" width="786" height="501"/>
</clipPath>
<g id="surface17" clip-path="url(#clip5)">
<path style=" stroke:none;fill-rule:nonzero;fill:rgb(0%,0%,0%);fill-opacity:1;" d="M 175.503906 478.335938 C 173.59375 482.757812 162.230469 481.710938 162.230469 481.710938 C 162.285156 481.355469 162.304688 480.992188 162.292969 480.632812 C 162.582031 479.539062 162.941406 478.464844 163.363281 477.414062 C 163.363281 477.414062 170.824219 471.074219 173.3125 475.832031 C 173.851562 476.816406 174.597656 477.671875 175.503906 478.335938 Z M 175.503906 478.335938 "/>
</g>
<mask id="mask5">
  <g filter="url(#alpha)">
<rect x="0" y="0" width="786" height="500" style="fill:rgb(0%,0%,0%);fill-opacity:0.101961;stroke:none;"/>
  </g>
</mask>
<clipPath id="clip6">
  <rect x="0" y="0" width="786" height="501"/>
</clipPath>
<g id="surface20" clip-path="url(#clip6)">
<path style=" stroke:none;fill-rule:nonzero;fill:rgb(0%,0%,0%);fill-opacity:1;" d="M 122.757812 498.507812 C 121.960938 498.503906 121.167969 498.414062 120.386719 498.246094 C 115.867188 497.222656 111.910156 492.578125 111.910156 492.578125 L 111.117188 493.832031 L 102.1875 489.753906 L 103.195312 487.351562 L 103.238281 486.945312 L 112.472656 491.65625 C 112.472656 491.65625 119.84375 495.191406 122.757812 498.507812 Z M 122.757812 498.507812 "/>
</g>
<mask id="mask6">
  <g filter="url(#alpha)">
<rect x="0" y="0" width="786" height="500" style="fill:rgb(0%,0%,0%);fill-opacity:0.101961;stroke:none;"/>
  </g>
</mask>
<clipPath id="clip7">
  <rect x="0" y="0" width="786" height="501"/>
</clipPath>
<g id="surface23" clip-path="url(#clip7)">
<path style=" stroke:none;fill-rule:nonzero;fill:rgb(0%,0%,0%);fill-opacity:1;" d="M 182.59375 489.703125 C 177.097656 490.585938 171.167969 488.960938 171.167969 488.960938 L 171.167969 490.789062 L 162.503906 491.480469 L 162.234375 488.246094 C 164.984375 488.292969 169.402344 488.34375 171.324219 488.191406 C 175.132812 488.183594 178.921875 488.695312 182.59375 489.703125 Z M 182.59375 489.703125 "/>
</g>
<mask id="mask7">
  <g filter="url(#alpha)">
<rect x="0" y="0" width="786" height="500" style="fill:rgb(0%,0%,0%);fill-opacity:0.101961;stroke:none;"/>
  </g>
</mask>
<clipPath id="clip8">
  <rect x="0" y="0" width="786" height="501"/>
</clipPath>
<g id="surface26" clip-path="url(#clip8)">
<path style=" stroke:none;fill-rule:nonzero;fill:rgb(0%,0%,0%);fill-opacity:1;" d="M 113.050781 467.777344 C 113.5 467.738281 113.957031 467.796875 114.382812 467.949219 C 114.828125 468.21875 115.25 468.519531 115.644531 468.859375 C 115.941406 469.015625 116.222656 469.203125 116.484375 469.414062 C 116.8125 469.738281 116.953125 470.21875 117.28125 470.542969 C 117.886719 471.140625 118.882812 471.003906 119.6875 471.292969 C 119.777344 471.292969 119.871094 471.367188 119.886719 471.457031 C 119.898438 471.546875 119.824219 471.625 119.75 471.679688 C 119.34375 471.910156 118.847656 471.910156 118.441406 471.679688 C 118.042969 471.453125 117.675781 471.175781 117.351562 470.851562 C 116.722656 470.296875 116.003906 469.847656 115.226562 469.53125 C 114.164062 469.113281 112.308594 468.996094 111.632812 467.949219 C 111.949219 467.710938 112.636719 467.785156 113.050781 467.777344 Z M 113.050781 467.777344 "/>
</g>
<mask id="mask8">
  <g filter="url(#alpha)">
<rect x="0" y="0" width="786" height="500" style="fill:rgb(0%,0%,0%);fill-opacity:0.101961;stroke:none;"/>
  </g>
</mask>
<clipPath id="clip9">
  <rect x="0" y="0" width="786" height="501"/>
</clipPath>
<g id="surface29" clip-path="url(#clip9)">
<path style=" stroke:none;fill-rule:nonzero;fill:rgb(0%,0%,0%);fill-opacity:1;" d="M 112.140625 470.15625 C 112.382812 470.226562 112.613281 470.320312 112.828125 470.441406 L 113.992188 471.023438 C 113.167969 471.078125 112.34375 470.894531 111.621094 470.496094 C 111.363281 470.390625 111.113281 470.273438 110.871094 470.136719 C 111.292969 470.074219 111.722656 470.082031 112.140625 470.15625 Z M 112.140625 470.15625 "/>
</g>
<mask id="mask9">
  <g filter="url(#alpha)">
<rect x="0" y="0" width="786" height="500" style="fill:rgb(0%,0%,0%);fill-opacity:0.101961;stroke:none;"/>
  </g>
</mask>
<clipPath id="clip10">
  <rect x="0" y="0" width="786" height="501"/>
</clipPath>
<g id="surface32" clip-path="url(#clip10)">
<path style=" stroke:none;fill-rule:nonzero;fill:rgb(0%,0%,0%);fill-opacity:1;" d="M 113.675781 472.140625 C 113.929688 472.128906 114.183594 472.148438 114.429688 472.199219 C 114.867188 472.355469 115.273438 472.585938 115.625 472.886719 C 116.472656 473.574219 117.53125 473.941406 118.621094 473.925781 C 118.40625 474.027344 118.167969 474.066406 117.933594 474.042969 L 115.503906 474.042969 C 114.871094 474.085938 114.238281 473.941406 113.6875 473.625 C 113.277344 473.425781 111.570312 472.9375 111.558594 472.367188 C 111.542969 471.796875 113.261719 472.140625 113.675781 472.140625 Z M 113.675781 472.140625 "/>
</g>
<mask id="mask10">
  <g filter="url(#alpha)">
<rect x="0" y="0" width="786" height="500" style="fill:rgb(0%,0%,0%);fill-opacity:0.101961;stroke:none;"/>
  </g>
</mask>
<clipPath id="clip11">
  <rect x="0" y="0" width="786" height="501"/>
</clipPath>
<g id="surface35" clip-path="url(#clip11)">
<path style=" stroke:none;fill-rule:nonzero;fill:rgb(0%,0%,0%);fill-opacity:1;" d="M 169.015625 475.027344 C 169.761719 475.109375 170.511719 475.128906 171.257812 475.089844 C 172.042969 475.066406 172.808594 474.832031 173.46875 474.402344 C 174.121094 473.898438 173.984375 473.382812 173.152344 473.347656 C 172.378906 473.386719 171.621094 473.570312 170.921875 473.898438 C 170.558594 474.046875 170.207031 474.222656 169.875 474.429688 C 169.703125 474.503906 169.140625 475.035156 169.015625 475.027344 Z M 169.015625 475.027344 "/>
</g>
<mask id="mask11">
  <g filter="url(#alpha)">
<rect x="0" y="0" width="786" height="500" style="fill:rgb(0%,0%,0%);fill-opacity:0.101961;stroke:none;"/>
  </g>
</mask>
<clipPath id="clip12">
  <rect x="0" y="0" width="786" height="501"/>
</clipPath>
<g id="surface38" clip-path="url(#clip12)">
<path style=" stroke:none;fill-rule:nonzero;fill:rgb(0%,0%,0%);fill-opacity:1;" d="M 171.722656 476.265625 C 171.65625 476.539062 171.367188 476.691406 171.105469 476.796875 C 170.464844 477.039062 169.796875 477.183594 169.113281 477.234375 C 168.941406 477.234375 168.460938 477.234375 168.523438 476.96875 C 168.585938 476.699219 169.300781 476.78125 169.472656 476.761719 C 170.230469 476.644531 170.984375 476.480469 171.722656 476.265625 Z M 171.722656 476.265625 "/>
</g>
<mask id="mask12">
  <g filter="url(#alpha)">
<rect x="0" y="0" width="786" height="500" style="fill:rgb(0%,0%,0%);fill-opacity:0.101961;stroke:none;"/>
  </g>
</mask>
<clipPath id="clip13">
  <rect x="0" y="0" width="786" height="501"/>
</clipPath>
<g id="surface41" clip-path="url(#clip13)">
<path style=" stroke:none;fill-rule:nonzero;fill:rgb(0%,0%,0%);fill-opacity:1;" d="M 164.9375 475.820312 C 165.886719 475.707031 166.847656 475.898438 167.683594 476.363281 C 167.710938 476.378906 167.730469 476.402344 167.738281 476.429688 C 167.75 476.449219 167.75 476.472656 167.738281 476.492188 C 167.5625 476.828125 167.199219 477.023438 166.820312 476.988281 C 166.453125 476.945312 166.089844 476.855469 165.746094 476.71875 C 165.175781 476.535156 164.574219 476.445312 163.972656 476.449219 C 163.707031 476.476562 163.4375 476.476562 163.171875 476.449219 C 162.375 476.3125 162.632812 475.992188 163.246094 475.921875 C 163.808594 475.859375 164.371094 475.824219 164.9375 475.820312 Z M 164.9375 475.820312 "/>
</g>
<mask id="mask13">
  <g filter="url(#alpha)">
<rect x="0" y="0" width="786" height="500" style="fill:rgb(0%,0%,0%);fill-opacity:0.101961;stroke:none;"/>
  </g>
</mask>
<clipPath id="clip14">
  <rect x="0" y="0" width="786" height="501"/>
</clipPath>
<g id="surface44" clip-path="url(#clip14)">
<path style=" stroke:none;fill-rule:nonzero;fill:rgb(0%,0%,0%);fill-opacity:1;" d="M 133.867188 431.335938 C 132.734375 430.539062 131.390625 430.097656 130.007812 430.070312 C 131.40625 429.980469 132.789062 430.433594 133.867188 431.335938 Z M 133.867188 431.335938 "/>
</g>
<mask id="mask14">
  <g filter="url(#alpha)">
<rect x="0" y="0" width="786" height="500" style="fill:rgb(0%,0%,0%);fill-opacity:0.101961;stroke:none;"/>
  </g>
</mask>
<clipPath id="clip15">
  <rect x="0" y="0" width="786" height="501"/>
</clipPath>
<g id="surface47" clip-path="url(#clip15)">
<path style=" stroke:none;fill-rule:nonzero;fill:rgb(0%,0%,0%);fill-opacity:1;" d="M 132.808594 426.765625 C 133.828125 426.773438 134.828125 427.058594 135.695312 427.59375 L 134.652344 427.304688 C 134.023438 427.105469 133.375 426.96875 132.71875 426.898438 C 132.34375 426.863281 131.964844 426.898438 131.585938 426.855469 C 131.207031 426.816406 130.726562 426.746094 130.300781 426.734375 C 131.132812 426.773438 131.972656 426.726562 132.808594 426.765625 Z M 132.808594 426.765625 "/>
</g>
<mask id="mask15">
  <g filter="url(#alpha)">
<rect x="0" y="0" width="786" height="500" style="fill:rgb(0%,0%,0%);fill-opacity:0.101961;stroke:none;"/>
  </g>
</mask>
<clipPath id="clip16">
  <rect x="0" y="0" width="786" height="501"/>
</clipPath>
<g id="surface50" clip-path="url(#clip16)">
<path style=" stroke:none;fill-rule:nonzero;fill:rgb(0%,0%,0%);fill-opacity:1;" d="M 136.210938 428.941406 C 136.527344 429.003906 136.898438 429.140625 136.964844 429.464844 C 136.964844 429.269531 134.726562 428.636719 134.453125 428.550781 C 133.992188 428.382812 132.515625 427.738281 132.175781 428.183594 C 133.476562 428.535156 134.878906 428.664062 136.210938 428.941406 Z M 136.210938 428.941406 "/>
</g>
<mask id="mask16">
  <g filter="url(#alpha)">
<rect x="0" y="0" width="786" height="500" style="fill:rgb(0%,0%,0%);fill-opacity:0.101961;stroke:none;"/>
  </g>
</mask>
<clipPath id="clip17">
  <rect x="0" y="0" width="786" height="501"/>
</clipPath>
<g id="surface53" clip-path="url(#clip17)">
<path style=" stroke:none;fill-rule:nonzero;fill:rgb(0%,0%,0%);fill-opacity:1;" d="M 139.355469 418.886719 C 140.84375 418.386719 142.179688 417.527344 143.253906 416.382812 C 143.230469 417.417969 142.691406 418.371094 141.816406 418.925781 C 140.945312 419.457031 139.984375 419.816406 138.980469 419.984375 C 137.976562 420.15625 136.996094 420.449219 136.066406 420.859375 C 135.621094 421.085938 134.226562 422.40625 133.785156 422.339844 C 133.226562 422.253906 134.113281 421.375 134.320312 421.21875 C 135.792969 420.070312 137.652344 419.558594 139.355469 418.886719 Z M 139.355469 418.886719 "/>
</g>
<mask id="mask17">
  <g filter="url(#alpha)">
<rect x="0" y="0" width="786" height="500" style="fill:rgb(0%,0%,0%);fill-opacity:0.101961;stroke:none;"/>
  </g>
</mask>
<clipPath id="clip18">
  <rect x="0" y="0" width="786" height="501"/>
</clipPath>
<g id="surface56" clip-path="url(#clip18)">
<path style=" stroke:none;fill-rule:nonzero;fill:rgb(0%,0%,0%);fill-opacity:1;" d="M 167.066406 433.570312 C 166.585938 433.40625 160.746094 434.539062 161.101562 433.40625 C 161.324219 432.714844 163.21875 432.964844 163.691406 432.984375 C 164.839844 433.015625 165.976562 433.214844 167.066406 433.570312 Z M 167.066406 433.570312 "/>
</g>
<mask id="mask18">
  <g filter="url(#alpha)">
<rect x="0" y="0" width="786" height="500" style="fill:rgb(0%,0%,0%);fill-opacity:0.101961;stroke:none;"/>
  </g>
</mask>
<clipPath id="clip19">
  <rect x="0" y="0" width="786" height="501"/>
</clipPath>
<g id="surface59" clip-path="url(#clip19)">
<path style=" stroke:none;fill-rule:nonzero;fill:rgb(0%,0%,0%);fill-opacity:1;" d="M 171.964844 386.941406 C 171.964844 387.234375 171.964844 387.515625 171.964844 387.792969 C 171.738281 393.570312 161.445312 405.226562 159.070312 403.300781 C 156.691406 401.375 140.519531 397.523438 140.519531 397.523438 C 140.519531 397.523438 138.140625 393.789062 135.652344 393.789062 C 134.242188 393.667969 132.859375 393.308594 131.566406 392.730469 L 132.03125 386.09375 C 132.03125 386.09375 167.203125 380.0625 171.078125 384.925781 C 171.492188 385.539062 171.792969 386.21875 171.964844 386.941406 Z M 171.964844 386.941406 "/>
</g>
<mask id="mask19">
  <g filter="url(#alpha)">
<rect x="0" y="0" width="786" height="500" style="fill:rgb(0%,0%,0%);fill-opacity:0.101961;stroke:none;"/>
  </g>
</mask>
<clipPath id="clip20">
  <rect x="0" y="0" width="786" height="501"/>
</clipPath>
<g id="surface62" clip-path="url(#clip20)">
<path style=" stroke:none;fill-rule:nonzero;fill:rgb(0%,0%,0%);fill-opacity:1;" d="M 172.523438 357.53125 C 162.902344 357.421875 160.421875 343.949219 160.421875 343.949219 C 160.421875 343.949219 159.734375 330.589844 158.5 328.128906 C 157.8125 326.753906 157.503906 323.371094 157.363281 320.617188 C 158.875 322.886719 160.410156 326.808594 161.894531 330.390625 C 164.042969 335.570312 172.523438 357.53125 172.523438 357.53125 Z M 172.523438 357.53125 "/>
</g>
<mask id="mask20">
  <g filter="url(#alpha)">
<rect x="0" y="0" width="786" height="500" style="fill:rgb(0%,0%,0%);fill-opacity:0.101961;stroke:none;"/>
  </g>
</mask>
<clipPath id="clip21">
  <rect x="0" y="0" width="786" height="501"/>
</clipPath>
<g id="surface65" clip-path="url(#clip21)">
<path style=" stroke:none;fill-rule:nonzero;fill:rgb(0%,0%,0%);fill-opacity:1;" d="M 155.648438 323.28125 C 155.648438 323.28125 152.816406 315.585938 148.179688 323.28125 C 143.542969 330.976562 143.429688 340.714844 143.429688 340.714844 L 142.640625 361.996094 C 142.640625 361.996094 144.113281 364.828125 144.054688 366.410156 C 144 367.992188 146.804688 372.523438 146.804688 372.523438 C 146.804688 372.523438 147.492188 381.464844 150.082031 382.9375 L 152.570312 390.296875 C 152.570312 390.296875 152.6875 395.164062 154.382812 397.089844 C 156.082031 399.015625 155.1875 401.988281 155.1875 401.988281 L 165.238281 398.464844 C 165.238281 398.464844 164.105469 398.871094 165.238281 395.832031 C 166.371094 392.792969 164.550781 388.824219 164.550781 388.824219 C 164.550781 388.824219 158.105469 374.785156 157.316406 372.75 C 156.527344 370.714844 155.394531 368.335938 155.847656 365.957031 C 156.300781 363.578125 155.9375 338.335938 156.535156 334.492188 C 157.132812 330.648438 155.648438 323.28125 155.648438 323.28125 Z M 155.648438 323.28125 "/>
</g>
<mask id="mask21">
  <g filter="url(#alpha)">
<rect x="0" y="0" width="786" height="500" style="fill:rgb(0%,0%,0%);fill-opacity:0.101961;stroke:none;"/>
  </g>
</mask>
<clipPath id="clip22">
  <rect x="0" y="0" width="786" height="501"/>
</clipPath>
<g id="surface68" clip-path="url(#clip22)">
<path style=" stroke:none;fill-rule:nonzero;fill:rgb(0%,0%,0%);fill-opacity:1;" d="M 156.882812 388.78125 C 157.3125 388.832031 157.726562 388.957031 158.113281 389.148438 C 158.421875 389.3125 158.691406 389.554688 158.992188 389.726562 C 159.347656 389.925781 159.746094 390.035156 160.15625 390.042969 C 159.699219 390.042969 159.246094 390.089844 158.78125 390.097656 C 158.5 390.109375 158.21875 390.074219 157.949219 389.992188 C 157.703125 389.867188 157.472656 389.714844 157.261719 389.53125 C 156.984375 389.328125 156.683594 389.160156 156.363281 389.039062 C 156.121094 388.933594 155.859375 388.898438 155.757812 388.652344 C 156.136719 388.664062 156.511719 388.707031 156.882812 388.78125 Z M 156.882812 388.78125 "/>
</g>
<mask id="mask22">
  <g filter="url(#alpha)">
<rect x="0" y="0" width="786" height="500" style="fill:rgb(0%,0%,0%);fill-opacity:0.101961;stroke:none;"/>
  </g>
</mask>
<clipPath id="clip23">
  <rect x="0" y="0" width="786" height="501"/>
</clipPath>
<g id="surface71" clip-path="url(#clip23)">
<path style=" stroke:none;fill-rule:nonzero;fill:rgb(0%,0%,0%);fill-opacity:1;" d="M 160.710938 391.824219 C 161.136719 391.824219 161.5625 391.726562 161.996094 391.699219 C 162.617188 391.675781 163.242188 391.707031 163.859375 391.796875 C 162.949219 392.25 161.925781 392.433594 160.917969 392.316406 C 160.625 392.242188 160.320312 392.242188 160.03125 392.316406 C 159.714844 392.449219 158.800781 393.488281 158.71875 392.566406 C 158.636719 391.644531 160.1875 391.84375 160.710938 391.824219 Z M 160.710938 391.824219 "/>
</g>
<mask id="mask23">
  <g filter="url(#alpha)">
<rect x="0" y="0" width="786" height="500" style="fill:rgb(0%,0%,0%);fill-opacity:0.101961;stroke:none;"/>
  </g>
</mask>
<clipPath id="clip24">
  <rect x="0" y="0" width="786" height="501"/>
</clipPath>
<g id="surface74" clip-path="url(#clip24)">
<path style=" stroke:none;fill-rule:nonzero;fill:rgb(0%,0%,0%);fill-opacity:1;" d="M 155.511719 284.636719 L 153.902344 283.4375 C 154.078125 283.5 154.25 283.574219 154.410156 283.664062 C 154.753906 283.855469 155.0625 284.101562 155.332031 284.386719 C 155.511719 284.539062 155.6875 284.703125 155.859375 284.863281 Z M 155.511719 284.636719 "/>
</g>
<mask id="mask24">
  <g filter="url(#alpha)">
<rect x="0" y="0" width="786" height="500" style="fill:rgb(0%,0%,0%);fill-opacity:0.101961;stroke:none;"/>
  </g>
</mask>
<clipPath id="clip25">
  <rect x="0" y="0" width="786" height="501"/>
</clipPath>
<g id="surface77" clip-path="url(#clip25)">
<path style=" stroke:none;fill-rule:nonzero;fill:rgb(0%,0%,0%);fill-opacity:1;" d="M 157.335938 319.007812 C 157.042969 319.683594 156.566406 320.265625 155.964844 320.6875 C 155.601562 320.9375 155.1875 321.097656 154.753906 321.15625 C 154.136719 321.210938 153.515625 321.144531 152.925781 320.960938 C 152.175781 320.773438 151.433594 320.542969 150.707031 320.273438 C 149.285156 319.6875 147.828125 319.191406 146.34375 318.789062 C 144.082031 318.273438 141.453125 318.460938 139.832031 320.109375 C 138.410156 321.5625 138.058594 323.816406 136.636719 325.269531 C 134.734375 327.207031 131.613281 327.089844 128.914062 326.710938 L 128.28125 326.625 C 129.496094 321.761719 130.777344 317.683594 131.75 317.035156 C 134.355469 315.335938 147.925781 317.035156 147.925781 317.035156 C 147.925781 317.035156 153.578125 317.144531 155.730469 317.722656 C 156.382812 317.976562 156.945312 318.425781 157.335938 319.007812 Z M 157.335938 319.007812 "/>
</g>
<mask id="mask25">
  <g filter="url(#alpha)">
<rect x="0" y="0" width="786" height="500" style="fill:rgb(0%,0%,0%);fill-opacity:0.101961;stroke:none;"/>
  </g>
</mask>
<clipPath id="clip26">
  <rect x="0" y="0" width="786" height="501"/>
</clipPath>
<g id="surface80" clip-path="url(#clip26)">
<path style=" stroke:none;fill-rule:nonzero;fill:rgb(0%,0%,0%);fill-opacity:1;" d="M 134.980469 298.21875 C 134.980469 293.027344 138.085938 288.34375 142.863281 286.328125 C 147.640625 284.3125 153.160156 285.359375 156.871094 288.980469 C 156.910156 291.230469 156.421875 293.535156 157.054688 295.703125 C 157.640625 297.714844 159.117188 299.339844 160.449219 301.019531 C 159.019531 307.4375 152.996094 311.753906 146.464844 311.035156 C 139.933594 310.316406 134.984375 304.796875 134.980469 298.21875 Z M 134.980469 298.21875 "/>
</g>
<mask id="mask26">
  <g filter="url(#alpha)">
<rect x="0" y="0" width="786" height="500" style="fill:rgb(0%,0%,0%);fill-opacity:0.101961;stroke:none;"/>
  </g>
</mask>
<clipPath id="clip27">
  <rect x="0" y="0" width="786" height="501"/>
</clipPath>
<g id="surface83" clip-path="url(#clip27)">
<path style=" stroke:none;fill-rule:nonzero;fill:rgb(0%,0%,0%);fill-opacity:1;" d="M 162.613281 304.992188 C 162.078125 301.15625 157.929688 298.761719 156.84375 295.042969 C 156.210938 292.882812 156.699219 290.578125 156.664062 288.328125 C 156.683594 286.761719 156.199219 285.230469 155.289062 283.953125 L 155.605469 284.1875 C 155.4375 284.023438 155.257812 283.863281 155.070312 283.714844 C 154.8125 283.441406 154.511719 283.207031 154.183594 283.027344 C 153.992188 282.882812 153.792969 282.75 153.601562 282.621094 L 153.910156 282.902344 L 153.59375 282.667969 C 154.503906 283.941406 154.984375 285.476562 154.96875 287.042969 C 154.96875 289.285156 154.511719 291.59375 155.144531 293.753906 C 156.230469 297.476562 160.382812 299.871094 160.917969 303.707031 C 161.183594 305.875 160.226562 308.011719 158.429688 309.25 C 157.941406 309.527344 157.480469 309.851562 157.054688 310.21875 C 155.914062 311.363281 156.140625 313.226562 156.019531 314.84375 C 155.867188 316.78125 154.746094 318.925781 152.824219 319.1875 C 152.207031 319.242188 151.582031 319.179688 150.988281 319.003906 C 148.75 318.417969 146.667969 317.316406 144.40625 316.800781 C 142.144531 316.285156 139.523438 316.464844 137.894531 318.121094 C 136.472656 319.566406 136.121094 321.824219 134.699219 323.273438 C 132.796875 325.21875 129.675781 325.097656 126.984375 324.726562 C 125.210938 324.523438 123.46875 324.121094 121.789062 323.527344 C 121.5625 323.566406 121.332031 323.582031 121.101562 323.582031 C 123.285156 325.128906 126.015625 325.648438 128.660156 326.023438 C 131.304688 326.402344 134.472656 326.519531 136.375 324.574219 C 137.796875 323.128906 138.148438 320.867188 139.570312 319.421875 C 141.199219 317.765625 143.828125 317.578125 146.082031 318.101562 C 148.335938 318.625 150.425781 319.71875 152.664062 320.300781 C 153.257812 320.480469 153.882812 320.542969 154.5 320.488281 C 156.421875 320.226562 157.542969 318.082031 157.695312 316.140625 C 157.816406 314.527344 157.589844 312.660156 158.730469 311.519531 C 159.160156 311.15625 159.621094 310.832031 160.105469 310.550781 C 161.914062 309.3125 162.882812 307.167969 162.613281 304.992188 Z M 162.613281 304.992188 "/>
</g>
</defs>
<g id="surface1">
<use xlink:href="#surface5" mask="url(#mask0)"/>
<path style=" stroke:none;fill-rule:nonzero;fill:rgb(100%,100%,100%);fill-opacity:1;" d="M 395.464844 141.328125 C 394.65625 145.785156 391.914062 155.191406 383.058594 154.957031 C 376.296875 154.785156 371.089844 148.878906 371.269531 142.113281 L 373.816406 49.953125 L 374.648438 19.898438 C 374.648438 19.898438 379.03125 11.582031 383.394531 48.859375 L 383.394531 48.996094 L 395.515625 137.386719 C 395.707031 138.695312 395.691406 140.023438 395.464844 141.328125 Z M 395.464844 141.328125 "/>
<path style=" stroke:none;fill-rule:nonzero;fill:rgb(100%,100%,100%);fill-opacity:1;" d="M 376.550781 150.273438 L 389.566406 150.273438 L 389.566406 178.136719 L 376.550781 178.136719 Z M 376.550781 150.273438 "/>
<path style=" stroke:none;fill-rule:nonzero;fill:rgb(100%,100%,100%);fill-opacity:1;" d="M 378.152344 171.519531 L 388.164062 171.519531 L 388.164062 183.75 L 378.152344 183.75 Z M 378.152344 171.519531 "/>
<path style=" stroke:none;fill-rule:nonzero;fill:rgb(100%,76.078431%,0%);fill-opacity:1;" d="M 383.414062 49.003906 C 378.859375 47.675781 375.761719 48.6875 373.796875 49.957031 L 374.628906 19.902344 C 374.628906 19.902344 379.011719 11.589844 383.375 48.863281 Z M 383.414062 49.003906 "/>
<path style=" stroke:none;fill-rule:nonzero;fill:rgb(100%,76.078431%,0%);fill-opacity:1;" d="M 389.566406 158.605469 L 389.566406 178.136719 L 376.550781 178.136719 L 376.550781 158.988281 C 380.679688 157.199219 385.335938 157.0625 389.566406 158.605469 Z M 389.566406 158.605469 "/>
<path style=" stroke:none;fill-rule:nonzero;fill:rgb(100%,100%,100%);fill-opacity:1;" d="M 420.199219 220.703125 C 416.550781 218.019531 409.3125 211.429688 413.398438 203.5625 C 416.519531 197.558594 424.101562 195.453125 430.101562 198.582031 L 511.730469 241.277344 L 538.355469 255.199219 C 538.355469 255.199219 543.894531 262.765625 508.507812 250.386719 L 508.378906 250.34375 L 423.699219 222.488281 C 422.445312 222.082031 421.265625 221.476562 420.199219 220.703125 Z M 420.199219 220.703125 "/>
<path style=" stroke:none;fill-rule:nonzero;fill:rgb(100%,100%,100%);fill-opacity:1;" d="M 389.746094 199.261719 L 395.449219 187.554688 L 420.464844 199.769531 L 414.761719 211.476562 Z M 389.746094 199.261719 "/>
<path style=" stroke:none;fill-rule:nonzero;fill:rgb(100%,100%,100%);fill-opacity:1;" d="M 400.6875 191.898438 L 396.296875 200.902344 L 385.320312 195.542969 L 389.707031 186.535156 Z M 400.6875 191.898438 "/>
<path style=" stroke:none;fill-rule:nonzero;fill:rgb(100%,76.078431%,0%);fill-opacity:1;" d="M 508.378906 250.335938 C 511.566406 246.816406 512.019531 243.582031 511.730469 241.277344 L 538.355469 255.199219 C 538.355469 255.199219 543.894531 262.765625 508.507812 250.386719 Z M 508.378906 250.335938 "/>
<path style=" stroke:none;fill-rule:nonzero;fill:rgb(100%,76.078431%,0%);fill-opacity:1;" d="M 407.285156 207.820312 L 389.742188 199.257812 L 395.445312 187.566406 L 412.621094 195.957031 C 412.421875 200.449219 410.511719 204.691406 407.285156 207.820312 Z M 407.285156 207.820312 "/>
<path style=" stroke:none;fill-rule:nonzero;fill:rgb(100%,100%,100%);fill-opacity:1;" d="M 345.914062 220.703125 C 349.5625 218.019531 356.804688 211.429688 352.71875 203.5625 C 349.597656 197.558594 342.011719 195.453125 336.015625 198.582031 L 254.386719 241.277344 L 227.761719 255.199219 C 227.761719 255.199219 222.222656 262.765625 257.605469 250.386719 L 257.738281 250.34375 L 342.417969 222.496094 C 343.671875 222.085938 344.851562 221.480469 345.914062 220.703125 Z M 345.914062 220.703125 "/>
<path style=" stroke:none;fill-rule:nonzero;fill:rgb(100%,100%,100%);fill-opacity:1;" d="M 345.652344 199.765625 L 370.667969 187.554688 L 376.371094 199.261719 L 351.355469 211.476562 Z M 345.652344 199.765625 "/>
<path style=" stroke:none;fill-rule:nonzero;fill:rgb(100%,100%,100%);fill-opacity:1;" d="M 376.40625 186.53125 L 380.796875 195.539062 L 369.816406 200.898438 L 365.425781 191.894531 Z M 376.40625 186.53125 "/>
<path style=" stroke:none;fill-rule:nonzero;fill:rgb(100%,76.078431%,0%);fill-opacity:1;" d="M 257.738281 250.335938 C 254.550781 246.816406 254.097656 243.582031 254.386719 241.277344 L 227.761719 255.199219 C 227.761719 255.199219 222.222656 262.765625 257.605469 250.386719 Z M 257.738281 250.335938 "/>
<path style=" stroke:none;fill-rule:nonzero;fill:rgb(100%,76.078431%,0%);fill-opacity:1;" d="M 358.832031 207.820312 L 376.375 199.257812 L 370.671875 187.566406 L 353.492188 195.957031 C 353.695312 200.449219 355.605469 204.691406 358.832031 207.820312 Z M 358.832031 207.820312 "/>
<path style=" stroke:none;fill-rule:nonzero;fill:rgb(100%,100%,100%);fill-opacity:1;" d="M 394.765625 493.375 L 369.242188 493.375 L 377.347656 192.460938 L 386.660156 192.460938 Z M 394.765625 493.375 "/>
<path style=" stroke:none;fill-rule:nonzero;fill:rgb(100%,76.078431%,0%);fill-opacity:1;" d="M 391.5625 188.753906 C 391.5625 193.457031 387.753906 197.269531 383.058594 197.269531 C 378.359375 197.269531 374.550781 193.457031 374.550781 188.753906 C 374.550781 184.054688 378.359375 180.242188 383.058594 180.242188 C 387.753906 180.242188 391.5625 184.054688 391.5625 188.753906 Z M 391.5625 188.753906 "/>
<path style=" stroke:none;fill-rule:nonzero;fill:rgb(100%,100%,100%);fill-opacity:1;" d="M 584.464844 125.46875 C 583.921875 128.480469 582.066406 134.84375 576.074219 134.683594 C 571.484375 134.472656 567.921875 130.59375 568.089844 125.996094 L 569.824219 63.644531 L 570.378906 43.316406 C 570.378906 43.316406 573.347656 37.6875 576.300781 62.910156 L 576.300781 63 L 584.5 122.832031 C 584.625 123.707031 584.613281 124.597656 584.464844 125.46875 Z M 584.464844 125.46875 "/>
<path style=" stroke:none;fill-rule:nonzero;fill:rgb(100%,100%,100%);fill-opacity:1;" d="M 571.671875 131.511719 L 580.472656 131.511719 L 580.472656 150.363281 L 571.671875 150.363281 Z M 571.671875 131.511719 "/>
<path style=" stroke:none;fill-rule:nonzero;fill:rgb(100%,100%,100%);fill-opacity:1;" d="M 572.75 145.886719 L 579.523438 145.886719 L 579.523438 154.160156 L 572.75 154.160156 Z M 572.75 145.886719 "/>
<path style=" stroke:none;fill-rule:nonzero;fill:rgb(100%,76.078431%,0%);fill-opacity:1;" d="M 576.316406 63.003906 C 573.230469 62.113281 571.136719 62.792969 569.824219 63.652344 L 570.378906 43.320312 C 570.378906 43.320312 573.347656 37.695312 576.300781 62.917969 Z M 576.316406 63.003906 "/>
<path style=" stroke:none;fill-rule:nonzero;fill:rgb(100%,76.078431%,0%);fill-opacity:1;" d="M 580.472656 137.144531 L 580.472656 150.351562 L 571.671875 150.351562 L 571.671875 137.414062 C 574.460938 136.199219 577.613281 136.101562 580.472656 137.144531 Z M 580.472656 137.144531 "/>
<path style=" stroke:none;fill-rule:nonzero;fill:rgb(100%,100%,100%);fill-opacity:1;" d="M 601.179688 179.160156 C 598.714844 177.351562 593.808594 172.894531 596.578125 167.570312 C 598.777344 163.53125 603.828125 162.027344 607.878906 164.203125 L 663.105469 193.089844 L 681.113281 202.503906 C 681.113281 202.503906 684.863281 207.640625 660.925781 199.242188 L 660.835938 199.242188 L 603.542969 180.40625 C 602.695312 180.117188 601.898438 179.699219 601.179688 179.160156 Z M 601.179688 179.160156 "/>
<path style=" stroke:none;fill-rule:nonzero;fill:rgb(100%,100%,100%);fill-opacity:1;" d="M 580.59375 164.660156 L 584.453125 156.742188 L 601.378906 165.003906 L 597.519531 172.921875 Z M 580.59375 164.660156 "/>
<path style=" stroke:none;fill-rule:nonzero;fill:rgb(100%,100%,100%);fill-opacity:1;" d="M 588.003906 159.679688 L 585.03125 165.773438 L 577.605469 162.148438 L 580.574219 156.050781 Z M 588.003906 159.679688 "/>
<path style=" stroke:none;fill-rule:nonzero;fill:rgb(100%,76.078431%,0%);fill-opacity:1;" d="M 660.859375 199.214844 C 663.015625 196.835938 663.324219 194.648438 663.125 193.089844 L 681.132812 202.503906 C 681.132812 202.503906 684.886719 207.640625 660.949219 199.242188 Z M 660.859375 199.214844 "/>
<path style=" stroke:none;fill-rule:nonzero;fill:rgb(100%,76.078431%,0%);fill-opacity:1;" d="M 592.460938 170.453125 L 580.566406 164.65625 L 584.421875 156.738281 L 596.054688 162.414062 C 595.925781 165.453125 594.640625 168.332031 592.460938 170.453125 Z M 592.460938 170.453125 "/>
<path style=" stroke:none;fill-rule:nonzero;fill:rgb(100%,100%,100%);fill-opacity:1;" d="M 550.941406 179.160156 C 553.410156 177.351562 558.3125 172.894531 555.546875 167.570312 C 553.34375 163.53125 548.296875 162.027344 544.242188 164.203125 L 489.015625 193.089844 L 471.007812 202.503906 C 471.007812 202.503906 467.257812 207.640625 491.195312 199.242188 L 491.285156 199.242188 L 548.578125 180.40625 C 549.425781 180.117188 550.226562 179.699219 550.941406 179.160156 Z M 550.941406 179.160156 "/>
<path style=" stroke:none;fill-rule:nonzero;fill:rgb(100%,100%,100%);fill-opacity:1;" d="M 550.769531 165.007812 L 567.695312 156.742188 L 571.554688 164.664062 L 554.628906 172.925781 Z M 550.769531 165.007812 "/>
<path style=" stroke:none;fill-rule:nonzero;fill:rgb(100%,100%,100%);fill-opacity:1;" d="M 571.570312 156.046875 L 574.542969 162.140625 L 567.113281 165.769531 L 564.144531 159.675781 Z M 571.570312 156.046875 "/>
<path style=" stroke:none;fill-rule:nonzero;fill:rgb(100%,76.078431%,0%);fill-opacity:1;" d="M 491.285156 199.214844 C 489.128906 196.835938 488.816406 194.648438 489.015625 193.089844 L 471.007812 202.503906 C 471.007812 202.503906 467.257812 207.640625 491.195312 199.242188 Z M 491.285156 199.214844 "/>
<path style=" stroke:none;fill-rule:nonzero;fill:rgb(100%,76.078431%,0%);fill-opacity:1;" d="M 559.679688 170.453125 L 571.546875 164.65625 L 567.691406 156.738281 L 556.0625 162.414062 C 556.199219 165.457031 557.492188 168.335938 559.679688 170.453125 Z M 559.679688 170.453125 "/>
<path style=" stroke:none;fill-rule:nonzero;fill:rgb(100%,100%,100%);fill-opacity:1;" d="M 583.996094 363.644531 L 566.640625 366.699219 L 572.207031 160.0625 L 578.507812 160.0625 Z M 583.996094 363.644531 "/>
<path style=" stroke:none;fill-rule:nonzero;fill:rgb(100%,76.078431%,0%);fill-opacity:1;" d="M 581.832031 157.550781 C 581.832031 160.734375 579.253906 163.316406 576.074219 163.316406 C 572.894531 163.316406 570.316406 160.734375 570.316406 157.550781 C 570.316406 154.367188 572.894531 151.789062 576.074219 151.789062 C 579.253906 151.789062 581.832031 154.367188 581.832031 157.550781 Z M 581.832031 157.550781 "/>
<path style=" stroke:none;fill-rule:nonzero;fill:rgb(100%,100%,100%);fill-opacity:1;" d="M 190.667969 125.46875 C 190.125 128.480469 188.269531 134.84375 182.277344 134.683594 C 177.6875 134.472656 174.125 130.59375 174.300781 125.996094 L 176.027344 63.644531 L 176.582031 43.316406 C 176.582031 43.316406 179.550781 37.6875 182.503906 62.910156 L 182.503906 63 L 190.707031 122.832031 C 190.828125 123.707031 190.816406 124.597656 190.667969 125.46875 Z M 190.667969 125.46875 "/>
<path style=" stroke:none;fill-rule:nonzero;fill:rgb(100%,100%,100%);fill-opacity:1;" d="M 177.875 131.511719 L 186.675781 131.511719 L 186.675781 150.363281 L 177.875 150.363281 Z M 177.875 131.511719 "/>
<path style=" stroke:none;fill-rule:nonzero;fill:rgb(100%,100%,100%);fill-opacity:1;" d="M 178.953125 145.886719 L 185.726562 145.886719 L 185.726562 154.160156 L 178.953125 154.160156 Z M 178.953125 145.886719 "/>
<path style=" stroke:none;fill-rule:nonzero;fill:rgb(100%,76.078431%,0%);fill-opacity:1;" d="M 182.519531 63.003906 C 179.441406 62.113281 177.335938 62.792969 176.027344 63.652344 L 176.582031 43.320312 C 176.582031 43.320312 179.550781 37.695312 182.503906 62.917969 Z M 182.519531 63.003906 "/>
<path style=" stroke:none;fill-rule:nonzero;fill:rgb(100%,76.078431%,0%);fill-opacity:1;" d="M 186.675781 137.144531 L 186.675781 150.351562 L 177.875 150.351562 L 177.875 137.414062 C 180.664062 136.199219 183.816406 136.101562 186.675781 137.144531 Z M 186.675781 137.144531 "/>
<path style=" stroke:none;fill-rule:nonzero;fill:rgb(100%,100%,100%);fill-opacity:1;" d="M 207.402344 179.160156 C 204.9375 177.351562 200.039062 172.894531 202.808594 167.570312 C 205.007812 163.53125 210.050781 162.027344 214.101562 164.203125 L 269.328125 193.089844 L 287.34375 202.503906 C 287.34375 202.503906 291.089844 207.640625 267.152344 199.242188 L 267.0625 199.242188 L 209.773438 180.40625 C 208.921875 180.117188 208.125 179.699219 207.402344 179.160156 Z M 207.402344 179.160156 "/>
<path style=" stroke:none;fill-rule:nonzero;fill:rgb(100%,100%,100%);fill-opacity:1;" d="M 186.796875 164.660156 L 190.65625 156.742188 L 207.582031 165.007812 L 203.726562 172.925781 Z M 186.796875 164.660156 "/>
<path style=" stroke:none;fill-rule:nonzero;fill:rgb(100%,100%,100%);fill-opacity:1;" d="M 194.203125 159.675781 L 191.234375 165.773438 L 183.804688 162.144531 L 186.773438 156.050781 Z M 194.203125 159.675781 "/>
<path style=" stroke:none;fill-rule:nonzero;fill:rgb(100%,76.078431%,0%);fill-opacity:1;" d="M 267.0625 199.214844 C 269.21875 196.835938 269.527344 194.648438 269.328125 193.089844 L 287.34375 202.503906 C 287.34375 202.503906 291.089844 207.640625 267.152344 199.242188 Z M 267.0625 199.214844 "/>
<path style=" stroke:none;fill-rule:nonzero;fill:rgb(100%,76.078431%,0%);fill-opacity:1;" d="M 198.664062 170.453125 L 186.796875 164.65625 L 190.660156 156.738281 L 202.285156 162.414062 C 202.152344 165.460938 200.855469 168.335938 198.664062 170.453125 Z M 198.664062 170.453125 "/>
<path style=" stroke:none;fill-rule:nonzero;fill:rgb(100%,100%,100%);fill-opacity:1;" d="M 157.144531 179.160156 C 159.617188 177.351562 164.515625 172.894531 161.75 167.570312 C 159.546875 163.53125 154.5 162.027344 150.445312 164.203125 L 95.21875 193.089844 L 77.210938 202.503906 C 77.210938 202.503906 73.460938 207.640625 97.398438 199.242188 L 97.488281 199.242188 L 154.78125 180.40625 C 155.628906 180.117188 156.429688 179.699219 157.144531 179.160156 Z M 157.144531 179.160156 "/>
<path style=" stroke:none;fill-rule:nonzero;fill:rgb(100%,100%,100%);fill-opacity:1;" d="M 156.96875 165.003906 L 173.898438 156.742188 L 177.753906 164.660156 L 160.828125 172.925781 Z M 156.96875 165.003906 "/>
<path style=" stroke:none;fill-rule:nonzero;fill:rgb(100%,100%,100%);fill-opacity:1;" d="M 177.78125 156.050781 L 180.75 162.148438 L 173.320312 165.773438 L 170.351562 159.679688 Z M 177.78125 156.050781 "/>
<path style=" stroke:none;fill-rule:nonzero;fill:rgb(100%,76.078431%,0%);fill-opacity:1;" d="M 97.488281 199.214844 C 95.335938 196.835938 95.027344 194.648438 95.21875 193.089844 L 77.210938 202.503906 C 77.210938 202.503906 73.460938 207.640625 97.398438 199.242188 Z M 97.488281 199.214844 "/>
<path style=" stroke:none;fill-rule:nonzero;fill:rgb(100%,76.078431%,0%);fill-opacity:1;" d="M 165.882812 170.453125 L 177.75 164.65625 L 173.894531 156.738281 L 162.261719 162.414062 C 162.402344 165.457031 163.699219 168.332031 165.882812 170.453125 Z M 165.882812 170.453125 "/>
<path style=" stroke:none;fill-rule:nonzero;fill:rgb(100%,100%,100%);fill-opacity:1;" d="M 190.199219 363.644531 L 172.925781 363.644531 L 178.417969 160.0625 L 184.710938 160.0625 Z M 190.199219 363.644531 "/>
<path style=" stroke:none;fill-rule:nonzero;fill:rgb(100%,76.078431%,0%);fill-opacity:1;" d="M 188.035156 157.550781 C 188.035156 160.734375 185.457031 163.316406 182.277344 163.316406 C 179.097656 163.316406 176.519531 160.734375 176.519531 157.550781 C 176.519531 154.367188 179.097656 151.789062 182.277344 151.789062 C 185.457031 151.789062 188.035156 154.367188 188.035156 157.550781 Z M 188.035156 157.550781 "/>
<path style=" stroke:none;fill-rule:nonzero;fill:rgb(100%,100%,100%);fill-opacity:1;" d="M 764.488281 419.265625 C 752.402344 463.398438 712.332031 494 666.617188 494.003906 L 149.210938 494.003906 C 100.445312 493.972656 55.839844 466.5 33.835938 422.9375 C 33.835938 422.9375 108.832031 319.097656 303.59375 386.941406 C 465.285156 443.261719 539.867188 390 560.554688 370.289062 C 565.078125 365.996094 571.160156 363.738281 577.386719 364.042969 C 617.011719 365.921875 754.265625 375.535156 764.507812 419.25 Z M 764.488281 419.265625 "/>
<use xlink:href="#surface8" mask="url(#mask1)"/>
<path style=" stroke:none;fill-rule:nonzero;fill:url(#linear0);" d="M 185.617188 481.527344 C 185.617188 481.527344 180.183594 480.886719 176.644531 478.246094 L 176.375 478.03125 C 176.589844 477.710938 176.746094 477.355469 176.835938 476.980469 C 176.457031 476.238281 176.257812 475.421875 176.253906 474.585938 C 176.261719 473.804688 176.105469 473.03125 175.785156 472.316406 L 175.785156 468.453125 C 175.785156 468.453125 174.609375 467.199219 174.492188 464.015625 C 174.375 460.832031 174.261719 445.136719 174.261719 445.136719 C 174.078125 444.316406 174.039062 443.46875 174.144531 442.632812 C 174.261719 440.820312 174.261719 440.136719 174.261719 440.136719 C 173.875 439.082031 173.753906 437.949219 173.910156 436.835938 C 174.261719 435.460938 173.085938 433.878906 173.085938 433.878906 L 174.84375 425.242188 C 174.84375 425.242188 175.820312 395.398438 172.980469 386.402344 L 172.980469 386.347656 C 172.980469 386.347656 172.980469 386.273438 172.980469 386.238281 C 173.222656 380.433594 169.703125 370.769531 171.695312 364.066406 C 173.691406 357.359375 173.921875 355.875 173.921875 355.875 C 173.921875 355.875 165.140625 333.808594 162.929688 328.582031 C 161.398438 324.980469 159.8125 321.019531 158.246094 318.761719 C 158.105469 318.566406 157.96875 318.378906 157.832031 318.203125 C 157.757812 318.109375 157.679688 318.011719 157.605469 317.929688 C 158.085938 317.128906 158.375 316.230469 158.449219 315.300781 C 158.574219 313.679688 158.339844 311.808594 159.523438 310.660156 C 159.972656 310.289062 160.457031 309.964844 160.972656 309.691406 C 162.816406 308.472656 163.816406 306.316406 163.546875 304.121094 C 163.300781 302.40625 162.320312 300.984375 161.199219 299.601562 C 161.976562 295.335938 160.519531 290.972656 157.335938 288.03125 C 157.335938 287.820312 157.335938 287.601562 157.335938 287.386719 C 157.371094 285.8125 156.886719 284.269531 155.964844 282.992188 L 156.292969 283.226562 C 156.109375 283.058594 155.929688 282.902344 155.738281 282.746094 C 155.464844 282.46875 155.15625 282.238281 154.816406 282.054688 C 149.503906 278.421875 142.609375 278.0625 136.953125 281.128906 C 135.5625 281.871094 134.367188 282.933594 133.46875 284.230469 C 131.632812 287.0625 132.09375 290.730469 131.148438 293.949219 C 130.226562 297.023438 128.054688 299.566406 126.253906 302.25 C 124.453125 304.929688 122.949219 308.109375 123.628906 311.246094 C 124.117188 313.519531 125.738281 315.5625 125.691406 317.894531 C 125.523438 320.414062 123.59375 322.460938 121.089844 322.765625 L 121.027344 322.765625 C 120.796875 322.800781 120.570312 322.816406 120.339844 322.820312 C 122.523438 324.324219 125.238281 324.882812 127.898438 325.234375 C 127.84375 325.441406 127.785156 325.648438 127.738281 325.859375 C 125.589844 333.980469 123.671875 344.296875 123.671875 344.296875 C 123.671875 344.296875 124.957031 354.753906 122.261719 362.945312 C 119.570312 371.136719 119.921875 387.964844 119.921875 387.964844 C 119.921875 387.964844 127.414062 384.09375 127.882812 386.589844 C 128.351562 389.085938 127.882812 389.773438 127.882812 389.773438 C 127.882812 389.773438 129.414062 390.550781 131.214844 391.238281 L 131.140625 392.234375 L 130.808594 396.707031 C 130.683594 397.644531 130.828125 398.597656 131.222656 399.457031 C 131.867188 400.707031 131.222656 404.121094 131.222656 404.121094 C 131.222656 404.121094 130.671875 404.464844 131.222656 406.058594 C 131.773438 407.65625 130.789062 409.925781 130.789062 409.925781 C 130.789062 409.925781 130.101562 418.453125 130.011719 420.242188 C 129.921875 422.027344 127.671875 427.179688 127.671875 427.179688 C 127.671875 427.179688 129.664062 429.675781 127.671875 430.019531 C 125.675781 430.363281 125.445312 433.460938 125.445312 433.460938 C 125.445312 433.460938 123.101562 435.390625 123.101562 436.074219 C 123.101562 436.074219 112.5625 446.765625 110.101562 464.386719 C 110.101562 464.386719 107.640625 466.664062 107.992188 468.824219 C 108.191406 470.046875 107.792969 470.46875 107.410156 470.605469 C 107.839844 470.660156 108.316406 470.941406 108.09375 471.980469 C 107.746094 473.796875 106.8125 477.667969 106.8125 477.667969 L 106.976562 477.667969 C 105.058594 479.890625 102.253906 483.609375 101.828125 486.878906 C 101.828125 487.015625 101.816406 487.152344 101.789062 487.289062 L 100.730469 489.675781 L 109.984375 493.804688 L 110.800781 492.550781 C 110.800781 492.550781 114.925781 497.214844 119.589844 498.234375 C 120.394531 498.40625 121.21875 498.496094 122.042969 498.5 C 124.648438 498.457031 127.222656 497.941406 129.640625 496.980469 C 129.640625 496.980469 133.035156 492.777344 124.25 491.980469 C 124.25 491.980469 119.101562 486.066406 119.570312 483.5625 C 119.746094 482.507812 119.855469 481.445312 119.890625 480.378906 C 119.890625 480.144531 119.890625 479.914062 119.890625 479.691406 L 120.488281 479.78125 L 120.601562 477.875 C 120.855469 477.550781 120.980469 477.144531 120.949219 476.734375 C 120.949219 475.941406 120.261719 475.824219 120.949219 475.359375 C 121.636719 474.890625 121.636719 475.359375 121.636719 474.222656 C 121.636719 473.089844 121.171875 473.425781 122.222656 472.289062 C 123.273438 471.15625 122.105469 469.105469 122.105469 469.105469 C 122.105469 469.105469 124.566406 467.285156 124.449219 464.898438 C 124.332031 462.511719 132.292969 447.386719 133.929688 446.816406 C 135.5625 446.246094 135.6875 443.289062 135.6875 443.289062 C 135.6875 443.289062 137.914062 443.742188 138.613281 443.289062 C 139.316406 442.832031 141.542969 439.3125 141.542969 439.3125 C 141.542969 439.3125 150.472656 416.796875 150.5625 408.265625 L 151.148438 406.335938 C 151.148438 406.335938 154.546875 410.769531 154.074219 413.953125 C 153.601562 417.140625 156.671875 419.410156 156.671875 419.410156 L 156.671875 429.078125 C 157.015625 430.761719 157.203125 432.476562 157.234375 434.195312 C 157.117188 435.785156 158.609375 437.378906 158.046875 438.742188 C 157.480469 440.101562 158.046875 442.496094 158.046875 442.496094 C 158.046875 442.496094 157.921875 445.679688 158.046875 446.589844 C 158.167969 447.496094 157.585938 457.957031 160.636719 462.511719 C 160.636719 462.511719 161.921875 465.804688 160.636719 467.964844 C 159.351562 470.125 161.804688 472.289062 161.804688 472.289062 C 161.804688 472.289062 160.285156 474.785156 161.804688 476.609375 C 162.671875 477.761719 163.066406 479.207031 162.894531 480.640625 C 162.285156 482.949219 161.832031 485.984375 162.855469 488.09375 L 162.855469 488.144531 L 163.128906 491.390625 L 172.101562 490.703125 L 172.101562 488.886719 C 172.101562 488.886719 178.230469 490.515625 183.941406 489.628906 C 187.019531 489.152344 189.972656 487.945312 191.78125 485.359375 C 191.828125 485.390625 195.457031 479.140625 185.617188 481.527344 Z M 185.617188 481.527344 "/>
<path style=" stroke:none;fill-rule:nonzero;fill:rgb(39.607843%,38.039216%,49.019608%);fill-opacity:1;" d="M 190.164062 485.445312 C 188.421875 488.027344 185.570312 489.230469 182.609375 489.703125 C 177.109375 490.585938 171.183594 488.960938 171.183594 488.960938 L 171.183594 490.789062 L 162.519531 491.480469 L 162.25 488.246094 L 162.25 488.191406 C 161.246094 486.058594 161.707031 482.976562 162.3125 480.660156 C 162.601562 479.566406 162.960938 478.492188 163.382812 477.441406 C 163.382812 477.441406 170.84375 471.101562 173.332031 475.859375 C 173.871094 476.84375 174.621094 477.699219 175.523438 478.363281 C 178.960938 480.992188 184.1875 481.628906 184.1875 481.628906 C 193.667969 479.222656 190.164062 485.445312 190.164062 485.445312 Z M 190.164062 485.445312 "/>
<use xlink:href="#surface11" mask="url(#mask2)"/>
<path style=" stroke:none;fill-rule:nonzero;fill:rgb(39.607843%,38.039216%,49.019608%);fill-opacity:1;" d="M 130.117188 496.980469 C 127.777344 497.9375 125.28125 498.449219 122.757812 498.492188 C 121.960938 498.488281 121.167969 498.402344 120.386719 498.234375 C 115.867188 497.207031 111.910156 492.566406 111.910156 492.566406 L 111.117188 493.816406 L 102.1875 489.738281 L 103.195312 487.351562 L 103.238281 486.945312 C 103.648438 483.691406 106.355469 479.984375 108.210938 477.773438 C 109.222656 476.566406 109.984375 475.8125 109.984375 475.8125 L 120.730469 477.394531 C 120.730469 477.394531 120.773438 478.769531 120.730469 480.445312 C 120.695312 481.507812 120.589844 482.570312 120.414062 483.617188 C 119.96875 486.105469 124.933594 491.996094 124.933594 491.996094 C 133.394531 492.804688 130.117188 496.980469 130.117188 496.980469 Z M 130.117188 496.980469 "/>
<path style=" stroke:none;fill-rule:nonzero;fill:rgb(26.666667%,25.098039%,32.54902%);fill-opacity:1;" d="M 108.625 470.695312 C 108.445312 470.757812 108.25 470.769531 108.0625 470.734375 C 108.246094 470.691406 108.4375 470.675781 108.625 470.695312 Z M 108.625 470.695312 "/>
<use xlink:href="#surface14" mask="url(#mask3)"/>
<use xlink:href="#surface17" mask="url(#mask4)"/>
<path style=" stroke:none;fill-rule:nonzero;fill:rgb(26.666667%,25.098039%,32.54902%);fill-opacity:1;" d="M 175.6875 477.078125 C 174.5625 482.167969 162.230469 481.039062 162.230469 481.039062 C 162.464844 479.527344 162.101562 477.980469 161.210938 476.734375 C 159.742188 474.925781 161.210938 472.433594 161.210938 472.433594 C 161.210938 472.433594 158.835938 470.28125 160.085938 468.128906 C 161.335938 465.976562 160.085938 462.695312 160.085938 462.695312 C 157.136719 458.171875 157.707031 447.75 157.585938 446.878906 C 157.460938 446.003906 157.585938 442.804688 157.585938 442.804688 C 157.585938 442.804688 157.027344 440.425781 157.585938 439.066406 C 158.140625 437.703125 156.691406 436.121094 156.800781 434.539062 C 156.769531 432.828125 156.589844 431.121094 156.257812 429.441406 L 156.257812 419.8125 C 156.257812 419.8125 153.296875 417.550781 153.75 414.382812 C 154.203125 411.210938 150.921875 406.816406 150.921875 406.816406 L 150.355469 408.742188 C 150.246094 417.226562 141.652344 439.640625 141.652344 439.640625 C 141.652344 439.640625 139.5 443.15625 138.820312 443.609375 C 138.140625 444.066406 135.996094 443.609375 135.996094 443.609375 C 135.996094 443.609375 135.878906 446.554688 134.300781 447.117188 C 132.71875 447.683594 125.023438 462.738281 125.140625 465.117188 C 125.257812 467.496094 122.875 469.304688 122.875 469.304688 C 122.875 469.304688 124.007812 471.367188 122.992188 472.476562 C 121.972656 473.582031 122.421875 473.265625 122.421875 474.402344 C 122.421875 475.535156 122.421875 475.089844 121.734375 475.53125 C 121.046875 475.96875 121.734375 476.101562 121.734375 476.90625 C 121.765625 477.3125 121.644531 477.714844 121.390625 478.03125 L 121.289062 479.9375 L 108.046875 477.8125 C 108.046875 477.8125 108.953125 473.960938 109.292969 472.144531 C 109.492188 471.085938 109.03125 470.804688 108.605469 470.769531 C 108.980469 470.632812 109.367188 470.214844 109.175781 469.003906 C 108.832031 466.851562 111.234375 464.585938 111.234375 464.585938 C 113.613281 447.035156 123.789062 436.390625 123.789062 436.390625 C 123.789062 435.703125 126.046875 433.789062 126.046875 433.789062 C 126.046875 433.789062 126.273438 430.730469 128.199219 430.390625 C 130.121094 430.054688 128.199219 427.558594 128.199219 427.558594 C 128.199219 427.558594 130.347656 422.46875 130.460938 420.679688 C 130.570312 418.894531 131.207031 410.363281 131.207031 410.363281 C 131.207031 410.363281 132.15625 408.101562 131.628906 406.519531 C 131.097656 404.9375 131.628906 404.59375 131.628906 404.59375 C 131.628906 404.59375 132.265625 401.195312 131.628906 399.953125 C 131.25 399.101562 131.109375 398.160156 131.230469 397.234375 L 131.550781 392.777344 L 132.019531 386.140625 C 132.019531 386.140625 167.203125 380.0625 171.078125 384.925781 C 171.496094 385.523438 171.808594 386.195312 171.992188 386.90625 C 174.742188 395.847656 173.792969 425.5625 173.792969 425.5625 L 172.09375 434.167969 C 172.09375 434.167969 173.230469 435.757812 172.890625 437.113281 C 172.742188 438.21875 172.855469 439.347656 173.230469 440.398438 C 173.230469 440.398438 173.230469 441.085938 173.113281 442.886719 C 173.011719 443.71875 173.054688 444.558594 173.230469 445.378906 C 173.230469 445.378906 173.339844 460.996094 173.457031 464.167969 C 173.574219 467.339844 174.699219 468.582031 174.699219 468.582031 L 174.699219 472.433594 C 175.003906 473.148438 175.15625 473.921875 175.144531 474.699219 C 175.140625 475.523438 175.328125 476.335938 175.6875 477.078125 Z M 175.6875 477.078125 "/>
<use xlink:href="#surface20" mask="url(#mask5)"/>
<use xlink:href="#surface23" mask="url(#mask6)"/>
<use xlink:href="#surface26" mask="url(#mask7)"/>
<use xlink:href="#surface29" mask="url(#mask8)"/>
<use xlink:href="#surface32" mask="url(#mask9)"/>
<use xlink:href="#surface35" mask="url(#mask10)"/>
<use xlink:href="#surface38" mask="url(#mask11)"/>
<use xlink:href="#surface41" mask="url(#mask12)"/>
<use xlink:href="#surface44" mask="url(#mask13)"/>
<use xlink:href="#surface47" mask="url(#mask14)"/>
<use xlink:href="#surface50" mask="url(#mask15)"/>
<use xlink:href="#surface53" mask="url(#mask16)"/>
<use xlink:href="#surface56" mask="url(#mask17)"/>
<path style=" stroke:none;fill-rule:nonzero;fill:rgb(98.431373%,74.509804%,74.509804%);fill-opacity:1;" d="M 160.773438 298.21875 C 160.773438 304.359375 156.449219 309.648438 150.4375 310.863281 C 144.425781 312.082031 138.386719 308.886719 136.003906 303.230469 C 133.625 297.570312 135.554688 291.015625 140.625 287.558594 C 145.691406 284.097656 152.492188 284.695312 156.882812 288.980469 C 159.378906 291.402344 160.785156 294.738281 160.773438 298.21875 Z M 160.773438 298.21875 "/>
<path style="fill:none;stroke-width:1;stroke-linecap:butt;stroke-linejoin:miter;stroke:rgb(42.352941%,38.823529%,100%);stroke-opacity:1;stroke-miterlimit:10;" d="M 252.932769 527.730117 C 252.932769 527.730117 246.837985 545.507539 250.300413 549.13118 C 253.762842 552.749141 225.438017 554.890383 225.438017 554.890383 C 225.438017 554.890383 237.292144 533.659711 236.138001 528.388961 C 234.989544 523.118211 252.932769 527.730117 252.932769 527.730117 Z M 252.932769 527.730117 " transform="matrix(0.687063,0,0,0.687758,-19.237762,-59.415406)"/>
<use xlink:href="#surface59" mask="url(#mask18)"/>
<path style=" stroke:none;fill-rule:nonzero;fill:rgb(39.607843%,38.039216%,49.019608%);fill-opacity:1;" d="M 171.957031 386.738281 C 171.839844 389.636719 169.210938 394.003906 166.304688 397.398438 C 163.398438 400.796875 160.25 403.203125 159.0625 402.214844 C 158.191406 401.648438 157.25 401.199219 156.257812 400.886719 C 150.90625 398.914062 140.519531 396.4375 140.519531 396.4375 C 140.519531 396.4375 138.140625 392.703125 135.652344 392.703125 C 133.167969 392.703125 128.417969 390.214844 128.417969 390.214844 C 128.417969 390.214844 128.871094 389.527344 128.417969 387.042969 C 127.964844 384.558594 120.730469 388.417969 120.730469 388.417969 C 120.730469 388.417969 120.386719 371.664062 122.992188 363.507812 C 125.59375 355.351562 124.367188 344.9375 124.367188 344.9375 C 124.367188 344.9375 126.226562 334.675781 128.246094 326.566406 C 129.464844 321.707031 130.742188 317.628906 131.71875 316.980469 C 134.320312 315.28125 147.890625 316.980469 147.890625 316.980469 C 147.890625 316.980469 153.542969 317.089844 155.695312 317.667969 C 156.363281 317.929688 156.933594 318.394531 157.324219 318.996094 C 157.453125 319.175781 157.589844 319.359375 157.722656 319.558594 C 159.234375 321.828125 160.773438 325.75 162.25 329.332031 C 164.402344 334.539062 172.886719 356.5 172.886719 356.5 C 172.886719 356.5 172.660156 357.972656 170.734375 364.648438 C 168.8125 371.328125 172.183594 380.96875 171.957031 386.738281 Z M 171.957031 386.738281 "/>
<path style=" stroke:none;fill-rule:nonzero;fill:rgb(98.431373%,74.509804%,74.509804%);fill-opacity:1;" d="M 162.230469 393.417969 L 166.304688 397.394531 C 166.304688 397.394531 170.035156 410.28125 165.171875 409.152344 C 160.304688 408.027344 156.238281 400.902344 156.238281 400.902344 Z M 162.230469 393.417969 "/>
<use xlink:href="#surface62" mask="url(#mask19)"/>
<path style=" stroke:none;fill-rule:nonzero;fill:rgb(39.607843%,38.039216%,49.019608%);fill-opacity:1;" d="M 172.863281 356.511719 C 163.246094 356.402344 160.773438 342.921875 160.773438 342.921875 C 160.773438 342.921875 160.085938 329.566406 158.847656 327.105469 C 158.160156 325.730469 157.851562 322.34375 157.714844 319.59375 C 159.226562 321.863281 160.765625 325.785156 162.242188 329.367188 C 164.378906 334.554688 172.863281 356.511719 172.863281 356.511719 Z M 172.863281 356.511719 "/>
<use xlink:href="#surface65" mask="url(#mask20)"/>
<path style=" stroke:none;fill-rule:nonzero;fill:rgb(26.666667%,25.098039%,32.54902%);fill-opacity:1;" d="M 156.691406 322.214844 C 156.691406 322.214844 153.859375 314.519531 149.222656 322.214844 C 144.585938 329.910156 144.476562 339.648438 144.476562 339.648438 L 143.683594 360.929688 C 143.683594 360.929688 145.15625 363.761719 145.101562 365.34375 C 145.046875 366.925781 147.847656 371.457031 147.847656 371.457031 C 147.847656 371.457031 148.535156 380.398438 151.125 381.871094 L 153.613281 389.230469 C 153.613281 389.230469 153.730469 394.097656 155.425781 396.023438 C 157.125 397.949219 156.238281 400.921875 156.238281 400.921875 L 166.28125 397.394531 C 166.28125 397.394531 165.148438 397.804688 166.28125 394.765625 C 167.417969 391.726562 165.597656 387.757812 165.597656 387.757812 C 165.597656 387.757812 159.152344 373.722656 158.359375 371.683594 C 157.570312 369.648438 156.4375 367.269531 156.890625 364.890625 C 157.34375 362.511719 156.988281 337.269531 157.578125 333.417969 C 158.167969 329.566406 156.691406 322.214844 156.691406 322.214844 Z M 156.691406 322.214844 "/>
<use xlink:href="#surface68" mask="url(#mask21)"/>
<use xlink:href="#surface71" mask="url(#mask22)"/>
<use xlink:href="#surface74" mask="url(#mask23)"/>
<use xlink:href="#surface77" mask="url(#mask24)"/>
<use xlink:href="#surface80" mask="url(#mask25)"/>
<path style=" stroke:none;fill-rule:nonzero;fill:rgb(26.666667%,25.098039%,32.54902%);fill-opacity:1;" d="M 155.824219 284.1875 C 150.695312 279.535156 143.164062 278.6875 137.132812 282.082031 C 135.777344 282.828125 134.625 283.886719 133.765625 285.171875 C 131.992188 288 132.445312 291.644531 131.519531 294.847656 C 130.636719 297.910156 128.535156 300.441406 126.796875 303.101562 C 125.058594 305.761719 123.609375 308.941406 124.261719 312.042969 C 124.734375 314.3125 126.324219 316.347656 126.269531 318.664062 C 126.136719 321.339844 123.976562 323.464844 121.300781 323.550781 C 123.484375 325.097656 126.214844 325.613281 128.859375 325.992188 C 131.503906 326.367188 134.671875 326.484375 136.582031 324.539062 C 138.003906 323.09375 138.355469 320.832031 139.777344 319.386719 C 141.398438 317.730469 144.027344 317.542969 146.289062 318.066406 C 148.550781 318.589844 150.632812 319.683594 152.871094 320.269531 C 153.464844 320.445312 154.082031 320.507812 154.699219 320.453125 C 156.628906 320.191406 157.75 318.046875 157.902344 316.105469 C 158.023438 314.492188 157.789062 312.628906 158.9375 311.484375 C 159.363281 311.117188 159.824219 310.792969 160.3125 310.515625 C 162.105469 309.277344 163.0625 307.140625 162.792969 304.972656 C 162.261719 301.136719 158.113281 298.742188 157.027344 295.019531 C 156.394531 292.859375 156.882812 290.558594 156.84375 288.308594 C 156.800781 286.058594 155.957031 283.492188 153.839844 282.738281 "/>
<use xlink:href="#surface83" mask="url(#mask26)"/>
</g>
</svg>
