<svg width="76" height="78" viewBox="0 0 76 78" fill="none" xmlns="http://www.w3.org/2000/svg">
<g clip-path="url(#clip0_800_7132)">
<path d="M66.0747 39.2188C67.3708 39.371 68.6602 39.5624 69.9427 39.7929V40C68.6683 39.7728 67.3789 39.584 66.0747 39.4337C63.6004 39.1478 61.1076 39.0031 58.6119 39.0006H58.5277C50.5089 39.006 42.5853 40.524 35.2954 43.4513C33.7847 44.0557 32.308 44.7163 30.8655 45.4333C26.0833 47.8102 21.7146 50.7754 17.8925 54.2386C15.3087 56.5792 12.993 59.1363 10.9789 61.8732C10.7235 62.219 10.4736 62.5682 10.2293 62.9207C9.24617 64.3337 8.34516 65.7892 7.52972 67.2819C5.78547 70.4759 4.44641 73.8279 3.53657 77.2779C3.51486 77.3518 3.4957 77.4267 3.47655 77.5017C3.47144 77.523 3.46506 77.5454 3.45995 77.5666L3.21094 77.5174C3.21221 77.5118 3.21349 77.5073 3.21477 77.5017C3.23392 77.4267 3.25308 77.3529 3.27351 77.2779C4.20349 73.7436 5.57741 70.3105 7.3701 67.0413V67.0402C8.23022 65.4669 9.18461 63.9345 10.2293 62.4495C10.4745 62.1004 10.7243 61.7538 10.9789 61.4099C12.9925 58.6959 15.3014 56.1593 17.8734 53.8357C19.4462 52.4146 21.1148 51.0775 22.8702 49.8315L22.8715 49.8303C25.3781 48.0525 28.0523 46.4644 30.8655 45.083C32.0569 44.4966 33.2654 43.9527 34.4909 43.4514C42.0502 40.3482 50.3002 38.7514 58.6477 38.7757C61.1317 38.7816 63.6127 38.9296 66.0747 39.2188Z" fill="#3F3D56"/>
<path d="M39.1821 13.8465C43.0127 13.8465 46.1181 11.1251 46.1181 7.76798C46.1181 4.4109 43.0127 1.68945 39.1821 1.68945C35.3514 1.68945 32.2461 4.4109 32.2461 7.76798C32.2461 11.1251 35.3514 13.8465 39.1821 13.8465Z" fill="#FF6584"/>
<path d="M9.2997 76.1861C9.51602 76.8869 10.2569 77.3209 10.2569 77.3209C10.2569 77.3209 10.6472 76.6188 10.4308 75.918C10.2145 75.2172 9.47359 74.7832 9.47359 74.7832C9.47359 74.7832 9.08338 75.4854 9.2997 76.1861Z" fill="#3F3D56"/>
<path d="M9.61821 76.0372C10.2118 76.5436 10.2843 77.3221 10.2843 77.3221C10.2843 77.3221 9.39442 77.2795 8.80085 76.7731C8.20727 76.2667 8.13477 75.4883 8.13477 75.4883C8.13477 75.4883 9.02464 75.5309 9.61821 76.0372Z" fill="#FFC200"/>
<path d="M25.7733 76.1861C25.9896 76.8869 26.7306 77.3209 26.7306 77.3209C26.7306 77.3209 27.1208 76.6188 26.9045 75.918C26.6882 75.2172 25.9472 74.7832 25.9472 74.7832C25.9472 74.7832 25.557 75.4854 25.7733 76.1861Z" fill="#3F3D56"/>
<path d="M26.0909 76.0372C26.6844 76.5436 26.7569 77.3221 26.7569 77.3221C26.7569 77.3221 25.8671 77.2795 25.2735 76.7731C24.6799 76.2667 24.6074 75.4883 24.6074 75.4883C24.6074 75.4883 25.4973 75.5309 26.0909 76.0372Z" fill="#FFC200"/>
<path d="M69.9426 14.73V21.9668L66.0746 24.2521L60.392 27.6072L54.0773 31.3372L44.1678 26.995L31.6469 21.5091L29.0393 20.3665L26.4316 18.5378L34.4831 12.2372L36.7955 10.4278C39.5269 8.29062 43.0604 7.10938 46.7221 7.10938H61.2469C62.3889 7.10937 63.5196 7.30649 64.5746 7.68946C65.6296 8.07244 66.5882 8.63377 67.3957 9.34142C68.2032 10.0491 68.8437 10.8892 69.2807 11.8137C69.7177 12.7383 69.9426 13.7293 69.9426 14.73Z" fill="#3F3D56"/>
<path d="M66.1094 18.5072L69.943 14.8555C76.6459 36.5244 77.1938 57.4732 69.943 77.5095H65.0789L64.8171 77.28L58.0363 71.3386L54.1006 67.8895L54.204 67.2247L54.5616 64.9384L55.3469 59.9102L56.2038 54.4242L57.0607 48.9394L57.9175 43.4535L58.6122 39.0027L58.648 38.7778L58.7744 37.9676L59.6312 32.4816L60.3923 27.609L60.4881 26.9968L61.1189 22.959L61.3807 21.2826L66.0749 18.5396L66.1094 18.5072Z" fill="#CCCCCC"/>
<path d="M26.4315 18.5391H66.0748V77.5096H26.4315C22.1028 55.9324 21.0147 35.7928 26.4315 18.5391Z" fill="#F2F2F2"/>
<path d="M49.122 63.1094H41.8193V77.5092H49.122V63.1094Z" fill="#CCCCCC"/>
<path d="M61.1194 54.4238H30.8652V59.9095H61.1194V54.4238Z" fill="#3F3D56"/>
<path d="M63.4296 67.5293H50.5303V69.8682H63.4296V67.5293Z" fill="#3F3D56"/>
<path d="M40.4442 67.5293H27.5449V69.8682H40.4442V67.5293Z" fill="#3F3D56"/>
<path d="M61.1194 43.4512H30.8652V48.9368H61.1194V43.4512Z" fill="#3F3D56"/>
<path d="M61.1194 32.4805H30.8652V37.9661H61.1194V32.4805Z" fill="#3F3D56"/>
<path d="M61.1194 21.5078H30.8652V26.9935H61.1194V21.5078Z" fill="#3F3D56"/>
<path d="M69.9427 77.2793H0.857422V77.5031H69.9427V77.2793Z" fill="#3F3D56"/>
<path d="M10.9787 51.4355H10.2285V77.4051H10.9787V51.4355Z" fill="#3F3D56"/>
<path d="M17.9022 54.7462C17.9499 63.8271 10.6597 71.2182 10.6597 71.2182C10.6597 71.2182 3.29213 63.8863 3.24437 54.8054C3.19662 45.7245 10.4868 38.3333 10.4868 38.3333C11.2626 35.9273 19.5633 40.3653 17.9022 54.7462Z" fill="#FFC200"/>
<path opacity="0.1" d="M17.9022 54.7462C17.9499 63.8271 10.6597 71.2182 10.6597 71.2182C10.6597 71.2182 3.29213 63.8863 3.24437 54.8054C3.19662 45.7245 10.4868 38.3333 10.4868 38.3333C11.2626 35.9273 19.5633 40.3653 17.9022 54.7462Z" fill="black"/>
<path d="M1.22647 51.4355H0.857422V77.4059H1.22647V51.4355Z" fill="#3F3D56"/>
<path d="M8.15033 54.7475C16.9417 56.7432 7.49361 61.4801 5.73681 64.2377V64.2388C4.55235 66.6066 3.03733 68.8365 1.22647 70.8774C1.02343 71.1012 0.907226 71.2187 0.907226 71.2187L0.857422 71.1684V38.4609C2.79204 40.552 4.40583 42.8561 5.65764 45.3144V45.3156C7.01636 47.9813 4.26863 53.8664 8.15033 54.7475Z" fill="#FFC200"/>
<path d="M18.8847 31.2725C18.8847 31.2725 14.1139 31.2356 8.20396 31.2591C5.36393 31.2703 2.77802 31.2938 0.857422 31.3162V28.421C2.9236 27.0344 5.6487 25.9298 8.18353 27.181C13.1638 29.6408 18.8847 31.2725 18.8847 31.2725Z" fill="#F2F2F2"/>
<path d="M29.6581 4.62424C23.7486 4.64811 18.9385 4.72463 18.9385 4.72463C18.9385 4.72463 24.656 -1.91257 29.6366 0.546463C34.6172 3.0055 40.3387 4.63819 40.3387 4.63819C40.3387 4.63819 35.5676 4.60037 29.6581 4.62424Z" fill="#F2F2F2"/>
<path d="M46.0461 6.89374L61.9047 6.21418C64.0919 6.12045 66.239 6.75338 67.9169 7.98653C69.5948 9.21967 70.6801 10.9622 70.9559 12.866L72.8795 26.146L66.1229 18.5113L66.1089 18.5046L45.8903 9.3144L45.489 9.13206C44.2617 8.57433 44.6652 6.95297 46.0461 6.89374H46.0461Z" fill="#3F3D56"/>
<path d="M54.1083 11.4629H41.209V13.8018H54.1083V11.4629Z" fill="#F2F2F2"/>
<path d="M49.1283 61.6239H43.1264C38.9462 47.3226 38.9462 33.2963 43.1264 19.5449H49.1283C52.949 33.8129 53.0861 47.8479 49.1283 61.6239Z" fill="#F2F2F2"/>
</g>
<defs>
<clipPath id="clip0_800_7132">
<rect width="74.32" height="77.5675" fill="white" transform="translate(0.857422)"/>
</clipPath>
</defs>
</svg>
