<svg width="1077" height="774" viewBox="0 0 1077 774" fill="none" xmlns="http://www.w3.org/2000/svg">
<g filter="url(#filter0_d_203_7)">
<path d="M1029.34 127.93C1017.56 83.59 982.87 48.66 938.8 36.81C858.95 15.27 538.73 15.27 538.73 15.27C538.73 15.27 218.52 15.27 138.66 36.81C94.6005 48.66 59.8905 83.58 48.1205 127.93C26.7305 208.3 26.7305 376 26.7305 376C26.7305 376 26.7305 543.69 48.1205 624.07C59.8905 668.42 94.5905 703.33 138.65 715.2C218.5 736.73 538.72 736.73 538.72 736.73C538.72 736.73 858.94 736.73 938.79 715.2C982.85 703.34 1017.55 668.42 1029.33 624.08C1050.73 543.7 1050.73 376.01 1050.73 376.01C1050.73 376.01 1050.73 208.31 1029.33 127.94" fill="white"/>
</g>
<path d="M512.44 166.05C512.44 145.074 495.438 128.07 474.465 128.07C453.492 128.07 436.49 145.074 436.49 166.05V311.92C436.49 332.896 453.492 349.9 474.465 349.9C495.438 349.9 512.44 332.896 512.44 311.92V166.05Z" fill="#FCC014"/>
<path d="M751.235 319.16C768.937 307.909 774.168 284.438 762.918 266.738C751.667 249.038 728.197 243.81 710.494 255.062L587.386 333.309C569.684 344.561 564.453 368.031 575.704 385.731C586.954 403.432 610.425 408.659 628.127 397.407L751.235 319.16Z" fill="#FCC014"/>
<path d="M714.75 612.565C733.109 622.712 756.215 616.057 766.361 597.701C776.506 579.345 769.849 556.239 751.49 546.092L623.823 475.529C605.465 465.382 582.358 472.037 572.213 490.393C562.067 508.749 568.725 531.855 587.083 542.001L714.75 612.565Z" fill="#FCC014"/>
<defs>
<filter id="filter0_d_203_7" x="0.730469" y="0.27002" width="1076" height="773.46" filterUnits="userSpaceOnUse" color-interpolation-filters="sRGB">
<feFlood flood-opacity="0" result="BackgroundImageFix"/>
<feColorMatrix in="SourceAlpha" type="matrix" values="0 0 0 0 0 0 0 0 0 0 0 0 0 0 0 0 0 0 127 0" result="hardAlpha"/>
<feOffset dy="11"/>
<feGaussianBlur stdDeviation="13"/>
<feColorMatrix type="matrix" values="0 0 0 0 0.54902 0 0 0 0 0.54902 0 0 0 0 0.54902 0 0 0 1 0"/>
<feBlend mode="normal" in2="BackgroundImageFix" result="effect1_dropShadow_203_7"/>
<feBlend mode="normal" in="SourceGraphic" in2="effect1_dropShadow_203_7" result="shape"/>
</filter>
</defs>
</svg>
