<?xml version="1.0" encoding="UTF-8"?>
<svg id="blanc" xmlns="http://www.w3.org/2000/svg" viewBox="0 0 60 60">
  <defs>
    <style>
      .cls-1 {
        fill: #fcc018;
      }

      .cls-2 {
        fill: #fff;
      }
    </style>
  </defs>
  <path class="cls-2" d="m58.75,9.37c-.69-3.69-2.72-6.59-5.3-7.58-4.68-1.79-23.44-1.79-23.44-1.79,0,0-18.76,0-23.44,1.79-2.58.99-4.62,3.89-5.3,7.58C0,16.05,0,30,0,30c0,0,0,13.95,1.25,20.63.69,3.69,2.72,6.59,5.3,7.58,4.68,1.79,23.44,1.79,23.44,1.79,0,0,18.76,0,23.44-1.79,2.58-.99,4.61-3.89,5.3-7.58,1.25-6.69,1.25-20.63,1.25-20.63,0,0,0-13.95-1.25-20.63"/>
  <rect class="cls-1" x="14.6" y="4.55" width="7.9" height="23.07" rx="3.95" ry="3.95"/>
  <rect class="cls-1" x="34.86" y="13.63" width="7.9" height="23.07" rx="3.95" ry="3.95" transform="translate(39.23 -21.09) rotate(57.56)"/>
  <rect class="cls-1" x="34.86" y="36.29" width="7.9" height="23.07" rx="3.95" ry="3.95" transform="translate(99.45 36.99) rotate(118.93)"/>
</svg>