<svg width="32" height="32" viewBox="0 0 32 32" fill="none" xmlns="http://www.w3.org/2000/svg">
<rect width="32" height="32" fill="white"/>
<path d="M32 0H0V32H32V0Z" fill="#3E3D40"/>
<path d="M4.38916 9.52393H6.00453L9.99409 15.9621H10.0183V9.52393H11.4748V18.2624H9.85901L5.88202 11.8368H5.84502V18.2624H4.38916V9.52393Z" fill="#C9D200"/>
<path d="M12.9688 9.52393H18.9812V10.8459H14.4992V13.1348H18.6261V14.3833H14.4992V16.9408H19.0669V18.2625H12.9688V9.52393Z" fill="#C9D200"/>
<path d="M21.9304 17.0135H23.436C23.9344 17.0307 24.4313 16.9497 24.8984 16.7753C25.2497 16.638 25.558 16.4096 25.7916 16.1135C26.013 15.822 26.1639 15.4831 26.2325 15.1235C26.3875 14.3108 26.3875 13.4761 26.2325 12.6633C26.1635 12.3035 26.0126 11.9644 25.7916 11.6722C25.5571 11.3773 25.249 11.1493 24.8984 11.0112C24.4313 10.8367 23.9344 10.7557 23.436 10.7728H21.9304V17.0135ZM20.4004 9.52389H24.0236C24.621 9.50949 25.2142 9.62666 25.7613 9.86711C26.2301 10.079 26.6413 10.4 26.9608 10.8032C27.2798 11.2167 27.5148 11.6887 27.6523 12.1925C27.9541 13.3064 27.9541 14.4805 27.6523 15.5944C27.5148 16.0982 27.2799 16.5702 26.9608 16.9836C26.6414 17.3871 26.2301 17.7083 25.7613 17.9204C25.214 18.16 24.6209 18.2768 24.0237 18.2627H20.4004V9.52389Z" fill="#C9D200"/>
<path d="M5.52022 20.5132L5.82806 21.3783H5.83152V20.5132H6.06571V21.7763H5.77505L5.46387 20.8917H5.46018V21.7763H5.22656V20.5132H5.52022Z" fill="white"/>
<path d="M6.57815 21.6348C6.67727 21.6348 6.70908 21.5374 6.70908 21.3006C6.70908 21.0637 6.67715 20.9663 6.57815 20.9663C6.45795 20.9663 6.44723 21.106 6.44723 21.3006C6.44723 21.4951 6.45795 21.6348 6.57815 21.6348ZM6.57815 20.7997C6.87193 20.7943 6.95318 20.9693 6.95318 21.3003C6.95318 21.6257 6.85752 21.8008 6.57815 21.8008C6.28461 21.8064 6.20312 21.6311 6.20312 21.3003C6.20312 20.9746 6.29878 20.7997 6.57815 20.7997Z" fill="white"/>
<path d="M7.57295 21.6649H7.56926C7.54581 21.7081 7.51067 21.7438 7.46786 21.7679C7.42505 21.792 7.37631 21.8036 7.32723 21.8012C7.1751 21.8012 7.08521 21.718 7.08521 21.5306V20.8247H7.32931V21.4808C7.32931 21.5763 7.36123 21.6135 7.43373 21.6135C7.51694 21.6135 7.56269 21.5624 7.56269 21.4561V20.8247H7.8068V21.7763H7.57295V21.6649Z" fill="white"/>
<path d="M8.42044 20.8245H8.66455L8.42574 21.7763H8.14257L7.89685 20.8245H8.15144L8.28767 21.5059H8.29113L8.42044 20.8245Z" fill="white"/>
<path d="M9.21311 21.1924C9.20769 21.0473 9.19006 20.966 9.08921 20.966C8.99217 20.966 8.96359 21.0667 8.96359 21.1554V21.1924H9.21311ZM8.96359 21.3375V21.4136C8.96359 21.5251 8.99378 21.6349 9.0838 21.6349C9.16539 21.6349 9.19905 21.5728 9.21311 21.456H9.43266C9.42367 21.6773 9.31741 21.8009 9.08748 21.8009C8.73389 21.8009 8.71948 21.5288 8.71948 21.2915C8.71948 21.0369 8.76916 20.7998 9.09797 20.7998C9.38299 20.7998 9.44649 20.9909 9.44649 21.2827V21.3375H8.96359Z" fill="white"/>
<path d="M9.82735 20.5132H9.58325V21.7763H9.82735V20.5132Z" fill="white"/>
<path d="M10.2519 20.5132H10.0078V21.7763H10.2519V20.5132Z" fill="white"/>
<path d="M10.882 21.1924C10.8765 21.0473 10.8589 20.966 10.7581 20.966C10.6607 20.966 10.6324 21.0667 10.6324 21.1554V21.1924H10.882ZM10.6324 21.3375V21.4136C10.6324 21.5251 10.6624 21.6349 10.753 21.6349C10.8337 21.6349 10.8682 21.5728 10.882 21.456H11.1019C11.0929 21.6773 10.9866 21.8009 10.7567 21.8009C10.4027 21.8009 10.3887 21.5288 10.3887 21.2915C10.3887 21.0369 10.4381 20.7998 10.7672 20.7998C11.0519 20.7998 11.1157 20.9909 11.1157 21.2827V21.3375H10.6324Z" fill="white"/>
<path d="M11.422 21.4648V21.4964C11.4197 21.5142 11.4212 21.5323 11.4266 21.5494C11.4321 21.5666 11.4412 21.5823 11.4534 21.5955C11.4655 21.6087 11.4805 21.619 11.4971 21.6258C11.5138 21.6326 11.5317 21.6356 11.5496 21.6347C11.5655 21.637 11.5817 21.6358 11.5971 21.6311C11.6124 21.6264 11.6266 21.6183 11.6384 21.6075C11.6503 21.5967 11.6596 21.5833 11.6656 21.5685C11.6717 21.5536 11.6744 21.5375 11.6735 21.5215C11.6732 21.4961 11.6642 21.4716 11.6481 21.4519C11.632 21.4323 11.6097 21.4187 11.5849 21.4134L11.4133 21.3513C11.3539 21.3375 11.3012 21.3035 11.2641 21.2552C11.227 21.2068 11.2078 21.1471 11.2097 21.0862C11.2097 20.929 11.3089 20.7998 11.5602 20.7998C11.7812 20.7998 11.8856 20.8989 11.8856 21.0704V21.1094H11.6657C11.6657 21.0137 11.6374 20.9663 11.5579 20.9663C11.5435 20.9647 11.5288 20.9662 11.515 20.9706C11.5011 20.975 11.4883 20.9822 11.4775 20.9919C11.4666 21.0016 11.4579 21.0134 11.4519 21.0267C11.4459 21.0399 11.4428 21.0543 11.4427 21.0688C11.4427 21.1149 11.4674 21.1535 11.549 21.18L11.6958 21.2297C11.7584 21.2407 11.8147 21.2746 11.8536 21.3249C11.8925 21.3753 11.9112 21.4383 11.9061 21.5017C11.9061 21.7018 11.7577 21.8013 11.5522 21.8013C11.2781 21.8013 11.2019 21.6808 11.2019 21.4988V21.4653L11.422 21.4648Z" fill="white"/>
<path d="M13.1661 20.5132V20.7218H12.7151V21.019H13.1396V21.2279H12.7151V21.5674H13.184V21.7762H12.4603V20.5132H13.1661Z" fill="white"/>
<path d="M13.3046 20.8242H13.538V20.9356H13.5418C13.5652 20.8925 13.6003 20.8568 13.6432 20.8327C13.686 20.8087 13.7347 20.7972 13.7838 20.7996C13.9359 20.7996 14.0258 20.8826 14.0258 21.0702V21.776H13.7821V21.1199C13.7821 21.0243 13.7505 20.987 13.6783 20.987C13.5951 20.987 13.549 21.0384 13.549 21.1445V21.776H13.3046V20.8242Z" fill="white"/>
<path d="M14.6473 21.1924C14.6419 21.0473 14.6243 20.966 14.5234 20.966C14.4264 20.966 14.3978 21.0667 14.3978 21.1554V21.1924H14.6473ZM14.3978 21.3375V21.4136C14.3978 21.5251 14.428 21.6349 14.518 21.6349C14.5996 21.6349 14.6332 21.5728 14.6473 21.456H14.8669C14.8579 21.6773 14.7516 21.8009 14.5217 21.8009C14.1681 21.8009 14.1537 21.5288 14.1537 21.2915C14.1537 21.0369 14.2034 20.7998 14.5322 20.7998C14.8172 20.7998 14.8807 20.9909 14.8807 21.2827V21.3375H14.3978Z" fill="white"/>
<path d="M15.0085 20.8244H15.2419V20.9519H15.2456C15.2636 20.9082 15.2939 20.8706 15.3327 20.8436C15.3715 20.8166 15.4173 20.8014 15.4646 20.7998C15.4794 20.8001 15.4942 20.8013 15.5089 20.8035V21.0369C15.4841 21.0352 15.4574 21.0332 15.4327 21.0332C15.4092 21.031 15.3856 21.0339 15.3633 21.0416C15.3411 21.0494 15.3207 21.0618 15.3037 21.078C15.2866 21.0943 15.2733 21.114 15.2645 21.1359C15.2558 21.1578 15.2518 21.1813 15.2529 21.2048V21.7763H15.0085V20.8244Z" fill="white"/>
<path d="M15.9444 21.5777C16.0471 21.5777 16.0773 21.4664 16.0773 21.3055C16.0773 21.0735 16.0471 20.9869 15.9497 20.9869C15.8416 20.9869 15.823 21.0735 15.823 21.3301C15.823 21.461 15.8422 21.5777 15.9449 21.5777H15.9444ZM16.3112 20.8241V21.7281C16.3112 21.9795 16.1997 22.1015 15.9149 22.1015C15.7075 22.1015 15.5912 22.0093 15.5912 21.8469H15.8246C15.8242 21.8611 15.8274 21.8752 15.8339 21.8878C15.8403 21.9005 15.8498 21.9113 15.8616 21.9194C15.8855 21.9361 15.9139 21.9452 15.9432 21.9457C16.0425 21.9457 16.0778 21.8717 16.0778 21.7744V21.6488H16.0741C16.0518 21.6829 16.0217 21.7113 15.9864 21.7315C15.951 21.7518 15.9113 21.7634 15.8706 21.7653C15.6758 21.7653 15.5787 21.6326 15.5787 21.2841C15.5787 21.0614 15.6123 20.8 15.8776 20.8C15.9195 20.8001 15.9605 20.8125 15.9954 20.8358C16.0303 20.8591 16.0574 20.8922 16.0735 20.931H16.0772V20.8246L16.3112 20.8241Z" fill="white"/>
<path d="M16.4913 20.8244H16.7354V21.7764H16.4913V20.8244ZM16.4913 20.499H16.7354V20.7079H16.4913V20.499Z" fill="white"/>
<path d="M17.3654 21.1924C17.36 21.0473 17.3424 20.966 17.2415 20.966C17.1445 20.966 17.1159 21.0667 17.1159 21.1554V21.1924H17.3654ZM17.1159 21.3375V21.4136C17.1159 21.5251 17.1461 21.6349 17.2361 21.6349C17.3177 21.6349 17.3514 21.5728 17.3654 21.456H17.5844C17.5757 21.6773 17.4692 21.8009 17.2396 21.8009C16.8856 21.8009 16.8716 21.5288 16.8716 21.2915C16.8716 21.0369 16.9213 20.7998 17.2501 20.7998C17.5351 20.7998 17.5989 20.9909 17.5989 21.2827V21.3375H17.1159Z" fill="white"/>
<path d="M17.9052 21.4648V21.4964C17.9028 21.5141 17.9044 21.5322 17.9097 21.5493C17.9151 21.5663 17.9241 21.582 17.9362 21.5952C17.9483 21.6084 17.9632 21.6188 17.9797 21.6256C17.9962 21.6324 18.0141 21.6355 18.032 21.6347C18.0479 21.637 18.0641 21.6358 18.0794 21.6311C18.0947 21.6264 18.1089 21.6183 18.1207 21.6075C18.1325 21.5967 18.1418 21.5833 18.1479 21.5684C18.1539 21.5536 18.1566 21.5375 18.1556 21.5215C18.1553 21.4962 18.1464 21.4717 18.1304 21.4521C18.1143 21.4324 18.0921 21.4188 18.0674 21.4134L17.8957 21.3513C17.8364 21.3375 17.7837 21.3035 17.7466 21.2552C17.7096 21.2068 17.6905 21.1471 17.6926 21.0862C17.6926 20.929 17.7913 20.7998 18.0425 20.7998C18.2637 20.7998 18.3682 20.8989 18.3682 21.0704V21.1094H18.1492C18.1492 21.0137 18.1207 20.9663 18.0411 20.9663C18.0266 20.9647 18.012 20.9662 17.9981 20.9706C17.9843 20.975 17.9715 20.9822 17.9606 20.9919C17.9498 21.0016 17.941 21.0134 17.9351 21.0267C17.9291 21.0399 17.9259 21.0543 17.9258 21.0688C17.9258 21.1149 17.9504 21.1535 18.032 21.18L18.1787 21.2297C18.2414 21.2406 18.2978 21.2746 18.3368 21.325C18.3758 21.3754 18.3945 21.4386 18.3893 21.502C18.3893 21.7021 18.2408 21.8017 18.0353 21.8017C17.761 21.8017 17.6851 21.6811 17.6851 21.4992V21.4656L17.9052 21.4648Z" fill="white"/>
<path d="M19.2111 21.5885H19.3243C19.501 21.5885 19.5368 21.4773 19.5368 21.1342C19.5368 20.8474 19.5138 20.7007 19.319 20.7007H19.2112L19.2111 21.5885ZM18.9563 20.5132H19.374C19.7276 20.5132 19.7914 20.7552 19.7914 21.1268C19.7914 21.5744 19.696 21.7762 19.358 21.7762H18.9563V20.5132Z" fill="white"/>
<path d="M19.9613 20.8244H20.2054V21.7764H19.9613V20.8244ZM19.9613 20.499H20.2054V20.7079H19.9613V20.499Z" fill="white"/>
<path d="M20.5559 21.4648V21.4964C20.5535 21.5142 20.5551 21.5323 20.5605 21.5494C20.5659 21.5666 20.575 21.5823 20.5872 21.5955C20.5994 21.6087 20.6143 21.6191 20.6309 21.6258C20.6476 21.6326 20.6655 21.6356 20.6834 21.6347C20.6993 21.637 20.7155 21.6358 20.7309 21.6311C20.7462 21.6264 20.7603 21.6183 20.7722 21.6075C20.784 21.5967 20.7933 21.5833 20.7993 21.5684C20.8054 21.5536 20.808 21.5375 20.8071 21.5215C20.8068 21.4962 20.7979 21.4717 20.7818 21.4521C20.7658 21.4324 20.7436 21.4188 20.7188 21.4134L20.5472 21.3513C20.4878 21.3375 20.4351 21.3036 20.398 21.2552C20.3608 21.2069 20.3417 21.1471 20.3437 21.0862C20.3437 20.929 20.4428 20.7998 20.6939 20.7998C20.9152 20.7998 21.0196 20.8989 21.0196 21.0704V21.1094H20.8C20.8 21.0137 20.7717 20.9663 20.6922 20.9663C20.6778 20.9647 20.6631 20.9662 20.6493 20.9706C20.6354 20.975 20.6226 20.9822 20.6118 20.9919C20.6009 21.0016 20.5922 21.0134 20.5862 21.0267C20.5802 21.0399 20.577 21.0543 20.577 21.0688C20.577 21.1149 20.6017 21.1535 20.6833 21.18L20.83 21.2297C20.8928 21.2406 20.9492 21.2746 20.9882 21.325C21.0271 21.3754 21.0458 21.4386 21.0406 21.502C21.0406 21.7021 20.8919 21.8017 20.6867 21.8017C20.4124 21.8017 20.3364 21.6811 20.3364 21.4992V21.4656L20.5559 21.4648Z" fill="white"/>
<path d="M21.216 20.552H21.4601V20.8246H21.6016V20.9909H21.4603V21.5054C21.4603 21.5798 21.4761 21.6098 21.5469 21.6098C21.5652 21.6098 21.5835 21.6087 21.6017 21.6064V21.7763C21.5488 21.7826 21.4957 21.7861 21.4425 21.7868C21.2514 21.7868 21.2162 21.7284 21.2162 21.5359V20.9909H21.0919V20.8246H21.216V20.552Z" fill="white"/>
<path d="M21.6868 20.8244H21.9202V20.9519H21.9238C21.9418 20.9082 21.9721 20.8706 22.0109 20.8436C22.0498 20.8166 22.0956 20.8014 22.1428 20.7998C22.1576 20.8 22.1723 20.8013 22.1868 20.8035V21.0369C22.1623 21.0352 22.1358 21.0332 22.1109 21.0332C22.0874 21.0309 22.0637 21.0337 22.0414 21.0414C22.019 21.0491 21.9986 21.0615 21.9815 21.0778C21.9644 21.0941 21.951 21.1138 21.9422 21.1358C21.9334 21.1577 21.9294 21.1812 21.9305 21.2048V21.7763H21.6868V20.8244Z" fill="white"/>
<path d="M22.2848 20.8244H22.5289V21.7764H22.2848V20.8244ZM22.2848 20.499H22.5289V20.7079H22.2848V20.499Z" fill="white"/>
<path d="M23.074 21.6138C23.1801 21.6138 23.2008 21.5074 23.2008 21.3005C23.2008 21.0936 23.1806 20.9876 23.074 20.9876C22.9674 20.9876 22.9447 21.094 22.9447 21.3008C22.9447 21.5077 22.9661 21.6141 23.074 21.6141V21.6138ZM22.7006 20.5137H22.9447V20.9132H22.9484C22.9691 20.8776 22.9992 20.8482 23.0353 20.8283C23.0714 20.8084 23.1123 20.7986 23.1535 20.8001C23.3533 20.8001 23.4455 20.9468 23.4455 21.3007C23.4455 21.6547 23.3533 21.8014 23.1535 21.8014C23.1092 21.8034 23.0654 21.7926 23.0271 21.7703C22.9888 21.7481 22.9577 21.7152 22.9376 21.6758H22.9343V21.7765H22.7006V20.5137Z" fill="white"/>
<path d="M24.0735 21.6649H24.0701C24.0467 21.7081 24.0115 21.7438 23.9687 21.7679C23.9259 21.792 23.8772 21.8036 23.8281 21.8012C23.676 21.8012 23.5861 21.718 23.5861 21.5306V20.8247H23.8302V21.4808C23.8302 21.5763 23.8621 21.6135 23.9346 21.6135C24.0178 21.6135 24.0639 21.5624 24.0639 21.4561V20.8247H24.308V21.7763H24.0735V21.6649Z" fill="white"/>
<path d="M24.5232 20.552H24.7673V20.8246H24.9089V20.9909H24.7673V21.5054C24.7673 21.5798 24.7834 21.6098 24.8542 21.6098C24.8725 21.6098 24.8908 21.6087 24.9089 21.6064V21.7763C24.8561 21.7826 24.803 21.7861 24.7498 21.7868C24.5587 21.7868 24.5232 21.7284 24.5232 21.5359V20.9909H24.3993V20.8246H24.5232V20.552Z" fill="white"/>
<path d="M25.0028 20.8244H25.2469V21.7764H25.0028V20.8244ZM25.0028 20.499H25.2469V20.7079H25.0028V20.499Z" fill="white"/>
<path d="M25.7618 21.6348C25.8609 21.6348 25.8927 21.5374 25.8927 21.3006C25.8927 21.0637 25.8608 20.9663 25.7618 20.9663C25.6416 20.9663 25.6311 21.106 25.6311 21.3006C25.6311 21.4951 25.6416 21.6348 25.7618 21.6348ZM25.7618 20.7997C26.0555 20.7943 26.1368 20.9693 26.1368 21.3003C26.1368 21.6257 26.0414 21.8008 25.7618 21.8008C25.468 21.8064 25.387 21.6311 25.387 21.3003C25.387 20.9746 25.4824 20.7997 25.7618 20.7997Z" fill="white"/>
<path d="M26.2681 20.8244H26.5013V20.9359H26.505C26.5285 20.8927 26.5636 20.8571 26.6065 20.833C26.6493 20.809 26.698 20.7975 26.7471 20.7999C26.8994 20.7999 26.9891 20.8829 26.9891 21.0705V21.7763H26.7456V21.1202C26.7456 21.0245 26.714 20.9873 26.6418 20.9873C26.5586 20.9873 26.5125 21.0387 26.5125 21.1447V21.7763H26.2681V20.8244Z" fill="white"/>
<path d="M5.61381 19.743V19.4116H4.38062V22.9636H5.61381V22.6328H4.71231V19.743H5.61381Z" fill="#C9D200"/>
<path d="M26.6025 22.6328V22.9636H27.8357V19.4116H26.6025V19.743H27.5044V22.6328H26.6025Z" fill="#C9D200"/>
</svg>
