<svg width="193" height="192" viewBox="0 0 193 192" fill="none" xmlns="http://www.w3.org/2000/svg">
<g clip-path="url(#clip0_4405_117603)">
<path d="M18.4083 156.725L13.5605 113.689H19.9877L22.9839 148.934H23.2029L26.5277 113.689H33.0079L27.5596 156.725H18.4083V156.725Z" fill="white"/>
<path d="M54.1439 150.349C54.1439 151.875 54.0344 153.093 53.8154 153.999C53.5964 154.908 53.2082 155.605 52.6441 156.096C52.08 156.587 51.2903 156.906 50.275 157.052C49.2563 157.198 47.949 157.267 46.353 157.267C44.757 157.267 43.4463 157.194 42.431 157.052C41.4124 156.906 40.616 156.59 40.0353 156.096C39.4547 155.605 39.0631 154.908 38.8641 153.999C38.665 153.09 38.5654 151.875 38.5654 150.349V130.467C38.5654 128.941 38.665 127.723 38.8641 126.817C39.0631 125.908 39.4547 125.211 40.0353 124.72C40.616 124.229 41.4157 123.911 42.431 123.768C43.4463 123.622 44.7537 123.549 46.353 123.549C47.9523 123.549 49.2597 123.622 50.275 123.768C51.2903 123.914 52.0833 124.229 52.6441 124.72C53.2049 125.211 53.5964 125.908 53.8154 126.817C54.0344 127.726 54.1439 128.941 54.1439 130.467V150.349ZM48.752 131.064C48.752 130.119 48.606 129.505 48.3173 129.213C48.0253 128.924 47.4082 128.775 46.4658 128.775C45.4107 128.775 44.7305 128.921 44.4219 129.213C44.1133 129.505 43.9573 130.122 43.9573 131.064V149.805C43.9573 150.747 44.1033 151.374 44.3953 151.686C44.684 151.995 45.3377 152.147 46.3563 152.147C47.375 152.147 48.0718 151.982 48.3439 151.656C48.6159 151.331 48.752 150.714 48.752 149.805V131.064V131.064Z" fill="white"/>
<path d="M68.4152 156.725H62.8574V113.689H68.4152V156.725Z" fill="white"/>
<path d="M86.9371 128.613H83.1246V149.096C83.1246 150.221 83.3071 150.984 83.6688 151.385C84.0305 151.784 84.7571 151.983 85.8488 151.983H86.884V156.724H85.4672C83.9774 156.724 82.7231 156.588 81.7078 156.316C80.6891 156.044 79.8729 155.626 79.2557 155.065C78.6386 154.501 78.2039 153.784 77.9484 152.912C77.6929 152.039 77.5668 151.004 77.5668 149.806V128.617H75.5527V124.094H77.5668V114.18H83.1246V124.094H86.9371V128.617V128.613Z" fill="white"/>
<path d="M108.452 156.725V113.689H120.981V118.862H114.717V125.236H120.762V130.409H114.717V156.722H108.452V156.725Z" fill="white"/>
<path d="M135.035 157.27C133.509 157.27 132.265 157.207 131.302 157.081C130.34 156.955 129.587 156.673 129.043 156.238C128.499 155.803 128.127 155.166 127.925 154.33C127.726 153.494 127.626 152.369 127.626 150.952V143.052C127.626 141.091 127.998 139.657 128.744 138.748C129.491 137.839 130.768 137.388 132.587 137.388H133.618C134.853 137.388 135.725 137.434 136.233 137.524C136.741 137.613 137.122 137.733 137.378 137.879V131.123C137.378 129.962 137.232 129.199 136.943 128.837C136.655 128.475 136.034 128.293 135.092 128.293C134.04 128.293 133.376 128.482 133.104 128.864C132.832 129.245 132.696 129.998 132.696 131.123V134.338H127.629V130.473C127.629 128.947 127.729 127.722 127.928 126.796C128.127 125.871 128.502 125.171 129.046 124.699C129.59 124.228 130.334 123.92 131.279 123.774C132.225 123.628 133.459 123.555 134.982 123.555C136.505 123.555 137.889 123.628 138.904 123.774C139.923 123.92 140.713 124.235 141.277 124.726C141.837 125.217 142.229 125.914 142.448 126.823C142.664 127.732 142.776 128.947 142.776 130.473V156.729C142.123 156.911 141.114 157.048 139.754 157.137C138.39 157.227 136.82 157.273 135.042 157.273L135.035 157.27ZM135.364 152.694C136.416 152.694 137.089 152.661 137.378 152.585V141.907C137.126 141.761 136.814 141.671 136.452 141.635C136.087 141.598 135.706 141.582 135.307 141.582C134.69 141.582 134.209 141.618 133.864 141.691C133.519 141.764 133.253 141.91 133.074 142.126C132.892 142.345 132.782 142.644 132.746 143.025C132.709 143.407 132.693 143.888 132.693 144.469V149.588C132.693 150.279 132.709 150.823 132.746 151.221C132.779 151.622 132.892 151.928 133.074 152.147C133.253 152.362 133.526 152.512 133.891 152.581C134.252 152.654 134.743 152.691 135.36 152.691L135.364 152.694Z" fill="white"/>
<path d="M162.708 127.636V122.298C162.708 121.534 162.682 120.917 162.629 120.446C162.576 119.975 162.456 119.62 162.274 119.384C162.091 119.149 161.819 118.986 161.458 118.893C161.093 118.804 160.621 118.757 160.041 118.757C159.424 118.757 158.942 118.804 158.597 118.893C158.252 118.983 157.99 119.149 157.808 119.384C157.625 119.62 157.509 119.975 157.453 120.446C157.4 120.917 157.373 121.534 157.373 122.298V126.548C157.373 127.417 157.463 128.064 157.645 128.483C157.828 128.901 158.282 129.325 159.009 129.763C159.626 130.161 160.452 130.616 161.487 131.124C162.519 131.631 163.657 132.268 164.892 133.032C165.801 133.612 166.534 134.14 167.098 134.611C167.659 135.082 168.077 135.61 168.349 136.19C168.621 136.771 168.8 137.461 168.893 138.261C168.983 139.061 169.029 140.059 169.029 141.257V148.175C169.029 150.173 168.91 151.772 168.674 152.97C168.439 154.168 167.994 155.087 167.341 155.721C166.687 156.358 165.778 156.773 164.616 156.975C163.452 157.174 161.949 157.274 160.094 157.274C158.239 157.274 156.862 157.174 155.734 156.975C154.609 156.773 153.72 156.368 153.066 155.747C152.412 155.133 151.958 154.221 151.706 153.023C151.45 151.825 151.324 150.209 151.324 148.175V139.621H157.426V148.175C157.426 148.939 157.453 149.546 157.506 150C157.559 150.455 157.678 150.81 157.861 151.062C158.043 151.314 158.305 151.49 158.65 151.58C158.996 151.669 159.457 151.716 160.041 151.716C161.202 151.716 161.939 151.497 162.247 151.062C162.556 150.624 162.708 149.665 162.708 148.175V141.695C162.708 140.534 162.635 139.698 162.489 139.19C162.343 138.682 161.925 138.191 161.239 137.72C160.874 137.468 160.422 137.186 159.875 136.877C159.331 136.569 158.75 136.244 158.133 135.898C157.512 135.553 156.889 135.198 156.255 134.837C155.618 134.475 155.047 134.13 154.539 133.801C153.776 133.294 153.169 132.813 152.714 132.358C152.26 131.903 151.915 131.402 151.679 130.862C151.444 130.317 151.291 129.7 151.218 129.01C151.145 128.32 151.108 127.467 151.108 126.449V122.308C151.108 120.31 151.228 118.714 151.463 117.513C151.699 116.315 152.134 115.389 152.771 114.736C153.405 114.082 154.297 113.657 155.442 113.455C156.587 113.256 158.083 113.156 159.935 113.156C161.786 113.156 163.286 113.256 164.427 113.455C165.572 113.654 166.468 114.082 167.125 114.736C167.779 115.389 168.223 116.315 168.459 117.513C168.694 118.711 168.814 120.31 168.814 122.308V127.646H162.712L162.708 127.636Z" fill="white"/>
<path d="M182.538 142.344V150.025C182.538 151.08 182.674 151.761 182.946 152.069C183.218 152.378 183.862 152.53 184.88 152.53C185.899 152.53 186.496 152.374 186.788 152.069C187.077 151.761 187.223 151.08 187.223 150.025V145.612H192.237V150.35C192.237 151.877 192.137 153.101 191.938 154.027C191.739 154.953 191.364 155.653 190.82 156.124C190.276 156.595 189.522 156.907 188.56 157.05C187.598 157.192 186.354 157.265 184.827 157.265C183.301 157.265 181.921 157.192 180.905 157.05C179.89 156.904 179.1 156.588 178.536 156.094C177.972 155.603 177.59 154.906 177.391 153.997C177.192 153.088 177.093 151.873 177.093 150.347V130.465C177.093 128.939 177.192 127.721 177.391 126.815C177.59 125.906 177.972 125.209 178.536 124.718C179.1 124.227 179.89 123.909 180.905 123.766C181.924 123.62 183.231 123.547 184.827 123.547C186.423 123.547 187.598 123.62 188.56 123.766C189.522 123.912 190.276 124.22 190.82 124.692C191.364 125.163 191.736 125.863 191.938 126.789C192.137 127.714 192.237 128.939 192.237 130.465V142.341H182.541L182.538 142.344ZM182.538 137.878H187.223V130.906C187.223 129.855 187.077 129.181 186.788 128.889C186.5 128.6 185.863 128.454 184.88 128.454C183.898 128.454 183.221 128.6 182.946 128.889C182.674 129.181 182.538 129.851 182.538 130.906V137.878Z" fill="white"/>
<path d="M164.639 41.8809C164.639 41.8809 154.999 49.0778 163.358 58.113C163.358 58.113 170.611 51.875 164.639 41.8809V41.8809Z" fill="#99C32A"/>
<path d="M179.084 59.9539C179.084 59.9539 164.504 58.3877 164.494 76.5245C164.494 76.5245 175.533 76.7435 179.084 59.9539Z" fill="#99C32A"/>
<path d="M149.967 57.3184C149.967 57.3184 145.03 71.125 162.659 75.3821C162.659 75.3821 165.46 64.7011 149.967 57.3184Z" fill="#99C32A"/>
<path d="M162.303 60.526C162.303 60.526 167.619 57.0785 167.546 49.8483C167.546 49.8483 167.845 43.1591 162.244 39.4727C162.244 39.4727 156.925 42.6613 156.958 49.8483C156.958 49.8483 156.44 56.9789 162.303 60.526ZM158.995 49.9977L159.002 49.918V49.8384C158.982 45.7737 160.973 43.2553 162.257 42.0541C165.625 45.1001 165.515 49.5563 165.509 49.7554V49.8683C165.548 54.0291 163.508 56.6869 162.217 57.9511C158.73 54.9615 158.985 50.21 158.999 49.9977H158.995Z" fill="white"/>
<path d="M178.653 56.3695C178.368 56.3562 178.086 56.3496 177.807 56.3496C168.383 56.3496 163.778 64.0609 163.778 64.0609C163.167 64.8804 162.723 65.7564 162.381 66.6556C162.039 65.7564 161.595 64.8771 160.984 64.0609C160.984 64.0609 156.382 56.3496 146.958 56.3496C146.68 56.3496 146.401 56.3562 146.112 56.3695C146.112 56.3695 141.673 74.274 161.329 77.6883L161.346 100.786C161.352 100.822 161.492 101.698 160.702 102.634C159.746 103.765 157.361 105.112 151.415 105.112H13.6672C13.4847 105.099 9.3172 104.698 5.65734 107.82C2.52174 110.491 0.769788 114.844 0.451251 120.817V145.082C0.441297 145.606 0.235575 158.026 5.98252 163.458C7.74774 165.127 9.88128 165.966 12.2769 165.966C12.5557 165.966 12.8377 165.956 13.1231 165.933L83.334 165.963C83.7554 167.051 84.8072 167.828 86.0449 167.828H88.6761C88.9183 167.828 89.1506 167.788 89.3762 167.731V168.654C89.3762 169.321 89.9171 169.858 90.5807 169.858H90.8063C91.4733 169.858 92.0108 169.317 92.0108 168.654V167.496H95.6142C95.9261 167.496 96.1816 167.244 96.1816 166.928C96.1816 166.613 95.9261 166.364 95.6142 166.364H92.0108V163.461H95.6142C95.9261 163.461 96.1816 163.209 96.1816 162.894C96.1816 162.578 95.9261 162.33 95.6142 162.33H92.0108V161.172C92.0108 160.505 91.4699 159.967 90.8063 159.967H90.5807C89.9138 159.967 89.3762 160.508 89.3762 161.172V162.094C89.1506 162.038 88.9183 161.998 88.6761 161.998H86.0449C84.784 161.998 83.7222 162.801 83.3141 163.922L13.0434 163.896C10.7938 164.075 8.94226 163.444 7.38939 161.978C2.29943 157.17 2.49188 145.248 2.4952 145.109V120.877C2.78055 115.561 4.28033 111.699 6.95472 109.403C9.93437 106.844 13.4283 107.156 13.561 107.16H151.425C156.899 107.16 160.573 106.055 162.338 103.875C163.526 102.411 163.439 100.968 163.376 100.517V77.6982C183.099 74.3105 178.653 56.3695 178.653 56.3695V56.3695ZM165.42 65.2819L165.483 65.199L165.536 65.1094C165.576 65.0463 169.342 58.878 176.918 58.4201C177.18 60.7793 177.243 65.3781 174.631 69.2305C172.475 72.4092 168.878 74.5261 163.927 75.5315C163.436 73.1093 162.978 68.5602 165.42 65.2819ZM160.841 75.5315C155.891 74.5228 152.297 72.4092 150.141 69.2305C147.529 65.3781 147.596 60.7759 147.854 58.4201C155.357 58.868 159.079 64.8506 159.235 65.1094L159.289 65.199L159.352 65.2819C161.777 68.5403 161.326 73.0994 160.838 75.5315H160.841Z" fill="white"/>
<path d="M119.821 58.2256L119.379 59.367H136.557V61.2915L135.157 66.2321H117.063V66.9123H134.964L133.017 73.7808H114.472V74.461H132.824L131.036 80.7654H111.628L110.732 83.2473H118.128V91.9938H99.3878V83.2175H107.753L117.488 54.9672V48.6562H86.9549L86.2116 50.2323H115.142V52.8901L112.919 59.3172H81.5929V60.3392H112.567L109.183 70.1243H77.2926V71.1462H108.828L105.838 79.7866H73.1549L71.6452 83.2175H77.6841V91.9938H60.6623V83.2175H67.4179L84.9574 43.5496V35.4004H32.4884L10.1045 78.1109V83.2142H18.4362V91.9905H13.7444V94.7147H123.756V91.9905H119.485V83.244H132.167L137.947 62.7913V58.2223H119.817L119.821 58.2256ZM79.0379 83.2142H98.0174V91.9905H79.0379V83.2142V83.2142ZM59.2919 91.9905H40.2262V83.2142H59.2919V91.9905ZM33.2051 38.4265H82.0441V39.9296L77.4286 50.4247H26.7613L33.2051 38.4265ZM26.0313 51.7851H76.8281L71.1641 64.6627H19.1198L26.0313 51.7851ZM12.4968 76.996L18.3865 66.0264H70.5668L65.291 78.0213H12.4968V76.9927V76.996ZM19.7966 83.2142H38.8624V91.9905H19.7966V83.2142Z" fill="white"/>
</g>
<defs>
<clipPath id="clip0_4405_117603">
<rect width="191.786" height="134.453" fill="white" transform="translate(0.449219 35.4004)"/>
</clipPath>
</defs>
</svg>
