<svg width="129" height="91" viewBox="0 0 129 91" fill="none" xmlns="http://www.w3.org/2000/svg">
<g clip-path="url(#clip0_4526_120381)">
<path d="M12.0611 82.1699L8.80566 53.2695H13.1218L15.1339 76.938H15.2809L17.5136 53.2695H21.8654L18.2066 82.1699H12.0611V82.1699Z" fill="black"/>
<path d="M36.0585 77.8999C36.0585 78.9249 35.985 79.7427 35.8379 80.351C35.6909 80.9615 35.4302 81.4294 35.0514 81.7592C34.6726 82.089 34.1422 82.3029 33.4604 82.4009C32.7763 82.499 31.8984 82.5458 30.8266 82.5458C29.7548 82.5458 28.8747 82.4968 28.1928 82.4009C27.5088 82.3029 26.974 82.0912 26.584 81.7592C26.1941 81.4294 25.9312 80.9615 25.7975 80.351C25.6638 79.7404 25.5969 78.9249 25.5969 77.8999V64.5482C25.5969 63.5232 25.6638 62.7055 25.7975 62.0972C25.9312 61.4866 26.1941 61.0187 26.584 60.6889C26.974 60.3591 27.511 60.1452 28.1928 60.0494C28.8747 59.9514 29.7526 59.9023 30.8266 59.9023C31.9006 59.9023 32.7786 59.9514 33.4604 60.0494C34.1422 60.1475 34.6748 60.3591 35.0514 60.6889C35.4279 61.0187 35.6909 61.4866 35.8379 62.0972C35.985 62.7077 36.0585 63.5232 36.0585 64.5482V77.8999ZM32.4376 64.9493C32.4376 64.3143 32.3396 63.902 32.1457 63.706C31.9497 63.5121 31.5352 63.4118 30.9024 63.4118C30.1938 63.4118 29.737 63.5099 29.5298 63.706C29.3226 63.902 29.2178 64.3165 29.2178 64.9493V77.5345C29.2178 78.1673 29.3159 78.5884 29.512 78.7979C29.7058 79.0051 30.1448 79.1076 30.8288 79.1076C31.5129 79.1076 31.9809 78.9962 32.1636 78.7778C32.3463 78.5594 32.4376 78.145 32.4376 77.5345V64.9493V64.9493Z" fill="black"/>
<path d="M45.6425 82.1699H41.9102V53.2695H45.6425V82.1699Z" fill="black"/>
<path d="M58.0802 63.3062H55.5199V77.0611C55.5199 77.8165 55.6425 78.329 55.8853 78.5986C56.1282 78.866 56.6162 78.9997 57.3493 78.9997H58.0445V82.1839H57.0931C56.0926 82.1839 55.2503 82.0925 54.5685 81.9098C53.8844 81.7271 53.3362 81.4463 52.9218 81.0697C52.5073 80.6909 52.2154 80.2096 52.0439 79.6236C51.8723 79.0376 51.7876 78.3424 51.7876 77.538V63.3084H50.4351V60.2713H51.7876V53.6133H55.5199V60.2713H58.0802V63.3084V63.3062Z" fill="black"/>
<path d="M72.5288 82.1699V53.2695H80.9427V56.7434H76.7357V61.0238H80.7956V64.4977H76.7357V82.1677H72.5288V82.1699Z" fill="black"/>
<path d="M90.3814 82.5435C89.3564 82.5435 88.5208 82.5012 87.8747 82.4165C87.2285 82.3319 86.7227 82.1425 86.3572 81.8506C85.9918 81.5587 85.7422 81.1308 85.6063 80.5693C85.4726 80.0078 85.4058 79.2524 85.4058 78.301V72.9955C85.4058 71.6786 85.6553 70.716 86.1567 70.1055C86.658 69.4949 87.5159 69.1919 88.737 69.1919H89.43C90.2589 69.1919 90.8449 69.2231 91.1858 69.2833C91.5268 69.3434 91.783 69.4236 91.9546 69.5217V64.985C91.9546 64.2051 91.8565 63.6926 91.6627 63.4497C91.4688 63.2068 91.0521 63.0843 90.4193 63.0843C89.713 63.0843 89.2673 63.2113 89.0846 63.4675C88.9019 63.7238 88.8105 64.2296 88.8105 64.985V67.1441H85.408V64.5482C85.408 63.5232 85.4748 62.701 85.6085 62.0793C85.7422 61.4577 85.994 60.9875 86.3595 60.6711C86.7249 60.3547 87.224 60.1475 87.8591 60.0494C88.4941 59.9514 89.323 59.9023 90.3458 59.9023C91.3685 59.9023 92.2977 59.9514 92.9796 60.0494C93.6636 60.1475 94.194 60.3591 94.5728 60.6889C94.9493 61.0187 95.2123 61.4866 95.3593 62.0972C95.5042 62.7077 95.5799 63.5232 95.5799 64.5482V82.1804C95.141 82.3029 94.4636 82.3943 93.55 82.4544C92.6342 82.5146 91.5802 82.5458 90.3859 82.5458L90.3814 82.5435ZM90.602 79.4708C91.3084 79.4708 91.7607 79.4485 91.9546 79.3973V72.2268C91.7852 72.1287 91.5758 72.0686 91.3329 72.0441C91.0878 72.0195 90.8315 72.0084 90.5642 72.0084C90.1497 72.0084 89.8266 72.0329 89.5949 72.0819C89.3631 72.131 89.1849 72.229 89.0645 72.3738C88.942 72.5209 88.8685 72.7214 88.8439 72.9777C88.8194 73.2339 88.8083 73.557 88.8083 73.947V77.3852C88.8083 77.8486 88.8194 78.2141 88.8439 78.4815C88.8662 78.7511 88.942 78.9561 89.0645 79.1031C89.1849 79.248 89.3676 79.3482 89.6127 79.395C89.8556 79.4441 90.1853 79.4686 90.5998 79.4686L90.602 79.4708Z" fill="black"/>
<path d="M108.965 62.642V59.0568C108.965 58.5443 108.947 58.1298 108.912 57.8134C108.876 57.497 108.796 57.2586 108.673 57.1004C108.551 56.9422 108.368 56.833 108.125 56.7706C107.88 56.7104 107.563 56.6792 107.173 56.6792C106.759 56.6792 106.436 56.7104 106.204 56.7706C105.972 56.8308 105.796 56.9422 105.674 57.1004C105.551 57.2586 105.473 57.497 105.435 57.8134C105.4 58.1298 105.382 58.5443 105.382 59.0568V61.9112C105.382 62.495 105.442 62.9295 105.565 63.2102C105.687 63.491 105.993 63.7762 106.481 64.0703C106.895 64.3377 107.45 64.643 108.145 64.9839C108.838 65.3248 109.602 65.7527 110.431 66.2652C111.042 66.6551 111.534 67.0094 111.913 67.3258C112.29 67.6422 112.57 67.9965 112.753 68.3865C112.936 68.7764 113.056 69.2399 113.118 69.7769C113.179 70.3139 113.21 70.9846 113.21 71.789V76.4349C113.21 77.7763 113.13 78.8503 112.971 79.6547C112.813 80.4591 112.515 81.0763 112.076 81.5019C111.637 81.9297 111.026 82.2083 110.246 82.3442C109.464 82.4779 108.455 82.5447 107.209 82.5447C105.964 82.5447 105.039 82.4779 104.281 82.3442C103.526 82.2083 102.929 81.9364 102.49 81.5197C102.051 81.1075 101.745 80.4947 101.576 79.6903C101.405 78.886 101.32 77.8008 101.32 76.4349V70.6905H105.418V76.4349C105.418 76.9474 105.435 77.3551 105.471 77.6604C105.507 77.9657 105.587 78.2041 105.71 78.3735C105.832 78.5428 106.008 78.6609 106.24 78.7211C106.472 78.7812 106.781 78.8124 107.173 78.8124C107.953 78.8124 108.448 78.6654 108.655 78.3735C108.862 78.0793 108.965 77.4354 108.965 76.4349V72.0831C108.965 71.3032 108.916 70.7417 108.818 70.4008C108.72 70.0599 108.439 69.7301 107.978 69.4137C107.733 69.2443 107.43 69.0549 107.062 68.8477C106.697 68.6405 106.307 68.4221 105.892 68.1904C105.476 67.9586 105.057 67.7202 104.631 67.4773C104.203 67.2345 103.82 67.0027 103.479 66.7821C102.967 66.4412 102.559 66.1181 102.254 65.8128C101.948 65.5076 101.717 65.1711 101.558 64.8079C101.4 64.4425 101.298 64.028 101.249 63.5645C101.2 63.1011 101.175 62.5284 101.175 61.8443V59.0635C101.175 57.7221 101.255 56.6503 101.413 55.8437C101.572 55.0393 101.864 54.4176 102.291 53.9786C102.717 53.5396 103.316 53.2544 104.085 53.1185C104.854 52.9848 105.859 52.918 107.102 52.918C108.346 52.918 109.353 52.9848 110.119 53.1185C110.888 53.2522 111.49 53.5396 111.931 53.9786C112.37 54.4176 112.668 55.0393 112.827 55.8437C112.985 56.6481 113.065 57.7221 113.065 59.0635V62.6487H108.967L108.965 62.642Z" fill="black"/>
<path d="M122.282 72.5254V77.6837C122.282 78.3923 122.373 78.8491 122.556 79.0563C122.738 79.2636 123.171 79.3661 123.855 79.3661C124.539 79.3661 124.94 79.2613 125.136 79.0563C125.33 78.8491 125.428 78.3923 125.428 77.6837V74.7202H128.795V77.9021C128.795 78.9271 128.728 79.7493 128.594 80.371C128.46 80.9927 128.209 81.4629 127.843 81.7793C127.478 82.0957 126.972 82.3051 126.326 82.4009C125.68 82.4968 124.844 82.5458 123.819 82.5458C122.794 82.5458 121.867 82.4968 121.185 82.4009C120.503 82.3029 119.973 82.0912 119.594 81.7592C119.215 81.4294 118.959 80.9615 118.826 80.351C118.692 79.7404 118.625 78.9249 118.625 77.8999V64.5482C118.625 63.5232 118.692 62.7055 118.826 62.0972C118.959 61.4866 119.215 61.0187 119.594 60.6889C119.973 60.3591 120.503 60.1452 121.185 60.0494C121.869 59.9514 122.747 59.9023 123.819 59.9023C124.891 59.9023 125.68 59.9514 126.326 60.0494C126.972 60.1474 127.478 60.3547 127.843 60.6711C128.209 60.9875 128.458 61.4577 128.594 62.0793C128.728 62.701 128.795 63.5232 128.795 64.5482V72.5231H122.284L122.282 72.5254ZM122.282 69.5261H125.428V64.8446C125.428 64.1382 125.33 63.6859 125.136 63.4898C124.942 63.296 124.514 63.1979 123.855 63.1979C123.195 63.1979 122.741 63.296 122.556 63.4898C122.373 63.6859 122.282 64.136 122.282 64.8446V69.5261Z" fill="black"/>
<path d="M110.262 5.05859C110.262 5.05859 103.789 9.89166 109.402 15.9592C109.402 15.9592 114.273 11.7701 110.262 5.05859V5.05859Z" fill="#9AC32B"/>
<path d="M119.961 17.1908C119.961 17.1908 110.171 16.139 110.164 28.3186C110.164 28.3186 117.577 28.4657 119.961 17.1908Z" fill="#9AC32B"/>
<path d="M100.409 15.4297C100.409 15.4297 97.093 24.7014 108.932 27.5603C108.932 27.5603 110.812 20.3875 100.409 15.4297Z" fill="#9AC32B"/>
<path d="M108.693 17.5757C108.693 17.5757 112.262 15.2606 112.213 10.4052C112.213 10.4052 112.414 5.91308 108.653 3.4375C108.653 3.4375 105.081 5.57884 105.103 10.4052C105.103 10.4052 104.755 15.1937 108.693 17.5757ZM106.471 10.5055L106.476 10.452V10.3985C106.462 7.66894 107.799 5.9777 108.662 5.17108C110.923 7.21661 110.85 10.2091 110.845 10.3428V10.4186C110.872 13.2128 109.502 14.9976 108.635 15.8466C106.293 13.839 106.465 10.6481 106.473 10.5055H106.471Z" fill="black"/>
<path d="M119.672 14.7829C119.481 14.774 119.291 14.7695 119.104 14.7695C112.776 14.7695 109.683 19.948 109.683 19.948C109.273 20.4984 108.974 21.0866 108.745 21.6905C108.515 21.0866 108.217 20.4961 107.807 19.948C107.807 19.948 104.716 14.7695 98.388 14.7695C98.2008 14.7695 98.0137 14.774 97.8198 14.7829C97.8198 14.7829 94.8384 26.8065 108.039 29.0994L108.05 44.6102C108.054 44.6347 108.148 45.223 107.617 45.8513C106.976 46.6112 105.374 47.5158 101.381 47.5158H8.87713C8.75457 47.5069 5.9559 47.2373 3.49814 49.3341C1.39245 51.1278 0.215932 54.0513 0.00202066 58.0621V74.3573C-0.00466408 74.7094 -0.142815 83.0497 3.71651 86.6973C4.90194 87.8181 6.3347 88.3819 7.94349 88.3819C8.13066 88.3819 8.32007 88.3752 8.51169 88.3596L55.6614 88.3797C55.9444 89.1105 56.6507 89.6319 57.4819 89.6319H59.2489C59.4115 89.6319 59.5675 89.6052 59.719 89.5673V90.1868C59.719 90.6346 60.0822 90.9956 60.5279 90.9956H60.6794C61.1273 90.9956 61.4883 90.6324 61.4883 90.1868V89.4091H63.9081C64.1176 89.4091 64.2892 89.2398 64.2892 89.0281C64.2892 88.8164 64.1176 88.6493 63.9081 88.6493H61.4883V86.6996H63.9081C64.1176 86.6996 64.2892 86.5302 64.2892 86.3185C64.2892 86.1068 64.1176 85.9397 63.9081 85.9397H61.4883V85.1621C61.4883 84.7142 61.1251 84.3532 60.6794 84.3532H60.5279C60.08 84.3532 59.719 84.7164 59.719 85.1621V85.7815C59.5675 85.7436 59.4115 85.7169 59.2489 85.7169H57.4819C56.6351 85.7169 55.9221 86.2561 55.648 87.0093L8.45822 86.9915C6.94747 87.1118 5.7041 86.6884 4.66128 85.7035C1.24315 82.4748 1.37239 74.4687 1.37462 74.3751V58.1022C1.56625 54.5326 2.57342 51.9389 4.36938 50.397C6.37035 48.679 8.71669 48.8884 8.80582 48.8907H101.387C105.064 48.8907 107.531 48.1487 108.716 46.6847C109.514 45.7021 109.456 44.7328 109.413 44.4297V29.1061C122.658 26.831 119.672 14.7829 119.672 14.7829V14.7829ZM110.786 20.768L110.828 20.7123L110.864 20.6521C110.891 20.6098 113.42 16.4675 118.507 16.16C118.683 17.7442 118.725 20.8326 116.972 23.4196C115.523 25.5542 113.108 26.9759 109.783 27.651C109.453 26.0244 109.146 22.9695 110.786 20.768ZM107.711 27.651C104.386 26.9736 101.973 25.5542 100.525 23.4196C98.7713 20.8326 98.8158 17.742 98.9896 16.16C104.028 16.4608 106.528 20.4783 106.633 20.6521L106.668 20.7123L106.711 20.768C108.339 22.9561 108.036 26.0177 107.709 27.651H107.711Z" fill="black"/>
<path d="M80.1638 16.039L79.8674 16.8056H91.4031V18.0979L90.4628 21.4158H78.3121V21.8726H90.3335L89.0255 26.4851H76.5719V26.9419H88.8963L87.6953 31.1755H74.6623L74.0606 32.8423H79.0274V38.7159H66.4423V32.8222H72.0597L78.5974 13.8509V9.61278H58.093L57.5939 10.6712H77.022V12.456L75.5291 16.7721H54.4922V17.4584H75.2929L73.0201 24.0295H51.6044V24.7158H72.7816L70.774 30.5182H48.8258L47.8119 32.8222H51.8673V38.7159H40.4364V32.8222H44.9731L56.7516 6.18351V0.710938H21.5164L6.48462 29.3929V32.82H12.0797V38.7137H8.92901V40.5431H82.8065V38.7137H79.9388V32.84H88.4551L92.3367 19.1051V16.0368H80.1616L80.1638 16.039ZM52.7764 32.82H65.522V38.7137H52.7764V32.82V32.82ZM39.5161 38.7137H26.7126V32.82H39.5161V38.7137ZM21.9977 2.7431H54.7952V3.75249L51.6957 10.8004H17.6704L21.9977 2.7431ZM17.1802 11.714H51.2924L47.4888 20.3618H12.5388L17.1802 11.714ZM8.09118 28.6442L12.0463 21.2777H47.0877L43.5448 29.3328H8.09118V28.642V28.6442ZM12.9933 32.82H25.7968V38.7137H12.9933V32.82Z" fill="black"/>
</g>
<defs>
<clipPath id="clip0_4526_120381">
<rect width="128.793" height="90.2908" fill="white" transform="translate(0 0.710938)"/>
</clipPath>
</defs>
</svg>
