<svg width="128" height="88" viewBox="0 0 128 88" fill="none" xmlns="http://www.w3.org/2000/svg">
<g clip-path="url(#clip0_7869_139610)">
<path d="M47.4737 82.8359H47.664C48.0538 82.8359 48.5029 82.9821 49.0113 83.2774L49.0424 83.3551C49.0424 83.4173 48.9988 83.4546 48.9146 83.4671C48.4655 83.2028 48.0288 83.0722 47.6016 83.0722H47.5392C46.7003 83.0722 46.0173 83.4764 45.4964 84.2878C45.3062 84.6889 45.2126 85.0651 45.2126 85.4257C45.2126 86.2589 45.6025 86.9336 46.3853 87.4466C46.7564 87.658 47.1213 87.7637 47.4768 87.7637H47.6203C48.3626 87.7637 48.9863 87.431 49.4884 86.7688C49.7722 86.3242 49.9157 85.8828 49.9157 85.4413C49.9063 85.3977 49.9001 85.3573 49.9001 85.3138V85.2672C49.9001 85.2516 49.9219 85.2299 49.9625 85.205H50.0093C50.0841 85.205 50.1215 85.2423 50.1215 85.3169V85.4755C50.1215 86.3429 49.7161 87.0579 48.9021 87.6238C48.4873 87.8756 48.0288 88.0031 47.5236 88.0031H47.4924C46.7065 88.0031 46.0297 87.6549 45.4652 86.9616C45.1378 86.4735 44.9756 86.004 44.9756 85.5563V85.3045C44.9756 84.8101 45.1596 84.3158 45.5307 83.8215C45.8831 83.3862 46.3634 83.0878 46.9716 82.923C47.0963 82.8919 47.2648 82.8639 47.4768 82.8453L47.4737 82.8359ZM47.5205 85.1552H49.66C49.713 85.1801 49.7379 85.2236 49.7379 85.2827C49.7254 85.3231 49.6974 85.3573 49.66 85.376H47.5205C47.4675 85.3511 47.4425 85.3076 47.4425 85.2485C47.4581 85.205 47.4862 85.1708 47.5205 85.1552Z" fill="#1D1D1B"/>
<path d="M54.3755 82.6463H54.4535C54.4535 82.6463 54.494 82.6712 54.5315 82.724V85.2019H56.3372C56.4277 85.2019 56.5119 85.3449 56.5898 85.6278C57.1918 87.0953 57.4912 87.8477 57.4912 87.885C57.46 87.9596 57.4132 87.9969 57.3477 87.9969C57.2822 87.9969 57.1419 87.686 56.9204 87.0642C56.4869 86.0134 56.2717 85.4724 56.2717 85.4382H54.4348C54.3412 85.4258 54.2913 85.376 54.2913 85.2952V82.7707C54.2913 82.7116 54.3163 82.6712 54.3693 82.6432L54.3755 82.6463ZM54.3755 85.5999H54.4535C54.4535 85.5999 54.494 85.6247 54.5315 85.6776V87.857C54.5315 87.9161 54.5065 87.9565 54.4535 87.9845H54.3755C54.3225 87.9596 54.2976 87.9161 54.2976 87.857V85.7242C54.2976 85.6652 54.3225 85.6247 54.3755 85.5968V85.5999ZM54.8184 82.6152H55.9256C56.8861 82.7365 57.3664 83.209 57.3664 84.036C57.3664 84.5335 57.1668 84.9128 56.7645 85.1739H56.7021C56.7021 85.1739 56.6616 85.1491 56.6241 85.0962V85.0651C56.6241 85.0216 56.7084 84.9252 56.8768 84.7822C57.0452 84.5584 57.1294 84.3096 57.1294 84.0391C57.1294 83.464 56.8549 83.0971 56.306 82.9355C56.1657 82.8919 55.991 82.8733 55.7821 82.8733H54.8153C54.756 82.8733 54.7155 82.8484 54.6874 82.7956V82.7645C54.6874 82.6992 54.7311 82.6525 54.8153 82.6214L54.8184 82.6152Z" fill="#1D1D1B"/>
<path d="M63.9719 82.6152V82.6308L64.0062 82.6152C64.0062 82.6152 64.0218 82.6214 64.0218 82.6308L64.053 82.6152H64.1216C64.1216 82.6152 64.1403 82.6214 64.1403 82.6308L64.1715 82.6152L64.2058 82.6308C64.2058 82.6308 64.2214 82.6246 64.2214 82.6152C64.5239 82.6152 64.9263 82.7334 65.4221 82.9665C66.0397 83.3085 66.47 83.8371 66.7102 84.549C66.7882 84.8195 66.8287 85.0931 66.8287 85.3667C66.8287 85.976 66.6073 86.5574 66.1675 87.1139C65.8588 87.4466 65.5157 87.6891 65.1383 87.8477C64.8576 87.9472 64.6736 87.9969 64.5801 87.9969C64.5271 87.9751 64.499 87.9534 64.4927 87.9285V87.8756C64.4927 87.7855 64.6175 87.7264 64.8639 87.6953C65.1882 87.5927 65.5375 87.3689 65.9118 87.0269C66.3515 86.5046 66.573 85.9823 66.573 85.46V85.2112C66.573 84.7387 66.3702 84.2381 65.9617 83.7127C65.419 83.1438 64.7766 82.8608 64.0343 82.8608H63.9314L63.8472 82.8795V82.8608C63.3669 82.9323 62.977 83.066 62.6776 83.2619C62.2223 83.5448 61.8855 83.9894 61.664 84.5957C61.5954 84.7511 61.5518 84.9936 61.5299 85.3263C61.5299 86.2528 61.9759 86.9865 62.8648 87.5274C63.108 87.6394 63.3513 87.7202 63.5946 87.7762L63.6101 87.8601V87.9129C63.6101 87.9285 63.5883 87.9503 63.5415 87.9813H63.5259C63.1766 87.9813 62.7275 87.7637 62.1724 87.3316C61.5861 86.7346 61.2929 86.0724 61.2929 85.3511C61.2929 84.5242 61.636 83.8122 62.3252 83.2153C62.8866 82.8142 63.4324 82.6152 63.9657 82.6152H63.9719Z" fill="#1D1D1B"/>
<path d="M71.1794 82.6476H71.2729C71.3166 82.6632 71.3353 82.7005 71.3353 82.7596V85.9338C71.3353 86.9007 71.7532 87.5008 72.5859 87.7339C72.745 87.7557 72.876 87.765 72.982 87.765H72.9976C73.06 87.765 73.1099 87.8023 73.1411 87.877C73.1317 87.9609 73.0912 88.0044 73.0132 88.0044H72.9664C72.4175 88.0044 71.9684 87.821 71.6191 87.451C71.3883 87.1961 71.2324 86.8696 71.1451 86.4717C71.1451 86.4375 71.1232 86.3007 71.0827 86.0613V82.7782C71.1264 82.6943 71.1576 82.6507 71.1763 82.6507L71.1794 82.6476ZM75.2961 82.6476H75.3741C75.3741 82.6476 75.4147 82.6725 75.4521 82.7254V86.1515C75.4521 87.0655 74.978 87.6593 74.0268 87.936C73.8428 87.9764 73.6837 87.9982 73.5528 87.9982C73.4935 87.9982 73.453 87.9733 73.4249 87.9205V87.8894C73.4249 87.7961 73.5528 87.7464 73.8054 87.7464C74.2139 87.6593 74.5352 87.507 74.7722 87.2894C75.0685 86.9785 75.2151 86.6054 75.2151 86.167V82.8031C75.2151 82.7222 75.24 82.6694 75.293 82.6445L75.2961 82.6476Z" fill="#1D1D1B"/>
<path d="M80.0055 82.6311C80.0522 82.6311 80.0959 82.6716 80.1333 82.7586C80.124 83.4799 80.1177 84.0146 80.1177 84.3691V87.9226C80.0928 87.9755 80.0491 88.0004 79.9899 88.0004C79.9462 87.991 79.9025 87.9413 79.862 87.8574V82.7742C79.8901 82.6995 79.9337 82.6529 79.9899 82.6311H80.0055ZM80.4015 82.6156H81.6054C81.6303 82.6343 81.752 82.6591 81.9703 82.6933C82.3632 82.8239 82.6439 83.0415 82.8092 83.34C82.9153 83.6322 82.9683 83.853 82.9683 84.0022V84.0644C82.9683 84.3287 82.8747 84.6147 82.6845 84.9163C82.3664 85.2645 81.9734 85.4386 81.5118 85.4386H80.4203C80.3267 85.423 80.2768 85.3795 80.2768 85.3111C80.2955 85.2645 80.3267 85.2272 80.3704 85.1992H81.4775C82.1137 85.1992 82.5161 84.9162 82.6813 84.3473C82.7032 84.2416 82.7125 84.1359 82.7125 84.0302C82.7125 83.4706 82.4537 83.1006 81.936 82.9265C81.752 82.883 81.5929 82.8643 81.4619 82.8643H80.4015C80.3173 82.8643 80.2737 82.8208 80.2737 82.7368V82.7213C80.2986 82.6809 80.3392 82.6436 80.4015 82.6094V82.6156Z" fill="#1D1D1B"/>
<path d="M41.6572 84.3633H0V85.2089H41.6572V84.3633Z" fill="#7EBA33"/>
<path d="M82.2352 10.7135L57.9717 4.16454C50.9689 2.27443 43.755 6.40129 41.8589 13.3821L35.9676 35.0729C34.0715 42.0538 38.2113 49.2451 45.2141 51.1352L69.4776 57.6842C76.4804 59.5743 83.6944 55.4474 85.5904 48.4666L91.4818 26.7758C93.3778 19.795 89.238 12.6036 82.2352 10.7135Z" fill="#1D1D1B"/>
<path d="M84.4963 8.51538L57.1321 1.12952C49.4576 -0.941885 41.5518 3.58081 39.4739 11.2312L32.8188 35.7339C30.7408 43.3843 35.2777 51.2654 42.9522 53.3368L70.3164 60.7227C77.9909 62.7941 85.8967 58.2714 87.9746 50.621L94.6298 26.1183C96.7077 18.4679 92.1708 10.5868 84.4963 8.51538Z" stroke="url(#paint0_linear_7869_139610)" stroke-width="4" stroke-miterlimit="10"/>
<path d="M81.2062 22.8583C81.0097 22.6127 80.8351 22.4075 80.6791 22.193C80.5357 21.994 80.3766 21.7919 80.2955 21.5681C80.2425 21.422 80.255 21.2012 80.3298 21.0644C80.5201 20.7162 80.5263 20.6323 80.2113 20.3898C79.0886 19.5192 78.7549 18.1855 79.2008 16.9885C79.5533 16.0465 80.3298 15.5553 81.306 15.4371C82.2946 15.319 83.1648 15.6144 83.7979 16.4227C84.5776 17.4145 84.4622 18.9845 83.5421 19.9732C83.3893 20.1379 83.2178 20.2903 83.0463 20.4395C82.8311 20.626 82.8186 20.7784 83.012 20.9836C83.2615 21.2447 83.249 21.4935 82.987 21.736C82.9122 21.8044 82.8685 21.907 82.8155 21.9971C82.7812 22.0593 82.7718 22.1588 82.7219 22.1899C82.4381 22.3484 82.3851 22.6562 82.2385 22.9329C82.304 22.9733 82.3788 23.0169 82.4506 23.0604C82.9995 23.3931 83.2958 23.8781 83.2895 24.5216C83.2802 25.2118 82.934 25.7124 82.3227 26.0108C82.1262 26.1072 82.0639 26.216 82.0639 26.4243C82.0701 28.2089 82.0639 29.9965 82.0701 31.7811C82.0701 31.9055 82.095 32.0329 82.1169 32.1573C82.1761 32.4589 82.0607 32.6547 81.7551 32.7169C81.6241 32.7449 81.4838 32.7418 81.3497 32.7418C77.3109 32.7418 73.2752 32.7418 69.2364 32.7418C68.9495 32.7418 68.806 32.8869 68.806 33.177C68.806 34.2372 68.8123 35.2974 68.7998 36.3575C68.7998 36.6187 68.8778 36.7058 69.1397 36.6995C69.8477 36.684 70.5588 36.6964 71.2667 36.6964C71.6566 36.6964 71.8 36.8301 71.8031 37.2125C71.8063 38.1825 71.8063 39.1525 71.8031 40.1225C71.8031 40.5049 71.6753 40.6511 71.2792 40.6604C70.3716 40.6822 69.461 40.679 68.5534 40.6853C68.2072 40.6853 68.1947 40.6977 68.1947 41.0335C68.1947 42.0221 68.201 43.0108 68.1916 43.9994C68.1916 44.2357 68.2665 44.3166 68.5066 44.3135C70.9892 44.3072 73.4717 44.3041 75.9542 44.3135C76.2318 44.3135 76.2599 44.1891 76.2599 43.9684C76.2536 41.3226 76.2567 38.6737 76.2599 36.028C76.2599 35.4901 76.3597 35.3906 76.893 35.3875C78.6582 35.3875 80.4203 35.3875 82.1855 35.3875C82.6627 35.3875 82.7812 35.5057 82.7812 35.9814C82.7812 37.396 82.7874 38.8105 82.7781 40.2251C82.7781 40.4645 82.8373 40.6013 83.0993 40.6231C83.2958 40.6386 83.4922 40.6977 83.6887 40.7319C83.9195 40.7692 84.0848 40.6822 84.1378 40.4459C84.1971 40.1909 84.2532 39.9329 84.2875 39.6717C84.3 39.5847 84.2563 39.479 84.2064 39.3981C84.1222 39.2582 84.0256 39.1214 83.9164 39.0064C83.5234 38.5929 83.5577 38.1203 83.7262 37.6384C83.7542 37.5607 83.9102 37.4612 83.9757 37.4799C84.2938 37.5701 84.3811 37.4239 84.4154 37.1503C84.4279 37.0571 84.4902 36.9234 84.562 36.8954C84.7585 36.8208 84.8988 36.97 84.8676 37.1845C84.852 37.2902 84.8146 37.3991 84.8208 37.5048C84.8208 37.5576 84.8926 37.6384 84.9456 37.6478C84.9924 37.6571 85.0891 37.6074 85.1078 37.5576C85.1577 37.4426 85.1795 37.3151 85.2044 37.1908C85.2356 37.0322 85.3292 37.0198 85.4664 37.0508C85.6005 37.085 85.6847 37.1317 85.6442 37.2902C85.6224 37.368 85.6192 37.4519 85.5974 37.5296C85.5413 37.7162 85.6192 37.8126 85.8001 37.825C86.0527 37.8436 86.0995 37.9742 86.0403 38.195C86.0028 38.3349 86.006 38.4903 85.9436 38.6178C85.8563 38.7981 85.7627 39.0344 85.6068 39.109C84.9674 39.4106 84.6306 39.8614 84.5651 40.5764C84.5246 41.0148 84.116 41.2293 83.6669 41.1547C83.4704 41.1236 83.2708 41.0863 83.0775 41.0366C82.8591 40.9806 82.7812 41.0521 82.7812 41.276C82.7874 42.3082 82.7812 43.3434 82.7812 44.3756C82.7812 44.4751 82.7812 44.5777 82.7687 44.6741C82.7094 45.0347 82.5629 45.1467 82.1668 45.1467C79.2195 45.1467 76.2754 45.1467 73.3282 45.1467C71.6628 45.1467 70.0005 45.1467 68.3351 45.1467C68.201 45.1467 68.0606 45.1591 67.9328 45.1933C67.546 45.2959 67.3153 45.1311 67.3153 44.7207C67.3121 43.5051 67.3153 42.2926 67.3153 41.077C67.3153 40.8096 67.1791 40.6759 66.9067 40.6759C64.8795 40.6759 62.8523 40.6759 60.822 40.6759C60.4665 40.6759 60.454 40.6884 60.4509 41.0428C60.4509 41.904 60.454 42.7652 60.4509 43.6264C60.4478 43.9963 60.4228 44.3663 60.401 44.7363C60.3854 44.9726 60.2138 45.128 59.9706 45.1436C59.8895 45.1498 59.8084 45.1436 59.7242 45.1436C55.0242 45.1436 50.3212 45.1436 45.6212 45.1436C45.0661 45.1436 44.9444 45.0254 44.9444 44.4782C44.9444 43.9715 44.9382 43.4616 44.9475 42.9548C44.9538 42.5817 45.2251 42.3672 45.5307 42.476C45.7647 42.56 45.8301 42.7558 45.8364 42.9735C45.8457 43.3186 45.8489 43.6637 45.8364 44.0057C45.8301 44.2109 45.8956 44.3041 46.114 44.2948C46.4851 44.2824 46.8593 44.2824 47.2336 44.2948C47.4581 44.3041 47.5143 44.2046 47.508 44.0026C47.4987 43.6481 47.5018 43.2968 47.508 42.9424C47.5112 42.6408 47.6546 42.4667 47.901 42.4481C48.1443 42.4294 48.3439 42.588 48.3688 42.874C48.4 43.244 48.3969 43.617 48.3906 43.987C48.3875 44.2046 48.453 44.301 48.6869 44.2917C49.0425 44.2761 49.3949 44.2824 49.7504 44.2917C49.9469 44.2979 50.0311 44.2264 50.0249 44.0243C50.0155 43.6792 49.9937 43.331 50.0342 42.9921C50.0561 42.8149 50.159 42.5973 50.2962 42.5009C50.5519 42.3175 50.895 42.5382 50.9075 42.8709C50.9231 43.2409 50.92 43.6139 50.9075 43.987C50.9012 44.2015 50.9605 44.2948 51.1975 44.2948C53.889 44.2886 56.5805 44.2886 59.272 44.2948C59.5059 44.2948 59.562 44.2046 59.562 43.9901C59.5527 42.9828 59.5527 41.9786 59.562 40.9713C59.562 40.7257 59.4685 40.6635 59.2408 40.6666C58.0775 40.6759 56.9142 40.6728 55.7478 40.6666C55.6137 40.6666 55.4733 40.6573 55.3424 40.6262C55.1053 40.5671 54.9962 40.3992 55.0242 40.1567C55.0523 39.9267 55.1989 39.8054 55.4234 39.7837C55.5326 39.7712 55.6418 39.7774 55.7509 39.7774C60.6629 39.7774 65.5719 39.7774 70.4839 39.7774C70.7688 39.7774 70.9112 39.6324 70.9112 39.3422C70.9112 38.8603 70.9018 38.3815 70.9143 37.8996C70.9205 37.6571 70.8457 37.5607 70.59 37.5669C69.935 37.5825 69.2801 37.5732 68.6251 37.5701C68.1355 37.5701 67.9109 37.3493 67.9109 36.8519C67.9109 34.5668 67.9109 32.2817 67.9109 29.9997C67.9109 29.6328 68.0731 29.44 68.3632 29.4431C68.6407 29.4431 68.7998 29.6079 68.8029 29.9188C68.8091 30.4629 68.8123 31.007 68.8029 31.551C68.7998 31.7593 68.8653 31.8402 69.0836 31.8402C73.0226 31.8371 76.9585 31.8371 80.8974 31.8402C81.1189 31.8402 81.1781 31.7531 81.1781 31.5479C81.1719 29.8162 81.175 28.0845 81.1781 26.3528C81.1781 26.1974 81.1501 26.0854 80.9816 26.0108C80.3329 25.7186 79.9774 25.2118 79.9743 24.4967C79.968 23.7692 80.3392 23.2687 80.991 22.9609C81.0378 22.9391 81.0846 22.9112 81.2062 22.8459V22.8583ZM77.1736 38.9567C77.1612 39.0779 77.1518 39.1308 77.1518 39.1836C77.1518 40.7941 77.1518 42.4076 77.1487 44.0181C77.1487 44.2513 77.2454 44.3072 77.4606 44.3072C78.8141 44.301 80.1677 44.3072 81.5212 44.3041C81.8861 44.3041 81.8892 44.3041 81.8892 43.9435C81.8892 42.476 81.8892 41.0086 81.8892 39.5412C81.8892 39.4541 81.8799 39.3702 81.8705 39.2334C81.1594 39.8552 80.3922 40.1878 79.4784 40.1412C78.549 40.0977 77.8192 39.6779 77.1768 38.9536L77.1736 38.9567ZM82.3664 20.9276C82.435 20.8281 82.4631 20.8064 82.4599 20.7846C82.4225 20.4177 82.6658 20.2374 82.9277 20.0602C83.0463 19.9794 83.1429 19.8675 83.2427 19.7617C84.1254 18.8073 84.2407 17.2279 83.1991 16.3263C81.9204 15.2164 79.7497 15.8569 79.4316 17.486C79.2133 18.599 79.6468 19.4944 80.5419 20.169C80.7103 20.2965 80.8444 20.4177 80.8226 20.654C80.8163 20.7131 80.9037 20.7846 80.9473 20.8468C80.9848 20.7846 81.0503 20.7224 81.0534 20.6571C81.0627 20.3027 81.0659 19.9483 81.0534 19.597C81.0503 19.5161 80.9598 19.4415 80.913 19.3607C80.8382 19.2301 80.7228 19.1026 80.7072 18.9658C80.6978 18.8881 80.8382 18.7513 80.938 18.7078C81.1126 18.6332 81.2655 18.714 81.384 18.8726C81.543 19.0871 81.7832 19.0591 81.9672 18.8664C82.0576 18.77 82.2323 18.6985 82.3601 18.7078C82.4599 18.7171 82.6221 18.8633 82.6252 18.9565C82.6315 19.0809 82.5192 19.2146 82.4506 19.342C82.4038 19.4291 82.3009 19.5099 82.2978 19.5939C82.279 19.9452 82.2884 20.2996 82.2915 20.654C82.2915 20.7162 82.3258 20.7784 82.3664 20.9214V20.9276ZM79.5377 36.2301C78.8391 36.2301 78.1405 36.2301 77.4419 36.2301C77.3171 36.2301 77.1581 36.2083 77.1612 36.398C77.1674 36.8052 77.1269 37.225 77.2173 37.6136C77.6103 39.2831 79.5127 40.051 80.966 39.137C81.5555 38.7639 81.9921 38.2789 81.8954 37.4923C81.858 37.1814 81.8767 36.8581 81.8954 36.5441C81.9079 36.3109 81.8268 36.2239 81.5867 36.227C80.9068 36.2394 80.2238 36.2301 79.5439 36.2301H79.5377ZM81.6522 25.2709C82.0701 25.2709 82.4194 24.9227 82.4225 24.5154C82.4225 24.0957 82.0389 23.7164 81.6179 23.7195C81.1937 23.7226 80.8569 24.0801 80.8631 24.5154C80.8694 24.9507 81.2062 25.274 81.6491 25.2709H81.6522ZM81.9329 20.1504C81.9329 19.9794 81.9266 19.8053 81.9329 19.6343C81.9391 19.4415 81.8268 19.4135 81.6709 19.4135C81.5087 19.4135 81.412 19.4571 81.4151 19.6436C81.4214 19.9607 81.4245 20.2778 81.4151 20.595C81.4089 20.7908 81.4744 20.8717 81.6802 20.8717C81.8954 20.8717 81.9453 20.7722 81.936 20.5856C81.9266 20.4426 81.936 20.2965 81.936 20.1504H81.9329ZM81.6958 21.4593C81.9952 21.4593 82.2946 21.4655 82.594 21.453C82.6595 21.453 82.7188 21.3815 82.7812 21.3442C82.7188 21.3038 82.6564 21.2261 82.594 21.2261C82.0046 21.2168 81.4151 21.2168 80.8226 21.2261C80.754 21.2261 80.6885 21.3131 80.623 21.3567C80.6885 21.3909 80.754 21.4499 80.8226 21.453C81.1126 21.4624 81.4027 21.4562 81.6927 21.4562L81.6958 21.4593ZM85.4009 38.4934C85.4383 38.4592 85.5132 38.4188 85.5319 38.3597C85.5444 38.3193 85.4851 38.2167 85.4415 38.2074C85.0547 38.1203 84.6649 38.0457 84.2719 37.9804C84.222 37.9711 84.1597 38.0364 84.1004 38.0675C84.1378 38.1297 84.1659 38.2354 84.2189 38.2478C84.5963 38.338 84.9768 38.4095 85.4009 38.4965V38.4934ZM81.7146 21.8168C81.5337 21.8168 81.3528 21.8075 81.175 21.8199C81.1158 21.823 81.0627 21.8821 81.0035 21.9163C81.0503 21.9598 81.097 22.0406 81.1469 22.0437C81.515 22.0531 81.8861 22.0531 82.2541 22.0437C82.304 22.0437 82.3508 21.9629 82.3976 21.9194C82.3414 21.8852 82.2853 21.8292 82.226 21.823C82.0545 21.8106 81.883 21.8199 81.7114 21.8199L81.7146 21.8168ZM85.0984 38.8727C84.8208 38.8168 84.5932 38.7732 84.3343 38.7204C84.5433 39.2396 84.6462 39.2613 85.0984 38.8727ZM81.3996 22.451C81.3996 22.4852 81.3996 22.5225 81.3996 22.5567C81.6054 22.622 81.8081 22.6469 82.0015 22.535C82.0015 22.507 82.0015 22.479 82.0015 22.451H81.3996Z" fill="white"/>
<path d="M66.3703 21.6834C66.3703 21.2793 66.3796 20.9311 66.3703 20.5829C66.3547 20.1414 66.3079 19.6968 66.2923 19.2553C66.2798 18.8698 66.573 18.5776 66.9566 18.5838C67.4837 18.59 68.0107 18.5962 68.5347 18.6335C68.8372 18.6553 68.9433 18.8356 68.9401 19.1341C68.9277 20.3839 68.9214 21.6368 68.9308 22.8866C68.9308 22.9985 69.0431 23.154 69.1491 23.21C70.9049 24.18 72.6702 25.1375 74.4323 26.0982C74.7691 26.2816 74.8689 26.5055 74.7597 26.8039C74.6724 27.0371 74.4978 27.0962 74.2638 27.0962C72.9353 27.09 71.6098 27.0962 70.2812 27.0962C69.8165 27.0962 69.3549 27.0962 68.8902 27.0962C68.5253 27.0962 68.3538 26.9563 68.3538 26.6703C68.3538 26.3967 68.5409 26.2537 68.9027 26.2537C70.1471 26.2537 71.3946 26.2537 72.639 26.2537H72.7731C72.7731 26.2537 72.7856 26.2226 72.7918 26.207C72.3801 25.9925 71.9684 25.7811 71.5599 25.5604C70.5307 24.9976 69.5046 24.4349 68.4817 23.8597C68.1792 23.6887 68.0139 23.4214 68.017 23.0576C68.0232 21.9974 68.017 20.9373 68.017 19.8771C68.017 19.616 67.887 19.4843 67.6271 19.4823C67.5024 19.4823 67.3745 19.4823 67.2311 19.4823C67.2311 19.8554 67.2186 20.2036 67.2311 20.5518C67.256 21.1953 67.2934 21.8358 67.3277 22.4762C67.3371 22.6814 67.2841 22.8524 67.0876 22.955C66.8849 23.0607 66.7383 22.955 66.5636 22.8555C65.8494 22.4389 65.1259 22.0441 64.4023 21.643C64.0125 21.4285 63.6164 21.2233 63.2328 20.9995C63.0706 20.9062 62.9365 20.9155 62.7775 21.0088C60.5444 22.3021 58.3083 23.5892 56.0753 24.8795C55.4141 25.2619 54.7498 25.6381 54.0886 26.0174C54.0138 26.0609 53.942 26.1106 53.8859 26.207H54.1759C55.2675 26.207 56.3591 26.207 57.4506 26.207C57.6783 26.207 57.9029 26.2163 58.1305 26.2288C58.3831 26.2412 58.5422 26.4091 58.5547 26.6734C58.5609 26.8257 58.5516 26.9812 58.5516 27.1366C58.5516 30.3731 58.5516 33.6095 58.5516 36.846C58.5516 37.4336 58.3925 37.5953 57.8124 37.5953C57.067 37.5953 56.3216 37.5953 55.5763 37.5953C55.333 37.5953 55.1147 37.5331 55.043 37.2688C54.9525 36.9393 55.1521 36.7123 55.5482 36.7061C56.147 36.6968 56.7489 36.6905 57.3477 36.7061C57.619 36.7123 57.7126 36.6377 57.7095 36.3579C57.6939 35.2697 57.6939 34.1816 57.7095 33.0934C57.7126 32.8136 57.6159 32.7421 57.3477 32.7421C53.5272 32.7483 49.7099 32.7483 45.8894 32.7452C45.5806 32.7452 45.275 32.739 44.9663 32.7204C44.7542 32.711 44.5982 32.6053 44.5577 32.3877C44.5296 32.2385 44.5172 32.083 44.5172 31.9276C44.5172 29.173 44.5172 26.4153 44.5172 23.6608C44.5172 23.4245 44.539 23.1913 44.5608 22.955C44.5858 22.697 44.7635 22.5571 45.0848 22.554C45.6399 22.5477 46.195 22.5415 46.7502 22.554C47.0059 22.5602 47.0808 22.4669 47.0714 22.2213C47.0496 21.5777 47.1431 21.6492 46.5069 21.6461C45.3623 21.6461 44.2146 21.6461 43.0701 21.6461C42.465 21.6461 42.2904 21.3632 42.5461 20.8098C43.148 19.5103 43.7499 18.2107 44.3456 16.908C44.5203 16.5256 44.7729 16.3329 45.2282 16.336C47.7014 16.3546 50.1746 16.3453 52.6477 16.3453C53.1062 16.3453 53.1062 16.3733 53.2965 16.7992C53.6239 17.536 53.9826 18.2604 54.3288 18.9879C54.6157 19.5849 54.9057 20.1787 55.1927 20.7756C55.439 21.2948 55.2145 21.6461 54.6282 21.6461C53.4992 21.6492 52.3733 21.6523 51.2443 21.643C50.9823 21.643 50.8701 21.7239 50.9044 21.985C50.9044 22.0037 50.9044 22.0223 50.9044 22.0379C50.9044 22.6441 50.9168 22.5415 51.3971 22.5508C51.7215 22.5571 51.9117 22.6908 51.9429 22.9301C51.9803 23.2006 51.8119 23.4151 51.5375 23.4369C51.3659 23.4493 51.1913 23.4431 51.0198 23.4431C49.2639 23.4431 47.5112 23.4493 45.7553 23.4369C45.4871 23.4369 45.3935 23.5053 45.3935 23.7882C45.4029 26.3625 45.4029 28.9367 45.3935 31.511C45.3935 31.769 45.4621 31.8561 45.7304 31.8529C49.6132 31.8467 53.4961 31.8467 57.3789 31.8529C57.6315 31.8529 57.7064 31.7752 57.7033 31.5265C57.6939 30.1586 57.6908 28.7875 57.7033 27.4195C57.7033 27.1522 57.6128 27.0838 57.3571 27.0838C55.7384 27.0931 54.1198 27.0838 52.5012 27.09C52.233 27.09 51.9803 27.0775 51.8712 26.7822C51.787 26.5583 51.9492 26.2226 52.2361 26.0547C52.8224 25.7065 53.415 25.3707 54.0044 25.0318C56.6647 23.4991 59.3281 21.9695 61.9884 20.4367C62.2099 20.3093 62.4344 20.1942 62.6496 20.0574C62.9147 19.8896 63.1611 19.9269 63.4199 20.073C64.3088 20.5704 65.1976 21.0616 66.0896 21.5529C66.1582 21.5902 66.2331 21.6213 66.3609 21.6803L66.3703 21.6834ZM48.8273 20.757C49.2826 20.757 49.7348 20.757 50.1902 20.757C50.265 20.757 50.4054 20.7197 50.4054 20.6979C50.4054 20.53 50.4022 20.3528 50.3461 20.1973C50.3243 20.1321 50.1715 20.0823 50.0779 20.0823C49.5602 20.0699 49.0425 20.0761 48.5248 20.0761C48.216 20.0761 47.9072 20.073 47.5985 20.0761C47.3646 20.0823 47.2679 20.244 47.271 20.5953C47.2741 20.8254 47.455 20.7539 47.5704 20.757C47.9883 20.7663 48.4062 20.7601 48.8242 20.757H48.8273ZM51.2724 20.073C51.2817 20.1942 51.2849 20.2657 51.2911 20.3372C51.3316 20.757 51.3348 20.757 51.7464 20.757C52.445 20.757 53.1467 20.757 53.8454 20.757C53.9389 20.757 54.0325 20.7414 54.1292 20.7321C54.0169 20.1569 53.9202 20.073 53.3994 20.073C53.1811 20.073 52.9627 20.073 52.7444 20.073H51.2693H51.2724ZM48.9801 21.6523C48.8335 21.6523 48.69 21.6523 48.5435 21.6523C47.8885 21.6523 47.901 21.6523 47.954 22.2928C47.9727 22.5166 48.0694 22.5633 48.2659 22.5571C48.637 22.5477 49.0113 22.5571 49.3855 22.554C50.1122 22.5415 50.0124 22.6908 50.0186 21.8638C50.0186 21.7145 49.95 21.6523 49.8034 21.6523C49.5321 21.6555 49.2577 21.6523 48.9863 21.6523H48.9801ZM43.6065 20.7539C44.4797 20.7539 45.3405 20.7539 46.2013 20.7476C46.2543 20.7476 46.3385 20.6792 46.3541 20.6295C46.4009 20.4616 46.4196 20.2844 46.457 20.073H46.1108C45.5557 20.073 45.0006 20.073 44.4454 20.073C44.0233 20.073 43.7437 20.272 43.6065 20.6699C43.6065 20.6699 43.6065 20.6886 43.6065 20.7539ZM50.1746 19.1807C50.1933 18.6304 50.1746 18.6086 49.6787 18.6086C49.4791 18.6086 49.2795 18.6086 49.0799 18.6086C48.6807 18.6086 48.2815 18.6086 47.8823 18.6086C47.6359 18.6086 47.5392 18.733 47.5486 19.0221C47.5548 19.2522 47.7357 19.1745 47.8542 19.1776C48.1817 19.1869 48.506 19.1807 48.8335 19.1807C49.2764 19.1807 49.7192 19.1807 50.1746 19.1807ZM44.3456 19.1652C44.4641 19.1714 44.5608 19.1807 44.6575 19.1807C45.1846 19.1807 45.7116 19.1807 46.2356 19.1807C46.6441 19.1807 46.7377 19.0595 46.6535 18.6304C46.6379 18.6242 46.6192 18.6149 46.6036 18.6149C46.0516 18.6149 45.4964 18.6118 44.9444 18.6086C44.4984 18.6086 44.4298 18.6677 44.3456 19.1652ZM53.4056 19.1776C53.2403 18.6273 53.2185 18.6086 52.7288 18.6086C52.5105 18.6086 52.2922 18.6086 52.0739 18.6086C51.7402 18.6086 51.4065 18.6086 51.0322 18.6086C51.1196 18.8356 50.9543 19.1527 51.288 19.1683C51.9835 19.1994 52.6821 19.1776 53.4056 19.1776ZM49.9937 17.763C49.9282 17.5392 50.0685 17.2345 49.7785 17.2127C49.1922 17.1692 48.5965 17.1847 48.007 17.2065C47.7794 17.2158 47.8293 17.4521 47.8199 17.5982C47.8199 17.648 47.954 17.7537 48.032 17.7568C48.4405 17.7723 48.8491 17.7661 49.2608 17.7661C49.4947 17.7661 49.7286 17.7661 49.9968 17.7661L49.9937 17.763ZM44.9912 17.7568C45.5962 17.7568 46.1732 17.7754 46.7471 17.7475C46.9841 17.735 46.8936 17.4739 46.9311 17.3246C46.9373 17.3029 46.7783 17.2034 46.694 17.2003C46.3416 17.1847 45.9861 17.1941 45.6337 17.1941C45.1471 17.1941 45.1284 17.2096 44.9912 17.7568ZM52.6914 17.7568C52.7132 17.7226 52.7382 17.6884 52.76 17.6542C52.6259 17.5018 52.5043 17.2376 52.3546 17.222C51.8649 17.1661 51.3659 17.2003 50.8482 17.2003C50.8825 17.421 50.764 17.7195 51.0447 17.7443C51.5874 17.7941 52.1394 17.7599 52.6883 17.7599L52.6914 17.7568Z" fill="white"/>
<path d="M49.5883 40.9114C49.4105 41.045 49.2733 41.1787 49.108 41.2627C48.8055 41.4181 48.5372 41.2875 48.4686 40.958C48.4063 40.6564 48.3813 40.3486 48.3314 40.0471C48.2503 39.5527 48.0726 39.105 47.6921 38.7568C47.6546 38.7226 47.611 38.7009 47.5392 38.648C47.6203 38.9931 47.7014 39.2978 47.7638 39.6025C47.8386 39.9631 47.7607 40.3082 47.5923 40.6284C47.2929 41.1943 46.7377 41.2627 46.3011 40.7963C46.2169 40.7062 46.1483 40.6005 46.0547 40.4792C46.114 41.3559 46.5444 41.956 47.3396 42.3633C46.4196 42.3757 45.4091 41.6264 45.1004 40.7715C44.8883 40.1839 44.985 38.6449 45.4528 38.4024C45.4902 38.6169 45.5027 38.8346 45.5651 39.0335C45.6493 39.3133 45.8614 39.4253 46.1608 39.388C46.4165 39.3538 46.613 39.161 46.6348 38.9029C46.6442 38.7693 46.6348 38.6325 46.613 38.4988C46.5631 38.1941 46.4913 37.8956 46.4477 37.591C46.3292 36.7546 46.6161 36.08 47.2835 35.5608C47.3303 35.5235 47.3927 35.5079 47.5049 35.4551C47.48 35.5857 47.4582 35.6665 47.4488 35.7473C47.3989 36.1484 47.3085 36.5526 47.3116 36.9536C47.3178 37.5941 47.7638 38.0511 48.3189 38.0604C48.793 38.0697 49.0425 37.8832 49.161 37.42C49.1828 37.3329 49.2047 37.2459 49.2421 37.0997C49.5228 37.3733 49.6444 37.6842 49.6319 38.0138C49.6195 38.3433 49.5134 38.6698 49.4479 38.9962C49.4167 39.1548 49.37 39.3133 49.3481 39.475C49.3076 39.7828 49.4916 40.0533 49.7692 40.1155C50.0748 40.1839 50.3617 40.0315 50.4522 39.7237C50.5177 39.4999 50.5426 39.2636 50.5863 39.0273C50.9293 39.447 50.9418 40.5041 50.6206 41.1166C50.2276 41.8658 49.161 42.4659 48.2628 42.3912C48.9458 42.0741 49.5321 41.7352 49.582 40.9082L49.5883 40.9114Z" fill="#64AADA"/>
<path d="M64.0874 34.9279C63.9221 34.0947 63.7536 33.2615 63.5884 32.4283C63.5728 32.3568 63.5603 32.2853 63.554 32.2138C63.5385 31.9806 63.6445 31.8531 63.8878 31.8531C64.2589 31.8531 64.63 31.8531 65.0885 31.8531C64.3181 30.8054 63.5946 29.8167 62.871 28.8312C62.8554 28.8374 62.843 28.8405 62.8274 28.8467C62.8367 28.912 62.8398 28.9773 62.8554 29.0395C62.9833 29.5587 63.1174 30.0779 63.2422 30.5971C63.2702 30.709 63.3077 30.8365 63.2796 30.9422C63.2546 31.0386 63.1642 31.1754 63.0831 31.1878C62.9833 31.2033 62.8523 31.1318 62.7588 31.0634C62.7026 31.023 62.6901 30.9204 62.6714 30.8396C62.3939 29.7421 62.1163 28.6415 61.845 27.541C61.7982 27.3544 61.7358 27.1461 61.9666 27.0404C62.2005 26.9347 62.3377 27.1057 62.4594 27.2736C62.9708 27.9669 63.4823 28.6602 63.9938 29.3535C64.5708 30.1339 65.1446 30.9173 65.7185 31.6977C65.7777 31.7785 65.8401 31.8562 65.89 31.9433C66.0303 32.1982 65.9243 32.3972 65.628 32.4065C65.2818 32.4159 64.9357 32.4065 64.5926 32.4096C64.2027 32.4096 64.1934 32.4221 64.2682 32.7889C64.5115 34.0077 64.7548 35.2233 64.998 36.442C65.0355 36.6254 65.1103 36.8337 64.867 36.9363C64.6082 37.0451 64.4834 36.8586 64.3743 36.6752C63.4761 35.2046 62.5779 33.7341 61.6828 32.2604C61.4925 31.9495 61.3023 31.6417 61.1152 31.3339C60.9405 31.0417 60.9405 30.8614 61.1152 30.7588C61.2867 30.6562 61.4707 30.7463 61.636 31.0168C62.2223 31.9775 62.8055 32.9382 63.3919 33.8988C63.6039 34.247 63.8191 34.5921 64.0343 34.9372C64.053 34.9341 64.0718 34.9279 64.0905 34.9248L64.0874 34.9279Z" fill="#EF7B08"/>
<path d="M79.625 43.1973C79.5938 43.0294 79.5657 42.8616 79.5314 42.6937C79.469 42.3724 79.6073 42.1745 79.9462 42.0999C79.7404 41.8014 79.547 41.5185 79.3256 41.1951C79.2383 41.4687 79.5127 41.7174 79.2663 41.9817C79.2164 41.8822 79.1665 41.8107 79.1478 41.7361C79.0543 41.3661 78.9638 40.9962 78.8858 40.6262C78.8702 40.5578 78.9014 40.477 78.9108 40.4023C78.9856 40.4365 79.0886 40.4552 79.1322 40.5112C79.3911 40.8625 79.6343 41.2231 79.8838 41.5775C80.0024 41.7485 80.1271 41.9164 80.2425 42.0905C80.3797 42.2988 80.3392 42.3859 80.1022 42.4139C79.731 42.4574 79.731 42.4574 79.8059 42.8274C79.8714 43.1662 79.94 43.502 79.993 43.844C80.0055 43.9186 79.9556 43.9994 79.9337 44.0803C79.8714 44.0399 79.7809 44.0119 79.7466 43.9528C79.3724 43.3217 79.0075 42.6843 78.6488 42.0439C78.6145 41.9817 78.6488 41.8822 78.6551 41.7983C78.7205 41.8449 78.811 41.876 78.8484 41.9382C79.101 42.3579 79.3381 42.7838 79.5844 43.2067C79.6 43.2035 79.6156 43.2004 79.6343 43.1973H79.625Z" fill="#87BF57"/>
<path d="M83.6233 17.1501C83.5952 17.1812 83.5546 17.2652 83.5016 17.2714C83.433 17.2807 83.3207 17.2589 83.2895 17.2092C83.0494 16.8423 82.7219 16.5781 82.3446 16.3636C82.2915 16.3325 82.2572 16.2081 82.2728 16.1428C82.2853 16.0993 82.4038 16.0464 82.4693 16.0558C82.7781 16.09 83.5359 16.7708 83.6045 17.06C83.6077 17.0786 83.6108 17.0942 83.6233 17.1501Z" fill="black"/>
<path d="M79.5876 38.7234C79.2071 38.7234 78.8235 38.7297 78.443 38.7234C78.0064 38.7172 77.8504 38.5587 77.8442 38.1327C77.8442 37.769 77.838 37.4083 77.8442 37.0446C77.8504 36.6871 78.0095 36.5316 78.365 36.5285C79.1821 36.5254 79.9993 36.5285 80.8195 36.5254C81.0971 36.5254 81.306 36.6435 81.331 36.9078C81.3746 37.3431 81.4027 37.7907 81.3528 38.2229C81.3091 38.6115 81.1251 38.7141 80.7291 38.7203C80.3486 38.7266 79.965 38.7203 79.5845 38.7203L79.5876 38.7234ZM79.6406 37.8312C79.8683 37.8312 80.0959 37.8467 80.3174 37.8218C80.3891 37.8125 80.4983 37.7006 80.5014 37.6353C80.5014 37.5669 80.3985 37.4332 80.3361 37.4301C79.8652 37.4115 79.3942 37.4115 78.9264 37.4301C78.8609 37.4301 78.7549 37.5607 78.7549 37.6322C78.7549 37.6975 78.8672 37.8156 78.9358 37.8218C79.1697 37.8467 79.4067 37.8312 79.6406 37.8312Z" fill="white"/>
<path d="M127.997 84.3633H86.3397V85.2089H127.997V84.3633Z" fill="#F39C50"/>
<path d="M68.3444 72.7932C69.5545 70.9651 70.7022 69.2179 71.878 67.4862C72.0152 67.2841 72.3333 67.0229 72.5142 67.0602C72.9352 67.1473 72.8635 67.539 72.7855 67.8748C72.0433 71.0429 71.301 74.2109 70.5587 77.3759C70.487 77.6837 70.3997 78.0443 69.9724 77.9168C69.5919 77.8049 69.62 77.4816 69.7011 77.1458C70.2157 74.9788 70.7178 72.8088 71.223 70.6418C71.2667 70.4615 71.2885 70.2749 71.223 70.048C70.6679 70.8812 70.1128 71.7144 69.5576 72.5476C69.3861 72.8056 69.2146 73.0668 69.043 73.3249C68.5752 74.0244 68.4567 74.0368 67.8641 73.4492C67.518 73.1072 67.1718 72.7683 66.8256 72.4295C66.8162 72.4201 66.7882 72.4263 66.6915 72.417C66.4139 74.3322 66.1363 76.2504 65.8588 78.1718C65.9024 78.1904 65.9461 78.2091 65.9866 78.2277C66.3796 77.5748 66.7726 76.9251 67.1655 76.2722C67.3059 76.039 67.3994 75.7592 67.5897 75.582C67.755 75.4296 68.0263 75.3954 68.2509 75.3084C68.282 75.5447 68.4224 75.8431 68.3288 76.0079C67.5554 77.3759 66.7414 78.7158 65.9399 80.0683C65.8026 80.3014 65.6935 80.5626 65.5188 80.7616C65.3847 80.9139 65.1633 80.9854 64.9793 81.0942C64.8701 80.8704 64.6518 80.6372 64.6736 80.4289C64.7859 79.3501 64.9606 78.2775 65.1165 77.2049C65.3754 75.4017 65.6342 73.5984 65.9056 71.7983C65.9336 71.6149 65.9929 71.419 66.0927 71.2667C66.2798 70.9776 66.5012 70.8905 66.7882 71.2014C67.2747 71.7268 67.7893 72.2274 68.3538 72.7994L68.3444 72.7932Z" fill="#F08118"/>
<path d="M102.358 63.1039C102.429 63.7288 102.56 64.3538 102.557 64.9756C102.554 65.5725 102.373 66.244 101.849 66.387C101.512 66.4772 101.098 66.1632 100.705 66.0264C100.736 66.9062 101.225 67.5933 101.843 68.2058C100.879 68.0255 100.14 67.4254 99.7347 66.3684C99.2669 65.1528 99.3667 63.9309 99.9904 62.7619C100.003 62.9019 100.006 63.0449 100.025 63.1848C100.106 63.8532 100.387 64.1703 100.826 64.0397C101.303 63.8967 101.403 63.4739 101.322 62.936C101.238 62.3795 101.16 61.823 101.094 61.2665C100.97 60.1846 101.419 59.1213 102.211 58.5586C102.158 59.1835 102.021 59.8364 102.071 60.4706C102.108 60.9494 102.295 61.4904 102.56 61.8479C103.081 62.5536 103.836 62.3049 104.107 61.4189C104.157 61.2603 104.198 61.0986 104.257 60.8717C104.731 61.5121 104.684 62.2023 104.581 62.8956C104.522 63.2967 104.435 63.6884 104.357 64.0864C104.251 64.6336 104.444 64.9818 104.874 65.0968C105.314 65.2149 105.529 64.8792 105.632 64.4128C105.685 64.1828 105.716 63.9434 105.776 63.5952C106.577 66.3653 105.136 68.2276 103.221 68.327C103.936 67.8514 104.569 67.3695 104.625 66.3186C104.575 66.3062 104.541 66.2813 104.519 66.2938C104.226 66.4399 103.936 66.5922 103.646 66.7415C103.527 66.3839 103.337 66.0357 103.303 65.6689C103.206 64.6833 103.069 63.7413 102.398 63.0604C102.376 63.0324 102.354 63.0076 102.336 62.9796C102.345 63.0231 102.351 63.0666 102.361 63.1102L102.358 63.1039Z" fill="#5BB1E4"/>
<path d="M0.639367 72.4492C1.0105 71.7559 1.53757 71.2181 2.21746 70.8294C2.90047 70.4439 3.68327 70.248 4.569 70.248C5.69487 70.248 6.63985 70.5465 7.40707 71.1465C8.17428 71.7466 8.66705 72.558 8.8916 73.5871H6.19387C6.0317 73.2482 5.80715 72.9871 5.52334 72.8099C5.23641 72.6326 4.90583 72.5425 4.53157 72.5425C3.95149 72.5425 3.48991 72.7477 3.14373 73.1612C2.79755 73.5747 2.62601 74.125 2.62601 74.812C2.62601 75.4991 2.79755 76.0619 3.14373 76.4754C3.48991 76.8889 3.95149 77.094 4.53157 77.094C4.90583 77.094 5.23641 77.0039 5.52334 76.8267C5.81026 76.6495 6.0317 76.3883 6.19387 76.0494H8.8916C8.67016 77.0785 8.17428 77.89 7.40707 78.49C6.63985 79.09 5.69487 79.3885 4.569 79.3885C3.68327 79.3885 2.89735 79.1957 2.21746 78.8071C1.53445 78.4216 1.0105 77.8806 0.639367 77.1873C0.268235 76.494 0.0842285 75.7012 0.0842285 74.8089C0.0842285 73.9167 0.268235 73.1363 0.639367 72.443V72.4492Z" fill="#1D1D1B"/>
<path d="M20.6119 70.9068C21.3229 71.2861 21.8718 71.8147 22.2554 72.4924C22.639 73.1702 22.8324 73.9505 22.8324 74.8242C22.8324 75.6978 22.639 76.4657 22.2492 77.1435C21.8625 77.8243 21.3105 78.356 20.5994 78.7446C19.8883 79.1301 19.0618 79.326 18.1262 79.326H14.5583V70.3379H18.1262C19.0712 70.3379 19.9008 70.5275 20.6119 70.9068ZM19.6606 76.5217C20.0785 76.1206 20.2875 75.5579 20.2875 74.8273C20.2875 74.0967 20.0785 73.5153 19.6606 73.1142C19.2427 72.71 18.6689 72.508 17.936 72.508H17.0658V77.1217H17.936C18.6689 77.1217 19.2458 76.9227 19.6606 76.5217Z" fill="#1D1D1B"/>
<path d="M35.5975 72.4492C35.9686 71.7559 36.4957 71.2181 37.1756 70.8294C37.8586 70.4439 38.6414 70.248 39.5271 70.248C40.653 70.248 41.598 70.5465 42.3652 71.1465C43.1324 71.7466 43.6252 72.558 43.8497 73.5871H41.152C40.9898 73.2482 40.7653 72.9871 40.4815 72.8099C40.1945 72.6326 39.864 72.5425 39.4897 72.5425C38.9096 72.5425 38.448 72.7477 38.1019 73.1612C37.7557 73.5747 37.5841 74.125 37.5841 74.812C37.5841 75.4991 37.7557 76.0619 38.1019 76.4754C38.448 76.8889 38.9096 77.094 39.4897 77.094C39.864 77.094 40.1945 77.0039 40.4815 76.8267C40.7684 76.6495 40.9898 76.3883 41.152 76.0494H43.8497C43.6283 77.0785 43.1324 77.89 42.3652 78.49C41.598 79.09 40.653 79.3885 39.5271 79.3885C38.6414 79.3885 37.8555 79.1957 37.1756 78.8071C36.4926 78.4216 35.9686 77.8806 35.5975 77.1873C35.2264 76.494 35.0424 75.7012 35.0424 74.8089C35.0424 73.9167 35.2264 73.1363 35.5975 72.443V72.4492Z" fill="#1D1D1B"/>
<path d="M51.5094 78.8228C50.8014 78.4279 50.2401 77.8807 49.8284 77.1781C49.4167 76.4755 49.2078 75.6858 49.2078 74.7997C49.2078 73.9137 49.4136 73.124 49.8284 72.4214C50.2432 71.7187 50.8014 71.1746 51.5094 70.7829C52.2174 70.3912 52.9939 70.1953 53.836 70.1953C54.6781 70.1953 55.4671 70.3912 56.1688 70.7829C56.8706 71.1746 57.4288 71.7187 57.8374 72.4214C58.2459 73.124 58.4518 73.9137 58.4518 74.7997C58.4518 75.6858 58.2459 76.4755 57.8374 77.1781C57.4288 77.8807 56.8705 78.4279 56.1626 78.8228C55.4546 79.2176 54.6781 79.4166 53.836 79.4166C52.9939 79.4166 52.2174 79.2176 51.5094 78.8228ZM55.3517 76.4724C55.7228 76.0558 55.9069 75.4993 55.9069 74.8028C55.9069 74.1064 55.7228 73.525 55.3517 73.1147C54.9806 72.7012 54.4753 72.496 53.836 72.496C53.1967 72.496 52.6821 72.7012 52.314 73.1147C51.946 73.5282 51.7651 74.0909 51.7651 74.8028C51.7651 75.5148 51.9492 76.0682 52.314 76.4786C52.6789 76.8921 53.1873 77.0973 53.836 77.0973C54.4847 77.0973 54.9806 76.889 55.3517 76.4724Z" fill="#1D1D1B"/>
<path d="M78.7081 78.6704C78.0344 78.173 77.6726 77.461 77.6196 76.5345H80.2924C80.3174 76.8486 80.4109 77.0786 80.5731 77.2216C80.7353 77.3646 80.9442 77.4393 81.2 77.4393C81.4307 77.4393 81.621 77.3833 81.7676 77.2683C81.9173 77.1532 81.9921 76.9947 81.9921 76.7895C81.9921 76.5252 81.8674 76.3231 81.621 76.177C81.3746 76.0309 80.9723 75.8723 80.4203 75.692C79.8308 75.4961 79.3568 75.3065 78.995 75.1231C78.6332 74.9396 78.3182 74.6723 78.05 74.3209C77.7818 73.9696 77.6477 73.5064 77.6477 72.9374C77.6477 72.3685 77.7912 71.8648 78.0812 71.4513C78.3712 71.0379 78.7705 70.7269 79.2819 70.5155C79.7934 70.3041 80.3735 70.1953 81.0222 70.1953C82.0701 70.1953 82.909 70.4409 83.5359 70.929C84.1628 71.4171 84.4965 72.1042 84.5402 72.9872H81.8175C81.8081 72.7167 81.727 72.5115 81.568 72.3747C81.4089 72.2379 81.2062 72.1695 80.9598 72.1695C80.7727 72.1695 80.6199 72.2255 80.4982 72.3343C80.3797 72.4462 80.3205 72.6017 80.3205 72.8069C80.3205 72.9779 80.386 73.124 80.5201 73.2483C80.6511 73.3727 80.8164 73.4784 81.0128 73.5655C81.2093 73.6525 81.4994 73.7675 81.883 73.9043C82.4537 74.1002 82.9246 74.293 83.2958 74.4857C83.6669 74.6785 83.985 74.9459 84.2563 75.2878C84.5277 75.6298 84.6587 76.0682 84.6587 76.5936C84.6587 77.119 84.5246 77.6103 84.2563 78.0331C83.9881 78.4559 83.6014 78.7948 83.093 79.0404C82.5847 79.286 81.9859 79.4104 81.2966 79.4104C80.2487 79.4104 79.388 79.1616 78.7143 78.6642L78.7081 78.6704Z" fill="#1D1D1B"/>
<path d="M92.7986 72.3401V73.8044H95.6741V75.704H92.7986V77.3238H96.0608V79.326H90.2943V70.3379H96.0608V72.3401H92.7986Z" fill="#1D1D1B"/>
<path d="M104.282 70.3379V79.326H101.774V70.3379H104.282Z" fill="#1D1D1B"/>
<path d="M112.696 77.414H115.497V79.326H110.192V70.3379H112.699V77.4108L112.696 77.414Z" fill="#1D1D1B"/>
<path d="M121.759 78.6704C121.086 78.173 120.724 77.461 120.671 76.5345H123.344C123.369 76.8486 123.462 77.0786 123.624 77.2216C123.787 77.3646 123.996 77.4393 124.251 77.4393C124.482 77.4393 124.672 77.3833 124.819 77.2683C124.969 77.1532 125.043 76.9947 125.043 76.7895C125.043 76.5252 124.919 76.3231 124.672 76.177C124.426 76.0309 124.024 75.8723 123.472 75.692C122.882 75.4961 122.408 75.3065 122.046 75.1231C121.685 74.9396 121.37 74.6723 121.101 74.3209C120.833 73.9696 120.699 73.5064 120.699 72.9374C120.699 72.3685 120.842 71.8648 121.133 71.4513C121.423 71.0379 121.822 70.7269 122.333 70.5155C122.845 70.3041 123.425 70.1953 124.074 70.1953C125.121 70.1953 125.96 70.4409 126.587 70.929C127.214 71.4171 127.548 72.1042 127.591 72.9872H124.869C124.859 72.7167 124.778 72.5115 124.619 72.3747C124.46 72.2379 124.258 72.1695 124.011 72.1695C123.824 72.1695 123.671 72.2255 123.55 72.3343C123.431 72.4462 123.372 72.6017 123.372 72.8069C123.372 72.9779 123.437 73.124 123.571 73.2483C123.702 73.3727 123.868 73.4784 124.064 73.5655C124.261 73.6525 124.551 73.7675 124.934 73.9043C125.505 74.1002 125.976 74.293 126.347 74.4857C126.718 74.6785 127.036 74.9459 127.308 75.2878C127.579 75.6298 127.71 76.0682 127.71 76.5936C127.71 77.119 127.576 77.6103 127.308 78.0331C127.039 78.4559 126.653 78.7948 126.144 79.0404C125.636 79.286 125.037 79.4104 124.348 79.4104C123.3 79.4104 122.439 79.1616 121.766 78.6642L121.759 78.6704Z" fill="#1D1D1B"/>
</g>
<defs>
<linearGradient id="paint0_linear_7869_139610" x1="31.6933" y1="30.9185" x2="95.7588" y2="30.9185" gradientUnits="userSpaceOnUse">
<stop stop-color="#87BF57"/>
<stop offset="1" stop-color="#EF7B08"/>
</linearGradient>
<clipPath id="clip0_7869_139610">
<rect width="128" height="88" fill="white"/>
</clipPath>
</defs>
</svg>
