<svg width="45" height="44" viewBox="0 0 45 44" fill="none" xmlns="http://www.w3.org/2000/svg">
<path d="M34.5137 8.88169L18.7663 4.63132C14.2214 3.4046 9.53942 6.083 8.30885 10.6137L4.48525 24.6913C3.25469 29.222 5.94149 33.8893 10.4864 35.116L26.2338 39.3664C30.7787 40.5931 35.4607 37.9147 36.6912 33.384L40.5148 19.3064C41.7454 14.7757 39.0586 10.1084 34.5137 8.88169Z" fill="#1D1D1B"/>
<path d="M35.9814 7.45431L18.2216 2.66077C13.2408 1.31639 8.10975 4.25169 6.76115 9.21694L2.44188 25.1195C1.09328 30.0848 4.0378 35.1998 9.01864 36.5441L26.7784 41.3377C31.7593 42.682 36.8903 39.7467 38.2389 34.7815L42.5582 18.8789C43.9068 13.9136 40.9623 8.79868 35.9814 7.45431Z" stroke="url(#paint0_linear_7942_13509)" stroke-width="4" stroke-miterlimit="10"/>
<path d="M33.846 16.7624C33.7184 16.603 33.6051 16.4698 33.5039 16.3306C33.4108 16.2014 33.3075 16.0703 33.2549 15.925C33.2205 15.8302 33.2286 15.6869 33.2772 15.5981C33.4007 15.3721 33.4047 15.3177 33.2003 15.1603C32.4716 14.5953 32.255 13.7297 32.5444 12.9528C32.7732 12.3414 33.2772 12.0226 33.9107 11.9459C34.5524 11.8693 35.1171 12.0609 35.528 12.5856C36.034 13.2292 35.9591 14.2482 35.362 14.8899C35.2628 14.9968 35.1515 15.0957 35.0402 15.1925C34.9005 15.3136 34.8924 15.4125 35.0179 15.5457C35.1799 15.7152 35.1718 15.8766 35.0017 16.034C34.9532 16.0784 34.9248 16.1449 34.8904 16.2035C34.8681 16.2438 34.8621 16.3084 34.8297 16.3286C34.6455 16.4315 34.6111 16.6312 34.5159 16.8108C34.5585 16.837 34.607 16.8653 34.6536 16.8935C35.0098 17.1094 35.2021 17.4242 35.1981 17.8419C35.192 18.2898 34.9673 18.6147 34.5706 18.8084C34.4431 18.871 34.4026 18.9416 34.4026 19.0768C34.4066 20.235 34.4026 21.3952 34.4066 22.5534C34.4066 22.6341 34.4228 22.7169 34.437 22.7976C34.4755 22.9933 34.4006 23.1204 34.2022 23.1608C34.1172 23.1789 34.0261 23.1769 33.9391 23.1769C31.3178 23.1769 28.6986 23.1769 26.0774 23.1769C25.8912 23.1769 25.7981 23.2711 25.7981 23.4594C25.7981 24.1475 25.8021 24.8355 25.794 25.5236C25.794 25.6931 25.8446 25.7496 26.0146 25.7456C26.4741 25.7355 26.9356 25.7435 27.3951 25.7435C27.6481 25.7435 27.7412 25.8303 27.7432 26.0785C27.7453 26.708 27.7453 27.3376 27.7432 27.9671C27.7432 28.2153 27.6602 28.3102 27.4032 28.3162C26.8142 28.3303 26.2231 28.3283 25.6341 28.3324C25.4094 28.3324 25.4013 28.3404 25.4013 28.5583C25.4013 29.2 25.4054 29.8417 25.3993 30.4833C25.3993 30.6367 25.4479 30.6891 25.6037 30.6871C27.2149 30.6831 28.8261 30.6811 30.4373 30.6871C30.6175 30.6871 30.6357 30.6064 30.6357 30.4631C30.6317 28.746 30.6337 27.0268 30.6357 25.3097C30.6357 24.9606 30.7005 24.8961 31.0466 24.8941C32.1923 24.8941 33.3359 24.8941 34.4815 24.8941C34.7912 24.8941 34.8681 24.9707 34.8681 25.2794C34.8681 26.1975 34.8722 27.1156 34.8661 28.0337C34.8661 28.1891 34.9046 28.2779 35.0746 28.292C35.2021 28.3021 35.3296 28.3404 35.4572 28.3626C35.6069 28.3868 35.7142 28.3303 35.7486 28.177C35.7871 28.0115 35.8235 27.8441 35.8458 27.6746C35.8539 27.6181 35.8256 27.5495 35.7932 27.497C35.7385 27.4062 35.6758 27.3174 35.6049 27.2428C35.3499 26.9744 35.3721 26.6677 35.4814 26.3549C35.4997 26.3045 35.6009 26.2399 35.6434 26.252C35.8498 26.3105 35.9065 26.2157 35.9288 26.0381C35.9369 25.9776 35.9774 25.8908 36.0239 25.8727C36.1514 25.8243 36.2425 25.9211 36.2223 26.0603C36.2122 26.1289 36.1879 26.1996 36.1919 26.2682C36.1919 26.3025 36.2385 26.3549 36.2729 26.361C36.3032 26.367 36.366 26.3348 36.3781 26.3025C36.4105 26.2278 36.4247 26.1451 36.4409 26.0644C36.4611 25.9615 36.5218 25.9534 36.6109 25.9736C36.6979 25.9958 36.7526 26.026 36.7263 26.1289C36.7121 26.1794 36.7101 26.2339 36.6959 26.2843C36.6595 26.4054 36.7101 26.4679 36.8275 26.476C36.9914 26.4881 37.0218 26.5728 36.9833 26.7161C36.9591 26.8069 36.9611 26.9078 36.9206 26.9905C36.8639 27.1076 36.8032 27.2609 36.702 27.3093C36.287 27.5051 36.0684 27.7976 36.0259 28.2617C35.9996 28.5462 35.7345 28.6855 35.443 28.637C35.3155 28.6169 35.1859 28.5927 35.0604 28.5604C34.9187 28.524 34.8681 28.5705 34.8681 28.7157C34.8722 29.3856 34.8681 30.0576 34.8681 30.7275C34.8681 30.792 34.8681 30.8586 34.86 30.9212C34.8216 31.1552 34.7264 31.2279 34.4694 31.2279C32.5566 31.2279 30.6458 31.2279 28.733 31.2279C27.6521 31.2279 26.5733 31.2279 25.4924 31.2279C25.4054 31.2279 25.3143 31.2359 25.2313 31.2581C24.9803 31.3247 24.8305 31.2178 24.8305 30.9514C24.8285 30.1625 24.8305 29.3755 24.8305 28.5866C24.8305 28.4131 24.7421 28.3263 24.5654 28.3263C23.2497 28.3263 21.934 28.3263 20.6163 28.3263C20.3856 28.3263 20.3775 28.3344 20.3754 28.5644C20.3754 29.1233 20.3775 29.6823 20.3754 30.2412C20.3734 30.4813 20.3572 30.7214 20.343 30.9615C20.3329 31.1149 20.2216 31.2158 20.0637 31.2259C20.0111 31.2299 19.9585 31.2259 19.9038 31.2259C16.8535 31.2259 13.8011 31.2259 10.7507 31.2259C10.3904 31.2259 10.3115 31.1492 10.3115 30.7941C10.3115 30.4652 10.3075 30.1342 10.3135 29.8053C10.3176 29.5632 10.4937 29.424 10.692 29.4946C10.8438 29.5491 10.8864 29.6762 10.8904 29.8174C10.8965 30.0414 10.8985 30.2654 10.8904 30.4873C10.8864 30.6205 10.9289 30.6811 11.0705 30.675C11.3114 30.6669 11.5543 30.6669 11.7972 30.675C11.9429 30.6811 11.9794 30.6165 11.9753 30.4853C11.9693 30.2553 11.9713 30.0273 11.9753 29.7973C11.9774 29.6015 12.0705 29.4885 12.2304 29.4764C12.3883 29.4643 12.5178 29.5672 12.534 29.7529C12.5542 29.993 12.5522 30.2351 12.5482 30.4752C12.5461 30.6165 12.5886 30.679 12.7404 30.673C12.9712 30.6629 13.1999 30.6669 13.4307 30.673C13.5582 30.677 13.6128 30.6306 13.6088 30.4995C13.6027 30.2755 13.5886 30.0495 13.6149 29.8296C13.629 29.7145 13.6958 29.5733 13.7849 29.5107C13.9509 29.3917 14.1735 29.535 14.1816 29.7509C14.1917 29.991 14.1897 30.2331 14.1816 30.4752C14.1776 30.6145 14.216 30.675 14.3699 30.675C16.1167 30.671 17.8635 30.671 19.6103 30.675C19.7621 30.675 19.7986 30.6165 19.7986 30.4773C19.7925 29.8235 19.7925 29.1718 19.7986 28.518C19.7986 28.3586 19.7378 28.3182 19.5901 28.3202C18.8351 28.3263 18.0801 28.3243 17.3231 28.3202C17.236 28.3202 17.1449 28.3142 17.0599 28.294C16.9061 28.2557 16.8352 28.1467 16.8535 27.9893C16.8717 27.84 16.9668 27.7613 17.1126 27.7472C17.1834 27.7391 17.2542 27.7432 17.3251 27.7432C20.5131 27.7432 23.699 27.7432 26.887 27.7432C27.0719 27.7432 27.1643 27.649 27.1643 27.4607C27.1643 27.1479 27.1583 26.8372 27.1664 26.5244C27.1704 26.367 27.1218 26.3045 26.9559 26.3085C26.5308 26.3186 26.1057 26.3126 25.6807 26.3105C25.3629 26.3105 25.2171 26.1673 25.2171 25.8444C25.2171 24.3614 25.2171 22.8783 25.2171 21.3972C25.2171 21.1591 25.3224 21.034 25.5106 21.036C25.6908 21.036 25.794 21.143 25.796 21.3448C25.8001 21.6979 25.8021 22.051 25.796 22.4041C25.794 22.5393 25.8365 22.5918 25.9782 22.5918C28.5347 22.5897 31.0891 22.5897 33.6456 22.5918C33.7893 22.5918 33.8277 22.5353 33.8277 22.4021C33.8237 21.2782 33.8257 20.1543 33.8277 19.0304C33.8277 18.9295 33.8095 18.8568 33.7002 18.8084C33.2792 18.6187 33.0485 18.2898 33.0464 17.8258C33.0424 17.3536 33.2833 17.0287 33.7063 16.829C33.7367 16.8148 33.767 16.7967 33.846 16.7543V16.7624ZM31.2288 27.2105C31.2207 27.2892 31.2146 27.3235 31.2146 27.3578C31.2146 28.403 31.2146 29.4502 31.2126 30.4954C31.2126 30.6468 31.2753 30.6831 31.415 30.6831C32.2935 30.679 33.1719 30.6831 34.0504 30.6811C34.2872 30.6811 34.2892 30.6811 34.2892 30.447C34.2892 29.4946 34.2892 28.5422 34.2892 27.5898C34.2892 27.5333 34.2832 27.4788 34.2771 27.3901C33.8156 27.7936 33.3177 28.0095 32.7246 27.9792C32.1214 27.951 31.6478 27.6786 31.2308 27.2085L31.2288 27.2105ZM34.5989 15.5093C34.6435 15.4448 34.6617 15.4306 34.6597 15.4165C34.6354 15.1784 34.7932 15.0614 34.9633 14.9464C35.0402 14.8939 35.1029 14.8213 35.1677 14.7527C35.7405 14.1332 35.8154 13.1082 35.1394 12.523C34.3095 11.8027 32.9007 12.2183 32.6942 13.2757C32.5525 13.998 32.8339 14.5791 33.4148 15.017C33.5241 15.0997 33.6112 15.1784 33.597 15.3318C33.5929 15.3701 33.6496 15.4165 33.678 15.4569C33.7022 15.4165 33.7448 15.3762 33.7468 15.3338C33.7529 15.1038 33.7549 14.8737 33.7468 14.6457C33.7448 14.5933 33.6861 14.5448 33.6557 14.4924C33.6071 14.4076 33.5322 14.3249 33.5221 14.2361C33.516 14.1857 33.6071 14.0969 33.6719 14.0686C33.7852 14.0202 33.8844 14.0727 33.9613 14.1756C34.0646 14.3148 34.2204 14.2967 34.3398 14.1715C34.3985 14.109 34.5119 14.0626 34.5949 14.0686C34.6597 14.0747 34.7649 14.1695 34.7669 14.2301C34.771 14.3108 34.6981 14.3975 34.6536 14.4803C34.6232 14.5368 34.5564 14.5892 34.5544 14.6437C34.5423 14.8717 34.5483 15.1017 34.5504 15.3318C34.5504 15.3721 34.5726 15.4125 34.5989 15.5053V15.5093ZM32.7631 25.4409C32.3097 25.4409 31.8562 25.4409 31.4028 25.4409C31.3219 25.4409 31.2187 25.4267 31.2207 25.5498C31.2247 25.8142 31.1984 26.0866 31.2571 26.3388C31.5121 27.4223 32.7469 27.9207 33.6901 27.3275C34.0727 27.0854 34.356 26.7706 34.2933 26.2601C34.269 26.0583 34.2811 25.8485 34.2933 25.6447C34.3014 25.4933 34.2488 25.4368 34.0929 25.4389C33.6516 25.4469 33.2084 25.4409 32.7671 25.4409H32.7631ZM34.1354 18.3282C34.4066 18.3282 34.6333 18.1022 34.6354 17.8379C34.6354 17.5655 34.3864 17.3193 34.1131 17.3213C33.8379 17.3233 33.6193 17.5554 33.6233 17.8379C33.6274 18.1204 33.846 18.3302 34.1334 18.3282H34.1354ZM34.3176 15.0049C34.3176 14.8939 34.3135 14.7809 34.3176 14.6699C34.3216 14.5448 34.2488 14.5267 34.1476 14.5267C34.0423 14.5267 33.9795 14.5549 33.9816 14.676C33.9856 14.8818 33.9876 15.0876 33.9816 15.2934C33.9775 15.4206 34.02 15.473 34.1536 15.473C34.2933 15.473 34.3257 15.4085 34.3196 15.2874C34.3135 15.1946 34.3196 15.0997 34.3196 15.0049H34.3176ZM34.1637 15.8544C34.3581 15.8544 34.5524 15.8584 34.7467 15.8503C34.7892 15.8503 34.8277 15.8039 34.8681 15.7797C34.8277 15.7535 34.7872 15.703 34.7467 15.703C34.3641 15.697 33.9816 15.697 33.597 15.703C33.5525 15.703 33.51 15.7595 33.4675 15.7878C33.51 15.81 33.5525 15.8483 33.597 15.8503C33.7852 15.8564 33.9735 15.8524 34.1617 15.8524L34.1637 15.8544ZM36.5684 26.9098C36.5927 26.8876 36.6413 26.8614 36.6534 26.8231C36.6615 26.7968 36.6231 26.7302 36.5947 26.7242C36.3437 26.6677 36.0907 26.6193 35.8357 26.5769C35.8033 26.5708 35.7628 26.6132 35.7243 26.6334C35.7486 26.6737 35.7669 26.7423 35.8013 26.7504C36.0462 26.8089 36.2931 26.8553 36.5684 26.9118V26.9098ZM34.1759 16.0864C34.0585 16.0864 33.9411 16.0804 33.8257 16.0884C33.7873 16.0905 33.7529 16.1288 33.7144 16.151C33.7448 16.1792 33.7751 16.2317 33.8075 16.2337C34.0463 16.2398 34.2872 16.2398 34.5261 16.2337C34.5584 16.2337 34.5888 16.1813 34.6192 16.153C34.5827 16.1308 34.5463 16.0945 34.5078 16.0905C34.3965 16.0824 34.2852 16.0884 34.1739 16.0884L34.1759 16.0864ZM36.3721 27.156C36.1919 27.1197 36.0442 27.0914 35.8762 27.0571C36.0118 27.3941 36.0786 27.4082 36.3721 27.156ZM33.9715 16.4981C33.9715 16.5202 33.9715 16.5445 33.9715 16.5667C34.105 16.609 34.2366 16.6252 34.3621 16.5525C34.3621 16.5344 34.3621 16.5162 34.3621 16.4981H33.9715Z" fill="white"/>
<path d="M24.2173 15.9999C24.2173 15.7376 24.2233 15.5116 24.2173 15.2856C24.2071 14.9991 24.1768 14.7105 24.1667 14.424C24.1586 14.1738 24.3488 13.9841 24.5978 13.9882C24.9399 13.9922 25.2819 13.9962 25.622 14.0205C25.8183 14.0346 25.8872 14.1516 25.8851 14.3453C25.877 15.1565 25.873 15.9696 25.8791 16.7808C25.8791 16.8534 25.9519 16.9543 26.0208 16.9906C27.1603 17.6202 28.306 18.2417 29.4496 18.8652C29.6682 18.9842 29.733 19.1295 29.6621 19.3232C29.6055 19.4745 29.4921 19.5129 29.3403 19.5129C28.478 19.5088 27.6178 19.5129 26.7555 19.5129C26.4539 19.5129 26.1543 19.5129 25.8528 19.5129C25.6159 19.5129 25.5046 19.4221 25.5046 19.2364C25.5046 19.0589 25.626 18.9661 25.8608 18.9661C26.6685 18.9661 27.4781 18.9661 28.2857 18.9661H28.3728C28.3728 18.9661 28.3809 18.9459 28.3849 18.9358C28.1177 18.7966 27.8506 18.6593 27.5854 18.5161C26.9174 18.1509 26.2515 17.7856 25.5876 17.4124C25.3913 17.3014 25.284 17.1279 25.286 16.8918C25.29 16.2037 25.286 15.5156 25.286 14.8276C25.286 14.6581 25.2017 14.5727 25.033 14.5713C24.952 14.5713 24.869 14.5713 24.7759 14.5713C24.7759 14.8135 24.7678 15.0394 24.7759 15.2654C24.7921 15.6831 24.8164 16.0988 24.8387 16.5144C24.8447 16.6476 24.8103 16.7586 24.6828 16.8252C24.5512 16.8938 24.4561 16.8252 24.3428 16.7606C23.8792 16.4902 23.4096 16.234 22.94 15.9737C22.687 15.8345 22.43 15.7013 22.181 15.556C22.0757 15.4955 21.9887 15.5015 21.8855 15.562C20.4362 16.4014 18.9849 17.2368 17.5356 18.0742C17.1065 18.3224 16.6754 18.5665 16.2463 18.8127C16.1977 18.8409 16.1511 18.8732 16.1147 18.9358H16.3029C17.0114 18.9358 17.7198 18.9358 18.4283 18.9358C18.576 18.9358 18.7218 18.9418 18.8695 18.9499C19.0335 18.958 19.1367 19.0669 19.1448 19.2385C19.1489 19.3373 19.1428 19.4382 19.1428 19.5391C19.1428 21.6396 19.1428 23.7401 19.1428 25.8406C19.1428 26.222 19.0396 26.3269 18.6631 26.3269C18.1793 26.3269 17.6955 26.3269 17.2118 26.3269C17.0539 26.3269 16.9122 26.2866 16.8657 26.1151C16.807 25.9012 16.9365 25.7539 17.1936 25.7498C17.5822 25.7438 17.9728 25.7397 18.3615 25.7498C18.5376 25.7539 18.5983 25.7054 18.5963 25.5238C18.5862 24.8176 18.5862 24.1114 18.5963 23.4052C18.5983 23.2236 18.5356 23.1772 18.3615 23.1772C15.8819 23.1812 13.4044 23.1812 10.9249 23.1792C10.7245 23.1792 10.5261 23.1751 10.3257 23.163C10.1881 23.157 10.0869 23.0884 10.0606 22.9471C10.0423 22.8503 10.0342 22.7494 10.0342 22.6485C10.0342 20.8607 10.0342 19.071 10.0342 17.2832C10.0342 17.1299 10.0484 16.9785 10.0626 16.8252C10.0788 16.6577 10.1941 16.5669 10.4026 16.5649C10.7629 16.5609 11.1232 16.5568 11.4835 16.5649C11.6495 16.5689 11.6981 16.5084 11.692 16.349C11.6778 15.9313 11.7386 15.9777 11.3256 15.9757C10.5828 15.9757 9.8379 15.9757 9.09505 15.9757C8.70237 15.9757 8.58902 15.7921 8.755 15.4329C9.14565 14.5895 9.53631 13.746 9.92292 12.9006C10.0363 12.6524 10.2002 12.5273 10.4957 12.5293C12.1009 12.5414 13.706 12.5354 15.3111 12.5354C15.6087 12.5354 15.6087 12.5535 15.7321 12.83C15.9447 13.3082 16.1775 13.7783 16.4021 14.2505C16.5883 14.6379 16.7766 15.0233 16.9628 15.4107C17.1227 15.7477 16.977 15.9757 16.5964 15.9757C15.8637 15.9777 15.133 15.9797 14.4003 15.9737C14.2302 15.9737 14.1574 16.0261 14.1796 16.1956C14.1796 16.2077 14.1796 16.2198 14.1796 16.2299C14.1796 16.6234 14.1877 16.5568 14.4995 16.5629C14.71 16.5669 14.8334 16.6537 14.8537 16.809C14.878 16.9846 14.7687 17.1238 14.5905 17.1379C14.4792 17.146 14.3659 17.142 14.2545 17.142C13.115 17.142 11.9774 17.146 10.8378 17.1379C10.6637 17.1379 10.603 17.1823 10.603 17.3659C10.6091 19.0367 10.6091 20.7074 10.603 22.3781C10.603 22.5456 10.6476 22.6021 10.8216 22.6001C13.3417 22.596 15.8617 22.596 18.3817 22.6001C18.5457 22.6001 18.5943 22.5496 18.5922 22.3882C18.5862 21.5004 18.5841 20.6105 18.5922 19.7227C18.5922 19.5492 18.5335 19.5048 18.3676 19.5048C17.317 19.5109 16.2665 19.5048 15.216 19.5088C15.0419 19.5088 14.878 19.5008 14.8071 19.3091C14.7525 19.1638 14.8577 18.9459 15.0439 18.8369C15.4245 18.6109 15.8091 18.393 16.1916 18.1731C17.9182 17.1783 19.6468 16.1855 21.3734 15.1908C21.5171 15.108 21.6628 15.0334 21.8025 14.9446C21.9745 14.8356 22.1344 14.8599 22.3024 14.9547C22.8793 15.2775 23.4562 15.5964 24.0351 15.9152C24.0796 15.9394 24.1282 15.9596 24.2112 15.9979L24.2173 15.9999ZM12.8316 15.3986C13.1271 15.3986 13.4206 15.3986 13.7161 15.3986C13.7647 15.3986 13.8558 15.3744 13.8558 15.3603C13.8558 15.2513 13.8538 15.1363 13.8173 15.0354C13.8032 14.993 13.704 14.9607 13.6433 14.9607C13.3072 14.9527 12.9712 14.9567 12.6352 14.9567C12.4349 14.9567 12.2345 14.9547 12.0341 14.9567C11.8823 14.9607 11.8195 15.0657 11.8215 15.2937C11.8236 15.443 11.941 15.3966 12.0159 15.3986C12.2871 15.4047 12.5583 15.4006 12.8296 15.3986H12.8316ZM14.4185 14.9547C14.4246 15.0334 14.4266 15.0798 14.4306 15.1262C14.4569 15.3986 14.459 15.3986 14.7262 15.3986C15.1796 15.3986 15.635 15.3986 16.0884 15.3986C16.1491 15.3986 16.2098 15.3885 16.2726 15.3825C16.1997 15.0092 16.137 14.9547 15.7989 14.9547C15.6573 14.9547 15.5156 14.9547 15.3739 14.9547H14.4165H14.4185ZM12.9308 15.9797C12.8356 15.9797 12.7425 15.9797 12.6474 15.9797C12.2223 15.9797 12.2304 15.9797 12.2648 16.3954C12.277 16.5407 12.3397 16.5709 12.4672 16.5669C12.7081 16.5609 12.951 16.5669 13.1939 16.5649C13.6655 16.5568 13.6007 16.6537 13.6048 16.1169C13.6048 16.0201 13.5603 15.9797 13.4651 15.9797C13.289 15.9817 13.1109 15.9797 12.9348 15.9797H12.9308ZM9.4432 15.3966C10.01 15.3966 10.5686 15.3966 11.1273 15.3926C11.1617 15.3926 11.2163 15.3482 11.2265 15.3159C11.2568 15.2069 11.269 15.0919 11.2932 14.9547H11.0686C10.7083 14.9547 10.348 14.9547 9.98769 14.9547C9.71376 14.9547 9.53226 15.0838 9.4432 15.3421C9.4432 15.3421 9.4432 15.3542 9.4432 15.3966ZM13.706 14.3756C13.7181 14.0184 13.706 14.0043 13.3842 14.0043C13.2546 14.0043 13.1251 14.0043 12.9955 14.0043C12.7364 14.0043 12.4774 14.0043 12.2183 14.0043C12.0584 14.0043 11.9956 14.085 12.0017 14.2727C12.0057 14.422 12.1231 14.3716 12.2001 14.3736C12.4126 14.3796 12.6231 14.3756 12.8356 14.3756C13.1231 14.3756 13.4105 14.3756 13.706 14.3756ZM9.92292 14.3655C9.99983 14.3695 10.0626 14.3756 10.1253 14.3756C10.4674 14.3756 10.8095 14.3756 11.1495 14.3756C11.4147 14.3756 11.4754 14.2969 11.4208 14.0184C11.4106 14.0144 11.3985 14.0084 11.3884 14.0084C11.0301 14.0084 10.6698 14.0063 10.3115 14.0043C10.0221 14.0043 9.97757 14.0427 9.92292 14.3655ZM15.803 14.3736C15.6957 14.0164 15.6815 14.0043 15.3638 14.0043C15.2221 14.0043 15.0804 14.0043 14.9387 14.0043C14.7221 14.0043 14.5055 14.0043 14.2626 14.0043C14.3193 14.1516 14.212 14.3574 14.4286 14.3675C14.88 14.3877 15.3334 14.3736 15.803 14.3736ZM13.5886 13.4555C13.5461 13.3102 13.6372 13.1125 13.4489 13.0983C13.0684 13.0701 12.6818 13.0802 12.2992 13.0943C12.1515 13.1004 12.1839 13.2537 12.1778 13.3485C12.1778 13.3808 12.2648 13.4494 12.3154 13.4514C12.5806 13.4615 12.8457 13.4575 13.1129 13.4575C13.2647 13.4575 13.4165 13.4575 13.5906 13.4575L13.5886 13.4555ZM10.3419 13.4514C10.7346 13.4514 11.1091 13.4636 11.4815 13.4454C11.6353 13.4373 11.5766 13.2678 11.6009 13.171C11.605 13.1569 11.5017 13.0923 11.4471 13.0903C11.2184 13.0802 10.9876 13.0862 10.7589 13.0862C10.4431 13.0862 10.431 13.0963 10.3419 13.4514ZM15.3395 13.4514C15.3536 13.4293 15.3698 13.4071 15.384 13.3849C15.297 13.286 15.218 13.1145 15.1209 13.1044C14.8031 13.0681 14.4792 13.0903 14.1432 13.0903C14.1655 13.2335 14.0886 13.4272 14.2707 13.4434C14.6229 13.4757 14.9812 13.4535 15.3374 13.4535L15.3395 13.4514Z" fill="white"/>
<path d="M13.3253 28.4787C13.2099 28.5655 13.1209 28.6522 13.0136 28.7067C12.8173 28.8076 12.6432 28.7229 12.5987 28.509C12.5582 28.3133 12.542 28.1135 12.5096 27.9178C12.457 27.5969 12.3416 27.3064 12.0947 27.0804C12.0704 27.0582 12.042 27.0441 11.9955 27.0098C12.0481 27.2337 12.1007 27.4315 12.1412 27.6292C12.1898 27.8633 12.1392 28.0873 12.0299 28.2951C11.8356 28.6623 11.4753 28.7067 11.1919 28.4041C11.1372 28.3455 11.0927 28.2769 11.032 28.1982C11.0704 28.7673 11.3498 29.1567 11.8659 29.421C11.2688 29.4291 10.613 28.9428 10.4126 28.3879C10.275 28.0065 10.3377 27.0077 10.6413 26.8504C10.6656 26.9896 10.6737 27.1308 10.7142 27.26C10.7689 27.4416 10.9065 27.5142 11.1008 27.49C11.2668 27.4678 11.3943 27.3427 11.4085 27.1752C11.4145 27.0885 11.4085 26.9997 11.3943 26.9129C11.3619 26.7152 11.3154 26.5215 11.287 26.3237C11.2101 25.7809 11.3963 25.3431 11.8295 25.0061C11.8599 24.9819 11.9003 24.9718 11.9732 24.9375C11.957 25.0222 11.9428 25.0747 11.9368 25.1272C11.9044 25.3875 11.8457 25.6498 11.8477 25.9101C11.8518 26.3257 12.1412 26.6223 12.5015 26.6284C12.8092 26.6345 12.9711 26.5134 13.048 26.2127C13.0622 26.1562 13.0764 26.0997 13.1006 26.0049C13.2828 26.1825 13.3618 26.3843 13.3537 26.5981C13.3456 26.812 13.2767 27.0239 13.2342 27.2358C13.214 27.3387 13.1836 27.4416 13.1695 27.5465C13.1431 27.7463 13.2626 27.9218 13.4427 27.9622C13.6411 28.0065 13.8273 27.9077 13.886 27.7079C13.9285 27.5626 13.9447 27.4093 13.973 27.2559C14.1957 27.5283 14.2038 28.2144 13.9953 28.6119C13.7403 29.0982 13.048 29.4876 12.4651 29.4392C12.9083 29.2334 13.2889 29.0134 13.3213 28.4767L13.3253 28.4787Z" fill="#64AADA"/>
<path d="M22.7357 24.5953C22.6284 24.0546 22.5191 23.5138 22.4118 22.973C22.4017 22.9266 22.3936 22.8802 22.3896 22.8338C22.3794 22.6825 22.4483 22.5998 22.6061 22.5998C22.847 22.5998 23.0879 22.5998 23.3854 22.5998C22.8855 21.9198 22.4159 21.2781 21.9463 20.6385C21.9362 20.6425 21.9281 20.6445 21.9179 20.6486C21.924 20.6909 21.926 20.7333 21.9361 20.7737C22.0191 21.1106 22.1062 21.4476 22.1871 21.7846C22.2054 21.8572 22.2296 21.9399 22.2114 22.0085C22.1952 22.0711 22.1365 22.1599 22.0839 22.168C22.0191 22.178 21.9341 22.1316 21.8734 22.0872C21.837 22.061 21.8289 21.9944 21.8167 21.942C21.6366 21.2297 21.4564 20.5154 21.2803 19.8011C21.25 19.68 21.2095 19.5448 21.3593 19.4762C21.5111 19.4076 21.6001 19.5186 21.6791 19.6276C22.011 20.0775 22.343 20.5275 22.675 20.9775C23.0494 21.4839 23.4219 21.9924 23.7943 22.4989C23.8328 22.5513 23.8732 22.6018 23.9056 22.6583C23.9967 22.8237 23.9279 22.9529 23.7356 22.9589C23.5109 22.965 23.2862 22.9589 23.0636 22.9609C22.8106 22.9609 22.8045 22.969 22.8531 23.2071C23.011 23.9981 23.1688 24.787 23.3267 25.578C23.351 25.6971 23.3996 25.8322 23.2417 25.8988C23.0737 25.9695 22.9927 25.8484 22.9219 25.7293C22.339 24.7749 21.756 23.8205 21.1751 22.8641C21.0516 22.6623 20.9281 22.4625 20.8067 22.2628C20.6933 22.0731 20.6933 21.9561 20.8067 21.8895C20.918 21.8229 21.0374 21.8814 21.1447 22.057C21.5253 22.6805 21.9038 23.304 22.2843 23.9275C22.4219 24.1535 22.5616 24.3774 22.7013 24.6014C22.7134 24.5994 22.7256 24.5953 22.7377 24.5933L22.7357 24.5953Z" fill="#EF7B08"/>
<path d="M32.8198 29.9624C32.7996 29.8535 32.7814 29.7445 32.7591 29.6355C32.7186 29.427 32.8083 29.2986 33.0283 29.2501C32.8947 29.0564 32.7692 28.8728 32.6255 28.663C32.5688 28.8405 32.7469 29.002 32.587 29.1735C32.5547 29.1089 32.5223 29.0625 32.5101 29.0141C32.4494 28.774 32.3907 28.5338 32.3401 28.2937C32.33 28.2493 32.3502 28.1969 32.3563 28.1484C32.4049 28.1706 32.4717 28.1827 32.5 28.2191C32.668 28.4471 32.8259 28.6811 32.9878 28.9112C33.0647 29.0221 33.1457 29.1311 33.2206 29.2441C33.3097 29.3793 33.2833 29.4358 33.1295 29.4539C32.8886 29.4822 32.8886 29.4822 32.9372 29.7223C32.9797 29.9422 33.0243 30.1602 33.0587 30.3821C33.0668 30.4306 33.0344 30.483 33.0202 30.5355C32.9797 30.5092 32.921 30.4911 32.8988 30.4527C32.6559 30.0431 32.419 29.6295 32.1863 29.2138C32.164 29.1735 32.1863 29.1089 32.1903 29.0544C32.2328 29.0847 32.2915 29.1049 32.3158 29.1452C32.4798 29.4176 32.6336 29.6941 32.7935 29.9685C32.8036 29.9665 32.8137 29.9644 32.8259 29.9624H32.8198Z" fill="#87BF57"/>
<path d="M35.4147 13.0586C35.3965 13.0788 35.3701 13.1333 35.3357 13.1373C35.2912 13.1434 35.2183 13.1292 35.1981 13.097C35.0422 12.8589 34.8297 12.6873 34.5848 12.5481C34.5504 12.5279 34.5281 12.4472 34.5382 12.4049C34.5463 12.3766 34.6232 12.3423 34.6657 12.3484C34.8661 12.3706 35.358 12.8124 35.4025 13.0001C35.4045 13.0122 35.4066 13.0223 35.4147 13.0586Z" fill="black"/>
<path d="M32.7954 27.0594C32.5484 27.0594 32.2995 27.0634 32.0525 27.0594C31.7692 27.0553 31.668 26.9524 31.6639 26.676C31.6639 26.4399 31.6599 26.2059 31.6639 25.9698C31.668 25.7377 31.7712 25.6368 32.0019 25.6348C32.5323 25.6328 33.0626 25.6348 33.5949 25.6328C33.7751 25.6328 33.9107 25.7095 33.9269 25.881C33.9552 26.1635 33.9734 26.4541 33.941 26.7345C33.9127 26.9867 33.7933 27.0533 33.5362 27.0574C33.2893 27.0614 33.0403 27.0574 32.7934 27.0574L32.7954 27.0594ZM32.8298 26.4803C32.9776 26.4803 33.1253 26.4904 33.269 26.4742C33.3156 26.4682 33.3864 26.3955 33.3885 26.3532C33.3885 26.3088 33.3217 26.222 33.2812 26.22C32.9755 26.2079 32.6699 26.2079 32.3663 26.22C32.3238 26.22 32.255 26.3047 32.255 26.3511C32.255 26.3935 32.3278 26.4702 32.3724 26.4742C32.5242 26.4904 32.678 26.4803 32.8298 26.4803Z" fill="white"/>
<defs>
<linearGradient id="paint0_linear_7942_13509" x1="1.71143" y1="21.9943" x2="43.2909" y2="21.9943" gradientUnits="userSpaceOnUse">
<stop stop-color="#87BF57"/>
<stop offset="1" stop-color="#EF7B08"/>
</linearGradient>
</defs>
</svg>
