<svg xmlns="http://www.w3.org/2000/svg" xmlns:xlink="http://www.w3.org/1999/xlink" version="1.1"
	width="1000" height="1000" viewBox="0 0 1000 1000" xml:space="preserve">
<desc>Created with Fabric.js 3.5.0</desc>
<defs>
</defs>
<g transform="matrix(2.3796 0 0 2.3796 499.9964 499.9964)" id="225042">
<g style="">
		<g transform="matrix(2.8409 0 0 2.8409 53.9771 -55.1174)" id="219769">
<path style="stroke: none; stroke-width: 1; stroke-dasharray: none; stroke-linecap: butt; stroke-dashoffset: 0; stroke-linejoin: miter; stroke-miterlimit: 4; is-custom-font: none; font-file-url: none; fill: rgb(255,225,130); fill-rule: nonzero; opacity: 1;" transform=" translate(-179, -54.5986)" d="M 198.177 55.8239 C 201.441 59.0915 201.441 64.4014 198.177 67.2606 L 186.752 78.6972 L 154.927 46.838 L 166.352 35.4014 C 169.616 32.1338 174.92 32.1338 177.776 35.4014 L 185.12 42.7535 L 197.361 30.5 L 203.073 36.2183 L 190.833 48.4718 L 198.177 55.8239 Z" stroke-linecap="round"/>
</g>
		<g transform="matrix(2.8409 0 0 2.8409 0 0)" id="814768">
<rect style="stroke: rgb(0,105,112); stroke-width: 4; stroke-dasharray: none; stroke-linecap: butt; stroke-dashoffset: 0; stroke-linejoin: miter; stroke-miterlimit: 4; is-custom-font: none; font-file-url: none; fill: none; fill-rule: nonzero; opacity: 1;" x="-71.073" y="-71.5" rx="71.0731" ry="71.0731" width="142.146" height="143"/>
</g>
		<g transform="matrix(2.8409 0 0 2.8409 -40.0666 41.193)" id="648481">
<path style="stroke: none; stroke-width: 1; stroke-dasharray: none; stroke-linecap: butt; stroke-dashoffset: 0; stroke-linejoin: miter; stroke-miterlimit: 4; is-custom-font: none; font-file-url: none; fill: rgb(0,105,112); fill-rule: nonzero; opacity: 1;" transform=" translate(-145.8965, -88.5)" d="M 174.866 79.5141 L 169.153 73.7958 L 157.729 85.2324 L 149.16 76.6549 L 160.585 65.2183 L 154.873 59.5 L 143.448 70.9366 L 137.328 65.2183 L 125.903 76.6549 C 122.639 79.9225 122.639 85.2324 125.903 88.0915 L 133.248 95.4437 L 116.927 111.782 L 122.639 117.5 L 138.96 101.162 L 146.304 108.514 C 149.569 111.782 154.873 111.782 157.729 108.514 L 169.153 97.0775 L 163.441 91.3592 L 174.866 79.5141 Z" stroke-linecap="round"/>
</g>
</g>
</g>
</svg>