<?xml version="1.0" encoding="utf-8"?>
<!-- Generator: Adobe Illustrator 26.2.0, SVG Export Plug-In . SVG Version: 6.00 Build 0)  -->
<svg version="1.1" id="Layer_1" xmlns="http://www.w3.org/2000/svg" xmlns:xlink="http://www.w3.org/1999/xlink" x="0px" y="0px"
	 viewBox="0 0 39 48" style="enable-background:new 0 0 39 48;" xml:space="preserve">
<path class="st0" d="M35.1,21.9c-0.6-0.8-1.4-1.5-2.1-2.2c-1.8-1.6-3.9-2.7-5.6-4.4C23.3,11.4,22.4,4.9,25,0c-2.6,0.6-4.8,2-6.8,3.5
	c-7,5.5-9.8,15.3-6.5,23.7c0.1,0.3,0.2,0.5,0.2,0.9c0,0.6-0.4,1.1-0.9,1.3c-0.6,0.3-1.3,0.1-1.8-0.3c-0.2-0.1-0.3-0.3-0.4-0.5
	C5.8,24.9,5.3,19.4,7.3,15c-4.5,3.6-7,9.8-6.6,15.5c0.2,1.3,0.3,2.7,0.8,4c0.4,1.6,1.1,3.2,1.9,4.6c2.9,4.6,8,7.9,13.5,8.6
	c5.8,0.7,12-0.3,16.5-4.3c5-4.4,6.7-11.5,4.2-17.6l-0.4-0.7C36.6,24,35.1,21.9,35.1,21.9z M26.5,38.7c-0.8,0.6-2,1.3-3,1.6
	c-3,1.1-6.1-0.4-7.9-2.2c3.2-0.7,5.2-3.1,5.7-5.5c0.5-2.1-0.4-3.9-0.8-5.9c-0.3-2-0.3-3.7,0.5-5.5c0.5,1,1.1,2,1.7,2.8
	c2.1,2.7,5.4,3.8,6.1,7.5c0.1,0.4,0.2,0.7,0.2,1.1C29.1,34.8,28.1,37.2,26.5,38.7z"/>
</svg>
