<?xml version="1.0" encoding="utf-8"?>
<!-- Generator: Adobe Illustrator 26.2.0, SVG Export Plug-In . SVG Version: 6.00 Build 0)  -->
<svg version="1.1" id="Layer_1" xmlns="http://www.w3.org/2000/svg" xmlns:xlink="http://www.w3.org/1999/xlink" x="0px" y="0px"
	 viewBox="0 0 50 35" style="enable-background:new 0 0 50 35;" xml:space="preserve">
<style type="text/css">
	.st0{fill:#006970;}
</style>
<path class="st0" d="M4.7,13.4c0.2-1.5,0.4-3.3,0.7-5c0.1-0.6,0.4-1.2,0.7-1.8c1.3-2.3,3.6-2.1,4.4,0.5c0.5,1.7,0.8,3.5,0.9,5.3
	c0.1,4.3-0.5,8.4-2.1,12.2c-0.8,1.8-1.8,3.4-3.4,4.1c-1.8,0.7-4.1-0.2-5.3-2c-0.3-0.4-0.4-1,0-1.3c0.3-0.2,0.8-0.2,1.1,0.1
	C2.3,26.3,3.1,27,4,27.1c1.4,0.2,2.5-0.6,3.3-2c1.5-2.4,2.1-5.3,2.4-8.3c0.3-2.5,0.4-5.1-0.1-7.6C9.5,8.7,9.3,8,9,7.5
	c-0.5-0.9-1.2-0.9-1.7,0c-0.7,1.2-1,2.7-1,4.2c-0.2,3.7,0.2,7.3,1.4,10.7c0.3,0.8,0,1.3-0.4,1.8c-0.4,0.5-0.6,0-0.7-0.4
	c-0.5-1.8-1-3.6-1.4-5.5C4.9,16.9,4.9,15.3,4.7,13.4z"/>
<path class="st0" d="M35.8,14.4c0.1-2.8,0.2-5.2,1.1-7.3c0.9-2.2,2.8-2.8,4-1.1c0.5,0.8,1,1.8,1.1,2.8c1,6.4,0.4,12.6-2.3,18.1
	c-1.7,3.4-5,4.1-7.1,1.8c-0.3-0.3-0.6-0.6-0.2-1.2c0.3-0.4,0.4-1,1-0.5c2.2,2.2,4.4,0.9,5.7-2.1c1.5-3.6,2.1-7.6,2-11.7
	c0-1.5-0.2-3-0.5-4.5C40.3,7.9,39.9,7,39.2,7c-0.7,0-1.1,0.8-1.4,1.6c-0.8,2.5-0.8,5.1-0.6,7.7c0.2,2.5,0.6,4.8,1.4,7.1
	c0.3,0.7-0.1,1.3-0.5,1.7c-0.1,0.1-0.6-0.2-0.6-0.5C37,22.3,36.5,20,36,17.7C35.8,16.5,35.8,15.2,35.8,14.4L35.8,14.4z"/>
<path class="st0" d="M26.9,13.9c0,3.2,0.4,6.3,1.4,9.2c0.1,0.2,0.2,0.4,0.2,0.6c-0.2,0.5-0.4,1-0.6,1.6c-0.2-0.3-0.6-0.5-0.7-0.8
	c-1.6-4.8-2.3-9.9-1.3-15.1c0.2-1,0.5-2,1-2.8C28,4.3,30.2,4.5,31,7c0.5,1.3,0.8,2.9,0.9,4.4c0.3,4.6-0.2,9.1-1.7,13.3
	c-0.8,2.3-1.9,4.4-3.9,5.1c-1.6,0.6-3,0.2-4.3-1.1c-0.4-0.4-0.4-0.8-0.1-1.3c0.3-0.5,0.5-0.7,1-0.3c2.2,2.1,4.2,0.9,5.5-1.7
	c1.3-2.6,1.8-5.5,2.1-8.5c0.3-2.4,0.3-4.8-0.2-7.1C30.2,9,30,8.4,29.8,7.9c-0.5-1.2-1.3-1.3-1.8-0.2c-0.5,1.2-0.8,2.6-1,3.9
	C26.8,12.4,26.9,13.2,26.9,13.9L26.9,13.9z"/>
<path class="st0" d="M15,13.8c0.2-1.6,0.4-3.3,0.6-4.9c0.1-0.4,0.2-0.9,0.3-1.3c0.6-1.5,1.4-2.8,2.8-2.6c1.4,0.1,2.1,1.4,2.4,3
	c0.3,2,0.6,4.1,0.6,6.2c0,3.9-0.6,7.6-2,11c-0.5,1.3-1.3,2.5-2.1,3.4c-1.6,1.9-4,1.8-5.8,0c-0.3-0.3-0.6-0.6-0.3-1.2
	c0.3-0.6,0.6-0.9,1.1-0.4c1.8,1.6,3.3,1.3,4.8-0.8c0.4-0.6,0.8-1.3,1.1-2c1.6-4.5,2.2-9.3,1.6-14.3c-0.1-0.7-0.3-1.4-0.5-2.1
	c-0.5-1.2-1.4-1.4-1.9-0.2c-0.4,1-0.8,2.1-0.9,3.3c-0.5,4.2,0,8.3,1.3,12.2c0.1,0.3,0.1,0.7,0,0.9c-0.1,0.4-0.4,0.7-0.6,1
	c-0.2-0.3-0.5-0.6-0.6-0.9C15.7,21,15.2,17.5,15,13.8L15,13.8z"/>
<path class="st0" d="M45.9,29c-1.2,0-2.3-0.3-3.3-1.1c-0.4-0.3-0.5-0.5-0.2-0.9c0.3-0.3,0.5-0.7,1-0.3c1.5,1.2,3.6,1.1,4.9-0.5
	c0.2-0.2,0.8-0.2,1-0.1c0.4,0.3,0.3,0.7,0,1.1C48.6,28.2,47.3,28.9,45.9,29L45.9,29z"/>
</svg>
