<?xml version="1.0" encoding="utf-8"?>
<!-- Generator: Adobe Illustrator 26.2.0, SVG Export Plug-In . SVG Version: 6.00 Build 0)  -->
<svg version="1.1" id="Layer_1" xmlns="http://www.w3.org/2000/svg" xmlns:xlink="http://www.w3.org/1999/xlink" x="0px" y="0px"
	 viewBox="0 0 59 58" style="enable-background:new 0 0 59 58;" xml:space="preserve">
<path class="st0" d="M41.8,32.8v9.4c0,1.2-1,2.1-2.1,2.1H19.2c-1.2,0-2.1-0.9-2.1-2.1v-12c0-0.8-0.6-1.4-1.3-1.4s-1.3,0.6-1.3,1.4
	v12c0,2.6,2.2,4.8,4.8,4.8h20.5c2.6,0,4.7-2.2,4.7-4.9v-7.9L41.8,32.8z"/>
<path class="st0" d="M15.9,27.3c0.7,0,1.3-0.6,1.3-1.4c0-0.6,0.2-1.1,0.6-1.5l10.4-10.1c0.4-0.4,0.9-0.6,1.4-0.6s1,0.2,1.4,0.6l7,7
	l1.3-2.6l-6.4-6.4c-0.9-1-2.1-1.4-3.3-1.4c-1.2,0-2.4,0.5-3.3,1.4L16,22.4c-0.9,0.9-1.4,2.2-1.4,3.5V26
	C14.6,26.7,15.2,27.3,15.9,27.3z"/>
<polygon class="st0" points="41.5,31 46.7,33.7 45.7,27.9 49.9,23.8 44.1,23 41.5,17.7 38.9,22.9 33.1,23.7 37.3,27.8 36.3,33.6 "/>
</svg>
