<svg width="64" height="64" viewBox="0 0 24 24" fill="none" xmlns="http://www.w3.org/2000/svg">
<path d="M10.6948 8.11043C10.629 7.51807 11.0927 7 11.6887 7H13.0256C13.6216 7 14.0853 7.51807 14.0195 8.11043L13.5274 12.539C13.4711 13.0454 13.0431 13.4286 12.5335 13.4286H12.1807C11.6712 13.4286 11.2431 13.0454 11.1869 12.539L10.6948 8.11043Z" fill="currentColor"/>
<rect x="11.2856" y="15.5723" width="2.14286" height="2.14286" rx="1" fill="currentColor"/>
<path d="M16.4783 3.83059C16.8432 4.02652 17.2979 3.8895 17.4938 3.52456C17.6898 3.15961 17.5528 2.70493 17.1878 2.50901L16.4783 3.83059ZM22.4147 9.31642C22.3133 8.91481 21.9055 8.67143 21.5039 8.77281C21.1023 8.8742 20.8589 9.28197 20.9603 9.68358L22.4147 9.31642ZM12 1.25C6.64855 1.25 1.25 5.27569 1.25 12H2.75C2.75 6.22431 7.35145 2.75 12 2.75V1.25ZM1.25 12C1.25 18.7243 6.64855 22.75 12 22.75V21.25C7.35145 21.25 2.75 17.7757 2.75 12H1.25ZM12 22.75C18.7243 22.75 22.75 17.3514 22.75 12H21.25C21.25 16.6486 17.7757 21.25 12 21.25V22.75ZM17.1878 2.50901C15.7023 1.71147 13.9584 1.25 12 1.25V2.75C13.7171 2.75 15.2165 3.15314 16.4783 3.83059L17.1878 2.50901ZM22.75 12C22.75 11.0958 22.6359 10.1929 22.4147 9.31642L20.9603 9.68358C21.1518 10.442 21.25 11.2216 21.25 12H22.75Z" fill="currentColor"/>
</svg>
