<?xml version="1.0" encoding="utf-8"?>
<!-- Generator: Adobe Illustrator 26.2.0, SVG Export Plug-In . SVG Version: 6.00 Build 0)  -->
<svg version="1.1" id="Layer_1" xmlns="http://www.w3.org/2000/svg" xmlns:xlink="http://www.w3.org/1999/xlink" x="0px" y="0px"
	 viewBox="0 0 41 29" style="enable-background:new 0 0 41 29;" xml:space="preserve">
<style type="text/css">
	.st0{fill:#006970;}
</style>
<path class="st0" d="M21.1,24c-5.3,0-10.3-0.5-14.9-2.3c-1.5-0.6-3-1.5-4.3-2.4s-1.4-1.9-0.6-3.2c0.8-1.2,1.2-2.3,1.3-3.7
	c0-1.3,0.9-2.3,2.1-3.1c2.5-1.7,5.5-2.4,8.6-3c3.5-0.6,7.1-0.7,10.6-0.5c3.6,0.2,7.1,0.7,10.4,2c1.6,0.7,3.2,1.4,4.1,2.7
	c0.4,0.6,0.7,1.4,0.7,2.2c0.1,1.2,0.4,2.2,1.1,3.2c1,1.4,0.9,2.3-0.5,3.4c-2.3,1.9-5.2,2.8-8.3,3.5C28,23.8,24.4,24.1,21.1,24
	L21.1,24z M20.9,7.6C16.9,7.7,13,8,9.3,9.3c-1.2,0.4-2.5,1-3.5,1.7c-1.4,0.9-1.3,2-0.1,3.1c1.3,1.1,3,1.7,4.7,2.2
	C17.2,18,24.1,18,31,16.4c1.9-0.5,3.8-1.1,5.2-2.4c0.9-0.9,1-1.8,0.1-2.6c-0.8-0.7-1.8-1.3-2.8-1.7C29.5,8.1,25.2,7.7,20.9,7.6
	L20.9,7.6z M21,20.6c2.2-0.2,4.3-0.3,6.4-0.5c2.6-0.4,5.3-0.9,7.5-2.2c0.7-0.4,1.3-1,1.9-1.5c-0.1-0.1-0.1-0.1-0.2-0.2
	c-4.8,2.6-10.2,3.1-15.7,3.3c0,0.2,0,0.4,0,0.6C20.9,20.1,20.9,20.3,21,20.6L21,20.6z"/>
<ellipse class="st0" cx="20.9" cy="12.3" rx="5.1" ry="1.6"/>
</svg>
