<?xml version="1.0" encoding="UTF-8"?>
<svg width="46" height="46" viewBox="0 0 92 92" xmlns="http://www.w3.org/2000/svg">
    <path
        d="M13.2546 23.0372C13.2546 20.4495 14.3055 18.0988 16.0092 16.3743L14.3759 14.7691C12.1654 16.9929 10.9492 19.9229 10.9492 23.0372C10.9492 25.479 11.6971 27.8077 13.0855 29.7715L14.7533 28.1325C13.8046 26.6561 13.2547 24.9087 13.2547 23.0371L13.2546 23.0372Z"
    />
    <path
        d="M31.2341 28.1325L32.9019 29.7715C34.2901 27.8077 35.0381 25.479 35.0381 23.0372C35.0381 19.923 33.822 16.9929 31.6115 14.7691L29.9781 16.3743C31.6819 18.0988 32.7328 20.4494 32.7328 23.0372C32.7328 24.9087 32.1828 26.6561 31.2342 28.1325H31.2341Z"
    />
    <path
        d="M17.8091 14.9385C19.3114 14.0062 21.0895 13.4658 22.9938 13.4658C24.8981 13.4658 26.6763 14.0062 28.1787 14.9385L29.8464 13.2995C27.8481 11.9352 25.4786 11.2 22.9939 11.2C20.5092 11.2 18.1397 11.9351 16.1414 13.2995L17.8092 14.9385H17.8091Z"
    />
    <path
        d="M21.8409 34.8203V32.5408C19.6659 32.2877 17.7087 31.3275 16.2138 29.9011L14.5805 31.5063C16.5667 33.413 19.1065 34.5667 21.8409 34.8202V34.8203Z"
    />
    <path
        d="M29.7735 29.9011C28.2787 31.3275 26.3214 32.2877 24.1464 32.5408V34.8203C26.8808 34.5668 29.4207 33.4131 31.4068 31.5064L29.7735 29.9012V29.9011Z"
    />
    <path
        d="M38.1785 23.0368C38.1785 26.3869 37.0493 29.4826 35.1455 31.976L36.7956 33.5977C37.7351 32.4149 38.51 31.1197 39.109 29.7278C40.0213 27.608 40.484 25.3568 40.484 23.0369C40.484 20.7169 40.0214 18.4657 39.109 16.346C38.2468 14.3425 37.0203 12.5392 35.4628 10.9839L33.8276 12.5909C36.5174 15.2846 38.1785 18.9737 38.1785 23.037V23.0368Z"
    />
    <path
        d="M21.8408 37.9168C18.1638 37.6443 14.8481 36.079 12.3641 33.6836L10.7289 35.2907C12.3117 36.8212 14.1464 38.0266 16.1851 38.8739C17.9892 39.6238 19.8869 40.0644 21.8407 40.1885V37.9169L21.8408 37.9168Z"
    />
    <path
        d="M7.80868 23.0369C7.80868 18.9736 9.46983 15.2845 12.1596 12.5908L10.5244 10.9837C8.96688 12.5392 7.74039 14.3425 6.87816 16.3459C5.96576 18.4657 5.50316 20.7169 5.50316 23.0369C5.50316 25.3568 5.96576 27.608 6.87816 29.7278C7.47721 31.1198 8.25222 32.415 9.19161 33.5977L10.8417 31.976C8.93788 29.4826 7.80856 26.3869 7.80856 23.0368L7.80868 23.0369Z"
    />
    <path
        d="M33.6228 33.6837C31.1388 36.0792 27.8232 37.6444 24.1461 37.9169V40.1885C26.1 40.0644 27.9976 39.6238 29.8018 38.8739C31.8405 38.0266 33.6754 36.8213 35.258 35.2907L33.6228 33.6836V33.6837Z"
    />
    <path
        d="M13.8974 11.0946C16.4346 9.22359 19.5847 8.11386 22.9936 8.11386C26.4025 8.11386 29.5526 9.22359 32.0897 11.0947L33.7399 9.47305C32.5363 8.54975 31.2184 7.78823 29.8021 7.19952C27.6451 6.30285 25.3544 5.84824 22.9937 5.84824C20.633 5.84824 18.3423 6.30285 16.1853 7.19952C14.7689 7.78823 13.4509 8.54987 12.2475 9.47305L13.8977 11.0947L13.8974 11.0946Z"
    />
    <path
        d="M21.8405 43.2802C16.6617 42.9985 11.9863 40.8312 8.51476 37.4667L6.87776 39.0754C8.96067 41.0974 11.3779 42.6887 14.0651 43.8057C16.5411 44.8349 19.1516 45.42 21.8405 45.5498V43.2802Z"
    />
    <path
        d="M37.6767 8.80831C41.3525 12.4713 43.6245 17.4982 43.6245 23.037C43.6245 27.8637 41.8992 32.3016 39.0232 35.787L40.6689 37.4043C42.0934 35.716 43.2529 33.8421 44.127 31.8112C45.3233 29.0316 45.9299 26.0794 45.9299 23.037C45.9299 19.9947 45.3233 17.0425 44.127 14.2629C42.9905 11.6221 41.3712 9.24652 39.3137 7.19954L37.6767 8.80831Z"
    />
    <path
        d="M37.4723 37.4668C34.0009 40.8313 29.3253 42.9987 24.1465 43.2803V45.5498C26.8355 45.42 29.4459 44.8349 31.922 43.8058C34.609 42.6888 37.0263 41.0975 39.1093 39.0755L37.4723 37.4668Z"
    />
    <path
        d="M1.86048 31.8112C2.73455 33.8421 3.89405 35.716 5.31863 37.4043L6.96428 35.787C4.08825 32.3017 2.36296 27.8637 2.36296 23.037C2.36296 17.4982 4.63486 12.4713 8.31076 8.80831L6.67375 7.19954C4.61628 9.24652 2.99703 11.6221 1.86048 14.2629C0.664176 17.0425 0.0575609 19.9945 0.0575609 23.037C0.0575609 26.0795 0.664176 29.0316 1.86048 31.8112Z"
    />
    <path
        d="M10.0199 7.28418C13.5664 4.45776 18.0823 2.76224 22.9937 2.76224C27.905 2.76224 32.4209 4.45776 35.9675 7.28418L37.6131 5.66692C35.895 4.2668 33.9882 3.1273 31.9219 2.26843C29.0934 1.09276 26.0896 0.496614 22.9937 0.496614C19.8977 0.496614 16.8939 1.09276 14.0654 2.26843C11.999 3.12741 10.0922 4.26691 8.37421 5.66692L10.0199 7.28418Z"
    />
</svg>
    