<svg width="51" height="50" viewBox="0 0 51 50" fill="none" xmlns="http://www.w3.org/2000/svg">
<g clip-path="url(#clip0_9367_53137)">
<path d="M15.1346 25.0146C15.1346 22.1428 16.28 19.534 18.1371 17.6202L16.3568 15.8388C13.9474 18.3067 12.6218 21.5584 12.6218 25.0146C12.6218 27.7245 13.437 30.3088 14.9503 32.4883L16.7681 30.6693C15.7342 29.0308 15.1348 27.0916 15.1348 25.0145L15.1346 25.0146Z" fill="#006970"/>
<path d="M34.732 30.6693L36.5498 32.4883C38.063 30.3088 38.8783 27.7245 38.8783 25.0146C38.8783 21.5586 37.5527 18.3067 35.1433 15.8388L33.363 17.6202C35.2201 19.534 36.3655 22.1427 36.3655 25.0146C36.3655 27.0916 35.7661 29.0308 34.7321 30.6693H34.732Z" fill="#006970"/>
<path d="M20.0988 16.0273C21.7363 14.9927 23.6744 14.393 25.75 14.393C27.8257 14.393 29.7639 14.9927 31.4014 16.0273L33.2192 14.2084C31.0411 12.6943 28.4584 11.8785 25.7502 11.8785C23.0419 11.8785 20.4592 12.6942 18.2811 14.2084L20.0989 16.0273H20.0988Z" fill="#006970"/>
<path d="M24.4935 38.0918V35.5621C22.1229 35.2811 19.9895 34.2155 18.3601 32.6325L16.5798 34.4139C18.7448 36.5299 21.5131 37.8103 24.4935 38.0917V38.0918Z" fill="#006970"/>
<path d="M33.1399 32.6325C31.5106 34.2155 29.3772 35.2811 27.0065 35.5621V38.0918C29.9869 37.8104 32.7554 36.5301 34.9202 34.414L33.1399 32.6326V32.6325Z" fill="#006970"/>
<path d="M42.3013 25.0159C42.3013 28.7339 41.0705 32.1695 38.9953 34.9366L40.7939 36.7363C41.8179 35.4237 42.6626 33.9863 43.3155 32.4416C44.3099 30.0891 44.8142 27.5907 44.8142 25.0161C44.8142 22.4414 44.31 19.943 43.3155 17.5905C42.3757 15.3671 41.0389 13.3659 39.3412 11.6397L37.5589 13.4232C40.4906 16.4127 42.3013 20.5068 42.3013 25.0162V25.0159Z" fill="#006970"/>
<path d="M24.4935 41.5297C20.4856 41.2273 16.8716 39.4902 14.1641 36.8318L12.3818 38.6152C14.107 40.3137 16.1068 41.6515 18.3289 42.5919C20.2953 43.4242 22.3638 43.9131 24.4934 44.0508V41.5298L24.4935 41.5297Z" fill="#006970"/>
<path d="M9.19878 25.0161C9.19878 20.5067 11.0094 16.4125 13.9412 13.423L12.1588 11.6396C10.4612 13.3659 9.12435 15.3671 8.18454 17.5905C7.19004 19.943 6.68583 22.4414 6.68583 25.0161C6.68583 27.5907 7.19004 30.0891 8.18454 32.4416C8.83748 33.9864 9.68223 35.4238 10.7061 36.7363L12.5047 34.9366C10.4296 32.1695 9.19865 28.7339 9.19865 25.0159L9.19878 25.0161Z" fill="#006970"/>
<path d="M37.3358 36.8319C34.6283 39.4903 31.0143 41.2274 27.0064 41.5298V44.0508C29.1361 43.9131 31.2045 43.4242 33.171 42.5919C35.3931 41.6515 37.3931 40.3139 39.1182 38.6152L37.3358 36.8318V36.8319Z" fill="#006970"/>
<path d="M15.8354 11.7616C18.6008 9.68515 22.0343 8.45358 25.75 8.45358C29.4656 8.45358 32.8991 9.68515 35.6645 11.7617L37.4631 9.962C36.1513 8.93733 34.7148 8.09219 33.171 7.43885C30.82 6.44374 28.3232 5.93921 25.7501 5.93921C23.177 5.93921 20.6802 6.44374 18.3291 7.43885C16.7853 8.09219 15.3487 8.93746 14.0371 9.962L15.8357 11.7617L15.8354 11.7616Z" fill="#006970"/>
<path d="M24.4935 47.4812C18.8487 47.1686 13.7527 44.7633 9.9688 41.0294L8.18451 42.8148C10.4548 45.0588 13.0895 46.8248 16.0185 48.0644C18.7173 49.2066 21.5627 49.856 24.4935 50V47.4812Z" fill="#006970"/>
<path d="M41.7542 9.22533C45.7607 13.2905 48.2372 18.8693 48.2372 25.0163C48.2372 30.3729 46.3567 35.298 43.2219 39.1661L45.0156 40.9609C46.5683 39.0873 47.8322 37.0076 48.7849 34.7538C50.0888 31.669 50.75 28.3927 50.75 25.0163C50.75 21.6399 50.0888 18.3636 48.7849 15.2787C47.5461 12.348 45.7811 9.71166 43.5385 7.43994L41.7542 9.22533Z" fill="#006970"/>
<path d="M41.5313 41.0295C37.7475 44.7635 32.6513 47.1688 27.0065 47.4814V50C29.9374 49.856 32.7828 49.2066 35.4816 48.0645C38.4104 46.8249 41.0451 45.0589 43.3156 42.8149L41.5313 41.0295Z" fill="#006970"/>
<path d="M2.71509 34.7538C3.6678 37.0076 4.93162 39.0873 6.48439 40.9609L8.2781 39.1661C5.1433 35.2981 3.26277 30.3729 3.26277 25.0163C3.26277 18.8693 5.73909 13.2905 9.74573 9.22533L7.96143 7.43994C5.71884 9.71166 3.95389 12.348 2.71509 15.2787C1.41115 18.3636 0.749951 21.6397 0.749951 25.0163C0.749951 28.3928 1.41115 31.669 2.71509 34.7538Z" fill="#006970"/>
<path d="M11.6089 7.5332C15.4745 4.39647 20.3967 2.51478 25.75 2.51478C31.1033 2.51478 36.0255 4.39647 39.8911 7.5332L41.6848 5.73838C39.8122 4.18454 37.7338 2.91993 35.4815 1.96676C32.3986 0.662015 29.1244 0.000414848 25.75 0.000414848C22.3755 0.000414848 19.1014 0.662015 16.0185 1.96676C13.7661 2.92006 11.6877 4.18466 9.81516 5.73838L11.6089 7.5332Z" fill="#006970"/>
</g>
<defs>
<clipPath id="clip0_9367_53137">
<rect width="50" height="50" fill="white" transform="matrix(-1 0 0 -1 50.75 50)"/>
</clipPath>
</defs>
</svg>
