<?xml version="1.0" encoding="UTF-8"?><svg xmlns="http://www.w3.org/2000/svg" viewBox="0 0 36.69 36.7"><defs><style>.d</style></defs><g id="a"/><g id="b"><g id="c"><path class="d" d="M23.38,16.08h0c.55-.25,.78-.94,.44-1.44-.86-1.27-2.14-2.22-3.65-2.66-.58-.17-1.17,.26-1.23,.86v.03c-.06,.49,.26,.93,.73,1.07,1.01,.3,1.87,.93,2.46,1.78,.28,.4,.79,.57,1.24,.37Z"/><path class="d" d="M18.35,22.98c-.53,0-1.03-.1-1.5-.26s-.99,0-1.24,.43h0c-.32,.56-.04,1.25,.56,1.46,.68,.24,1.42,.37,2.18,.37s1.5-.13,2.19-.37c.6-.21,.88-.9,.56-1.45h0c-.25-.44-.77-.61-1.24-.44s-.98,.27-1.51,.27Z"/><path class="d" d="M17.75,12.87v-.03c-.07-.6-.66-1.03-1.24-.86-1.51,.43-2.79,1.39-3.65,2.66-.34,.5-.11,1.19,.44,1.44h0c.45,.21,.96,.04,1.24-.36,.59-.84,1.45-1.48,2.46-1.78,.47-.14,.79-.58,.73-1.07Z"/><path class="d" d="M9.57,14.4h0c.46,.2,1,.05,1.25-.39,1.21-2.1,3.28-3.65,5.73-4.17,.49-.1,.81-.58,.75-1.07h0c-.06-.59-.63-1-1.22-.87-2.97,.64-5.48,2.52-6.97,5.07-.3,.52-.09,1.18,.46,1.43Z"/><path class="d" d="M9.65,18.35c0-.3,.02-.6,.05-.89,.05-.51-.28-.97-.78-1.08h0c-.58-.12-1.14,.28-1.2,.87-.04,.36-.06,.73-.06,1.1,0,2.74,1.04,5.24,2.75,7.13,.4,.44,1.09,.44,1.48,0h0c.34-.37,.35-.95,.01-1.32-1.39-1.54-2.24-3.57-2.24-5.81Z"/><path class="d" d="M18.35,27.04c-1.26,0-2.45-.27-3.53-.75-.46-.21-1-.02-1.25,.42h0c-.29,.52-.08,1.17,.46,1.42,1.32,.59,2.78,.92,4.31,.92s3-.33,4.32-.92c.54-.24,.76-.9,.46-1.41h0c-.25-.44-.79-.63-1.25-.42-1.08,.48-2.27,.76-3.53,.76Z"/><path class="d" d="M27.12,14.4h0c.54-.24,.75-.91,.45-1.42-1.49-2.55-4-4.43-6.97-5.07-.58-.13-1.15,.28-1.22,.87h0c-.05,.5,.26,.97,.75,1.07,2.44,.52,4.51,2.06,5.72,4.16,.25,.43,.8,.59,1.26,.39Z"/><path class="d" d="M27.04,18.35c0,2.23-.85,4.26-2.24,5.8-.34,.38-.33,.95,.01,1.32h0c.4,.44,1.09,.44,1.48,0,1.7-1.89,2.74-4.39,2.74-7.13,0-.37-.02-.74-.06-1.1-.06-.59-.63-.99-1.21-.87h0c-.5,.1-.84,.57-.78,1.08,.03,.29,.05,.59,.05,.89Z"/><path class="d" d="M5.93,18.35c0-.56,.04-1.11,.11-1.65,.07-.51-.29-.98-.79-1.08h0c-.58-.12-1.12,.29-1.2,.87s-.12,1.23-.12,1.86c0,3.84,1.51,7.32,3.97,9.9,.41,.43,1.09,.44,1.48,0h0c.34-.38,.35-.97,0-1.34-2.13-2.23-3.45-5.24-3.45-8.56Z"/><path class="d" d="M19.79,5.05h0c-.06,.51,.28,.99,.79,1.08,3.75,.69,6.91,3.06,8.67,6.31,.25,.45,.81,.63,1.28,.41h0c.54-.24,.74-.89,.46-1.41-2.04-3.73-5.68-6.47-9.99-7.27-.58-.11-1.14,.28-1.2,.87Z"/><path class="d" d="M30.76,18.35c0,3.32-1.32,6.33-3.44,8.55-.35,.37-.34,.96,0,1.34h0c.4,.44,1.07,.43,1.48,0,2.45-2.58,3.96-6.06,3.96-9.89,0-.63-.04-1.25-.12-1.86s-.62-.99-1.2-.87h0c-.5,.1-.86,.57-.79,1.08,.07,.54,.11,1.1,.11,1.66Z"/><path class="d" d="M16.9,5.05h0c-.06-.59-.62-.98-1.2-.87-4.31,.81-7.95,3.54-9.99,7.27-.28,.52-.08,1.17,.46,1.41h0c.47,.21,1.03,.04,1.27-.41,1.76-3.25,4.93-5.63,8.68-6.32,.5-.09,.84-.57,.79-1.08Z"/><path class="d" d="M18.35,30.77c-1.92,0-3.73-.44-5.35-1.22-.46-.22-1.02-.04-1.28,.41h0c-.29,.51-.08,1.15,.45,1.41,1.87,.9,3.97,1.4,6.18,1.4s4.31-.51,6.19-1.41c.53-.25,.74-.9,.45-1.41h0c-.26-.45-.82-.64-1.28-.41-1.62,.78-3.44,1.23-5.36,1.23Z"/><path class="d" d="M7.75,33.34l-.02-.02,.02,.02Z"/><path class="d" d="M16.47,1.15h0c-.06-.56-.58-.98-1.13-.88C9.75,1.2,4.76,4.7,2.06,9.89c-.26,.5-.02,1.12,.49,1.35h0c.49,.22,1.06,0,1.31-.47C6.26,6.18,10.68,3.09,15.62,2.25c.53-.09,.91-.56,.85-1.1Z"/><path class="d" d="M13.29,33.9c-.78-.25-1.53-.56-2.24-.92-.47-.23-1.04-.05-1.3,.41h0c-.29,.51-.08,1.14,.44,1.4,.79,.39,1.62,.73,2.48,1.01,4.76,1.55,9.7,1.02,13.86-1.06,.5-.25,.68-.89,.4-1.38h0c-.26-.47-.84-.63-1.32-.39-3.7,1.84-8.09,2.31-12.32,.93Z"/><path class="d" d="M18.57,0h.02s-.01,0-.02,0Z"/><path class="d" d="M35.28,14.81h0c-.53,.11-.86,.62-.78,1.15,.36,2.42,.2,4.96-.61,7.44-.81,2.5-2.18,4.66-3.91,6.4-.37,.37-.36,.97-.01,1.36h0c.38,.41,1.03,.45,1.43,.05,1.95-1.96,3.48-4.39,4.39-7.2,.91-2.81,1.1-5.68,.68-8.42-.09-.56-.64-.91-1.19-.8Z"/><path class="d" d="M23.4,2.8c4.23,1.37,7.5,4.33,9.41,7.99,.25,.47,.8,.68,1.29,.47h.01c.51-.24,.75-.85,.49-1.36-2.14-4.13-5.82-7.45-10.58-9-.87-.28-1.75-.5-2.62-.64-.57-.1-1.11,.3-1.18,.88h0c-.06,.52,.29,1,.81,1.09,.79,.13,1.58,.32,2.37,.58Z"/><path class="d" d="M1.4,14.81h0c-.55-.12-1.1,.24-1.19,.8-.88,5.8,1.11,11.57,5.09,15.61,.39,.4,1.05,.37,1.43-.05h0c.36-.4,.33-1-.05-1.39-3.51-3.59-5.27-8.69-4.51-13.83,.08-.53-.25-1.04-.77-1.15Z"/><rect class="d" x="18.35" y="18.35" width="0" height="0" transform="translate(-6.27 10.14) rotate(-26.57)"/><rect class="d" x="18.35" y="18.35" width="0" height="0" transform="translate(-7.1 13.26) rotate(-33.69)"/><rect class="d" x="18.35" y="18.35" width="0" height="0" transform="translate(-7.1 23.44) rotate(-56.31)"/><rect class="d" x="18.35" y="18.35" width="0" height="0" transform="translate(-7.6 18.35) rotate(-45)"/><rect class="d" x="18.35" y="18.35" width="0" height="0"/><path class="d" d="M12.94,17.23h-.03c-.59-.13-1.18,.3-1.2,.91-.04,1.57,.48,3.08,1.42,4.29,.37,.47,1.1,.47,1.5,.02h0c.33-.37,.33-.91,.03-1.3-.62-.82-.96-1.83-.94-2.89,0-.49-.31-.92-.79-1.02Z"/><path class="d" d="M23.76,17.23h.03c.59-.13,1.18,.3,1.2,.91,.04,1.57-.48,3.08-1.42,4.29-.37,.47-1.1,.47-1.5,.02h0c-.33-.37-.33-.91-.03-1.3,.62-.82,.96-1.83,.94-2.89,0-.49,.31-.92,.79-1.02Z"/></g></g></svg>

