<svg width="2129" height="466" viewBox="0 0 2129 466" fill="none" xmlns="http://www.w3.org/2000/svg">
<path d="M632.303 29.8193L645.162 34.213C645.476 34.213 645.476 34.213 645.789 34.213C646.417 34.213 646.73 33.8992 647.044 33.5853L666.803 6.59594C667.117 5.96828 667.117 5.3406 666.803 4.71294C666.49 4.08528 665.862 3.77148 665.235 3.77148H645.476C644.848 3.77148 644.221 4.08528 643.908 4.71294L631.048 27.3087C630.735 27.6226 630.735 28.2502 631.048 28.8779C631.362 29.1917 631.989 29.5055 632.303 29.8193Z" fill="#003D5B"/>
<path d="M599.057 154.099C604.389 159.748 610.976 164.142 618.189 167.594C625.717 170.732 633.871 172.615 642.967 172.615C648.926 172.615 654.572 171.988 660.217 170.419C665.549 168.849 670.881 166.653 675.272 164.142C679.663 161.317 683.74 158.179 687.19 154.727C690.64 150.961 693.463 146.881 695.345 142.488C695.659 142.174 695.659 141.546 695.345 141.232C695.031 140.918 694.718 140.605 694.404 140.291L677.468 135.583C676.527 135.27 675.899 135.897 675.586 136.525C674.331 139.349 672.763 141.86 670.567 144.057C668.372 146.254 665.863 148.137 663.04 149.706C660.217 151.275 657.081 152.53 653.944 153.472C646.103 155.668 637.635 155.355 630.108 152.216C625.717 150.333 621.953 147.823 618.503 144.371C615.053 141.232 612.23 137.152 610.035 132.445C608.153 128.365 606.898 123.972 606.271 118.95H700.991C701.932 118.95 702.559 118.323 702.559 117.695C702.872 116.753 702.872 115.812 702.872 114.243C702.872 112.988 702.872 111.418 702.872 109.535C702.872 101.69 701.304 93.8439 698.481 86.6258C695.659 79.0939 691.581 72.8172 686.563 67.1683C681.231 61.5194 674.958 57.1258 667.745 53.6736C660.217 50.2215 652.063 48.6523 642.967 48.6523C633.871 48.6523 625.717 50.2215 618.189 53.6736C610.662 56.8119 604.076 61.5194 598.744 67.1683C593.412 72.8172 589.021 79.4077 586.198 86.9397C583.375 94.4716 581.807 102.317 581.807 110.791C581.807 119.264 583.375 127.11 586.198 134.642C589.648 141.86 593.725 148.45 599.057 154.099ZM605.957 100.748C606.585 96.0407 607.839 91.9609 609.407 87.8811C611.603 83.4875 614.112 79.7215 617.562 76.5832C621.012 73.4449 624.776 70.9343 629.167 69.0513C637.949 65.5992 648.613 65.5992 657.395 69.0513C661.786 70.9343 665.863 73.445 668.999 76.2695C672.449 79.4078 675.272 83.1737 677.468 87.8811C679.349 91.9609 680.604 96.0407 681.231 100.748H605.957Z" fill="#003D5B"/>
<path d="M774.069 165.073L770.932 149.381C770.932 148.754 770.619 148.44 769.991 148.126C769.678 147.812 769.051 147.812 768.737 148.126C766.855 148.754 764.973 149.382 762.778 150.009C760.582 150.637 759.014 150.637 757.446 150.637C753.682 150.637 750.859 149.695 748.977 147.498C747.096 145.302 745.841 142.477 745.841 138.397V5.64728C745.841 4.70579 745.214 4.07812 744.273 4.07812H724.514C723.573 4.07812 722.945 4.70579 722.945 5.64728V145.615C722.945 153.775 725.454 160.365 730.159 164.759C734.864 169.467 741.136 171.663 749.291 171.663C752.741 171.663 756.818 171.35 761.523 170.408C765.914 169.467 769.991 168.211 773.441 166.956C773.755 166.642 774.382 165.701 774.069 165.073Z" fill="#003D5B"/>
<path d="M795.71 154.099C801.042 159.748 807.629 164.142 814.842 167.594C822.37 170.732 830.524 172.615 839.62 172.615C845.579 172.615 851.225 171.988 856.87 170.419C862.202 168.849 867.534 166.653 871.925 164.142C876.316 161.317 880.393 158.179 883.843 154.727C887.293 150.961 890.116 146.881 891.998 142.488C892.312 142.174 892.312 141.546 891.998 141.232C891.684 140.918 891.371 140.605 891.057 140.291L874.12 135.583C873.179 135.27 872.552 135.897 872.239 136.525C870.984 139.349 869.416 141.86 867.22 144.057C865.025 146.254 862.516 148.137 859.693 149.706C856.87 151.275 853.734 152.53 850.597 153.472C842.756 155.668 834.288 155.355 826.761 152.216C822.37 150.333 818.606 147.823 815.156 144.371C811.706 141.232 808.883 137.152 806.688 132.445C804.806 128.365 803.551 123.972 802.924 118.95H897.643C898.584 118.95 899.212 118.323 899.212 117.695C899.212 116.753 899.525 115.812 899.525 114.243C899.525 112.988 899.525 111.418 899.525 109.535C899.525 101.69 897.957 93.8439 895.134 86.6258C892.312 79.0939 888.234 72.8172 883.216 67.1683C877.884 61.5194 871.611 57.1258 864.398 53.6736C856.87 50.2215 848.715 48.6523 839.62 48.6523C830.524 48.6523 822.37 50.2215 814.842 53.6736C807.315 56.8119 800.729 61.5194 795.397 67.1683C790.065 72.8172 785.674 79.4077 782.851 86.9397C780.028 94.4716 778.46 102.317 778.46 110.791C778.46 119.264 780.028 127.11 782.851 134.642C785.987 141.86 790.378 148.45 795.71 154.099ZM802.297 100.748C802.924 96.0407 804.179 91.9609 805.747 87.8811C807.942 83.4875 810.451 79.7215 813.901 76.5832C817.351 73.4449 821.115 70.9343 825.506 69.0513C834.288 65.5992 844.952 65.5992 853.734 69.0513C858.125 70.9343 862.202 73.445 865.338 76.2695C868.789 79.4078 871.611 83.1737 873.807 87.8811C875.689 91.9609 876.943 96.0407 877.57 100.748H802.297Z" fill="#003D5B"/>
<path d="M928.38 153.785C933.711 159.434 940.298 163.828 947.512 167.28C955.039 170.732 963.194 172.301 972.289 172.301C978.248 172.301 983.894 171.674 989.226 170.105C994.558 168.536 999.576 166.653 1003.97 163.828C1008.36 161.317 1012.44 158.179 1015.57 154.413C1019.02 150.647 1021.53 146.567 1023.41 142.174C1023.73 141.86 1023.73 141.232 1023.41 140.918C1023.1 140.605 1022.79 140.291 1022.47 139.977L1003.34 134.328C1002.4 134.014 1001.46 134.642 1001.14 135.269C1000.2 137.466 998.949 139.663 997.067 141.546C995.185 143.743 992.676 145.312 990.167 146.881C987.658 148.45 984.521 149.706 981.385 150.647C973.23 152.844 964.762 152.216 957.234 148.764C952.843 146.567 948.766 143.743 945.63 139.977C942.18 136.211 939.671 131.817 937.475 126.482C935.593 121.461 934.339 115.812 934.339 109.849C934.339 103.886 935.28 98.2376 937.161 93.2163C939.043 88.195 941.866 83.8013 945.002 80.0354C948.139 76.2694 952.216 73.445 956.607 71.562C960.998 69.3652 966.016 68.4237 971.035 68.4237C977.307 68.4237 982.953 69.9928 987.971 72.8173C992.989 75.6418 997.067 79.7216 999.89 85.0567C1000.2 85.6843 1001.14 85.9981 1001.77 85.9981L1020.9 80.0354C1021.22 80.0354 1021.84 79.4077 1021.84 79.0939C1022.16 78.7801 1022.16 78.1524 1021.84 77.8386C1017.45 69.0514 1010.87 61.8332 1002.09 56.4981C993.303 51.163 982.953 48.6523 971.348 48.6523C962.253 48.6523 953.784 50.2215 946.571 53.6736C939.043 56.8119 932.77 61.5194 927.439 66.8546C922.107 72.5035 918.029 79.0939 914.893 86.6258C912.07 94.1577 910.502 102.004 910.502 110.477C910.502 118.95 912.07 126.796 914.893 134.328C918.97 141.546 923.048 148.137 928.38 153.785Z" fill="#003D5B"/>
<path d="M1035.33 69.0409H1049.45V145.615C1049.45 154.403 1052.27 160.993 1057.91 165.387C1063.25 169.467 1069.83 171.663 1077.36 171.663C1080.5 171.663 1083.63 171.349 1086.77 170.722C1089.91 170.094 1092.41 169.467 1094.92 168.525C1097.43 167.584 1099.63 166.956 1101.51 166.014C1103.39 165.073 1104.96 164.445 1106.21 163.818C1106.84 163.504 1107.16 162.562 1107.16 161.935L1102.45 146.243C1102.45 145.615 1101.82 145.302 1101.51 145.302C1100.88 144.988 1100.57 145.302 1099.94 145.302C1099.31 145.929 1097.43 146.557 1093.67 148.126C1090.53 149.381 1087.4 150.009 1083.63 150.009C1080.5 150.009 1077.99 149.068 1075.79 147.498C1073.6 145.929 1072.34 143.105 1072.34 139.339V68.727H1096.81C1097.75 68.727 1098.37 68.0994 1098.37 67.1579V52.0941C1098.37 51.1526 1097.75 50.5249 1096.81 50.5249H1072.34V13.493C1072.34 12.5515 1071.71 11.9238 1070.77 11.9238H1051.01C1050.07 11.9238 1049.45 12.5515 1049.45 13.493V50.5249H1035.33C1034.39 50.5249 1033.76 51.1526 1033.76 52.0941V67.4717C1033.45 68.4132 1034.39 69.0409 1035.33 69.0409Z" fill="#003D5B"/>
<path d="M1123.78 170.097H1143.54C1144.48 170.097 1145.11 169.469 1145.11 168.528V96.9742C1148.24 89.1285 1153.26 82.8519 1160.16 78.1444C1167.38 73.437 1175.84 71.2402 1185.25 70.9264C1186.19 70.9264 1186.82 70.2987 1186.82 69.3572V51.4688C1186.82 50.5274 1186.19 49.8997 1185.57 49.8997C1184.63 49.5859 1183.68 49.5859 1182.43 49.5859H1178.67C1170.83 49.5859 1163.61 52.4103 1156.71 57.7454C1151.69 61.8252 1147.3 66.8466 1143.54 72.4955V52.0965C1143.54 51.1551 1142.91 50.5274 1141.97 50.5274H1123.78C1122.84 50.5274 1122.21 51.1551 1122.21 52.0965V168.528C1122.21 169.469 1122.84 170.097 1123.78 170.097Z" fill="#003D5B"/>
<path d="M1205.64 31.6951H1225.4C1226.34 31.6951 1226.97 31.0675 1226.97 30.126V5.64728C1226.97 4.70579 1226.34 4.07812 1225.4 4.07812H1205.64C1204.7 4.07812 1204.07 4.70579 1204.07 5.64728V30.126C1204.07 31.0675 1204.7 31.6951 1205.64 31.6951Z" fill="#003D5B"/>
<path d="M1205.64 170.103H1225.4C1226.34 170.103 1226.97 169.475 1226.97 168.533V52.1024C1226.97 51.1609 1226.34 50.5332 1225.4 50.5332H1205.64C1204.7 50.5332 1204.07 51.1609 1204.07 52.1024V168.533C1204.07 169.475 1204.7 170.103 1205.64 170.103Z" fill="#003D5B"/>
<path d="M1264.92 153.785C1270.25 159.434 1276.83 163.828 1284.05 167.28C1291.58 170.732 1299.73 172.301 1308.83 172.301C1314.79 172.301 1320.43 171.674 1325.76 170.105C1331.09 168.536 1336.11 166.653 1340.5 163.828C1344.89 161.317 1348.97 158.179 1352.11 154.413C1355.56 150.647 1358.07 146.567 1359.95 142.174C1360.26 141.86 1360.26 141.232 1359.95 140.918C1359.64 140.605 1359.32 140.291 1359.01 139.977L1339.88 134.328C1338.94 134.014 1337.99 134.642 1337.68 135.269C1336.74 137.466 1335.49 139.663 1333.6 141.546C1331.72 143.743 1329.21 145.312 1326.7 146.881C1324.19 148.45 1321.06 149.706 1317.92 150.647C1309.77 152.844 1301.3 152.216 1293.77 148.764C1289.38 146.567 1285.3 143.743 1282.17 139.977C1278.72 136.211 1276.21 131.817 1274.01 126.482C1272.13 121.461 1270.88 115.812 1270.88 109.849C1270.88 103.886 1271.82 98.2376 1273.7 93.2163C1275.58 88.195 1278.4 83.8013 1281.54 80.0354C1284.68 76.2694 1288.75 73.445 1293.14 71.562C1297.54 69.3652 1302.55 68.4237 1307.57 68.4237C1313.84 68.4237 1319.49 69.9928 1324.51 72.8173C1329.53 75.6418 1333.6 79.7216 1336.43 85.0567C1336.74 85.6843 1337.68 85.9981 1338.31 85.9981L1357.44 80.0354C1357.75 80.0354 1358.38 79.4077 1358.38 79.0939C1358.7 78.7801 1358.7 78.1524 1358.38 77.8386C1353.99 69.0514 1347.4 61.8332 1338.62 56.4981C1329.84 51.163 1319.49 48.6523 1307.89 48.6523C1298.79 48.6523 1290.32 50.2215 1283.11 53.6736C1275.58 56.8119 1269.31 61.5194 1263.98 66.8546C1258.64 72.5035 1254.57 79.0939 1251.43 86.6258C1248.61 94.1577 1247.04 102.004 1247.04 110.477C1247.04 118.95 1248.61 126.796 1251.43 134.328C1255.51 141.546 1259.9 148.137 1264.92 153.785Z" fill="#003D5B"/>
<path d="M1403.23 168.533V52.1024C1403.23 51.1609 1402.61 50.5332 1401.66 50.5332H1381.9C1380.96 50.5332 1380.34 51.1609 1380.34 52.1024V168.533C1380.34 169.475 1380.96 170.103 1381.9 170.103H1401.66C1402.29 170.103 1403.23 169.475 1403.23 168.533Z" fill="#003D5B"/>
<path d="M1381.91 31.6951H1401.66C1402.61 31.6951 1403.23 31.0675 1403.23 30.126V5.64728C1403.23 4.70579 1402.61 4.07812 1401.66 4.07812H1381.91C1380.96 4.07812 1380.34 4.70579 1380.34 5.64728V30.126C1380.02 31.0675 1380.96 31.6951 1381.91 31.6951Z" fill="#003D5B"/>
<path d="M1423.31 69.0409H1437.42V145.615C1437.42 154.403 1440.24 160.993 1445.89 165.387C1451.22 169.467 1457.81 171.663 1465.33 171.663C1468.47 171.663 1471.61 171.349 1474.74 170.722C1477.88 170.094 1480.39 169.467 1482.9 168.525C1485.41 167.584 1487.6 166.956 1489.48 166.014C1491.37 165.073 1492.93 164.445 1494.19 163.818C1494.82 163.504 1495.13 162.562 1495.13 161.935L1490.42 146.243C1490.42 145.615 1489.8 145.302 1489.48 145.302C1488.86 144.988 1488.54 145.302 1487.92 145.302C1487.29 145.929 1485.41 146.557 1481.64 148.126C1478.51 149.381 1475.37 150.009 1471.61 150.009C1468.47 150.009 1465.96 149.068 1463.77 147.498C1461.57 145.929 1460.32 143.105 1460.32 139.339V68.727H1484.78C1485.72 68.727 1486.35 68.0994 1486.35 67.1579V52.0941C1486.35 51.1526 1485.72 50.5249 1484.78 50.5249H1460.32V13.493C1460.32 12.5515 1459.69 11.9238 1458.75 11.9238H1438.99C1438.05 11.9238 1437.42 12.5515 1437.42 13.493V50.5249H1423.31C1422.36 50.5249 1421.74 51.1526 1421.74 52.0941V67.4717C1421.74 68.4132 1422.36 69.0409 1423.31 69.0409Z" fill="#003D5B"/>
<path d="M1553.15 29.8193L1566.01 34.213C1566.33 34.213 1566.33 34.213 1566.64 34.213C1567.27 34.213 1567.58 33.8992 1567.89 33.5853L1587.65 6.59594C1587.97 5.96828 1587.97 5.3406 1587.65 4.71294C1587.34 4.08528 1586.71 3.77148 1586.09 3.77148H1566.33C1565.7 3.77148 1565.07 4.08528 1564.76 4.71294L1551.9 27.3087C1551.59 27.6226 1551.59 28.2502 1551.9 28.8779C1552.21 29.1917 1552.53 29.5055 1553.15 29.8193Z" fill="#003D5B"/>
<path d="M1596.12 163.82C1600.51 160.995 1604.59 157.857 1608.04 154.405C1611.49 150.639 1614.31 146.559 1616.19 142.165C1616.51 141.852 1616.51 141.224 1616.19 140.91C1615.88 140.596 1615.57 140.282 1615.25 139.969L1598.32 135.261C1597.38 134.947 1596.75 135.575 1596.43 136.203C1595.18 139.027 1593.61 141.538 1591.42 143.735C1589.22 145.931 1586.71 147.814 1583.89 149.383C1581.07 150.953 1577.93 152.208 1574.79 153.149C1566.95 155.346 1558.48 155.032 1550.96 151.894C1546.57 150.011 1542.8 147.5 1539.35 144.048C1535.9 140.91 1533.08 136.83 1530.88 132.123C1529 128.043 1527.75 123.649 1527.12 118.628H1621.84C1622.78 118.628 1623.41 118 1623.41 117.373C1623.72 116.431 1623.72 115.49 1623.72 113.921C1623.72 112.665 1623.72 111.096 1623.72 109.213C1623.72 101.367 1622.15 93.5216 1619.33 86.3035C1616.51 78.7716 1612.43 72.4951 1607.41 66.8461C1602.08 61.1972 1595.81 56.8035 1588.59 53.3514C1581.07 49.8992 1572.91 48.3301 1563.82 48.3301C1554.72 48.3301 1546.57 49.8992 1539.04 53.3514C1531.51 56.4897 1524.92 61.1972 1519.59 66.8461C1514.26 72.4951 1509.87 79.0855 1507.05 86.6174C1504.22 94.1493 1502.66 101.995 1502.66 110.469C1502.66 118.942 1504.22 126.788 1507.05 134.32C1509.87 141.852 1514.26 148.442 1519.59 154.091C1524.92 159.74 1531.51 164.133 1538.72 167.586C1546.25 170.724 1554.41 172.607 1563.5 172.607C1569.46 172.607 1575.11 171.979 1580.75 170.41C1586.4 168.527 1591.42 166.33 1596.12 163.82ZM1601.77 100.74H1526.49C1527.12 96.0323 1528.37 91.9525 1529.94 87.8727C1532.14 83.4791 1534.65 79.7131 1538.1 76.5748C1541.55 73.4365 1545.31 70.9259 1549.7 69.0429C1558.48 65.5908 1569.15 65.5908 1577.93 69.0429C1582.32 70.9259 1586.4 73.4366 1589.53 76.261C1592.98 79.3993 1595.81 83.1652 1598 87.8727C1600.2 91.9525 1601.45 96.0323 1601.77 100.74Z" fill="#003D5B"/>
<path d="M1791.52 157.541C1791.83 161.307 1793.4 164.445 1796.22 166.956C1799.05 169.467 1803.12 170.722 1808.14 170.722C1809.08 170.722 1810.34 170.722 1811.91 170.408C1813.16 170.408 1814.73 170.094 1816.3 169.78C1817.24 169.78 1817.55 168.839 1817.55 168.211V151.264C1817.55 150.323 1816.92 149.695 1815.98 149.695C1813.79 149.695 1811.28 148.754 1811.28 144.36V5.64728C1811.28 4.70579 1810.65 4.07812 1809.71 4.07812H1789.95C1789.01 4.07812 1788.38 4.70579 1788.38 5.64728V69.9825C1784.3 64.6474 1779.29 59.9398 1773.33 56.1739C1765.8 51.1526 1757.02 48.642 1747.3 48.642C1739.45 48.642 1731.93 50.2111 1725.34 53.6633C1718.75 56.8016 1712.79 61.509 1708.09 67.1579C1703.39 72.8069 1699.62 79.3973 1696.8 86.9293C1694.29 94.4612 1692.72 102.307 1692.72 110.78C1692.72 118.94 1694.29 126.786 1696.8 134.318C1699.62 141.85 1703.7 148.44 1708.72 154.089C1713.74 159.738 1719.69 164.445 1726.91 167.584C1733.81 171.036 1741.65 172.605 1749.8 172.605C1758.59 172.605 1767.05 170.408 1774.9 166.014C1781.17 162.562 1786.81 157.855 1790.89 151.892L1791.52 157.541ZM1788.38 94.4612V127.413C1787.75 130.552 1786.19 133.69 1783.99 136.828C1781.8 139.967 1778.97 142.477 1775.52 144.988C1772.39 147.185 1768.94 149.068 1765.17 150.323C1755.76 153.775 1746.98 152.52 1739.77 149.068C1735.06 146.871 1730.99 143.733 1727.54 140.28C1724.09 136.514 1721.26 132.121 1719.38 127.1C1717.5 122.078 1716.24 116.743 1716.24 111.094C1716.24 105.759 1717.19 100.424 1718.75 95.4026C1720.32 90.3813 1722.83 85.6739 1726.28 81.908C1729.42 78.142 1733.5 75.0037 1737.89 72.4931C1742.28 70.2963 1747.3 69.0409 1752.94 69.0409C1756.39 69.0409 1760.15 69.6686 1763.6 70.9239C1767.37 72.1792 1770.82 74.0622 1773.95 76.5728C1777.09 79.0835 1780.23 81.908 1782.74 85.0463C1785.25 87.5569 1787.13 91.009 1788.38 94.4612Z" fill="#003D5B"/>
<path d="M1851.74 154.099C1857.07 159.748 1863.66 164.142 1870.87 167.594C1878.4 170.732 1886.55 172.615 1895.65 172.615C1901.61 172.615 1907.25 171.988 1912.9 170.419C1918.23 168.849 1923.56 166.653 1927.95 164.142C1932.34 161.317 1936.42 158.179 1939.87 154.727C1943.32 150.961 1946.14 146.881 1948.03 142.488C1948.34 142.174 1948.34 141.546 1948.03 141.232C1947.71 140.918 1947.4 140.605 1947.09 140.291L1930.15 135.583C1929.21 135.27 1928.58 135.897 1928.27 136.525C1927.01 139.349 1925.44 141.86 1923.25 144.057C1921.05 146.254 1918.54 148.137 1915.72 149.706C1912.9 151.275 1909.76 152.53 1906.63 153.472C1898.78 155.668 1890.32 155.355 1882.79 152.216C1878.4 150.333 1874.63 147.823 1871.18 144.371C1867.73 141.232 1864.91 137.152 1862.72 132.445C1860.83 128.365 1859.58 123.972 1858.95 118.95H1953.67C1954.61 118.95 1955.24 118.323 1955.24 117.695C1955.55 116.753 1955.55 115.812 1955.55 114.243C1955.55 112.988 1955.55 111.418 1955.55 109.535C1955.55 101.69 1953.99 93.8439 1951.16 86.6258C1948.34 79.0939 1944.26 72.8172 1939.24 67.1683C1933.91 61.5194 1927.64 57.1258 1920.43 53.6736C1912.9 50.2215 1904.74 48.6523 1895.65 48.6523C1886.55 48.6523 1878.4 50.2215 1870.87 53.6736C1863.34 56.8119 1856.76 61.5194 1851.42 67.1683C1846.09 72.8172 1841.7 79.4077 1838.88 86.9397C1836.06 94.4716 1834.49 102.317 1834.49 110.791C1834.49 119.264 1836.06 127.11 1838.88 134.642C1842.02 141.86 1846.41 148.45 1851.74 154.099ZM1858.64 100.748C1859.27 96.0407 1860.52 91.9609 1862.09 87.8811C1864.28 83.4875 1866.79 79.7215 1870.24 76.5832C1873.69 73.4449 1877.46 70.9343 1881.85 69.0513C1890.63 65.5992 1901.29 65.5992 1910.08 69.0513C1914.47 70.9343 1918.54 73.445 1921.68 76.2695C1925.13 79.4078 1927.95 83.1737 1930.15 87.8811C1932.03 91.9609 1933.29 96.0407 1933.91 100.748H1858.64Z" fill="#003D5B"/>
<path d="M724.518 266.171C718.245 259.267 711.031 253.618 702.249 249.538C693.781 245.145 684.058 243.262 673.708 243.262H583.693C582.752 243.262 582.125 243.889 582.125 244.831V456.039C582.125 456.98 582.752 457.608 583.693 457.608H632.308C633.248 457.608 633.876 456.98 633.876 456.039V389.507H674.963C685.313 389.507 694.722 387.31 703.19 383.544C711.659 379.464 718.872 373.815 724.832 367.225C730.791 360.32 735.495 352.475 738.945 343.687C742.395 334.9 743.964 325.799 743.964 316.384C743.964 307.597 742.082 298.496 738.632 290.022C735.495 280.921 730.791 273.076 724.518 266.171ZM691.899 316.07C691.899 325.171 690.017 332.076 685.94 336.783C682.176 341.491 677.472 343.687 672.453 343.687H634.189V289.395H670.572C673.081 289.395 675.59 290.022 678.413 290.964C680.922 291.905 683.117 293.474 685.313 295.671C687.195 297.868 689.076 300.693 690.331 304.145C691.272 307.283 691.899 311.363 691.899 316.07Z" fill="#003D5B"/>
<path d="M900.157 378.209C905.175 375.384 909.566 371.932 913.33 367.852C917.721 363.459 921.484 358.437 924.307 353.102C927.444 347.767 929.639 341.804 931.207 335.528C932.775 329.251 933.716 322.975 933.716 316.07C933.716 307.283 931.835 298.182 928.385 289.709C924.934 280.921 919.916 273.076 913.643 266.171C907.371 259.267 899.843 253.618 891.375 249.538C882.907 245.145 873.184 243.262 863.147 243.262H768.114C767.173 243.262 766.546 243.889 766.546 244.831V456.039C766.546 456.98 767.173 457.608 768.114 457.608H816.728C817.669 457.608 818.297 456.98 818.297 456.039V389.507H847.465L889.493 456.98C889.807 457.608 890.434 457.608 890.748 457.608H945.635C946.262 457.608 946.889 457.294 947.203 456.666C947.517 456.039 947.517 455.411 947.203 455.097L900.157 378.209ZM881.025 316.07C881.025 324.23 879.143 330.82 875.066 336.155C871.302 341.177 866.911 343.687 861.579 343.687H818.61V289.395H860.011C865.029 289.395 869.734 291.905 874.125 296.613C878.829 301.32 881.025 307.911 881.025 316.07Z" fill="#003D5B"/>
<path d="M1130.68 276.2C1121.9 265.843 1110.92 257.684 1098.38 251.407C1085.83 245.13 1071.72 241.992 1056.66 241.992C1041.92 241.992 1027.81 245.13 1015.26 250.779C1002.72 256.742 991.74 264.588 982.644 274.631C973.549 284.673 966.335 296.285 961.317 309.152C956.298 322.333 953.476 335.827 953.476 349.95C953.476 363.758 955.985 377.253 961.003 390.434C966.021 403.301 972.921 415.227 981.703 425.269C990.485 435.312 1001.46 443.785 1014.01 449.748C1026.55 456.024 1040.67 459.163 1055.72 459.163C1070.46 459.163 1084.58 456.024 1097.12 450.062C1109.67 444.099 1120.65 435.939 1129.74 425.897C1138.84 415.854 1146.05 404.242 1151.07 391.375C1156.09 378.194 1158.91 364.7 1158.91 350.577C1158.91 337.083 1156.4 323.902 1151.7 310.721C1146.99 297.54 1139.78 286.242 1130.68 276.2ZM1105.59 349.95C1105.59 357.796 1104.65 365.327 1102.45 372.859C1100.57 380.391 1097.44 386.982 1093.05 392.944C1088.97 398.907 1083.64 403.615 1077.68 407.067C1071.72 410.519 1064.5 412.402 1056.35 412.402C1048.2 412.402 1041.29 410.519 1035.02 407.381C1028.75 403.929 1023.73 399.221 1019.65 393.572C1015.58 387.923 1012.44 381.019 1009.93 373.801C1007.74 366.269 1006.48 358.423 1006.48 350.577C1006.48 342.732 1007.42 335.2 1009.62 327.668C1011.81 320.136 1014.95 313.545 1019.03 307.897C1023.1 302.248 1028.44 297.54 1034.39 294.088C1040.35 290.636 1047.57 288.753 1055.72 288.753C1063.56 288.753 1070.46 290.322 1076.74 293.774C1082.7 297.226 1088.03 301.62 1092.42 307.269C1096.5 312.918 1099.95 319.508 1102.14 327.04C1104.65 334.258 1105.59 342.104 1105.59 349.95Z" fill="#003D5B"/>
<path d="M1358.39 243.262H1306.95C1306.32 243.262 1305.69 243.576 1305.38 244.517L1258.02 389.82L1209.72 244.517C1209.41 243.889 1208.78 243.262 1208.15 243.262H1156.71C1156.09 243.262 1155.77 243.576 1155.46 243.889C1155.15 244.203 1155.15 244.831 1155.15 245.459L1236.07 456.666C1236.38 457.294 1237.01 457.608 1237.63 457.608H1278.41C1279.03 457.608 1279.66 457.294 1279.98 456.666L1360.27 245.459C1360.58 244.831 1360.27 244.517 1359.95 243.889C1359.33 243.262 1358.7 243.262 1358.39 243.262Z" fill="#003D5B"/>
<path d="M1525.87 411.475H1428.01V369.735H1509.56C1510.5 369.735 1511.13 369.108 1511.13 368.166V328.623C1511.13 327.682 1510.5 327.054 1509.56 327.054H1428.01V289.395H1523.36C1524.3 289.395 1524.93 288.767 1524.93 287.826V244.831C1524.93 243.889 1524.3 243.262 1523.36 243.262H1377.52C1376.58 243.262 1375.95 243.889 1375.95 244.831V456.039C1375.95 456.98 1376.58 457.608 1377.52 457.608H1525.87C1526.81 457.608 1527.44 456.98 1527.44 456.039V413.044C1527.75 412.416 1526.81 411.475 1525.87 411.475Z" fill="#003D5B"/>
<path d="M1741.66 243.253H1693.04C1692.1 243.253 1691.47 243.881 1691.47 244.822V364.078L1596.13 243.567C1595.81 243.253 1595.18 242.939 1594.87 242.939H1556.92C1555.98 242.939 1555.35 243.567 1555.35 244.509V455.716C1555.35 456.658 1555.98 457.285 1556.92 457.285H1605.54C1606.48 457.285 1607.1 456.658 1607.1 455.716V339.599L1701.2 456.972C1701.51 457.285 1701.82 457.599 1702.45 457.599H1741.66C1742.6 457.599 1743.22 456.972 1743.22 456.03V244.822C1743.22 243.881 1742.6 243.253 1741.66 243.253Z" fill="#003D5B"/>
<path d="M1954.93 407.388L1914.78 383.851C1914.47 383.537 1913.84 383.537 1913.53 383.851C1913.22 384.165 1912.59 384.478 1912.59 384.792C1910.71 389.813 1908.2 394.207 1905.06 397.973C1901.92 401.425 1898.47 404.25 1894.71 406.446C1890.95 408.643 1886.87 410.212 1882.79 411.468C1870.56 414.606 1859.58 413.037 1850.49 408.016C1844.53 404.564 1839.2 400.17 1834.8 394.207C1830.41 388.558 1826.96 381.654 1824.77 374.122C1822.26 366.59 1821 358.744 1821 350.585C1821 343.053 1821.95 335.521 1824.14 327.989C1826.02 320.771 1829.16 314.18 1833.24 308.217C1837.31 302.569 1842.33 297.861 1848.61 294.095C1857.39 289.074 1868.36 287.191 1882.16 290.015C1886.24 290.957 1890.32 292.526 1894.08 294.723C1897.85 296.92 1901.3 299.744 1904.75 303.196C1907.88 306.648 1910.71 311.042 1912.9 316.377C1913.22 316.691 1913.53 317.319 1913.84 317.319C1914.47 317.319 1914.78 317.319 1915.41 317.005L1952.73 290.957C1953.36 290.643 1953.67 289.702 1953.36 288.76C1946.46 274.952 1935.8 263.34 1921.68 254.866C1907.57 246.079 1890.95 241.686 1871.81 241.686C1855.51 241.686 1840.76 244.824 1828.22 251.1C1815.36 257.377 1804.7 265.537 1795.6 275.579C1786.82 285.622 1779.92 297.233 1775.21 309.787C1770.51 322.34 1768.31 335.521 1768.31 348.388C1768.31 361.883 1770.82 375.691 1775.84 388.872C1780.86 402.053 1787.76 413.978 1796.85 424.335C1805.64 434.691 1816.61 443.164 1828.85 449.441C1841.08 455.718 1854.88 458.856 1869.93 458.856C1878.4 458.856 1887.18 457.601 1895.65 455.404C1904.43 453.207 1912.59 450.069 1920.43 445.675C1928.27 441.595 1935.48 436.26 1941.44 429.984C1947.72 423.707 1952.42 416.489 1955.56 408.643C1955.87 408.643 1955.56 407.702 1954.93 407.388Z" fill="#003D5B"/>
<path d="M2127.43 411.475H2029.58V369.735H2111.12C2112.06 369.735 2112.69 369.108 2112.69 368.166V328.623C2112.69 327.682 2112.06 327.054 2111.12 327.054H2029.58V289.395H2124.92C2125.86 289.395 2126.49 288.767 2126.49 287.826V244.831C2126.49 243.889 2125.86 243.262 2124.92 243.262H1979.08C1978.14 243.262 1977.51 243.889 1977.51 244.831V456.039C1977.51 456.98 1978.14 457.608 1979.08 457.608H2127.43C2128.37 457.608 2129 456.98 2129 456.039V413.044C2129 412.416 2128.37 411.475 2127.43 411.475Z" fill="#003D5B"/>
<path d="M449.086 0H0V466H449.086V0ZM224.543 216.357C214.673 216.357 207.579 208.996 207.579 198.754V166.749C207.579 156.507 214.673 149.146 224.543 149.146C234.721 149.146 241.507 158.427 241.507 166.749V198.754C241.815 208.996 234.413 216.357 224.543 216.357ZM332.188 257.324C327.87 257.324 323.551 255.404 320.159 251.883C317.074 249.323 314.915 245.482 314.915 241.001C314.607 236.201 316.457 231.4 320.159 227.879L342.675 205.795C345.451 202.595 349.152 200.354 353.47 200.354C353.778 200.354 354.087 200.354 354.395 200.354C359.022 200.354 363.34 202.275 366.733 205.475C370.126 208.356 371.976 212.196 372.285 216.357C372.593 221.158 370.743 225.959 367.041 229.479L344.525 251.883C340.824 255.404 336.506 257.324 332.188 257.324ZM117.515 257.644C112.888 257.644 108.262 255.724 105.177 252.203L82.6614 229.8C79.577 227.239 77.7264 223.398 77.4179 218.918C77.1095 214.117 78.9601 209.636 82.6614 205.795C85.1289 202.595 89.1386 200.674 93.4567 200.354C93.7651 200.354 94.0736 200.354 94.382 200.354C99.0086 200.354 103.635 202.275 107.028 205.795L129.236 227.879C132.628 230.76 134.479 234.6 134.787 238.761C135.096 243.562 133.245 248.043 129.544 251.883C127.076 255.084 123.067 257.004 118.749 257.324C118.132 257.324 117.823 257.644 117.515 257.644Z" fill="#FCC10C"/>
</svg>
