<svg width="60" height="60" viewBox="0 0 60 60" fill="none" xmlns="http://www.w3.org/2000/svg">
<rect x="0" y="0" width="60" height="60" fill="white" />
<path d="M1.06109e-06 0H60V60H1.06109e-06V0ZM30 27.8571C31.3187 27.8571 32.2665 26.9093 32.2665 25.5907V21.4698C32.2665 20.1511 31.3187 19.2033 30 19.2033C28.6401 19.2033 27.7335 20.3984 27.7335 21.4698V25.5907C27.6923 26.9093 28.6813 27.8571 30 27.8571ZM15.6181 33.1319C16.1951 33.1319 16.772 32.8846 17.2253 32.4313C17.6374 32.1017 17.9258 31.6071 17.9258 31.0302C17.967 30.4121 17.7198 29.794 17.2253 29.3407L14.217 26.4973C13.8462 26.0852 13.3516 25.7967 12.7747 25.7967C12.7335 25.7967 12.6923 25.7967 12.6511 25.7967C12.033 25.7967 11.456 26.044 11.0028 26.456C10.5495 26.8269 10.3022 27.3214 10.261 27.8571C10.2198 28.4753 10.467 29.0934 10.9615 29.5467L13.9698 32.4313C14.4643 32.8846 15.0412 33.1319 15.6181 33.1319ZM44.2995 33.1731C44.9176 33.1731 45.5357 32.9258 45.9478 32.4725L48.956 29.5879C49.3681 29.2582 49.6154 28.7637 49.6566 28.1868C49.6978 27.5687 49.4506 26.9918 48.956 26.4973C48.6264 26.0852 48.0907 25.8379 47.5137 25.7967C47.4725 25.7967 47.4313 25.7967 47.3901 25.7967C46.772 25.7967 46.1538 26.044 45.7006 26.4973L42.7335 29.3407C42.2802 29.7115 42.033 30.206 41.9918 30.7418C41.9506 31.3599 42.1978 31.9368 42.6923 32.4313C43.022 32.8434 43.5577 33.0907 44.1346 33.1319C44.217 33.1319 44.2582 33.1731 44.2995 33.1731Z" fill="#FCC10C"/>
</svg>
