<svg width="46" height="46" viewBox="0 0 46 46" xmlns="http://www.w3.org/2000/svg">
<path d="M13.1966 22.5411C13.1966 19.9534 14.2474 17.6027 15.9512 15.8782L14.3178 14.273C12.1074 16.4968 10.8912 19.4268 10.8912 22.5411C10.8912 24.9829 11.6391 27.3116 13.0274 29.2754L14.6952 27.6364C13.7466 26.16 13.1967 24.4126 13.1967 22.541L13.1966 22.5411Z"/>
<path d="M31.1764 27.6364L32.8442 29.2754C34.2324 27.3116 34.9805 24.9829 34.9805 22.5411C34.9805 19.4269 33.7643 16.4968 31.5538 14.273L29.9205 15.8782C31.6242 17.6027 32.6751 19.9533 32.6751 22.5411C32.6751 24.4126 32.1251 26.16 31.1765 27.6364H31.1764Z"/>
<path d="M17.7517 14.4424C19.254 13.5101 21.0321 12.9697 22.9364 12.9697C24.8408 12.9697 26.619 13.5101 28.1213 14.4424L29.7891 12.8034C27.7908 11.4391 25.4212 10.7039 22.9365 10.7039C20.4519 10.7039 18.0823 11.439 16.084 12.8034L17.7518 14.4424H17.7517Z"/>
<path d="M21.7832 34.3242V32.0448C19.6082 31.7916 17.651 30.8314 16.1561 29.405L14.5228 31.0102C16.509 32.9169 19.0488 34.0706 21.7832 34.3241V34.3242Z"/>
<path d="M29.7153 29.405C28.2205 30.8314 26.2632 31.7916 24.0882 32.0448V34.3242C26.8226 34.0707 29.3625 32.917 31.3486 31.0103L29.7153 29.4051V29.405Z"/>
<path d="M38.1203 22.5407C38.1203 25.8908 36.9911 28.9865 35.0872 31.4799L36.7373 33.1016C37.6768 31.9188 38.4517 30.6236 39.0508 29.2317C39.9631 27.1119 40.4258 24.8607 40.4258 22.5408C40.4258 20.2208 39.9632 17.9696 39.0508 15.8499C38.1886 13.8464 36.9621 12.0432 35.4046 10.4878L33.7694 12.0948C36.4591 14.7885 38.1203 18.4776 38.1203 22.5409V22.5407Z"/>
<path d="M21.7822 37.4207C18.1051 37.1482 14.7895 35.583 12.3055 33.1875L10.6703 34.7946C12.2531 36.3251 14.0878 37.5305 16.1265 38.3779C17.9306 39.1278 19.8283 39.5683 21.7821 39.6924V37.4208L21.7822 37.4207Z"/>
<path d="M7.75065 22.5408C7.75065 18.4775 9.4118 14.7884 12.1016 12.0947L10.4663 10.4877C8.90885 12.0432 7.68237 13.8464 6.82014 15.8499C5.90773 17.9696 5.44514 20.2208 5.44514 22.5408C5.44514 24.8607 5.90773 27.1119 6.82014 29.2317C7.41918 30.6237 8.19419 31.9189 9.13358 33.1016L10.7837 31.4799C8.87985 28.9865 7.75053 25.8908 7.75053 22.5407L7.75065 22.5408Z"/>
<path d="M33.565 33.1877C31.081 35.5831 27.7653 37.1483 24.0882 37.4208V39.6924C26.0422 39.5683 27.9398 39.1278 29.744 38.3779C31.7826 37.5305 33.6175 36.3252 35.2002 34.7946L33.565 33.1875V33.1877Z"/>
<path d="M13.8392 10.5985C16.3763 8.7275 19.5264 7.61777 22.9354 7.61777C26.3443 7.61777 29.4944 8.7275 32.0315 10.5986L33.6816 8.97696C32.4781 8.05366 31.1602 7.29213 29.7439 6.70343C27.5869 5.80676 25.2961 5.35215 22.9355 5.35215C20.5748 5.35215 18.2841 5.80676 16.1271 6.70343C14.7107 7.29213 13.3927 8.05378 12.1893 8.97696L13.8395 10.5986L13.8392 10.5985Z"/>
<path d="M21.7822 42.7841C16.6034 42.5025 11.928 40.3351 8.45647 36.9706L6.81947 38.5793C8.90238 40.6013 11.3196 42.1926 14.0068 43.3096C16.4828 44.3388 19.0933 44.9239 21.7822 45.0537V42.7841Z"/>
<path d="M37.6189 8.31221C41.2947 11.9752 43.5667 17.0021 43.5667 22.541C43.5667 27.3676 41.8414 31.8055 38.9654 35.2909L40.611 36.9082C42.0356 35.2199 43.1951 33.346 44.0691 31.3151C45.2655 28.5355 45.8721 25.5833 45.8721 22.541C45.8721 19.4986 45.2655 16.5464 44.0691 13.7668C42.9326 11.126 41.3133 8.75043 39.2559 6.70345L37.6189 8.31221Z"/>
<path d="M37.4148 36.9707C33.9433 40.3352 29.2678 42.5026 24.089 42.7842V45.0537C26.7779 44.9239 29.3884 44.3388 31.8645 43.3097C34.5515 42.1928 36.9687 40.6014 39.0518 38.5795L37.4148 36.9707Z"/>
<path d="M1.80265 31.3151C2.67672 33.346 3.83622 35.2199 5.2608 36.9082L6.90645 35.2909C4.03042 31.8056 2.30513 27.3676 2.30513 22.541C2.30513 17.0021 4.57703 11.9752 8.25293 8.31221L6.61592 6.70345C4.55845 8.75043 2.9392 11.126 1.80265 13.7668C0.606346 16.5464 -0.000269682 19.4985 -0.000269682 22.541C-0.000269682 25.5835 0.606346 28.5355 1.80265 31.3151Z"/>
<path d="M9.9624 6.78809C13.509 3.96167 18.0248 2.26614 22.9362 2.26614C27.8476 2.26614 32.3635 3.96167 35.91 6.78809L37.5557 5.17083C35.8376 3.7707 33.9308 2.6312 31.8644 1.77234C29.036 0.596667 26.0321 0.000519544 22.9362 0.000519544C19.8403 0.000519544 16.8365 0.596667 14.008 1.77234C11.9415 2.63132 10.0347 3.77082 8.31676 5.17083L9.9624 6.78809Z"/>
</svg>
