<svg width="35" height="35" viewBox="0 0 124 123" xmlns="http://www.w3.org/2000/svg">
<g clip-path="url(#clip0_511_2346)">
<path d="M3.07354 0.401563C2.05611 0.866512 1.61098 1.33146 1.16585 2.38816C0.890294 3.06445 0.8479 9.42579 0.8479 61.1196C0.8479 117.611 0.869097 119.111 1.25064 119.978C1.50499 120.527 1.99252 121.077 2.56482 121.457L3.47628 122.049L61.3429 122.112C93.1802 122.155 119.634 122.112 120.142 122.049C121.138 121.901 122.326 121.013 122.855 120.02C123.11 119.513 123.152 111.609 123.152 61.0773C123.152 -2.02885 123.237 2.21909 122.05 1.12012C120.757 -0.0845193 125.145 1.67384e-05 61.9576 1.67384e-05C6.10465 1.67384e-05 3.90021 0.0211508 3.07354 0.401563ZM115.521 18.3866V29.165H62H8.47867V18.3866V7.60826H62H115.521V18.3866ZM115.521 75.6598V114.546H62H8.47867V75.6598V36.7732H62H115.521V75.6598Z" />
<path d="M80.759 14.8151C80.0595 15.0899 79.1057 15.9987 78.7029 16.7806C78.3002 17.5414 78.3002 19.2322 78.7029 20.0141C79.1269 20.8172 79.8687 21.4724 80.8014 21.8739C81.4797 22.1486 82.921 22.1909 90.3399 22.1909C98.3946 22.1909 99.1576 22.1486 99.9631 21.7894C102.825 20.5002 102.867 16.4002 100.027 14.9631C99.3696 14.6249 98.4793 14.5827 90.2975 14.6038C84.8499 14.6038 81.0769 14.6883 80.759 14.8151Z" />
<path d="M29.5693 62.9795C25.6267 63.5079 21.9597 66.1073 20.0944 69.6579C17.4449 74.7089 18.3351 80.6264 22.3625 84.6419C24.8001 87.0934 27.8524 88.3403 31.3286 88.3403C37.2213 88.3403 42.3508 84.346 43.7922 78.6187C44.0466 77.6042 44.1102 76.6744 44.0254 75.0259C43.8982 72.2785 43.3683 70.6723 41.8845 68.4955C39.1502 64.5012 34.3173 62.3455 29.5693 62.9795ZM33.639 71.0527C35.5255 71.9403 36.6066 73.9269 36.4158 76.1671C36.0767 80.246 31.0531 82.2115 27.9372 79.464C26.7502 78.4285 26.2414 77.245 26.2414 75.5542C26.2202 71.7079 30.0992 69.362 33.639 71.0527Z" />
<path d="M60.3044 62.9795C55.302 63.6769 51.0203 67.5022 49.6849 72.4475C49.3034 73.9269 49.2398 76.928 49.6002 78.4496C50.4268 82.0847 53.0976 85.4661 56.4043 87.03C58.5239 88.0445 59.8381 88.3403 62.1485 88.3403C65.5824 88.3403 68.4863 87.1146 71.0299 84.5573C74.9301 80.6687 75.9051 75.2161 73.5735 70.2707C72.5349 68.0939 71.369 66.6357 69.6733 65.4311C66.7906 63.3811 63.5263 62.5357 60.3044 62.9795ZM64.1198 70.8836C65.0949 71.2852 66.0911 72.2362 66.621 73.2084C66.9813 73.8635 67.0873 74.4341 67.0873 75.6811C67.0873 77.097 67.0237 77.3929 66.4514 78.3228C64.7981 80.9646 61.0887 81.5563 58.7359 79.5274C57.5065 78.4919 57.019 77.3929 57.019 75.6388C57.019 73.6522 57.782 72.2151 59.3294 71.2852C59.9441 70.9048 60.7072 70.5666 61.0251 70.5244C61.7882 70.3975 63.3567 70.5666 64.1198 70.8836Z" />
<path d="M91.0394 62.9795C84.532 63.8883 79.5296 69.9326 79.996 76.3996C80.2079 79.6542 81.4373 82.2749 83.8325 84.6419C86.2913 87.0934 89.3225 88.3403 92.7987 88.3403C96.3173 88.3403 99.2001 87.1357 101.765 84.5573C106.449 79.8867 106.852 72.9548 102.74 67.6501C100.175 64.311 95.3211 62.3878 91.0394 62.9795ZM93.8797 70.6089C97.5679 71.3908 99.1153 75.8713 96.7625 78.9357C96.0206 79.9079 94.2825 80.7321 92.9683 80.7321C91.4209 80.7321 90.5095 80.4151 89.492 79.5486C87.3724 77.7522 86.9908 75.0048 88.5382 72.6589C89.3225 71.4754 90.7214 70.7146 92.6715 70.3975C92.7563 70.3975 93.3074 70.4821 93.8797 70.6089Z" />
</g>
<defs>
<clipPath id="clip0_511_2346">
<rect width="124" height="123" />
</clipPath>
</defs>
</svg>