<svg xmlns="http://www.w3.org/2000/svg" width="21" height="13" viewBox="0 0 21 13" >
  <path d="M3.77755 7.87164C4.17601 7.87164 4.5302 7.49739 4.5302 7.02957C4.5302 6.56175 4.22029 6.1875 3.77755 6.1875C3.33482 6.1875 3.0249 6.56175 3.0249 7.02957C3.0249 7.49739 3.37909 7.87164 3.77755 7.87164Z" />
  <path d="M18.2992 11.8945C18.7419 11.8477 19.0518 11.4266 19.0518 10.9588V1.0411C19.0518 0.526504 18.6533 0.105469 18.2106 0.105469H3.95454C3.5118 0.105469 3.11334 0.526504 3.11334 1.0411V1.08788H1.43095C1.03249 1.08788 0.766846 1.46214 0.766846 1.83639V12.1751C0.766846 12.5962 1.07676 12.9237 1.43095 12.9237H6.12394C6.16821 12.9237 6.16821 12.9237 6.21249 12.9237H20.2029C20.4686 12.9237 20.6899 12.6897 20.6899 12.4091C20.6899 12.1284 20.4686 11.8945 20.2029 11.8945H18.2992ZM6.16821 11.7073C6.16821 12.0816 5.90257 12.3623 5.59266 12.3623H1.91796C1.60804 12.3623 1.3424 12.0816 1.3424 11.7073V4.69007H6.16821V11.7073ZM6.16821 4.12869H1.3424V2.35099C1.3424 1.97674 1.60804 1.69605 1.91796 1.69605H5.59266C5.90257 1.69605 6.16821 1.97674 6.16821 2.35099V4.12869ZM18.1221 10.912H6.78804V1.83639C6.78804 1.41536 6.47813 1.08788 6.12394 1.08788H18.1221V10.912Z" />
</svg>