<svg xmlns="http://www.w3.org/2000/svg" width="21" height="21" viewBox="0 0 21 21" fill="none">
  <path d="M16.5307 3.08203H3.33835C2.85373 3.08203 2.47681 3.4093 2.47681 3.90021V7.06385H17.3383V3.90021C17.3922 3.4093 17.0153 3.08203 16.5307 3.08203ZM12.0614 5.70021C11.7383 5.70021 11.4153 5.42749 11.4153 5.10021C11.4153 4.77294 11.6845 4.50021 12.0614 4.50021C12.3845 4.50021 12.7076 4.77294 12.7076 5.10021C12.7076 5.42749 12.4383 5.70021 12.0614 5.70021ZM13.946 5.70021C13.623 5.70021 13.2999 5.42749 13.2999 5.10021C13.2999 4.77294 13.5691 4.50021 13.946 4.50021C14.2691 4.50021 14.5922 4.77294 14.5922 5.10021C14.5922 5.42749 14.2691 5.70021 13.946 5.70021ZM15.8307 5.70021C15.5076 5.70021 15.1845 5.42749 15.1845 5.10021C15.1845 4.77294 15.4537 4.50021 15.8307 4.50021C16.1537 4.50021 16.4768 4.77294 16.4768 5.10021C16.4768 5.42749 16.1537 5.70021 15.8307 5.70021Z" fill="white"/>
  <path d="M2.47681 15.683V17.3193C2.47681 17.7557 2.79988 18.083 3.23065 18.1375H16.5845C17.0153 18.083 17.3383 17.7557 17.3383 17.3193V7.9375H2.47681V15.683ZM3.44604 9.30114C3.44604 9.08295 3.60758 8.91932 3.87681 8.91932H16.0999C16.3153 8.91932 16.5307 9.08295 16.5307 9.30114V16.883C16.5307 17.1011 16.3691 17.2648 16.0999 17.2648H3.82296C3.60758 17.2648 3.39219 17.1011 3.39219 16.883V9.30114H3.44604Z" fill="white"/>
  <path d="M8.29224 12.5722V11.0449H4.79224V12.5722C4.79224 13.4995 5.43839 14.2631 6.24608 14.4267V16.0631L5.16916 16.3904C5.06147 16.4449 5.11531 16.554 5.16916 16.554H7.86147C7.96916 16.554 7.96916 16.3904 7.86147 16.3904L6.78454 16.0631V14.4267C7.64608 14.2631 8.29224 13.4995 8.29224 12.5722Z" fill="white"/>
  <path d="M12.2768 11.8633C11.523 11.8633 10.9307 12.4633 10.9307 13.2269C10.9307 13.9906 11.523 14.5906 12.2768 14.5906C13.0307 14.5906 13.623 13.9906 13.623 13.2269C13.623 12.4633 13.0307 11.8633 12.2768 11.8633Z" fill="white"/>
  <path d="M12.2769 10.1191C10.5538 10.1191 9.15381 11.4828 9.15381 13.2282C9.15381 14.9737 10.5538 16.3373 12.2769 16.3373C14 16.3373 15.4 14.9737 15.4 13.2282C15.4 11.4828 14 10.1191 12.2769 10.1191ZM12.2769 15.1373C11.2 15.1373 10.3384 14.2646 10.3384 13.2282C10.3384 12.1919 11.2 11.3191 12.2769 11.3191C13.3538 11.3191 14.2153 12.1919 14.2153 13.2282C14.2153 14.2646 13.3538 15.1373 12.2769 15.1373Z" fill="white"/>
</svg>