<?xml version="1.0" encoding="UTF-8"?>
<svg id="Layer_1" data-name="Layer 1" xmlns="http://www.w3.org/2000/svg" viewBox="0 0 84.74 87.95">
  <path class="cls-1" d="M3.28,87.95c-1.81,0-3.28-1.47-3.28-3.28V3.28C0,1.47,1.47,0,3.28,0s3.28,1.47,3.28,3.28v81.39c0,1.81-1.47,3.28-3.28,3.28ZM3.28,1.79c-.82,0-1.48.67-1.48,1.49v81.39c0,.82.67,1.48,1.48,1.48s1.49-.67,1.49-1.48V3.28c0-.82-.67-1.49-1.49-1.49Z"/>
  <path class="cls-1" d="M81.46,87.95c-1.81,0-3.28-1.47-3.28-3.28V3.28c0-1.81,1.47-3.28,3.28-3.28s3.28,1.47,3.28,3.28v81.39c0,1.81-1.47,3.28-3.28,3.28ZM81.46,1.79c-.82,0-1.48.67-1.48,1.49v81.39c0,.82.67,1.48,1.48,1.48s1.49-.67,1.49-1.48V3.28c0-.82-.67-1.49-1.49-1.49Z"/>
  <path class="cls-1" d="M22.73,52.68h-6.95c-.5,0-.9-.4-.9-.9V15.59c0-2.41,1.96-4.38,4.37-4.38.5,0,.9.4.9.9s-.4.9-.9.9c-1.42,0-2.58,1.16-2.58,2.58v35.3h6.06c.5,0,.9.4.9.9s-.4.9-.9.9Z"/>
  <path class="cls-1" d="M79.08,17.67H6.35c-.5,0-.9-.4-.9-.9s.4-.9.9-.9h72.72c.5,0,.9.4.9.9s-.4.9-.9.9Z"/>
  <path class="cls-1" d="M78.73,37.21H6.01c-.5,0-.9-.4-.9-.9s.4-.9.9-.9h72.72c.5,0,.9.4.9.9s-.4.9-.9.9Z"/>
  <path class="cls-1" d="M78.73,47.12H6.01c-.5,0-.9-.4-.9-.9s.4-.9.9-.9h72.72c.5,0,.9.4.9.9s-.4.9-.9.9Z"/>
  <path class="cls-1" d="M78.73,66.65H6.01c-.5,0-.9-.4-.9-.9s.4-.9.9-.9h72.72c.5,0,.9.4.9.9s-.4.9-.9.9Z"/>
  <g>
    <path class="cls-2" d="M66.88,15.59v64.73H22.73V15.59c0-.96-.39-1.83-1.02-2.46-.63-.64-1.5-1.02-2.46-1.02h44.16c1.92,0,3.47,1.56,3.47,3.48Z"/>
    <path class="cls-1" d="M66.88,81.22H22.73c-.5,0-.9-.4-.9-.9V15.59c0-.69-.27-1.34-.76-1.82-.49-.5-1.14-.76-1.83-.76-.5,0-.9-.4-.9-.9s.4-.9.9-.9h44.16c2.41,0,4.37,1.96,4.37,4.38v64.73c0,.5-.4.9-.9.9ZM23.63,79.42h42.35V15.59c0-1.42-1.16-2.58-2.58-2.58H22.78c.55.74.85,1.64.85,2.58v63.83Z"/>
  </g>
  <path class="cls-1" d="M42.37,81.22c-.5,0-.9-.4-.9-.9V15.59c0-1.42-1.16-2.58-2.58-2.58-.5,0-.9-.4-.9-.9s.4-.9.9-.9c2.41,0,4.37,1.96,4.37,4.38v64.73c0,.5-.4.9-.9.9Z"/>
  <path class="cls-1" d="M47.43,81.22c-.5,0-.9-.4-.9-.9V15.59c0-1.42-1.16-2.58-2.58-2.58-.5,0-.9-.4-.9-.9s.4-.9.9-.9c2.41,0,4.37,1.96,4.37,4.38v64.73c0,.5-.4.9-.9.9Z"/>
</svg>