<svg xmlns="http://www.w3.org/2000/svg" width="21" height="21" viewBox="0 0 21 21">
  <path d="M2.58472 15.8462V17.8643C2.58472 18.3007 2.90779 18.6825 3.33856 18.7371H16.6386C17.0693 18.6825 17.3924 18.3553 17.3924 17.8643V7.77344H2.58472V15.8462ZM3.5001 9.13707C3.5001 8.91889 3.66164 8.70071 3.93087 8.70071H16.1001C16.3155 8.70071 16.5309 8.86435 16.5309 9.13707V17.3189C16.5309 17.5371 16.3693 17.7553 16.1001 17.7553H3.87702C3.66164 17.7553 3.44626 17.5916 3.44626 17.3189V9.13707H3.5001Z" />
  <path d="M16.5309 2.64648H3.39241C2.96164 2.64648 2.58472 3.0283 2.58472 3.51921V6.79194H17.3924V3.51921C17.3924 3.0283 17.0155 2.64648 16.5309 2.64648ZM5.16933 5.37376C4.84626 5.37376 4.57702 5.10103 4.57702 4.71921C4.57702 4.33739 4.84626 4.06467 5.16933 4.06467C5.49241 4.06467 5.76164 4.33739 5.76164 4.71921C5.76164 5.10103 5.49241 5.37376 5.16933 5.37376ZM7.0001 5.37376C6.67702 5.37376 6.40779 5.10103 6.40779 4.71921C6.40779 4.33739 6.67702 4.06467 7.0001 4.06467C7.32318 4.06467 7.59241 4.33739 7.59241 4.71921C7.59241 5.10103 7.37702 5.37376 7.0001 5.37376ZM15.4001 5.04648C15.4001 5.21012 15.2386 5.37376 15.077 5.37376H12.6001C12.4386 5.37376 12.277 5.21012 12.277 5.04648V4.44648C12.277 4.28285 12.4386 4.11921 12.6001 4.11921H15.077C15.2386 4.11921 15.4001 4.28285 15.4001 4.44648V5.04648Z" />
  <path d="M11.9 12.8994C11.9 12.7903 11.8462 12.7357 11.8462 12.6267C11.5231 11.5357 10.4462 10.9357 9.36924 11.263C8.5077 11.5357 7.96924 12.3539 7.96924 13.2812C7.96924 13.4448 8.02308 13.663 8.07693 13.8267C8.40001 14.9176 9.47693 15.5176 10.5539 15.1903C11.4692 14.863 12.0615 13.9357 11.9 12.8994ZM8.5077 12.9539C8.61539 12.4085 8.99232 11.9176 9.53078 11.7539C10.2846 11.5357 11.1462 11.9721 11.3615 12.7357C11.4154 12.9539 11.4154 13.1176 11.4154 13.3357C9.96155 14.1539 9.96155 12.3539 8.5077 12.9539Z" />
  <path d="M13.9462 11.7008H13.4616C12.8693 10.2826 11.5232 9.30078 9.96161 9.30078C7.86161 9.30078 6.19238 11.0462 6.19238 13.2281C6.19238 15.4099 7.86161 17.1553 9.96161 17.1553C11.5232 17.1553 12.8693 16.1735 13.4616 14.7553H13.9462C14.2155 14.7553 14.4847 14.5371 14.4847 14.2099V12.2462C14.4308 11.9735 14.2155 11.7008 13.9462 11.7008ZM13.7308 13.7735C13.7308 13.8826 13.6232 13.9917 13.5155 13.9917H12.7616C12.4385 15.3008 11.3078 16.2281 9.96161 16.2281C8.34623 16.2281 7.05392 14.8644 7.05392 13.2281C7.05392 11.5917 8.34623 10.2281 9.96161 10.2281C11.3078 10.2281 12.4385 11.1553 12.7616 12.4644H13.5155C13.6232 12.4644 13.7308 12.5735 13.7308 12.6826V13.7735Z" />
</svg>