<svg width="1975" height="2400" viewBox="0 0 1975 2400" xmlns="http://www.w3.org/2000/svg">
<g clip-path="url(#clip0_1606_18029)">
<path d="M1550 1925C1550 1883.58 1516.42 1850 1475 1850C1433.58 1850 1400 1883.58 1400 1925V2224.96C1400 2224.96 1400 2224.99 1400 2225C1400 2238.55 1388.55 2250 1375 2250H175C161.45 2250 150 2238.55 150 2225V175C150 161.45 161.45 150 175 150H1375C1388.55 150 1400 161.45 1400 175V475C1400 516.42 1433.58 550 1475 550C1516.42 550 1550 516.42 1550 475V175C1550 78.5 1471.5 0 1375 0H175C78.5 0 0 78.5 0 175V2225C0 2321.5 78.5 2400 175 2400H1375C1471.47 2400 1549.96 2321.54 1550 2225.08C1550 2225.05 1550 2225.03 1550 2225V1925Z"/>
<path d="M225 850V1350C225 1377.61 247.39 1400 275 1400C302.61 1400 325 1377.61 325 1350V850C325 822.39 302.61 800 275 800C247.39 800 225 822.39 225 850Z"/>
<path d="M1911.54 1239.71L1731.13 1290.15L1575 1200.01L1731.13 1109.87L1911.54 1160.3C1916.04 1161.56 1920.57 1162.16 1925.03 1162.16C1946.9 1162.16 1966.98 1147.7 1973.16 1125.61C1980.6 1099.02 1965.06 1071.43 1938.47 1063.99L1852.31 1039.9L1914.7 1003.88C1938.61 990.07 1946.81 959.49 1933 935.58C1919.2 911.67 1888.62 903.47 1864.7 917.28L1802.31 953.3L1824.53 866.64C1831.39 839.89 1815.26 812.65 1788.51 805.79C1761.76 798.93 1734.52 815.06 1727.66 841.8L1681.13 1023.25L1525 1113.39V933.11L1658.88 802.09C1678.62 782.78 1678.96 751.12 1659.64 731.38C1640.32 711.64 1608.67 711.3 1588.93 730.62L1524.99 793.19V721.15C1524.99 693.54 1502.6 671.15 1474.99 671.15C1447.38 671.15 1424.99 693.54 1424.99 721.15V793.19L1361.05 730.62C1341.31 711.31 1309.66 711.65 1290.34 731.38C1271.03 751.12 1271.37 782.77 1291.1 802.09L1424.98 933.11V1113.39L1268.85 1023.25L1222.32 841.8C1215.46 815.05 1188.22 798.93 1161.47 805.79C1134.72 812.65 1118.6 839.89 1125.45 866.64L1147.67 953.3L1085.28 917.28C1061.36 903.47 1030.78 911.67 1016.98 935.58C1003.17 959.49 1011.37 990.07 1035.28 1003.88L1097.67 1039.9L1035.28 1063.99C1008.69 1071.43 993.154 1099.01 1000.6 1125.61C1006.78 1147.7 1026.86 1162.16 1048.73 1162.16C1053.19 1162.16 1057.72 1161.56 1062.22 1160.3L1242.63 1109.87L1398.76 1200.01L1242.63 1290.15L1062.22 1239.71C1035.63 1232.27 1008.04 1247.81 1000.6 1274.4C993.165 1300.99 1008.69 1328.58 1035.28 1336.02L1121.44 1360.11L1059.05 1396.13C1035.13 1409.94 1026.94 1440.52 1040.75 1464.43C1050.01 1480.47 1066.82 1489.44 1084.1 1489.44C1092.58 1489.44 1101.18 1487.28 1109.05 1482.73L1171.44 1446.71L1149.22 1533.37C1142.36 1560.12 1158.49 1587.36 1185.24 1594.22C1189.41 1595.29 1193.58 1595.8 1197.69 1595.8C1219.98 1595.8 1240.3 1580.79 1246.09 1558.21L1292.62 1376.75L1448.75 1286.61V1466.9L1314.87 1597.92C1295.13 1617.23 1294.79 1648.89 1314.11 1668.63C1323.9 1678.64 1336.87 1683.66 1349.85 1683.66C1362.83 1683.66 1375.09 1678.91 1384.82 1669.4L1448.76 1606.83V1678.87C1448.76 1706.48 1471.15 1728.87 1498.76 1728.87C1526.37 1728.87 1548.76 1706.48 1548.76 1678.87V1606.83L1612.7 1669.4C1622.43 1678.92 1635.05 1683.66 1647.67 1683.66C1660.29 1683.66 1673.62 1678.64 1683.41 1668.63C1702.72 1648.89 1702.38 1617.24 1682.65 1597.92L1548.76 1466.9V1286.61L1704.89 1376.75L1751.42 1558.2C1757.21 1580.79 1777.53 1595.79 1799.82 1595.79C1803.93 1595.79 1808.11 1595.28 1812.27 1594.21C1839.02 1587.35 1855.14 1560.11 1848.29 1533.36L1826.07 1446.7L1890.01 1482.72C1897.88 1487.27 1906.48 1489.43 1914.96 1489.43C1932.24 1489.43 1949.05 1480.46 1958.31 1464.42C1972.12 1440.5 1963.92 1409.93 1939.99 1396.12L1877.6 1360.1L1963.76 1336.01C1990.35 1328.58 2005.89 1300.99 1998.45 1274.39C1991.02 1247.79 1963.43 1232.26 1936.84 1239.7V1239.71Z"/>
</g>
<defs>
<clipPath id="clip0_1606_18029">
<rect width="1975.01" height="2400" fill="white"/>
</clipPath>
</defs>
</svg>
