<svg xmlns="http://www.w3.org/2000/svg" width="24" height="20" viewBox="0 0 24 20">
  <g clip-path="url(#clip0_10226_50735)">
    <path d="M16.4506 2.78082C16.4506 2.06491 15.8606 1.49219 15.1723 1.49219H8.73187C8.04358 1.49219 7.45361 2.06491 7.45361 2.78082V17.7672C7.45361 18.4831 8.04358 19.0558 8.73187 19.0558H15.1723C15.9098 19.0558 16.4506 18.4831 16.4506 17.7672V2.78082ZM15.5657 3.01946V7.02855C15.5657 7.36264 15.2707 7.64901 14.9265 7.64901H8.97769C8.63355 7.64901 8.33856 7.36264 8.33856 7.02855V3.01946C8.33856 2.68537 8.63355 2.39901 8.97769 2.39901H14.9265C15.2707 2.39901 15.5657 2.68537 15.5657 3.01946ZM8.33856 17.5286V9.12855C8.33856 8.79446 8.63355 8.5081 8.97769 8.5081H14.9265C15.2707 8.5081 15.5657 8.79446 15.5657 9.12855V17.5763C15.5657 17.9104 15.2707 18.1967 14.9265 18.1967H8.97769C8.63355 18.1967 8.33856 17.9104 8.33856 17.5286Z" />
    <path d="M9.32187 4.26172C9.07605 4.26172 8.87939 4.45263 8.87939 4.69126V6.5049C8.87939 6.74354 9.07605 6.93445 9.32187 6.93445C9.56769 6.93445 9.76434 6.74354 9.76434 6.5049V4.69126C9.76434 4.45263 9.56769 4.26172 9.32187 4.26172Z" />
    <path d="M9.32187 9.27344C9.07605 9.27344 8.87939 9.46435 8.87939 9.70298V11.5166C8.87939 11.7553 9.07605 11.9462 9.32187 11.9462C9.56769 11.9462 9.76434 11.7553 9.76434 11.5166V9.70298C9.76434 9.46435 9.56769 9.27344 9.32187 9.27344Z" />
  </g>
  <defs>
    <clipPath id="clip0_10226_50735">
      <rect width="22.6154" height="19.0909"  transform="translate(0.423096 0.681641)"/>
    </clipPath>
  </defs>
</svg>