<svg width="46" height="31" viewBox="0 0 46 31" xmlns="http://www.w3.org/2000/svg">
<path d="M4.32429 11.8689C4.50829 10.5403 4.69229 8.94601 4.96829 7.4403C5.06029 6.90887 5.33629 6.37744 5.61229 5.84601C6.80829 3.80887 8.92429 3.98601 9.66029 6.28887C10.1203 7.79458 10.3963 9.38887 10.4883 10.9832C10.5803 14.7917 10.0283 18.4232 8.55629 21.7889C7.82029 23.3832 6.90029 24.8003 5.42829 25.4203C3.77229 26.0403 1.65629 25.2432 0.55229 23.6489C0.27629 23.2946 0.18429 22.7632 0.55229 22.4974C0.82829 22.3203 1.28829 22.3203 1.56429 22.586C2.11629 23.2946 2.85229 23.9146 3.68029 24.0032C4.96829 24.1803 5.98029 23.4717 6.71629 22.2317C8.09629 20.106 8.64829 17.5374 8.92429 14.8803C9.20029 12.666 9.29229 10.3632 8.83229 8.14887C8.74029 7.70601 8.55629 7.08601 8.28029 6.64315C7.82029 5.84601 7.17629 5.84601 6.71629 6.64315C6.07229 7.70601 5.79629 9.03458 5.79629 10.3632C5.61229 13.6403 5.98029 16.8289 7.08429 19.8403C7.36029 20.5489 7.08429 20.9917 6.71629 21.4346C6.34829 21.8774 6.16429 21.4346 6.07229 21.0803C5.61229 19.486 5.15229 17.8917 4.78429 16.2089C4.50829 14.9689 4.50829 13.5517 4.32429 11.8689Z"/>
<path d="M32.9362 12.7543C33.0282 10.2743 33.1202 8.14856 33.9482 6.28856C34.7762 4.33999 36.5242 3.80856 37.6282 5.31428C38.0882 6.02285 38.5482 6.90856 38.6402 7.79428C39.5602 13.4629 39.0082 18.9543 36.5242 23.8257C34.9602 26.8371 31.9242 27.4571 29.9922 25.42C29.7162 25.1543 29.4402 24.8886 29.8082 24.3571C30.0842 24.0028 30.1762 23.4714 30.7282 23.9143C32.7522 25.8629 34.7762 24.7114 35.9722 22.0543C37.3522 18.8657 37.9042 15.3228 37.8122 11.6914C37.8122 10.3628 37.6282 9.03428 37.3522 7.70571C37.0762 6.99714 36.7082 6.19999 36.0642 6.19999C35.4202 6.19999 35.0522 6.90856 34.7762 7.61714C34.0402 9.83142 34.0402 12.1343 34.2242 14.4371C34.4082 16.6514 34.7762 18.6886 35.5122 20.7257C35.7882 21.3457 35.4202 21.8771 35.0522 22.2314C34.9602 22.32 34.5002 22.0543 34.5002 21.7886C34.0402 19.7514 33.5802 17.7143 33.1202 15.6771C32.9362 14.6143 32.9362 13.4628 32.9362 12.7543Z"/>
<path d="M24.7479 12.311C24.7479 15.1452 25.1159 17.891 26.0359 20.4595C26.1279 20.6367 26.2199 20.8138 26.2199 20.991C26.0359 21.4338 25.8519 21.8767 25.6679 22.4081C25.4839 22.1424 25.1159 21.9652 25.0239 21.6995C23.5519 17.4481 22.9079 12.931 23.8279 8.32524C24.0119 7.43953 24.2879 6.55381 24.7479 5.84524C25.7599 3.8081 27.7839 3.98524 28.5199 6.19953C28.9799 7.35095 29.2559 8.7681 29.3479 10.0967C29.6239 14.171 29.1639 18.1567 27.7839 21.8767C27.0479 23.9138 26.0359 25.7738 24.1959 26.3938C22.7239 26.9252 21.4359 26.571 20.2399 25.4195C19.8719 25.0652 19.8719 24.711 20.1479 24.2681C20.4239 23.8252 20.6079 23.6481 21.0679 24.0024C23.0919 25.8624 24.9319 24.7995 26.1279 22.4967C27.3239 20.1938 27.7839 17.6252 28.0599 14.9681C28.3359 12.8424 28.3359 10.7167 27.8759 8.67953C27.7839 7.97095 27.5999 7.43953 27.4159 6.99667C26.9559 5.93381 26.2199 5.84524 25.7599 6.81953C25.2999 7.88238 25.0239 9.12238 24.8399 10.2738C24.6559 10.9824 24.7479 11.691 24.7479 12.311Z"/>
<path d="M13.8001 12.2225C13.9841 10.8054 14.1681 9.29966 14.3521 7.88251C14.4441 7.52823 14.5361 7.08537 14.6281 6.73108C15.1801 5.40251 15.9161 4.25108 17.2041 4.42823C18.4921 4.5168 19.1361 5.66823 19.4121 7.08537C19.6881 8.8568 19.9641 10.7168 19.9641 12.5768C19.9641 16.0311 19.4121 19.3082 18.1241 22.3197C17.6641 23.4711 16.9281 24.5339 16.1921 25.3311C14.7201 27.0139 12.5121 26.9254 10.8561 25.3311C10.5801 25.0654 10.3041 24.7997 10.5801 24.2682C10.8561 23.7368 11.1321 23.4711 11.5921 23.9139C13.2481 25.3311 14.6281 25.0654 16.0081 23.2054C16.3761 22.6739 16.7441 22.0539 17.0201 21.4339C18.4921 17.4482 19.0441 13.1968 18.4921 8.76823C18.4001 8.14823 18.2161 7.52823 18.0321 6.90823C17.5721 5.84537 16.7441 5.66823 16.2841 6.73108C15.9161 7.6168 15.5481 8.59108 15.4561 9.65394C14.9961 13.3739 15.4561 17.0054 16.6521 20.4597C16.7441 20.7254 16.7441 21.0797 16.6521 21.2568C16.5601 21.6111 16.2841 21.8768 16.1001 22.1425C15.9161 21.8768 15.6401 21.6111 15.5481 21.3454C14.4441 18.5997 13.9841 15.4997 13.8001 12.2225Z"/>
<path d="M42.2281 25.6853C41.1241 25.6853 40.1121 25.4196 39.1921 24.7111C38.8241 24.4453 38.7321 24.2682 39.0081 23.9139C39.2841 23.6482 39.4681 23.2939 39.9281 23.6482C41.3081 24.7111 43.2401 24.6225 44.4361 23.2053C44.6201 23.0282 45.1721 23.0282 45.3561 23.1168C45.7241 23.3825 45.6321 23.7368 45.3561 24.0911C44.7121 24.9768 43.5161 25.5968 42.2281 25.6853Z"/>
</svg>
