<svg width="45" height="32" viewBox="0 0 45 32" xmlns="http://www.w3.org/2000/svg">
<path d="M23.1582 26.4829C17.3411 26.4829 11.8533 25.9312 6.8045 23.945C5.15816 23.2829 3.51182 22.2898 2.08499 21.2967C0.658159 20.3036 0.548403 19.2002 1.42645 17.7657C2.3045 16.4415 2.74352 15.2278 2.85328 13.6829C2.85328 12.2484 3.84109 11.145 5.15816 10.2622C7.90206 8.38637 11.1947 7.61396 14.5972 6.95189C18.4386 6.28982 22.3899 6.17948 26.2313 6.40017C30.1826 6.62086 34.024 7.17258 37.646 8.60706C39.4021 9.37948 41.1582 10.1519 42.146 11.5864C42.585 12.2484 42.9143 13.1312 42.9143 14.014C43.024 15.3381 43.3533 16.4415 44.1216 17.545C45.2191 19.0898 45.1094 20.0829 43.5728 21.2967C41.0484 23.3933 37.8655 24.3864 34.463 25.1588C30.7313 26.2622 26.7801 26.5933 23.1582 26.4829ZM22.9386 8.38637C18.5484 8.49672 14.2679 8.82775 10.2069 10.2622C8.88987 10.7036 7.46304 11.3657 6.36548 12.1381C4.82889 13.1312 4.93865 14.345 6.25572 15.5588C7.68255 16.7726 9.5484 17.4346 11.4143 17.9864C18.8777 19.8622 26.4508 19.8622 34.024 18.0967C36.1094 17.545 38.1947 16.8829 39.7313 15.4484C40.7191 14.4553 40.8289 13.4622 39.8411 12.5795C38.963 11.8071 37.8655 11.145 36.7679 10.7036C32.3777 8.9381 27.6582 8.49672 22.9386 8.38637ZM23.0484 22.7312C25.463 22.5105 27.7679 22.4002 30.0728 22.1795C32.9265 21.7381 35.8899 21.1864 38.3045 19.7519C39.0728 19.3105 39.7313 18.6484 40.3899 18.0967C40.2801 17.9864 40.2801 17.9864 40.1704 17.876C34.9021 20.745 28.9752 21.2967 22.9386 21.5174C22.9386 21.7381 22.9386 21.9588 22.9386 22.1795C22.9386 22.1795 22.9386 22.4002 23.0484 22.7312Z" />
<path d="M22.9394 15.3377C26.0308 15.3377 28.5369 14.5472 28.5369 13.5722C28.5369 12.5971 26.0308 11.8066 22.9394 11.8066C19.8479 11.8066 17.3418 12.5971 17.3418 13.5722C17.3418 14.5472 19.8479 15.3377 22.9394 15.3377Z" />
</svg>
