<svg width="23" height="24" viewBox="0 0 23 24" xmlns="http://www.w3.org/2000/svg">
<path d="M10.8613 0.00302504C4.85589 0.00302504 0.000419232 3.41312 0.000419232 7.58102C0.000419232 9.09662 0.639297 10.4859 1.78928 11.7489C0.611057 13.2704 -0.0186159 15.1376 0.000419232 17.0535V21.474C0.000419232 22.8633 1.1504 24 2.55593 24H19.1667C19.8445 24 20.4945 23.7339 20.9738 23.2602C21.453 22.7864 21.7222 22.1439 21.7222 21.474V17.0535C21.7222 15.5379 21.3389 14.0223 20.4445 12.633L23 10.107L19.1667 6.31802L16.4835 8.97032C14.6474 7.98372 12.5786 7.49875 10.4899 7.56535C8.40117 7.63195 6.3682 8.24771 4.60034 9.34921C4.11884 8.88284 3.84328 8.2473 3.83368 7.58102C3.83368 5.30762 7.02807 3.41312 10.8613 3.41312C12.6502 3.41312 14.439 3.91832 15.7168 4.67612L18.2723 2.15012C16.0852 0.69598 13.4966 -0.0539832 10.8613 0.00302504ZM10.8613 10.107C15.3335 10.107 19.1667 13.896 19.1667 17.0535V21.474H2.55593V17.0535C2.55593 13.896 6.38919 10.107 10.8613 10.107ZM11.5002 12.0015C7.66695 12.0015 5.11144 13.896 5.11144 17.685V18.948H7.66695V17.685C7.66695 16.422 7.66695 13.2645 11.5002 12.0015Z" />
</svg>
