<svg xmlns="http://www.w3.org/2000/svg" width="19" height="17" viewBox="0 0 19 17" fill="none">
  <path d="M16.2705 11.2431C16.2284 11.1152 16.2705 10.9874 16.3967 10.9447C16.6913 10.8169 16.9016 10.5185 16.9016 10.1775V1.6531C16.9016 1.01377 16.3967 0.502307 15.7656 0.502307H2.51176C1.88062 0.459685 1.37572 1.01377 1.37572 1.6531V10.1349C1.37572 10.4759 1.58609 10.7742 1.88062 10.9021C2.00685 10.9447 2.04893 11.1152 2.00685 11.2005L0.365899 14.4397C-0.012782 15.2069 0.534202 16.1446 1.37572 16.1446H16.9016C17.7432 16.1446 18.2901 15.2069 17.9115 14.4397L16.2705 11.2431ZM3.18497 1.73835H15.0503C15.3448 1.73835 15.5973 1.99408 15.5973 2.33506V9.1546C15.5973 9.49558 15.3448 9.75131 15.0503 9.75131H3.18497C2.89044 9.75131 2.63799 9.49558 2.63799 9.1546V2.33506C2.63799 1.99408 2.89044 1.73835 3.18497 1.73835Z" fill="white"/>
</svg>