<svg xmlns="http://www.w3.org/2000/svg" width="21" height="13" viewBox="0 0 21 13" >
  <path d="M7.3481 10.156C7.47932 10.156 7.67614 10.0871 7.80736 9.94915C9.38194 8.29398 8.92269 7.12156 8.52904 6.29398C8.201 5.53536 8.00418 5.0526 9.0539 3.94915C9.31633 3.67329 9.31633 3.32846 9.0539 3.0526C8.79147 2.77674 8.39782 2.77674 8.201 3.0526C6.56081 4.70777 7.08567 5.94915 7.47932 6.77674C7.80736 7.53536 8.00418 8.01812 7.02007 9.0526C6.75763 9.32846 6.75763 9.67329 7.02007 9.94915C7.02007 10.0871 7.21689 10.156 7.3481 10.156Z" />
  <path d="M5.0519 9.67343C5.18312 9.67343 5.37994 9.60446 5.51115 9.46653C6.7577 7.74239 6.49527 7.1217 6.10162 6.22515C5.77358 5.46653 5.11751 5.19067 6.16723 4.15618C6.42966 3.88032 6.42966 3.53549 6.16723 3.25963C5.9048 2.98377 5.51115 2.98377 5.31433 3.25963C3.67414 4.9148 4.65826 5.88032 4.98629 6.77687C5.31433 7.53549 5.31433 7.60446 4.59265 8.56998C4.33022 8.84584 4.33022 9.19067 4.59265 9.46653C4.72386 9.60446 4.92069 9.67343 5.0519 9.67343Z" />
  <path d="M10.4315 9.67343C10.5628 9.67343 10.7596 9.60446 10.8908 9.46653C12.1373 7.74239 11.8749 7.1217 11.4813 6.22515C11.1532 5.46653 10.4971 5.19067 11.5469 4.15618C11.8093 3.88032 11.8093 3.53549 11.5469 3.25963C11.2844 2.98377 10.8908 2.98377 10.694 3.25963C9.05378 4.9148 10.0379 5.88032 10.3659 6.77687C10.694 7.53549 10.694 7.60446 9.97229 8.56998C9.70986 8.84584 9.70986 9.19067 9.97229 9.46653C10.1691 9.60446 10.3003 9.67343 10.4315 9.67343Z" />
  <path d="M19.9447 0.5H1.11533C0.459253 0.5 0 0.982759 0 1.60345V11.3276C0 11.9483 0.459253 12.431 0.984114 12.5H20.0103C20.6008 12.431 20.9944 11.9483 20.9944 11.3276V1.60345C21.06 0.982759 20.5352 0.5 19.9447 0.5ZM15.3522 10.6379C15.3522 10.9828 15.0898 11.1897 14.8273 11.1897H1.77141C1.44337 11.1897 1.24654 10.9138 1.24654 10.6379V2.36207C1.24654 2.01724 1.50898 1.81034 1.77141 1.81034H14.8273C15.1554 1.81034 15.3522 2.08621 15.3522 2.36207V10.6379ZM18.2389 11.2586C17.6484 11.2586 17.1236 10.7759 17.1236 10.0862C17.1236 9.46552 17.6484 8.91379 18.2389 8.91379C18.8294 8.91379 19.3542 9.39655 19.3542 10.0862C19.3542 10.7069 18.895 11.2586 18.2389 11.2586ZM19.8791 7.53448H16.5987C16.4019 7.53448 16.2707 7.39655 16.2707 7.18965C16.2707 6.98276 16.4019 6.84483 16.5987 6.84483H19.8791C20.0759 6.84483 20.2071 6.98276 20.2071 7.18965C20.2071 7.39655 20.0759 7.53448 19.8791 7.53448ZM19.8791 5.53448H16.5987C16.4019 5.53448 16.2707 5.39655 16.2707 5.18965C16.2707 4.98276 16.4019 4.84483 16.5987 4.84483H19.8791C20.0759 4.84483 20.2071 4.98276 20.2071 5.18965C20.2071 5.39655 20.0759 5.53448 19.8791 5.53448ZM19.8791 3.53448H16.5987C16.4019 3.53448 16.2707 3.39655 16.2707 3.18965C16.2707 2.98276 16.4019 2.84483 16.5987 2.84483H19.8791C20.0759 2.84483 20.2071 2.98276 20.2071 3.18965C20.2071 3.39655 20.0759 3.53448 19.8791 3.53448Z" />
</svg>