<svg xmlns="http://www.w3.org/2000/svg" width="18" height="17" viewBox="0 0 18 17" >
  <g clip-path="url(#clip0_10226_50289)">
    <mask id="mask0_10226_50289" style="mask-type:luminance" maskUnits="userSpaceOnUse" x="0" y="0" width="17" height="17">
      <path d="M16.6316 0.705078H0.82959V16.2408H16.6316V0.705078Z" fill="white"/>
    </mask>
    <g mask="url(#mask0_10226_50289)">
      <path d="M15.797 0.705078H1.66421C1.21908 0.705078 0.82959 1.10053 0.82959 1.55248V4.8291H16.6316V1.55248C16.6316 1.10053 16.2422 0.705078 15.797 0.705078ZM2.38754 3.41677C1.99805 3.41677 1.71985 3.1343 1.71985 2.79534C1.71985 2.45638 1.99805 2.17391 2.3319 2.17391C2.66574 2.17391 2.94395 2.45638 2.94395 2.79534C2.99959 3.1343 2.72138 3.41677 2.38754 3.41677ZM5.05831 3.41677C4.72446 3.41677 4.44626 3.1343 4.44626 2.79534C4.44626 2.45638 4.72446 2.17391 5.05831 2.17391C5.39215 2.17391 5.67036 2.45638 5.67036 2.79534C5.726 3.1343 5.44779 3.41677 5.05831 3.41677ZM7.78472 3.41677C7.45087 3.41677 7.17267 3.1343 7.17267 2.79534C7.17267 2.45638 7.45087 2.17391 7.78472 2.17391C8.11856 2.17391 8.39677 2.45638 8.39677 2.79534C8.45241 3.1343 8.17421 3.41677 7.78472 3.41677ZM15.0737 3.41677C14.7398 3.41677 14.4616 3.1343 14.4616 2.79534C14.4616 2.45638 14.7398 2.17391 15.0737 2.17391C15.4075 2.17391 15.6857 2.45638 15.6857 2.79534C15.6857 3.1343 15.4075 3.41677 15.0737 3.41677Z" />
      <path d="M0.82959 13.698V15.3928C0.82959 15.8448 1.16344 16.1837 1.60856 16.2402H15.8527C16.2978 16.1837 16.6316 15.8448 16.6316 15.3928V5.73242H0.82959V13.698ZM1.71985 7.08827C1.71985 6.86229 1.88677 6.69281 2.10933 6.69281H15.2406C15.4632 6.69281 15.6301 6.86229 15.6301 7.08827V13.1896C15.6301 13.4155 15.4632 13.585 15.2406 13.585H2.10933C1.88677 13.585 1.71985 13.4155 1.71985 13.1896V7.08827Z" />
      <path d="M8.22981 12.8519C8.3411 12.8519 8.45238 12.7954 8.56366 12.7389C9.78776 11.496 9.39827 10.6486 9.12007 10.0272C8.84186 9.46225 8.73058 9.12329 9.50956 8.33238C9.67648 8.1629 9.67648 7.88043 9.50956 7.65445C9.34263 7.48497 9.06443 7.48497 8.84186 7.65445C7.61776 8.89731 8.00725 9.74471 8.28545 10.4226C8.50802 10.9876 8.67494 11.3265 7.95161 12.0609C7.78469 12.2304 7.78469 12.5129 7.95161 12.7389C8.00725 12.7954 8.11853 12.8519 8.22981 12.8519Z" />
      <path d="M6.50487 12.5114C6.61616 12.5114 6.72744 12.4549 6.83872 12.3984C7.78462 11.099 7.56205 10.6471 7.28385 10.0257C7.00564 9.46074 6.56052 9.29125 7.33949 8.50034C7.50641 8.33086 7.50641 8.0484 7.33949 7.82242C7.17257 7.65294 6.89436 7.65294 6.6718 7.82242C5.44769 9.06528 6.17103 9.7432 6.44923 10.4211C6.6718 10.9861 6.6718 11.0426 6.17103 11.777C6.0041 11.9464 6.0041 12.2289 6.17103 12.4549C6.28231 12.4549 6.39359 12.5114 6.50487 12.5114Z" />
      <path d="M10.5669 12.5114C10.6782 12.5114 10.7894 12.4549 10.9007 12.3984C11.8466 11.099 11.6241 10.6471 11.3459 10.0257C11.0677 9.46074 10.6225 9.29125 11.4015 8.50034C11.5684 8.33086 11.5684 8.0484 11.4015 7.82242C11.2346 7.65294 10.9564 7.65294 10.7338 7.82242C9.50971 9.06528 10.233 9.7432 10.5112 10.4211C10.7338 10.9861 10.7338 11.0426 10.233 11.777C10.0661 11.9464 10.0661 12.2289 10.233 12.4549C10.3443 12.4549 10.4556 12.5114 10.5669 12.5114Z" />
    </g>
  </g>
  <defs>
    <clipPath id="clip0_10226_50289">
      <rect width="16.6923" height="15.8182" transform="translate(0.384521 0.591797)"/>
    </clipPath>
  </defs>
</svg>