<svg width="24" height="24" viewBox="0 0 24 24" xmlns="http://www.w3.org/2000/svg">
<path d="M8.5 19.1667C7.48148 19.1667 6.61574 18.8102 5.90278 18.0972C5.18981 17.3843 4.83333 16.5185 4.83333 15.5C4.83333 14.4815 5.18981 13.6157 5.90278 12.9028C6.61574 12.1898 7.48148 11.8333 8.5 11.8333C9.51852 11.8333 10.3843 12.1898 11.0972 12.9028C11.8102 13.6157 12.1667 14.4815 12.1667 15.5C12.1667 16.5185 11.8102 17.3843 11.0972 18.0972C10.3843 18.8102 9.51852 19.1667 8.5 19.1667ZM8.04167 17.8986V16.6L7.125 17.5167C7.26759 17.6083 7.41273 17.6873 7.56042 17.7535C7.7081 17.8197 7.86852 17.8681 8.04167 17.8986ZM8.95833 17.8986C9.1213 17.8681 9.27917 17.8197 9.43194 17.7535C9.58472 17.6873 9.73241 17.6083 9.875 17.5167L8.95833 16.6V17.8986ZM10.5167 16.875C10.6083 16.7324 10.6873 16.5847 10.7535 16.4319C10.8197 16.2792 10.8681 16.1213 10.8986 15.9583H9.6L10.5167 16.875ZM9.6 15.0417H10.8986C10.8681 14.8787 10.8197 14.7208 10.7535 14.5681C10.6873 14.4153 10.6083 14.2676 10.5167 14.125L9.6 15.0417ZM8.95833 14.4L9.875 13.4833C9.73241 13.3917 9.58727 13.3127 9.43958 13.2465C9.2919 13.1803 9.13148 13.1319 8.95833 13.1014V14.4ZM8.5 16.1111C8.67315 16.1111 8.81829 16.0525 8.93542 15.9354C9.05255 15.8183 9.11111 15.6731 9.11111 15.5C9.11111 15.3269 9.05255 15.1817 8.93542 15.0646C8.81829 14.9475 8.67315 14.8889 8.5 14.8889C8.32685 14.8889 8.18171 14.9475 8.06458 15.0646C7.94745 15.1817 7.88889 15.3269 7.88889 15.5C7.88889 15.6731 7.94745 15.8183 8.06458 15.9354C8.18171 16.0525 8.32685 16.1111 8.5 16.1111ZM8.04167 14.4V13.1014C7.8787 13.1319 7.72083 13.1803 7.56806 13.2465C7.41528 13.3127 7.26759 13.3917 7.125 13.4833L8.04167 14.4ZM6.10139 15.0417H7.4L6.48333 14.125C6.39167 14.2676 6.31273 14.4153 6.24653 14.5681C6.18032 14.7208 6.13194 14.8787 6.10139 15.0417ZM6.48333 16.875L7.4 15.9583H6.10139C6.13194 16.1213 6.18032 16.2792 6.24653 16.4319C6.31273 16.5847 6.39167 16.7324 6.48333 16.875ZM4.22222 21C3.88611 21 3.59838 20.8803 3.35903 20.641C3.11968 20.4016 3 20.1139 3 19.7778V11.2222C3 10.8861 3.11968 10.5984 3.35903 10.359C3.59838 10.1197 3.88611 10 4.22222 10H12.7778C13.1139 10 13.4016 10.1197 13.641 10.359C13.8803 10.5984 14 10.8861 14 11.2222V19.7778C14 20.1139 13.8803 20.4016 13.641 20.641C13.4016 20.8803 13.1139 21 12.7778 21H4.22222ZM4.22222 19.7778H12.7778V11.2222H4.22222V19.7778Z" />
<path d="M12 9.1579C12.7515 8.80263 13.4985 8.44737 14.25 8.29105V4.42105C14.25 4.04417 14.3922 3.68272 14.6454 3.41622C14.8986 3.14972 15.242 3 15.6 3C16.1895 3 16.689 3.39316 16.8735 3.94737H15.6C15.4807 3.94737 15.3662 3.99727 15.2818 4.08611C15.1974 4.17494 15.15 4.29542 15.15 4.42105V4.89474H17.4V4.42105C17.4 4.04417 17.5422 3.68272 17.7954 3.41622C18.0486 3.14972 18.392 3 18.75 3C19.3395 3 19.839 3.39316 20.0235 3.94737H18.75C18.6307 3.94737 18.5162 3.99727 18.4318 4.08611C18.3474 4.17494 18.3 4.29542 18.3 4.42105V9.12947C19.2 8.97789 20.1 8.21053 21 8.21053V9.1579C20.001 9.1579 19.002 10.1053 17.9985 10.1053C16.9995 10.1053 16.0005 9.1579 15.0015 9.1579C13.998 9.1579 12.999 9.63158 12 10.1053V9.1579ZM17.4 5.84211H15.15V6.78947H17.4V5.84211ZM17.4 7.73684H15.15V8.21053C15.9015 8.28632 16.6485 8.83105 17.4 9.05842V7.73684ZM12 11.0526C12.999 10.5789 13.998 10.1053 15.0015 10.1053C16.0005 10.1053 16.9995 11.0526 17.9985 11.0526C19.002 11.0526 20.001 10.1053 21 10.1053V11.0526C20.001 11.0526 19.002 12 17.9985 12C16.9995 12 16.0005 11.0526 15.0015 11.0526C14.3779 11.0526 13.7561 11.2355 13.1349 11.4877C12.7564 11.6413 12.8782 10.8207 12.5 11L12 11.0526Z" />
</svg>
