<svg xmlns="http://www.w3.org/2000/svg" width="20" height="15" viewBox="0 0 20 15" >
  <path d="M18.1115 0.408203H1.27028C0.718927 0.408203 0.267822 0.804897 0.267822 1.35035V11.1685C0.267822 11.6644 0.668804 12.0611 1.17003 12.1107H6.43292L6.18231 13.6975C6.18231 13.7966 6.23243 13.8958 6.28255 13.9454C6.33268 13.995 6.43292 14.0446 6.58329 14.0446H12.598C12.7985 14.0446 12.999 13.8958 12.999 13.6975V13.6479L12.7484 12.1107H18.2118C18.713 12.0611 19.114 11.6644 19.114 11.1685V1.35035C19.114 0.854484 18.6629 0.408203 18.1115 0.408203ZM18.0113 11.0694H1.37052V1.44953H18.0113V11.0694Z" />
</svg>