<svg xmlns="http://www.w3.org/2000/svg" width="18" height="17" viewBox="0 0 18 17" fill="none">
  <g clip-path="url(#clip0_10226_32750)">
    <path fill-rule="evenodd" clip-rule="evenodd" d="M4.06153 14.3359C4.06153 15.154 3.36153 15.8631 2.55383 15.8631C1.74614 15.8631 1.04614 15.154 1.04614 14.3359C1.04614 13.5177 1.74614 12.8086 2.55383 12.8086C3.41537 12.8086 4.06153 13.5177 4.06153 14.3359Z" fill="white"/>
    <path fill-rule="evenodd" clip-rule="evenodd" d="M17.3078 14.718H15.1001L12.1386 1.6271C12.0847 1.46347 11.9771 1.29983 11.8155 1.24528C9.87705 0.645284 8.10013 0.699829 6.96936 1.46347C6.26936 1.89983 5.89244 2.55437 5.78475 3.31801C5.62321 4.79074 6.80782 5.49983 7.8309 6.15437C8.47705 6.59074 9.12321 6.97256 9.33859 7.46347C9.76936 8.49983 9.28475 9.86347 8.90782 10.6816L8.69244 10.6271C8.47706 10.4635 8.15398 10.5726 8.04629 10.7907L7.8309 11.1726C5.89244 10.1362 3.68475 9.64528 2.66167 10.7907C2.33859 11.1726 2.06936 11.718 1.96167 12.318C2.17705 12.2635 2.39244 12.2089 2.60782 12.2089C3.79244 12.2089 4.76167 13.1907 4.76167 14.3907C4.76167 14.9362 4.54629 15.4816 4.22321 15.8635H9.55398C11.1694 15.8635 11.2771 14.0089 9.76936 12.5362L10.0386 12.0998C10.2001 11.8816 10.0924 11.5544 9.87706 11.4453L9.71552 11.3362C10.2001 10.3544 10.8463 8.66347 10.254 7.19074C9.9309 6.37256 9.12321 5.88165 8.36936 5.44528C7.34629 4.79074 6.70013 4.35437 6.80782 3.59074C6.80782 3.04528 7.07705 2.60892 7.50782 2.33619C8.31552 1.79074 9.66167 1.73619 11.2232 2.17256L14.0771 14.718H13.1617C13.054 14.718 12.9463 14.8271 12.9463 14.9362V15.5907C12.9463 15.6998 13.054 15.8089 13.1617 15.8089H17.3078C17.4155 15.8089 17.5232 15.6998 17.5232 15.5907V14.8816C17.4694 14.8271 17.4155 14.718 17.3078 14.718Z" fill="white"/>
  </g>
  <defs>
    <clipPath id="clip0_10226_32750">
      <rect width="17.2308" height="15.2727" fill="white" transform="translate(0.615479 0.863281)"/>
    </clipPath>
  </defs>
</svg>