<svg xmlns="http://www.w3.org/2000/svg" width="21" height="21" viewBox="0 0 21 21" >
  <path d="M3.08472 15.8462V17.8643C3.08472 18.3007 3.40779 18.6825 3.83856 18.7371H17.1386C17.5693 18.6825 17.8924 18.3553 17.8924 17.8643V7.77344H3.08472V15.8462ZM4.0001 9.13707C4.0001 8.91889 4.16164 8.70071 4.43087 8.70071H16.6001C16.8155 8.70071 17.0309 8.86435 17.0309 9.13707V17.3189C17.0309 17.5371 16.8693 17.7553 16.6001 17.7553H4.37702C4.16164 17.7553 3.94626 17.5916 3.94626 17.3189V9.13707H4.0001Z" />
  <path d="M17.0309 2.64648H3.89241C3.46164 2.64648 3.08472 3.0283 3.08472 3.51921V6.79194H17.8924V3.51921C17.8924 3.0283 17.5155 2.64648 17.0309 2.64648ZM5.66933 5.37376C5.34626 5.37376 5.07702 5.10103 5.07702 4.71921C5.07702 4.33739 5.34626 4.06467 5.66933 4.06467C5.99241 4.06467 6.26164 4.33739 6.26164 4.71921C6.26164 5.10103 5.99241 5.37376 5.66933 5.37376ZM7.5001 5.37376C7.17702 5.37376 6.90779 5.10103 6.90779 4.71921C6.90779 4.33739 7.17702 4.06467 7.5001 4.06467C7.82318 4.06467 8.09241 4.33739 8.09241 4.71921C8.09241 5.10103 7.87702 5.37376 7.5001 5.37376ZM15.9001 5.04648C15.9001 5.21012 15.7386 5.37376 15.577 5.37376H13.1001C12.9386 5.37376 12.777 5.21012 12.777 5.04648V4.44648C12.777 4.28285 12.9386 4.11921 13.1001 4.11921H15.577C15.7386 4.11921 15.9001 4.28285 15.9001 4.44648V5.04648Z" />
  <path d="M12.4 12.8994C12.4 12.7903 12.3462 12.7357 12.3462 12.6267C12.0231 11.5357 10.9462 10.9357 9.86924 11.263C9.0077 11.5357 8.46924 12.3539 8.46924 13.2812C8.46924 13.4448 8.52308 13.663 8.57693 13.8267C8.90001 14.9176 9.97693 15.5176 11.0539 15.1903C11.9692 14.863 12.5615 13.9357 12.4 12.8994ZM9.0077 12.9539C9.11539 12.4085 9.49232 11.9176 10.0308 11.7539C10.7846 11.5357 11.6462 11.9721 11.8615 12.7357C11.9154 12.9539 11.9154 13.1176 11.9154 13.3357C10.4615 14.1539 10.4615 12.3539 9.0077 12.9539Z" />
  <path d="M14.4462 11.7008H13.9616C13.3693 10.2826 12.0232 9.30078 10.4616 9.30078C8.36161 9.30078 6.69238 11.0462 6.69238 13.2281C6.69238 15.4099 8.36161 17.1553 10.4616 17.1553C12.0232 17.1553 13.3693 16.1735 13.9616 14.7553H14.4462C14.7155 14.7553 14.9847 14.5371 14.9847 14.2099V12.2462C14.9308 11.9735 14.7155 11.7008 14.4462 11.7008ZM14.2308 13.7735C14.2308 13.8826 14.1232 13.9917 14.0155 13.9917H13.2616C12.9385 15.3008 11.8078 16.2281 10.4616 16.2281C8.84623 16.2281 7.55392 14.8644 7.55392 13.2281C7.55392 11.5917 8.84623 10.2281 10.4616 10.2281C11.8078 10.2281 12.9385 11.1553 13.2616 12.4644H14.0155C14.1232 12.4644 14.2308 12.5735 14.2308 12.6826V13.7735Z" />
</svg>