<svg width="76" height="76" viewBox="0 0 76 76" fill="none" xmlns="http://www.w3.org/2000/svg">
<g clip-path="url(#clip0_341_3947)">
<path d="M60.226 60.4742C60.1687 60.5171 60.1114 60.5612 60.056 60.6053C59.2817 61.2013 58.5823 61.8383 57.9646 62.5098C57.9147 62.5613 57.8667 62.614 57.8223 62.6655C56.3601 64.2881 55.3646 66.0766 54.8866 67.9403C54.7795 68.3618 54.6988 68.7859 54.6446 69.2124C54.6058 69.5408 54.5824 69.8697 54.5744 70.1989C54.5448 71.5814 54.7296 73.1194 53.3864 74.1759C53.0274 74.4538 52.5892 74.6821 52.0969 74.8475C51.7261 74.9748 51.3342 75.073 50.9292 75.1404H46.7409C46.5303 75.1195 46.3197 75.0975 46.1091 75.0754C46.1035 75.0754 46.098 75.0742 46.0924 75.0742L46.0499 75.084L45.7968 75.1404L45.7857 75.1428V75.1404C45.786 75.1354 45.7854 75.1305 45.7839 75.1257C45.7842 75.1166 45.7836 75.1076 45.782 75.0987V75.0975C45.7802 75.073 45.7784 75.0497 45.7784 75.0252L45.7728 74.9602C45.7728 74.9602 45.771 74.959 45.7728 74.959C45.771 74.9222 45.7673 74.8854 45.7654 74.8475C45.5714 71.6488 46.0444 68.3435 48.3205 65.5271C49.1011 64.5622 50.1061 63.685 51.2987 62.9278C51.3057 62.9229 51.3131 62.9184 51.3209 62.9143C53.6876 61.4167 56.7471 60.4375 59.9766 60.4705C60.0597 60.4705 60.1428 60.4718 60.226 60.4742Z" fill="#F0F0F0"/>
<path d="M60.2353 60.5427C56.5777 61.7878 53.6045 63.7658 51.738 66.1956C51.3222 66.714 51.0322 67.2726 50.8786 67.8509C50.7564 68.4174 50.8652 68.9953 51.1935 69.5245C51.4848 70.022 51.8695 70.5085 51.9734 71.0443C52.0204 71.3191 51.9793 71.5974 51.8528 71.8609C51.7264 72.1244 51.5173 72.3672 51.2394 72.5734C50.5672 73.0991 49.6504 73.4332 48.7366 73.7392C47.7221 74.0791 46.6602 74.4214 45.9558 75.0357C45.8704 75.1102 45.7013 75.018 45.7865 74.9436C47.0121 73.8748 49.1705 73.6416 50.6403 72.7725C51.3262 72.367 51.832 71.8219 51.7749 71.194C51.725 70.645 51.3289 70.1431 51.0275 69.641C50.6957 69.1279 50.5584 68.5687 50.6276 68.0122C50.7363 67.4306 50.9934 66.8656 51.3879 66.3412C52.2477 65.1513 53.3842 64.0584 54.7557 63.1027C56.3119 62.0062 58.1395 61.0943 60.1592 60.4066C60.2842 60.364 60.3595 60.5005 60.2353 60.5427H60.2353Z" fill="white"/>
<path d="M52.2695 65.3897C51.6974 65.1267 51.285 64.7373 51.1058 64.2911C50.9266 63.8449 50.9923 63.371 51.2912 62.954C51.3521 62.8698 51.5523 62.9286 51.4913 63.013C51.2119 63.4009 51.1507 63.8424 51.3189 64.2576C51.487 64.6729 51.8734 65.0346 52.4083 65.2774C52.5244 65.3303 52.3849 65.4423 52.2695 65.3897Z" fill="white"/>
<path d="M50.9958 69.2855C52.3981 69.1256 53.6581 68.6209 54.5244 67.8721C54.6101 67.7979 54.7793 67.8901 54.6937 67.9642C53.79 68.7423 52.4772 69.2657 51.0173 69.43C50.8781 69.4456 50.8574 69.301 50.9958 69.2855V69.2855Z" fill="white"/>
<path d="M56.4265 62.1833C56.6158 62.3157 56.8518 62.4148 57.1132 62.4717C57.3746 62.5287 57.6532 62.5417 57.924 62.5095C58.0628 62.4928 58.0834 62.6374 57.9455 62.654C57.6461 62.6886 57.3384 62.674 57.0494 62.6116C56.7604 62.5491 56.4989 62.4406 56.2877 62.2956C56.266 62.283 56.2524 62.2655 56.2496 62.2465C56.2467 62.2275 56.2549 62.2085 56.2724 62.1934C56.2909 62.1786 56.3175 62.1692 56.3463 62.1673C56.3752 62.1655 56.404 62.1712 56.4265 62.1833Z" fill="white"/>
<path d="M70.4258 69.3418C70.3408 69.354 70.2558 69.3663 70.169 69.3798H70.1672C69.0093 69.5467 67.8737 69.7754 66.7714 70.0636C66.6864 70.0857 66.6015 70.1078 66.5165 70.131H66.5146C63.8869 70.8407 61.4793 71.8661 59.4128 73.1557C59.4054 73.1606 59.398 73.1643 59.3906 73.1692C59.3861 73.1728 59.3812 73.176 59.3758 73.179L59.3666 73.1851C58.5466 73.7004 57.7864 74.2559 57.0923 74.847C57.0923 74.8482 57.0904 74.8494 57.0886 74.8506C56.9777 74.9462 56.865 75.0418 56.7542 75.1399H45.7965L45.7854 75.1423V75.1399H45.7393C45.7393 75.1386 45.7411 75.1374 45.743 75.1362C45.743 75.135 45.7448 75.135 45.7448 75.1337C45.7577 75.1215 45.7707 75.1092 45.7817 75.0982V75.097C45.7845 75.0933 45.7883 75.09 45.7928 75.0872C45.8039 75.0749 45.8168 75.0651 45.8261 75.0541C45.9 74.9855 45.972 74.9156 46.0459 74.847C46.166 74.733 46.288 74.619 46.4118 74.5063C46.4118 74.5061 46.4118 74.5059 46.4119 74.5058C46.412 74.5056 46.4121 74.5055 46.4123 74.5054C46.4125 74.5053 46.4127 74.5052 46.4129 74.5051C46.4131 74.5051 46.4134 74.505 46.4136 74.505V74.5038C46.4154 74.5026 46.4154 74.5014 46.4173 74.5001L46.421 74.4977C47.9452 73.0981 49.6597 71.7696 51.6236 70.6568C51.6827 70.6225 51.7419 70.5882 51.8047 70.5563C52.694 70.0572 53.6437 69.6075 54.6443 69.2119C55.1912 68.9974 55.7547 68.8005 56.3348 68.6212C57.8311 68.1638 59.4265 67.8652 61.0626 67.7363H61.0663C61.07 67.7363 61.0737 67.7351 61.0792 67.7351C61.0848 67.7351 61.0884 67.7339 61.0921 67.7339C64.3456 67.4839 67.6804 67.9238 70.2318 69.2401C70.2983 69.2744 70.3612 69.3075 70.4258 69.3418Z" fill="#F0F0F0"/>
<path d="M45.7392 75.1403H45.7854V75.1428L45.7965 75.1403H48.7285C47.8546 75.0411 46.9826 74.9639 46.1087 75.0754C46.0884 75.0778 46.0699 75.0803 46.0496 75.084C45.9609 75.095 45.8722 75.1097 45.7836 75.1256C45.778 75.1269 45.7706 75.1281 45.7651 75.1293C45.757 75.1308 45.7495 75.1333 45.7429 75.1367C45.7382 75.1371 45.7337 75.1384 45.73 75.1403H45.7392Z" fill="white"/>
<path d="M70.3721 69.4025C70.3037 69.3952 70.2372 69.3866 70.1689 69.3805H70.167C68.7416 69.2263 67.2947 69.1778 65.853 69.2359C65.781 69.2383 65.7071 69.242 65.6332 69.2444C63.6321 69.337 61.6647 69.6342 59.8006 70.1256C59.7987 70.1256 59.7987 70.1256 59.7987 70.1268C59.7784 70.1317 59.7581 70.1366 59.7396 70.1415C59.3054 70.258 58.8768 70.3854 58.4574 70.5227C57.6549 70.7705 56.9161 71.1006 56.2681 71.5007C55.7494 71.8403 55.3566 72.2552 55.1208 72.7127C55.0968 72.7593 55.0728 72.8046 55.0506 72.8512C55.034 72.888 55.0173 72.926 55.0007 72.9627C54.7827 73.4762 54.6478 74.0179 54.2451 74.4873C54.1329 74.6183 53.9963 74.7393 53.8386 74.8476C53.6756 74.9601 53.4919 75.0585 53.2918 75.1405H52.8262C53.081 75.0675 53.3172 74.9687 53.5264 74.8476C53.6891 74.7545 53.8315 74.6469 53.9495 74.5278C54.4077 74.0694 54.5481 73.5106 54.7624 72.9897C54.7975 72.9051 54.8344 72.823 54.8751 72.7409C55.0884 72.2915 55.4457 71.878 55.9226 71.5289C56.5371 71.108 57.2549 70.7594 58.0454 70.4982C58.5443 70.3241 59.0566 70.1665 59.5826 70.0251C59.6509 70.0055 59.7193 69.9883 59.7876 69.9712C63.1084 69.1139 66.7145 68.8617 70.2317 69.2408C70.3 69.2469 70.3666 69.2555 70.4349 69.2628C70.5735 69.2788 70.5107 69.4185 70.3721 69.4025Z" fill="white"/>
<path d="M59.6134 70.0904C59.3954 69.6518 59.4195 69.1762 59.6814 68.7484C59.9433 68.3205 60.4259 67.9684 61.043 67.7548C61.1681 67.7119 61.2746 67.8388 61.1493 67.8818C60.5741 68.08 60.1246 68.4081 59.882 68.8068C59.6393 69.2055 59.6196 69.6486 59.8262 70.0562C59.8709 70.1448 59.6579 70.1785 59.6134 70.0904H59.6134Z" fill="white"/>
<path d="M55.0607 72.6925C56.3256 73.1249 57.7897 73.2251 59.161 72.9732C59.2968 72.9482 59.3482 73.0894 59.2126 73.1144C57.7848 73.3747 56.2615 73.2683 54.9468 72.8165C54.8215 72.7733 54.9362 72.6496 55.0607 72.6925Z" fill="white"/>
<path d="M65.8431 69.1902C65.8741 69.3715 65.9726 69.5449 66.1296 69.6948C66.2866 69.8446 66.4973 69.9662 66.7427 70.0487C66.8687 70.0908 66.7539 70.2145 66.6287 70.1727C66.3582 70.0807 66.1258 69.9462 65.9518 69.7809C65.7777 69.6156 65.6674 69.4245 65.6303 69.2244C65.6244 69.2057 65.6295 69.1863 65.6445 69.17C65.6594 69.1537 65.6832 69.1418 65.7109 69.1367C65.7391 69.1323 65.7688 69.1354 65.7936 69.1454C65.8183 69.1554 65.8361 69.1715 65.8431 69.1902Z" fill="white"/>
<path d="M59.5258 20.5223C59.5757 16.4644 59.8245 12.3674 60.2722 8.23121C60.2796 8.1491 60.2888 8.06821 60.2981 7.9861C60.5345 5.83281 60.824 3.67175 61.1664 1.50294V1.49068C61.1661 1.13321 60.9519 0.790438 60.5708 0.537665C60.1897 0.284893 59.673 0.142791 59.1341 0.142578H4.63228C4.09521 0.143278 3.5803 0.284695 3.19967 0.536038C2.81904 0.787382 2.60351 1.1283 2.60001 1.48456C2.12705 4.47122 1.75631 7.44318 1.4878 10.4004C1.47672 10.4972 1.46933 10.5928 1.46194 10.6897C1.32892 12.1517 1.22299 13.6101 1.14417 15.0649C1.13862 15.1507 1.13308 15.2365 1.13123 15.3222C0.626825 24.2479 1.11776 33.1861 2.60001 42.0637C2.6039 42.4198 2.81961 42.7604 3.20021 43.0115C3.58081 43.2626 4.0955 43.4039 4.63228 43.4045H59.1341C59.673 43.4043 60.1897 43.2622 60.5708 43.0094C60.9519 42.7566 61.1661 42.4139 61.1664 42.0564V42.0429C60.8985 40.4656 60.6633 38.8781 60.4606 37.2804C60.4311 37.0463 60.4021 36.8123 60.3738 36.5782C60.2334 35.4274 60.1108 34.2721 60.0061 33.1123C59.984 32.8782 59.9637 32.6442 59.9452 32.4101C59.7475 30.0889 59.6182 27.7497 59.5572 25.3926C59.5498 25.1585 59.5443 24.9257 59.5387 24.6903C59.5166 23.5396 59.5098 22.3843 59.5184 21.2245C59.5184 20.9904 59.5203 20.7563 59.5258 20.5223Z" fill="#F0F0F0"/>
<path d="M75.9462 9.33443C75.9459 8.97696 75.7317 8.63419 75.3506 8.38142C74.9696 8.12864 74.4528 7.98654 73.9139 7.98633H19.4121C18.875 7.98703 18.3601 8.12845 17.9795 8.37979C17.5988 8.63113 17.3833 8.97205 17.3798 9.3283C15.5397 20.9674 15.2348 32.4005 16.4671 43.4047C16.6168 44.7663 16.7917 46.121 16.9918 47.4686C17.099 48.1905 17.2129 48.9103 17.3336 49.6281C17.3484 49.7212 17.3632 49.8144 17.3798 49.9075C17.3837 50.2636 17.5994 50.6042 17.98 50.8553C18.3606 51.1064 18.8753 51.2476 19.4121 51.2482H73.9139C74.4528 51.248 74.9696 51.1059 75.3506 50.8532C75.7317 50.6004 75.9459 50.2576 75.9462 49.9001V49.8867C73.7421 36.924 73.7421 23.2849 75.9462 9.34669V9.33443Z" fill="white"/>
<path d="M75.9462 9.33443C75.9459 8.97696 75.7317 8.63419 75.3506 8.38142C74.9696 8.12864 74.4528 7.98654 73.9139 7.98633H19.4121C18.875 7.98703 18.3601 8.12845 17.9795 8.37979C17.5988 8.63113 17.3833 8.97205 17.3798 9.3283C15.5397 20.9674 15.2348 32.4005 16.4671 43.4047C16.6168 44.7663 16.7917 46.121 16.9918 47.4686C17.099 48.1905 17.2129 48.9103 17.3336 49.6281C17.3484 49.7212 17.3632 49.8144 17.3798 49.9075C17.3837 50.2636 17.5994 50.6042 17.98 50.8553C18.3606 51.1064 18.8753 51.2476 19.4121 51.2482H73.9139C74.4528 51.248 74.9696 51.1059 75.3506 50.8532C75.7317 50.6004 75.9459 50.2576 75.9462 49.9001V49.8867C73.7421 36.924 73.7421 23.2849 75.9462 9.34669V9.33443ZM75.5767 49.9075C75.5734 50.1987 75.3968 50.4772 75.0854 50.6824C74.774 50.8876 74.3529 51.0029 73.9139 51.0031H19.4121C18.9713 51.0027 18.5487 50.8863 18.237 50.6796C17.9254 50.4728 17.75 50.1925 17.7493 49.9001V49.8867C17.7364 49.8082 17.7234 49.7286 17.7105 49.6501C17.583 48.9001 17.4642 48.148 17.3539 47.3939C17.1599 46.0715 16.9881 44.7418 16.8385 43.4047C15.6062 32.4066 15.9092 20.9808 17.7493 9.34669V9.33443C17.75 9.04204 17.9254 8.76174 18.237 8.55498C18.5487 8.34823 18.9713 8.23188 19.4121 8.23144H73.9139C74.3533 8.23153 74.7748 8.34693 75.0863 8.55244C75.3978 8.75794 75.5741 9.03687 75.5767 9.3283C73.3726 23.2775 73.3726 36.9314 75.5767 49.9075Z" fill="#E4E4E4"/>
<path d="M23.1688 20.5225C23.0286 20.5227 22.8942 20.5598 22.7952 20.6257C22.6962 20.6915 22.6406 20.7807 22.6406 20.8737C22.6406 20.9667 22.6962 21.056 22.7952 21.1218C22.8942 21.1877 23.0286 21.2248 23.1688 21.225H67.4596C67.5998 21.2248 67.7342 21.1877 67.8332 21.1218C67.9322 21.056 67.9878 20.9667 67.9878 20.8737C67.9878 20.7807 67.9322 20.6915 67.8332 20.6257C67.7342 20.5598 67.5998 20.5227 67.4596 20.5225H23.1688Z" fill="#E6E6E6"/>
<path d="M23.1687 22.6299C23.0284 22.6301 22.894 22.6671 22.7949 22.733C22.6958 22.7989 22.6401 22.8881 22.6401 22.9812C22.6401 23.0742 22.6958 23.1635 22.7949 23.2293C22.894 23.2952 23.0284 23.3323 23.1687 23.3325H53.2361C53.3764 23.3323 53.5108 23.2952 53.6099 23.2293C53.709 23.1635 53.7647 23.0742 53.7647 22.9812C53.7647 22.8881 53.709 22.7989 53.6099 22.733C53.5108 22.6671 53.3764 22.6301 53.2361 22.6299H23.1687Z" fill="#E6E6E6"/>
<path d="M23.1687 24.6904C23.0284 24.6906 22.894 24.7277 22.7949 24.7935C22.6958 24.8594 22.6401 24.9487 22.6401 25.0417C22.6401 25.1348 22.6958 25.224 22.7949 25.2899C22.894 25.3557 23.0284 25.3928 23.1687 25.393H67.4596C67.5998 25.3928 67.7343 25.3557 67.8334 25.2899C67.9325 25.224 67.9881 25.1348 67.9881 25.0417C67.9881 24.9487 67.9325 24.8594 67.8334 24.7935C67.7343 24.7277 67.5998 24.6906 67.4596 24.6904H23.1687Z" fill="#E6E6E6"/>
<path d="M23.1688 26.7979C23.0286 26.7981 22.8942 26.8352 22.7952 26.9011C22.6962 26.9669 22.6406 27.0561 22.6406 27.1491C22.6406 27.2421 22.6962 27.3314 22.7952 27.3972C22.8942 27.4631 23.0286 27.5002 23.1688 27.5004H53.2362C53.3764 27.5002 53.5108 27.4631 53.6098 27.3972C53.7088 27.3314 53.7644 27.2421 53.7644 27.1491C53.7644 27.0561 53.7088 26.9669 53.6098 26.9011C53.5108 26.8352 53.3764 26.7981 53.2362 26.7979H23.1688Z" fill="#E6E6E6"/>
<path d="M23.1688 32.4102C23.0286 32.4104 22.8942 32.4475 22.7952 32.5134C22.6962 32.5792 22.6406 32.6684 22.6406 32.7614C22.6406 32.8544 22.6962 32.9437 22.7952 33.0095C22.8942 33.0754 23.0286 33.1125 23.1688 33.1127H67.4596C67.5998 33.1125 67.7342 33.0754 67.8332 33.0095C67.9322 32.9437 67.9878 32.8544 67.9878 32.7614C67.9878 32.6684 67.9322 32.5792 67.8332 32.5134C67.7342 32.4475 67.5998 32.4104 67.4596 32.4102H23.1688Z" fill="#E6E6E6"/>
<path d="M23.1687 34.5176C23.0284 34.5178 22.894 34.5548 22.7949 34.6207C22.6958 34.6866 22.6401 34.7758 22.6401 34.8689C22.6401 34.9619 22.6958 35.0512 22.7949 35.117C22.894 35.1829 23.0284 35.22 23.1687 35.2201H53.2361C53.3764 35.22 53.5108 35.1829 53.6099 35.117C53.709 35.0512 53.7647 34.9619 53.7647 34.8689C53.7647 34.7758 53.709 34.6866 53.6099 34.6207C53.5108 34.5548 53.3764 34.5178 53.2361 34.5176H23.1687Z" fill="#E6E6E6"/>
<path d="M23.1687 36.5781C23.0284 36.5783 22.894 36.6154 22.7949 36.6812C22.6958 36.7471 22.6401 36.8364 22.6401 36.9294C22.6401 37.0225 22.6958 37.1117 22.7949 37.1776C22.894 37.2434 23.0284 37.2805 23.1687 37.2807H67.4596C67.5998 37.2805 67.7343 37.2434 67.8334 37.1776C67.9325 37.1117 67.9881 37.0225 67.9881 36.9294C67.9881 36.8364 67.9325 36.7471 67.8334 36.6812C67.7343 36.6154 67.5998 36.5783 67.4596 36.5781H23.1687Z" fill="#E6E6E6"/>
<path d="M23.1688 38.6865C23.0286 38.6868 22.8942 38.7239 22.7952 38.7897C22.6962 38.8556 22.6406 38.9448 22.6406 39.0378C22.6406 39.1308 22.6962 39.22 22.7952 39.2858C22.8942 39.3517 23.0286 39.3888 23.1688 39.3891H53.2362C53.3764 39.3888 53.5108 39.3517 53.6098 39.2858C53.7088 39.22 53.7644 39.1308 53.7644 39.0378C53.7644 38.9448 53.7088 38.8556 53.6098 38.7897C53.5108 38.7239 53.3764 38.6868 53.2362 38.6865H23.1688Z" fill="#E6E6E6"/>
<path d="M31.9323 16.1602H23.4728C23.3633 16.1602 23.2582 16.1313 23.1808 16.0799C23.1033 16.0285 23.0597 15.9588 23.0596 15.8861V14.987C23.0597 14.9143 23.1033 14.8447 23.1808 14.7933C23.2582 14.7419 23.3633 14.713 23.4728 14.7129H31.9323C32.0418 14.713 32.1469 14.7419 32.2243 14.7933C32.3018 14.8447 32.3454 14.9143 32.3455 14.987V15.8861C32.3454 15.9588 32.3018 16.0285 32.2243 16.0799C32.1469 16.1313 32.0418 16.1602 31.9323 16.1602Z" fill="#3F3D56"/>
<path d="M61.3206 45.0808L58.7294 45.6488C58.2976 45.7435 57.8657 45.8382 57.4338 45.9328C57.0339 46.0202 56.6011 46.1241 56.1729 46.0865C55.877 46.0606 55.5396 45.9476 55.4475 45.7456C55.3602 45.5545 55.5452 45.3546 55.7691 45.2416C56.3875 44.9295 57.1694 45.2472 57.6075 45.5703C58.1434 45.9656 58.4467 46.4758 58.9493 46.8895C59.3967 47.2605 59.964 47.5602 60.6092 47.7664C61.8916 48.1681 63.4558 48.1254 64.5996 47.5401C65.9655 46.8412 66.1048 45.6299 66.1121 44.5731C66.1096 44.5254 66.0793 44.4803 66.0276 44.4472C65.9759 44.414 65.9068 44.3955 65.8349 44.3955C65.763 44.3955 65.694 44.414 65.6423 44.4472C65.5906 44.4803 65.5603 44.5254 65.5578 44.5731C65.5512 45.5309 65.4691 46.705 64.1526 47.3043C62.8915 47.8784 61.234 47.7261 60.073 47.1144C59.426 46.7736 59.028 46.3291 58.6031 45.8688C58.1885 45.4195 57.6736 44.984 56.8932 44.8093C56.5586 44.7286 56.1922 44.727 55.856 44.8049C55.5199 44.8827 55.2345 45.0352 55.0483 45.2366C54.9632 45.3315 54.9096 45.4375 54.8911 45.5473C54.8725 45.6571 54.8895 45.7682 54.9408 45.8734C54.9921 45.9785 55.0765 46.0752 55.1885 46.1569C55.3006 46.2387 55.4376 46.3037 55.5904 46.3476C56.4953 46.6337 57.5305 46.2985 58.4017 46.1075L61.4679 45.4353C61.805 45.3614 61.6606 45.0062 61.3206 45.0808L61.3206 45.0808Z" fill="#3F3D56"/>
<path d="M66.6274 70.4393L64.8104 71.0545L61.6367 64.1452L64.3184 63.2373L66.6274 70.4393Z" fill="#9F616A"/>
<path d="M67.9234 72.0113L67.7996 71.6258L67.4745 70.61L67.2527 69.9189L66.6468 70.124L66.5211 70.1145L64.8565 69.9987L64.6348 69.9835L64.306 69.9607L63.966 69.936L63.0164 71.3543H63.0145C62.6596 71.4731 62.3311 71.6632 62.0482 71.9135C61.7653 72.1638 61.5336 72.4694 61.3666 72.8125C61.3462 72.8543 61.3278 72.896 61.3093 72.9378C61.2635 73.04 61.2246 73.1453 61.1929 73.253C61.0491 73.7183 61.0224 74.2134 61.1153 74.6921C61.1392 74.8108 61.1694 74.9281 61.2058 75.0434L61.2114 75.0624L61.2335 75.1326L61.3666 75.0871L62.5342 74.6921L66.6246 73.308L67.4357 73.0327L67.6851 72.9473H67.6869L68.171 72.784L67.9234 72.0113Z" fill="#2F2E41"/>
<path d="M49.405 72.0665L47.4921 72.0663L46.582 64.4834L49.4054 64.4836L49.405 72.0665Z" fill="#9F616A"/>
<path d="M46.3431 38.8225L45.4951 40.33C45.4951 40.33 44.5633 40.5916 44.8678 43.7132C45.0828 45.9174 45.1526 55.7867 45.694 62.1983C45.9193 64.8667 46.2264 66.9363 46.6596 67.6051L46.9263 67.8505L49.7099 68.1239L49.7801 68.0987L50.8023 60.6794C50.9858 59.3476 50.9583 57.9941 50.7209 56.6713L50.5362 54.5827L53.0992 44.0078C53.0992 44.0078 55.7092 50.7854 57.372 57.2409C57.7723 58.7948 59.2926 59.7831 59.8691 61.1166C60.0622 61.5633 60.252 61.9962 60.4371 62.4116C61.6563 65.1468 62.2674 67.1382 62.7298 67.3037H63.0993L65.3163 66.5443L65.7525 65.4174L62.3603 55.1523L59.8201 38.5782C54.9801 35.9037 50.44 35.6061 46.3431 38.8225Z" fill="#2F2E41"/>
<path d="M60.2083 16.4904C60.0412 16.1122 59.8447 15.7483 59.6208 15.4025C59.1089 14.5827 58.3976 13.9144 57.5572 13.464L56.8292 13.2988L55.5249 13.0026L54.8376 12.2108L53.7106 10.9141H49.8308L49.3117 12.2108L48.8757 13.2988L48.6891 13.762L45.3672 15.4689C45.3654 15.4689 45.3654 15.4689 45.3635 15.4708C45.4079 15.8126 45.4516 16.1524 45.4947 16.4904C45.5889 17.2252 45.6776 17.9511 45.7607 18.6682C45.8032 19.0327 45.8439 19.3954 45.8827 19.7561C46.0065 20.8877 46.113 21.9997 46.2023 23.092C46.2817 24.0679 46.3452 25.0299 46.3926 25.978C46.5081 28.1311 46.5168 30.2889 46.4185 32.4429C46.3926 32.9498 46.8822 33.527 46.8434 34.0226C46.7787 34.8314 46.1709 35.5491 46.0637 36.3219C45.9972 36.7965 46.0268 37.3016 45.9104 37.7496C45.878 37.8807 45.8296 38.007 45.7663 38.1256C45.7663 38.1275 45.7644 38.1275 45.7644 38.1294C44.4342 40.571 45.4781 39.4053 45.3543 39.954L45.4134 39.9692C45.4411 39.9768 45.5261 39.9995 45.6628 40.0318C46.4443 40.2236 49.6664 37.1155 51.8298 37.1155C53.1287 37.1155 56.5669 39.3103 57.7179 39.4698C58.6287 39.5951 59.4416 39.709 59.9257 39.2704C60.0661 39.1425 60.1734 38.9807 60.2379 38.7996L60.2434 38.7825L60.2416 38.7654L60.1954 38.1294L60.1677 37.7496L59.7723 32.3005C59.5515 32.0191 59.412 31.6798 59.3695 31.321C59.3271 30.9622 59.3834 30.5984 59.5322 30.2708L59.6134 30.0943L59.3141 25.978L59.2587 25.209L59.2384 24.9489V24.947L59.0943 22.9591L59.4416 21.8731V21.8712L60.1178 19.7561L60.4652 18.6682L60.6832 17.9846L60.6979 17.9391C60.5816 17.4408 60.4176 16.9555 60.2083 16.4904Z" fill="#3F3D56"/>
<path d="M63.5785 36.1245L59.8539 26.2322L58.124 22.62L61.4505 20.7314L64.1296 25.5824L65.9254 35.7176C66.2081 35.9159 66.4267 36.1966 66.553 36.5235C66.6793 36.8505 66.7076 37.2087 66.6342 37.5523C66.5609 37.8959 66.3892 38.2091 66.1414 38.4517C65.8935 38.6943 65.5807 38.8552 65.2432 38.9137C64.9057 38.9722 64.5589 38.9257 64.2473 38.7801C63.9357 38.6345 63.6736 38.3965 63.4946 38.0966C63.3157 37.7968 63.228 37.4488 63.243 37.0974C63.2579 36.746 63.3747 36.4072 63.5785 36.1245H63.5785Z" fill="#9F616A"/>
<path d="M63.6537 22.4958L62.7004 21.8617L61.6048 19.756L61.0394 18.6681L60.6829 17.9846L60.5314 17.6922L58.8187 16.4904L57.6622 15.6777L56.7199 16.4904L56.271 16.8777L56.7107 18.6681L56.9768 19.756L57.5569 22.1161L59.2584 25.209L59.6815 25.9779L59.9235 26.4203L59.9254 26.4241L59.9587 26.483L64.2578 26.2988L64.3927 26.2931L64.4001 25.9779L64.4038 25.864C64.4056 25.8071 64.4056 25.7501 64.4056 25.6931C64.4051 24.5812 64.1473 23.4853 63.6537 22.4958Z" fill="#3F3D56"/>
<path d="M31.1144 32.1924L38.7338 25.0372L41.3818 22.0703L44.3009 24.571L40.8739 28.8963L32.3347 34.2925C32.2574 34.6352 32.0821 34.9462 31.8315 35.1858C31.5808 35.4253 31.2662 35.5824 30.9281 35.6368C30.5899 35.6912 30.2436 35.6404 29.9338 35.491C29.6239 35.3416 29.3645 35.1005 29.189 34.7985C29.0136 34.4964 28.9299 34.1474 28.9489 33.7962C28.9679 33.445 29.0887 33.1076 29.2957 32.8275C29.5026 32.5473 29.7864 32.3372 30.1105 32.224C30.4346 32.1108 30.7842 32.0998 31.1144 32.1924H31.1144Z" fill="#9F616A"/>
<path d="M46.8434 19.7564L46.8286 18.6685L46.8009 16.4907L46.7898 15.6458L46.7584 15.623C46.5864 15.507 46.3914 15.4318 46.1875 15.4028C46.0083 15.3723 45.8254 15.3723 45.6462 15.4028C45.5518 15.4178 45.4585 15.44 45.3672 15.4692C45.3654 15.4692 45.3654 15.4692 45.3635 15.4711C44.8159 15.6732 44.3323 16.0251 43.965 16.4888L43.9631 16.4907C43.4091 17.168 42.918 17.8971 42.4962 18.6685C42.2874 19.033 42.0879 19.4014 41.9013 19.7564C41.1955 21.1064 40.6875 22.2759 40.6782 22.2968L38.5684 25.1125L38.5979 25.1638L39.0617 25.9783L40.7614 28.9649L41.0311 29.4396L41.7202 29.0618C42.5235 28.6213 43.1569 27.9128 43.516 27.053L43.7618 26.0884L43.8523 25.9783L46.2023 23.0924L46.8748 22.2645L46.8434 19.7564Z" fill="#3F3D56"/>
<path d="M54.8958 7.19982C55.2104 5.20727 53.8937 3.32986 51.9548 3.00651C50.0159 2.68316 48.189 4.03632 47.8744 6.02888C47.5598 8.02143 48.8765 9.89884 50.8154 10.2222C52.7543 10.5455 54.5811 9.19238 54.8958 7.19982Z" fill="#9F616A"/>
<path d="M47.9471 4.21718C47.789 3.64862 47.4729 3.16128 47.631 3.16128C47.789 3.16128 47.8681 2.75516 47.8681 2.75516C47.8681 2.75516 48.0262 2.67393 48.1052 2.75516C48.1842 2.83638 48.2633 2.18659 48.2633 2.18659C48.2633 2.18659 48.3423 1.94293 48.4213 2.10537C48.5004 2.26782 48.5004 2.1866 48.5794 1.94293C48.6584 1.69926 49.0536 1.5368 49.0536 1.5368C49.0536 1.5368 50.5553 1.61802 50.7924 1.29313C51.0295 0.968239 53.7167 1.21191 54.27 1.61803C54.8233 2.02414 57.003 2.75018 55.7097 5.02857C56.4487 6.35763 55.3454 8.7281 55.0604 9.00936C54.6096 9.4541 54.2975 9.61446 52.1645 10.0506C51.7471 10.136 50.7214 6.54749 50.7214 6.54749C50.7214 6.54749 48.1052 4.78574 47.9471 4.21718Z" fill="#2F2E41"/>
<path d="M49.5204 71.768L49.4058 71.7205L47.3477 70.8585L47.0317 70.7275L45.6978 71.768H45.696C44.9423 71.7689 44.2198 72.0771 43.6871 72.625C43.1543 73.1728 42.8549 73.9155 42.8545 74.69V74.785H50.1577V71.768H49.5204Z" fill="#2F2E41"/>
<path d="M58.0012 74.9935C58.0013 75.0127 57.9958 75.0318 57.9848 75.0496C57.9738 75.0674 57.9576 75.0836 57.9372 75.0972C57.9168 75.1109 57.8925 75.1217 57.8658 75.1292C57.839 75.1366 57.8104 75.1405 57.7814 75.1406H20.2213C20.1627 75.1406 20.1066 75.1251 20.0652 75.0977C20.0237 75.0702 20.0005 75.0329 20.0005 74.9941C20.0005 74.9553 20.0237 74.918 20.0652 74.8905C20.1066 74.8631 20.1627 74.8477 20.2213 74.8477H57.7814C57.8396 74.8477 57.8955 74.8631 57.9367 74.8905C57.9779 74.9178 58.0011 74.9548 58.0012 74.9935Z" fill="#CCCCCC"/>
<path d="M19.2236 0.142578C18.933 3.57007 17.0336 6.85146 13.7916 9.52726C10.5496 12.2031 6.12728 14.1393 1.14379 15.0649C1.13825 15.1507 1.13271 15.2365 1.13086 15.3222C6.21758 14.394 10.7363 12.4293 14.049 9.70563C17.3617 6.98194 19.301 3.63683 19.5931 0.142578H19.2236Z" fill="white"/>
<path d="M13.5645 0.142578C12.706 2.3065 11.1924 4.33187 9.11615 6.09537C7.03986 7.85888 4.44423 9.32362 1.48729 10.4004C1.4762 10.4972 1.46882 10.5928 1.46143 10.6897C4.52591 9.59729 7.21691 8.09651 9.3655 6.2815C11.5141 4.46649 13.0739 2.37645 13.947 0.142578H13.5645Z" fill="white"/>
</g>
<defs>
<clipPath id="clip0_341_3947">
<rect width="75" height="75" fill="white" transform="translate(0.946289 0.142578)"/>
</clipPath>
</defs>
</svg>
