<svg width="76" height="76" viewBox="0 0 76 76" fill="none" xmlns="http://www.w3.org/2000/svg">
<g clip-path="url(#clip0_341_3915)">
<path d="M1.36641 16.9714C1.21955 17.0176 1.09507 17.127 1.02028 17.2756C0.945482 17.4242 0.926483 17.5999 0.967447 17.7642L10.5873 56.1641C10.6286 56.3283 10.7264 56.4674 10.8594 56.551C10.9924 56.6346 11.1496 56.6559 11.2965 56.6101L46.76 45.511C46.9069 45.4648 47.0314 45.3554 47.1062 45.2068C47.181 45.0582 47.2 44.8824 47.159 44.7182L37.5392 6.31821C37.4979 6.15406 37.4 6.01493 37.267 5.93133C37.1341 5.84773 36.9769 5.8265 36.8299 5.87228L1.36641 16.9714Z" fill="#E6E6E6"/>
<path d="M11.7423 54.7968L45.5368 44.22L36.3843 7.68555L2.58984 18.2623L11.7423 54.7968Z" fill="white"/>
<path d="M7.05792 23.1407C6.83245 23.2113 6.73949 23.6299 6.85071 24.0739C6.96193 24.5178 7.23586 24.8216 7.46133 24.751L22.8745 19.9271C23.1 19.8566 23.1929 19.4379 23.0817 18.994C22.9705 18.55 22.6965 18.2463 22.4711 18.3168L7.05792 23.1407Z" fill="#E6E6E6"/>
<path d="M8.29913 28.0958C8.07366 28.1664 7.9807 28.585 8.09192 29.029C8.20314 29.4729 8.47707 29.7767 8.70254 29.7061L24.1157 24.8822C24.3412 24.8117 24.4341 24.393 24.3229 23.9491C24.2117 23.5051 23.9378 23.2013 23.7123 23.2719L8.29913 28.0958Z" fill="#E6E6E6"/>
<path d="M9.52619 32.9932C9.30071 33.0638 9.20775 33.4824 9.31897 33.9264C9.43019 34.3703 9.70413 34.6741 9.9296 34.6036L25.3427 29.7797C25.5682 29.7091 25.6612 29.2905 25.55 28.8465C25.4387 28.4026 25.1648 28.0988 24.9393 28.1694L9.52619 32.9932Z" fill="#E6E6E6"/>
<path d="M10.7674 37.9483C10.5419 38.0189 10.449 38.4375 10.5602 38.8815C10.6714 39.3254 10.9453 39.6292 11.1708 39.5587L26.584 34.7348C26.8095 34.6642 26.9024 34.2456 26.7912 33.8016C26.68 33.3577 26.406 33.0539 26.1806 33.1244L10.7674 37.9483Z" fill="#E6E6E6"/>
<path d="M30.2933 15.9259C30.1986 15.9554 30.11 16.0055 30.0326 16.0733C29.9553 16.1411 29.8906 16.2253 29.8424 16.321C29.7941 16.4168 29.7632 16.5222 29.7515 16.6313C29.7397 16.7404 29.7473 16.851 29.7738 16.9568C29.8003 17.0626 29.8452 17.1616 29.906 17.248C29.9667 17.3344 30.0421 17.4065 30.1278 17.4603C30.2135 17.5142 30.3079 17.5486 30.4055 17.5616C30.5031 17.5746 30.602 17.566 30.6967 17.5363L33.5781 16.6345C33.7691 16.5747 33.9311 16.4325 34.0284 16.2392C34.1256 16.0459 34.1502 15.8174 34.0967 15.6038C34.0432 15.3903 33.916 15.2093 33.7431 15.1005C33.5702 14.9918 33.3657 14.9643 33.1747 15.0241L30.2933 15.9259Z" fill="#E6E6E6"/>
<path d="M31.5101 20.7853C31.4154 20.8148 31.3268 20.8649 31.2494 20.9327C31.1721 21.0005 31.1074 21.0847 31.0592 21.1804C31.0109 21.2761 30.98 21.3816 30.9683 21.4907C30.9565 21.5998 30.9641 21.7104 30.9906 21.8162C31.0171 21.922 31.062 22.0209 31.1228 22.1073C31.1835 22.1937 31.2589 22.2659 31.3446 22.3197C31.4303 22.3735 31.5247 22.4079 31.6223 22.421C31.7199 22.434 31.8189 22.4254 31.9135 22.3956L34.7949 21.4938C34.986 21.434 35.1479 21.2919 35.2452 21.0986C35.3425 20.9053 35.3671 20.6768 35.3136 20.4632C35.2601 20.2497 35.1329 20.0686 34.9599 19.9599C34.787 19.8512 34.5826 19.8237 34.3915 19.8835L31.5101 20.7853Z" fill="#E6E6E6"/>
<path d="M32.7275 25.6437C32.6329 25.6733 32.5444 25.7235 32.4672 25.7913C32.3899 25.8591 32.3254 25.9433 32.2772 26.039C32.2291 26.1347 32.1982 26.24 32.1865 26.349C32.1748 26.4581 32.1824 26.5686 32.2089 26.6743C32.2353 26.7801 32.2802 26.8789 32.3409 26.9653C32.4016 27.0516 32.4768 27.1238 32.5625 27.1776C32.6481 27.2315 32.7424 27.2659 32.8399 27.279C32.9374 27.2921 33.0363 27.2836 33.1309 27.254L36.0123 26.3522C36.2034 26.2924 36.3653 26.1503 36.4626 25.957C36.5599 25.7637 36.5845 25.5352 36.531 25.3216C36.4775 25.1081 36.3503 24.927 36.1773 24.8183C36.0044 24.7096 35.8 24.6821 35.6089 24.7419L32.7275 25.6437Z" fill="#E6E6E6"/>
<path d="M33.9449 30.5028C33.7541 30.5628 33.5924 30.705 33.4953 30.8982C33.3982 31.0914 33.3737 31.3198 33.4271 31.5332C33.4806 31.7466 33.6076 31.9275 33.7804 32.0363C33.9531 32.145 34.1574 32.1727 34.3484 32.1132L37.2298 31.2113C37.4206 31.1514 37.5824 31.0091 37.6794 30.8159C37.7765 30.6227 37.801 30.3944 37.7476 30.181C37.6941 29.9676 37.5671 29.7867 37.3944 29.6779C37.2216 29.5692 37.0173 29.5415 36.8264 29.601L33.9449 30.5028Z" fill="#E6E6E6"/>
<path d="M35.1079 38.9249C34.9872 38.9625 34.8743 39.0263 34.7758 39.1127C34.6772 39.1991 34.5948 39.3063 34.5333 39.4283C34.4718 39.5503 34.4325 39.6846 34.4175 39.8236C34.4025 39.9626 34.4122 40.1036 34.446 40.2384C34.4797 40.3732 34.5369 40.4993 34.6143 40.6094C34.6917 40.7195 34.7878 40.8115 34.897 40.88C35.0062 40.9486 35.1265 40.9924 35.2508 41.009C35.3752 41.0256 35.5013 41.0147 35.6219 40.9768L39.2934 39.8277C39.5368 39.7515 39.7432 39.5703 39.8672 39.324C39.9911 39.0778 40.0224 38.7866 39.9543 38.5145C39.8861 38.2424 39.724 38.0117 39.5037 37.8731C39.2834 37.7346 39.0228 37.6996 38.7794 37.7758L35.1079 38.9249Z" fill="#3F3D56"/>
<path d="M38.8861 34.7801L11.7173 43.2832L11.7849 43.5531L38.9538 35.0501L38.8861 34.7801Z" fill="#E6E6E6"/>
<path d="M66.177 71.0718L63.998 71.6606L60.9292 62.5467L64.1452 61.6777L66.177 71.0718Z" fill="#A0616A"/>
<path d="M60.2386 75.143L60.2238 75.0749C60.0511 74.2726 60.1702 73.4264 60.555 72.7221C60.9398 72.0178 61.5588 71.5128 62.2763 71.318L66.5395 70.166L67.2087 73.2597L60.2386 75.143Z" fill="#2F2E41"/>
<path d="M56.5309 72.7312L54.2891 72.7311L53.2227 63.0664L56.5312 63.0665L56.5309 72.7312Z" fill="#A0616A"/>
<path d="M57.0737 75.1283L49.9028 75.1279V75.0578C49.9029 74.2323 50.1963 73.4407 50.7185 72.8569C51.2408 72.2732 51.9491 71.9453 52.6876 71.9453H52.6877L57.0738 71.9455L57.0737 75.1283Z" fill="#2F2E41"/>
<path d="M53.2206 68.9586L51.0439 39.9642L60.0543 38.1078L60.0899 38.1006L62.7272 39.9955L61.8092 50.6662L66.0356 67.3026L62.3863 68.376L58.1532 52.9467L57.1845 48.2547L56.688 54.3516L57.0566 69.3873L53.2206 68.9586Z" fill="#2F2E41"/>
<path d="M50.7651 40.6216L50.7412 40.5878L53.8548 14.3845L53.8589 14.3501L53.8808 14.3256C53.9267 14.2743 55.0176 13.0694 56.1397 13.0694C56.3019 13.0694 56.4561 13.0648 56.6041 13.0606C57.4627 13.0356 58.141 13.0157 58.9471 13.9168C59.7684 14.8347 62.4481 18.1866 62.4481 22.7774C62.4481 27.2209 62.8101 41.0297 62.8138 41.1686L62.8189 41.3636L62.6726 41.2573C62.6365 41.2313 59.0323 38.6662 56.0095 41.0507C55.0649 41.796 54.2163 42.0572 53.4907 42.0572C51.8019 42.0572 50.7795 40.6421 50.7651 40.6216Z" fill="#3F3D56"/>
<path d="M57.8174 10.9073C59.9938 9.57755 60.7937 6.52752 59.604 4.09491C58.4142 1.6623 55.6855 0.76828 53.5091 2.09807C51.3327 3.42785 50.5328 6.47788 51.7225 8.91049C52.9123 11.3431 55.641 12.2371 57.8174 10.9073Z" fill="#A0616A"/>
<path d="M48.7879 46.2532C49.0004 46.0692 49.1742 45.8353 49.2971 45.568C49.4199 45.3008 49.4889 45.0067 49.4991 44.7065C49.5092 44.4062 49.4604 44.1071 49.3559 43.8303C49.2515 43.5534 49.094 43.3055 48.8946 43.104L51.4451 36.3799L48.1056 37.0668L46.1956 43.3469C45.915 43.7438 45.7744 44.2419 45.8004 44.747C45.8265 45.252 46.0173 45.7288 46.3369 46.087C46.6564 46.4453 47.0824 46.6601 47.5341 46.6907C47.9859 46.7213 48.432 46.5656 48.7879 46.2532H48.7879Z" fill="#A0616A"/>
<path d="M46.3242 41.0226L47.1455 39.0846C47.0947 39.0504 47.0529 39.002 47.0242 38.9441C46.2569 37.4577 50.8917 25.1145 51.2006 24.2957C51.1535 23.8505 50.667 19.1318 51.0227 17.5412C51.4415 15.6689 52.3014 14.7963 53.898 14.6234C55.6587 14.4386 56.1338 17.1111 56.1383 17.1383L56.1399 24.0087L54.1192 31.9175L49.5107 42.4255L46.3242 41.0226Z" fill="#3F3D56"/>
<path d="M56.2372 8.39376C55.6989 8.47205 55.2928 7.85637 55.1044 7.28724C54.9161 6.71811 54.7726 6.05553 54.3045 5.7481C53.665 5.32808 52.8468 5.83325 52.1155 5.69467C51.2897 5.53818 50.7527 4.5599 50.7106 3.62483C50.6686 2.68977 51.0015 1.79044 51.3281 0.928322L51.4422 1.99974C51.4269 1.63661 51.4953 1.27518 51.6407 0.950018C51.7862 0.62486 52.0038 0.346849 52.2729 0.142578L52.1259 1.71472C52.218 0.833967 53.0669 0.151502 53.8433 0.334021L53.8202 1.27076C54.774 1.14398 55.7362 1.01703 56.6929 1.11361C57.6495 1.2102 58.6129 1.54852 59.338 2.25274C60.4226 3.30615 60.8187 5.0407 60.6857 6.63983C60.5527 8.23897 59.9621 9.74124 59.3466 11.1924C59.1917 11.5576 58.9775 11.9696 58.6184 12.0161C58.2958 12.0579 58.0005 11.7564 57.9002 11.4111C57.7999 11.0658 57.8488 10.6906 57.9089 10.3338C57.9997 9.79478 58.1141 9.24384 58.0287 8.70373C57.9434 8.16361 57.5958 7.62988 57.1087 7.56368C56.6216 7.49749 56.1231 8.11984 56.3573 8.60181L56.2372 8.39376Z" fill="#2F2E41"/>
<path d="M75.8986 75.1399H43.5796V74.8447H75.9465L75.8986 75.1399Z" fill="#3F3D56"/>
</g>
<defs>
<clipPath id="clip0_341_3915">
<rect width="75" height="75" fill="white" transform="translate(0.946289 0.142578)"/>
</clipPath>
</defs>
</svg>
