<?xml version="1.0" encoding="UTF-8"?><svg id="a" xmlns="http://www.w3.org/2000/svg" viewBox="0 0 33.49 13.93"><defs><style>.b{fill:#006970;}</style></defs><path class="b" d="M32.6,.89l-1.87-.77c-.74-.31-1.59,.04-1.9,.79l-.04,.09c-.02,.06-.04,.12-.05,.18h-.02c-2.2,4.6-6.9,7.5-12,7.5S6.92,5.76,4.72,1.16h-.02c-.01-.05-.03-.1-.05-.15l-.04-.1C4.31,.17,3.46-.18,2.72,.13L.89,.89C.16,1.19-.2,2.04,.11,2.78l.04,.1c.31,.74,1.15,1.09,1.89,.78l.75-.31c.48,.83,1.04,1.6,1.66,2.32l-1.15,1.15c-.59,.59-.59,1.54,0,2.12,.59,.59,1.54,.59,2.12,0l1.17-1.17c.88,.72,1.85,1.34,2.87,1.86l-.44,1.05c-.3,.72,.04,1.55,.76,1.84l.16,.07c.72,.3,1.55-.04,1.84-.76l.46-1.11c.97,.28,1.97,.47,3,.57v1.25c0,.77,.62,1.39,1.39,1.39h.22c.77,0,1.39-.62,1.39-1.39v-1.26c1.03-.1,2.03-.29,2.99-.57l.44,1.07c.31,.75,1.17,1.1,1.91,.79l.07-.03c.75-.31,1.1-1.17,.79-1.91l-.43-1.03c1-.51,1.95-1.12,2.82-1.83l1.17,1.17c.59,.59,1.54,.59,2.12,0,.59-.59,.59-1.54,0-2.12l-1.15-1.15c.62-.73,1.18-1.51,1.67-2.34l.79,.33c.74,.31,1.59-.04,1.9-.79l.04-.09c.31-.74-.04-1.59-.79-1.9Z"/></svg>