<?xml version="1.0" encoding="UTF-8"?><svg id="Layer_1" xmlns="http://www.w3.org/2000/svg" xmlns:xlink="http://www.w3.org/1999/xlink" viewBox="0 0 126 67.45"><defs><style>.cls-1{fill:url(#linear-gradient);}</style><linearGradient id="linear-gradient" x1=".93" y1="32.31" x2="127.11" y2="38.93" gradientTransform="translate(0 68.89) scale(1 -1)" gradientUnits="userSpaceOnUse"><stop offset="0" stop-color="#c3e497"/><stop offset="1" stop-color="#92e1c5"/></linearGradient></defs><path class="cls-1" d="m126,8.94l-.29,18.91c-.02,1.37-1.49,2.18-2.61,1.45l-3.71-2.43-23.01,37.14c-1.33,2.14-3.55,3.43-5.93,3.45h-.05c-2.37,0-4.58-1.25-5.93-3.36l-9.43-14.78c-3.23,4.48-7.73,10.96-10.14,14.44-1.52,2.2-3.94,3.43-6.46,3.29-2.55-.13-4.85-1.63-6.17-4.01-5.45-9.9-19.04-34.6-27.37-50.05-.93-1.73-2.35-2.82-3.9-2.98-1.42-.14-2.81.49-3.9,1.81l-8.54,10.2c-1.75,2.09-4.82,2.32-6.85.53-2.04-1.8-2.26-4.95-.51-7.03L9.71,5.29C12.9,1.49,17.38-.41,21.98.07c4.76.5,8.92,3.44,11.41,8.07,7.55,14,19.43,35.62,25.63,46.88,2.49-3.58,5.75-8.23,8.24-11.71,1.96-2.72,4.9-4.23,8.02-4.14,3.17.09,6.03,1.79,7.86,4.64l7.22,11.31,20.83-33.63-4.2-2.74c-1.11-.73-1.03-2.43.15-3.04l16.38-8.38c1.14-.58,2.48.29,2.46,1.59h0Z"/></svg>